G04 #@! TF.GenerationSoftware,KiCad,Pcbnew,(5.0.0-rc2-47-g52fceb3)*
G04 #@! TF.CreationDate,2018-06-13T16:52:08-05:00*
G04 #@! TF.ProjectId,nearness,6E6561726E6573732E6B696361645F70,rev?*
G04 #@! TF.SameCoordinates,Original*
G04 #@! TF.FileFunction,Legend,Bot*
G04 #@! TF.FilePolarity,Positive*
%FSLAX46Y46*%
G04 Gerber Fmt 4.6, Leading zero omitted, Abs format (unit mm)*
G04 Created by KiCad (PCBNEW (5.0.0-rc2-47-g52fceb3)) date Wednesday, June 13, 2018 at 04:52:08 PM*
%MOMM*%
%LPD*%
G01*
G04 APERTURE LIST*
%ADD10C,0.300000*%
%ADD11C,0.250000*%
%ADD12C,0.125000*%
%ADD13C,0.087500*%
%ADD14C,0.200000*%
%ADD15C,0.120000*%
%ADD16C,0.150000*%
G04 APERTURE END LIST*
D10*
X48633142Y-15664571D02*
X48704571Y-15664571D01*
X48847428Y-15593142D01*
X49061714Y-15378857D01*
X49418857Y-14950285D01*
X49561714Y-14736000D01*
X49633142Y-14521714D01*
X49633142Y-14378857D01*
X49561714Y-14236000D01*
X49418857Y-14164571D01*
X49347428Y-14164571D01*
X49204571Y-14236000D01*
X49133142Y-14378857D01*
X49133142Y-14450285D01*
X49204571Y-14593142D01*
X49276000Y-14664571D01*
X49704571Y-14950285D01*
X49776000Y-15021714D01*
X49847428Y-15164571D01*
X49847428Y-15378857D01*
X49776000Y-15521714D01*
X49704571Y-15593142D01*
X49561714Y-15664571D01*
X49347428Y-15664571D01*
X49204571Y-15593142D01*
X49133142Y-15521714D01*
X48918857Y-15236000D01*
X48847428Y-15021714D01*
X48847428Y-14878857D01*
X49041085Y-16745828D02*
X49326800Y-16531542D01*
X49612514Y-16745828D01*
D11*
X47994985Y-68092628D02*
X47233081Y-68092628D01*
X46328319Y-67473580D02*
X46518795Y-67473580D01*
X46614033Y-67521200D01*
X46661652Y-67568819D01*
X46756890Y-67711676D01*
X46804509Y-67902152D01*
X46804509Y-68283104D01*
X46756890Y-68378342D01*
X46709271Y-68425961D01*
X46614033Y-68473580D01*
X46423557Y-68473580D01*
X46328319Y-68425961D01*
X46280700Y-68378342D01*
X46233081Y-68283104D01*
X46233081Y-68045009D01*
X46280700Y-67949771D01*
X46328319Y-67902152D01*
X46423557Y-67854533D01*
X46614033Y-67854533D01*
X46709271Y-67902152D01*
X46756890Y-67949771D01*
X46804509Y-68045009D01*
X45375938Y-68473580D02*
X45375938Y-67473580D01*
X45375938Y-68425961D02*
X45471176Y-68473580D01*
X45661652Y-68473580D01*
X45756890Y-68425961D01*
X45804509Y-68378342D01*
X45852128Y-68283104D01*
X45852128Y-67997390D01*
X45804509Y-67902152D01*
X45756890Y-67854533D01*
X45661652Y-67806914D01*
X45471176Y-67806914D01*
X45375938Y-67854533D01*
X44899747Y-68473580D02*
X44899747Y-67473580D01*
X44899747Y-67854533D02*
X44804509Y-67806914D01*
X44614033Y-67806914D01*
X44518795Y-67854533D01*
X44471176Y-67902152D01*
X44423557Y-67997390D01*
X44423557Y-68283104D01*
X44471176Y-68378342D01*
X44518795Y-68425961D01*
X44614033Y-68473580D01*
X44804509Y-68473580D01*
X44899747Y-68425961D01*
D12*
X43579942Y-59725714D02*
X43198990Y-59725714D01*
X42698990Y-59916190D02*
X42984704Y-59916190D01*
X42841847Y-59916190D02*
X42841847Y-59416190D01*
X42889466Y-59487619D01*
X42937085Y-59535238D01*
X42984704Y-59559047D01*
X42508514Y-59463809D02*
X42484704Y-59440000D01*
X42437085Y-59416190D01*
X42318038Y-59416190D01*
X42270419Y-59440000D01*
X42246609Y-59463809D01*
X42222800Y-59511428D01*
X42222800Y-59559047D01*
X42246609Y-59630476D01*
X42532323Y-59916190D01*
X42222800Y-59916190D01*
X42056133Y-59582857D02*
X41937085Y-59916190D01*
X41818038Y-59582857D01*
D13*
X48983383Y-39531866D02*
X48966716Y-39565200D01*
X48966716Y-39631866D01*
X48983383Y-39665200D01*
X49000050Y-39681866D01*
X49033383Y-39698533D01*
X49133383Y-39698533D01*
X49166716Y-39681866D01*
X49183383Y-39665200D01*
X49200050Y-39631866D01*
X49200050Y-39565200D01*
X49183383Y-39531866D01*
X48966716Y-39331866D02*
X48983383Y-39365200D01*
X49000050Y-39381866D01*
X49033383Y-39398533D01*
X49133383Y-39398533D01*
X49166716Y-39381866D01*
X49183383Y-39365200D01*
X49200050Y-39331866D01*
X49200050Y-39281866D01*
X49183383Y-39248533D01*
X49166716Y-39231866D01*
X49133383Y-39215200D01*
X49033383Y-39215200D01*
X49000050Y-39231866D01*
X48983383Y-39248533D01*
X48966716Y-39281866D01*
X48966716Y-39331866D01*
X49200050Y-39098533D02*
X48966716Y-39015200D01*
X49200050Y-38931866D01*
X48983383Y-38665200D02*
X48966716Y-38698533D01*
X48966716Y-38765200D01*
X48983383Y-38798533D01*
X49016716Y-38815200D01*
X49150050Y-38815200D01*
X49183383Y-38798533D01*
X49200050Y-38765200D01*
X49200050Y-38698533D01*
X49183383Y-38665200D01*
X49150050Y-38648533D01*
X49116716Y-38648533D01*
X49083383Y-38815200D01*
X48966716Y-38498533D02*
X49200050Y-38498533D01*
X49133383Y-38498533D02*
X49166716Y-38481866D01*
X49183383Y-38465200D01*
X49200050Y-38431866D01*
X49200050Y-38398533D01*
X48587550Y-39398533D02*
X48587550Y-39265200D01*
X48354216Y-39348533D02*
X48654216Y-39348533D01*
X48687550Y-39331866D01*
X48704216Y-39298533D01*
X48704216Y-39265200D01*
X48354216Y-39098533D02*
X48370883Y-39131866D01*
X48387550Y-39148533D01*
X48420883Y-39165200D01*
X48520883Y-39165200D01*
X48554216Y-39148533D01*
X48570883Y-39131866D01*
X48587550Y-39098533D01*
X48587550Y-39048533D01*
X48570883Y-39015200D01*
X48554216Y-38998533D01*
X48520883Y-38981866D01*
X48420883Y-38981866D01*
X48387550Y-38998533D01*
X48370883Y-39015200D01*
X48354216Y-39048533D01*
X48354216Y-39098533D01*
X48354216Y-38831866D02*
X48587550Y-38831866D01*
X48520883Y-38831866D02*
X48554216Y-38815200D01*
X48570883Y-38798533D01*
X48587550Y-38765200D01*
X48587550Y-38731866D01*
D11*
X47532704Y-39136628D02*
X46770800Y-39136628D01*
X45866038Y-38517580D02*
X46056514Y-38517580D01*
X46151752Y-38565200D01*
X46199371Y-38612819D01*
X46294609Y-38755676D01*
X46342228Y-38946152D01*
X46342228Y-39327104D01*
X46294609Y-39422342D01*
X46246990Y-39469961D01*
X46151752Y-39517580D01*
X45961276Y-39517580D01*
X45866038Y-39469961D01*
X45818419Y-39422342D01*
X45770800Y-39327104D01*
X45770800Y-39089009D01*
X45818419Y-38993771D01*
X45866038Y-38946152D01*
X45961276Y-38898533D01*
X46151752Y-38898533D01*
X46246990Y-38946152D01*
X46294609Y-38993771D01*
X46342228Y-39089009D01*
X44913657Y-39517580D02*
X44913657Y-38517580D01*
X44913657Y-39469961D02*
X45008895Y-39517580D01*
X45199371Y-39517580D01*
X45294609Y-39469961D01*
X45342228Y-39422342D01*
X45389847Y-39327104D01*
X45389847Y-39041390D01*
X45342228Y-38946152D01*
X45294609Y-38898533D01*
X45199371Y-38850914D01*
X45008895Y-38850914D01*
X44913657Y-38898533D01*
X44437466Y-39517580D02*
X44437466Y-38517580D01*
X44437466Y-38898533D02*
X44342228Y-38850914D01*
X44151752Y-38850914D01*
X44056514Y-38898533D01*
X44008895Y-38946152D01*
X43961276Y-39041390D01*
X43961276Y-39327104D01*
X44008895Y-39422342D01*
X44056514Y-39469961D01*
X44151752Y-39517580D01*
X44342228Y-39517580D01*
X44437466Y-39469961D01*
D12*
X47159057Y-19788857D02*
X47194771Y-19824571D01*
X47301914Y-19860285D01*
X47373342Y-19860285D01*
X47480485Y-19824571D01*
X47551914Y-19753142D01*
X47587628Y-19681714D01*
X47623342Y-19538857D01*
X47623342Y-19431714D01*
X47587628Y-19288857D01*
X47551914Y-19217428D01*
X47480485Y-19146000D01*
X47373342Y-19110285D01*
X47301914Y-19110285D01*
X47194771Y-19146000D01*
X47159057Y-19181714D01*
X46409057Y-19788857D02*
X46444771Y-19824571D01*
X46551914Y-19860285D01*
X46623342Y-19860285D01*
X46730485Y-19824571D01*
X46801914Y-19753142D01*
X46837628Y-19681714D01*
X46873342Y-19538857D01*
X46873342Y-19431714D01*
X46837628Y-19288857D01*
X46801914Y-19217428D01*
X46730485Y-19146000D01*
X46623342Y-19110285D01*
X46551914Y-19110285D01*
X46444771Y-19146000D01*
X46409057Y-19181714D01*
X45266200Y-19467428D02*
X45159057Y-19503142D01*
X45123342Y-19538857D01*
X45087628Y-19610285D01*
X45087628Y-19717428D01*
X45123342Y-19788857D01*
X45159057Y-19824571D01*
X45230485Y-19860285D01*
X45516200Y-19860285D01*
X45516200Y-19110285D01*
X45266200Y-19110285D01*
X45194771Y-19146000D01*
X45159057Y-19181714D01*
X45123342Y-19253142D01*
X45123342Y-19324571D01*
X45159057Y-19396000D01*
X45194771Y-19431714D01*
X45266200Y-19467428D01*
X45516200Y-19467428D01*
X44623342Y-19503142D02*
X44623342Y-19860285D01*
X44873342Y-19110285D02*
X44623342Y-19503142D01*
X44373342Y-19110285D01*
X43587628Y-19824571D02*
X43480485Y-19860285D01*
X43301914Y-19860285D01*
X43230485Y-19824571D01*
X43194771Y-19788857D01*
X43159057Y-19717428D01*
X43159057Y-19646000D01*
X43194771Y-19574571D01*
X43230485Y-19538857D01*
X43301914Y-19503142D01*
X43444771Y-19467428D01*
X43516200Y-19431714D01*
X43551914Y-19396000D01*
X43587628Y-19324571D01*
X43587628Y-19253142D01*
X43551914Y-19181714D01*
X43516200Y-19146000D01*
X43444771Y-19110285D01*
X43266200Y-19110285D01*
X43159057Y-19146000D01*
X42873342Y-19646000D02*
X42516200Y-19646000D01*
X42944771Y-19860285D02*
X42694771Y-19110285D01*
X42444771Y-19860285D01*
X41301914Y-19360285D02*
X41301914Y-19860285D01*
X41480485Y-19074571D02*
X41659057Y-19610285D01*
X41194771Y-19610285D01*
X40909057Y-19788857D02*
X40873342Y-19824571D01*
X40909057Y-19860285D01*
X40944771Y-19824571D01*
X40909057Y-19788857D01*
X40909057Y-19860285D01*
X40409057Y-19110285D02*
X40337628Y-19110285D01*
X40266200Y-19146000D01*
X40230485Y-19181714D01*
X40194771Y-19253142D01*
X40159057Y-19396000D01*
X40159057Y-19574571D01*
X40194771Y-19717428D01*
X40230485Y-19788857D01*
X40266200Y-19824571D01*
X40337628Y-19860285D01*
X40409057Y-19860285D01*
X40480485Y-19824571D01*
X40516200Y-19788857D01*
X40551914Y-19717428D01*
X40587628Y-19574571D01*
X40587628Y-19396000D01*
X40551914Y-19253142D01*
X40516200Y-19181714D01*
X40480485Y-19146000D01*
X40409057Y-19110285D01*
X49069771Y-21610285D02*
X48926914Y-21610285D01*
X48855485Y-21646000D01*
X48784057Y-21717428D01*
X48748342Y-21860285D01*
X48748342Y-22110285D01*
X48784057Y-22253142D01*
X48855485Y-22324571D01*
X48926914Y-22360285D01*
X49069771Y-22360285D01*
X49141200Y-22324571D01*
X49212628Y-22253142D01*
X49248342Y-22110285D01*
X49248342Y-21860285D01*
X49212628Y-21717428D01*
X49141200Y-21646000D01*
X49069771Y-21610285D01*
X48426914Y-22360285D02*
X48426914Y-21860285D01*
X48426914Y-22003142D02*
X48391200Y-21931714D01*
X48355485Y-21896000D01*
X48284057Y-21860285D01*
X48212628Y-21860285D01*
X47962628Y-22360285D02*
X47962628Y-21860285D01*
X47962628Y-21610285D02*
X47998342Y-21646000D01*
X47962628Y-21681714D01*
X47926914Y-21646000D01*
X47962628Y-21610285D01*
X47962628Y-21681714D01*
X47284057Y-21860285D02*
X47284057Y-22467428D01*
X47319771Y-22538857D01*
X47355485Y-22574571D01*
X47426914Y-22610285D01*
X47534057Y-22610285D01*
X47605485Y-22574571D01*
X47284057Y-22324571D02*
X47355485Y-22360285D01*
X47498342Y-22360285D01*
X47569771Y-22324571D01*
X47605485Y-22288857D01*
X47641200Y-22217428D01*
X47641200Y-22003142D01*
X47605485Y-21931714D01*
X47569771Y-21896000D01*
X47498342Y-21860285D01*
X47355485Y-21860285D01*
X47284057Y-21896000D01*
X46926914Y-22360285D02*
X46926914Y-21860285D01*
X46926914Y-21610285D02*
X46962628Y-21646000D01*
X46926914Y-21681714D01*
X46891200Y-21646000D01*
X46926914Y-21610285D01*
X46926914Y-21681714D01*
X46569771Y-21860285D02*
X46569771Y-22360285D01*
X46569771Y-21931714D02*
X46534057Y-21896000D01*
X46462628Y-21860285D01*
X46355485Y-21860285D01*
X46284057Y-21896000D01*
X46248342Y-21967428D01*
X46248342Y-22360285D01*
X45569771Y-22360285D02*
X45569771Y-21967428D01*
X45605485Y-21896000D01*
X45676914Y-21860285D01*
X45819771Y-21860285D01*
X45891200Y-21896000D01*
X45569771Y-22324571D02*
X45641200Y-22360285D01*
X45819771Y-22360285D01*
X45891200Y-22324571D01*
X45926914Y-22253142D01*
X45926914Y-22181714D01*
X45891200Y-22110285D01*
X45819771Y-22074571D01*
X45641200Y-22074571D01*
X45569771Y-22038857D01*
X45105485Y-22360285D02*
X45176914Y-22324571D01*
X45212628Y-22253142D01*
X45212628Y-21610285D01*
X44248342Y-22360285D02*
X44248342Y-21610285D01*
X43819771Y-22360285D01*
X43819771Y-21610285D01*
X43176914Y-22324571D02*
X43248342Y-22360285D01*
X43391200Y-22360285D01*
X43462628Y-22324571D01*
X43498342Y-22253142D01*
X43498342Y-21967428D01*
X43462628Y-21896000D01*
X43391200Y-21860285D01*
X43248342Y-21860285D01*
X43176914Y-21896000D01*
X43141200Y-21967428D01*
X43141200Y-22038857D01*
X43498342Y-22110285D01*
X42498342Y-22360285D02*
X42498342Y-21967428D01*
X42534057Y-21896000D01*
X42605485Y-21860285D01*
X42748342Y-21860285D01*
X42819771Y-21896000D01*
X42498342Y-22324571D02*
X42569771Y-22360285D01*
X42748342Y-22360285D01*
X42819771Y-22324571D01*
X42855485Y-22253142D01*
X42855485Y-22181714D01*
X42819771Y-22110285D01*
X42748342Y-22074571D01*
X42569771Y-22074571D01*
X42498342Y-22038857D01*
X42141200Y-22360285D02*
X42141200Y-21860285D01*
X42141200Y-22003142D02*
X42105485Y-21931714D01*
X42069771Y-21896000D01*
X41998342Y-21860285D01*
X41926914Y-21860285D01*
X41676914Y-21860285D02*
X41676914Y-22360285D01*
X41676914Y-21931714D02*
X41641200Y-21896000D01*
X41569771Y-21860285D01*
X41462628Y-21860285D01*
X41391200Y-21896000D01*
X41355485Y-21967428D01*
X41355485Y-22360285D01*
X40712628Y-22324571D02*
X40784057Y-22360285D01*
X40926914Y-22360285D01*
X40998342Y-22324571D01*
X41034057Y-22253142D01*
X41034057Y-21967428D01*
X40998342Y-21896000D01*
X40926914Y-21860285D01*
X40784057Y-21860285D01*
X40712628Y-21896000D01*
X40676914Y-21967428D01*
X40676914Y-22038857D01*
X41034057Y-22110285D01*
X40391200Y-22324571D02*
X40319771Y-22360285D01*
X40176914Y-22360285D01*
X40105485Y-22324571D01*
X40069771Y-22253142D01*
X40069771Y-22217428D01*
X40105485Y-22146000D01*
X40176914Y-22110285D01*
X40284057Y-22110285D01*
X40355485Y-22074571D01*
X40391200Y-22003142D01*
X40391200Y-21967428D01*
X40355485Y-21896000D01*
X40284057Y-21860285D01*
X40176914Y-21860285D01*
X40105485Y-21896000D01*
X39784057Y-22324571D02*
X39712628Y-22360285D01*
X39569771Y-22360285D01*
X39498342Y-22324571D01*
X39462628Y-22253142D01*
X39462628Y-22217428D01*
X39498342Y-22146000D01*
X39569771Y-22110285D01*
X39676914Y-22110285D01*
X39748342Y-22074571D01*
X39784057Y-22003142D01*
X39784057Y-21967428D01*
X39748342Y-21896000D01*
X39676914Y-21860285D01*
X39569771Y-21860285D01*
X39498342Y-21896000D01*
X39141200Y-22288857D02*
X39105485Y-22324571D01*
X39141200Y-22360285D01*
X39176914Y-22324571D01*
X39141200Y-22288857D01*
X39141200Y-22360285D01*
X39141200Y-21896000D02*
X39105485Y-21931714D01*
X39141200Y-21967428D01*
X39176914Y-21931714D01*
X39141200Y-21896000D01*
X39141200Y-21967428D01*
X47998342Y-22860285D02*
X47998342Y-23396000D01*
X48034057Y-23503142D01*
X48105485Y-23574571D01*
X48212628Y-23610285D01*
X48284057Y-23610285D01*
X47355485Y-23574571D02*
X47426914Y-23610285D01*
X47569771Y-23610285D01*
X47641200Y-23574571D01*
X47676914Y-23503142D01*
X47676914Y-23217428D01*
X47641200Y-23146000D01*
X47569771Y-23110285D01*
X47426914Y-23110285D01*
X47355485Y-23146000D01*
X47319771Y-23217428D01*
X47319771Y-23288857D01*
X47676914Y-23360285D01*
X47034057Y-23574571D02*
X46962628Y-23610285D01*
X46819771Y-23610285D01*
X46748342Y-23574571D01*
X46712628Y-23503142D01*
X46712628Y-23467428D01*
X46748342Y-23396000D01*
X46819771Y-23360285D01*
X46926914Y-23360285D01*
X46998342Y-23324571D01*
X47034057Y-23253142D01*
X47034057Y-23217428D01*
X46998342Y-23146000D01*
X46926914Y-23110285D01*
X46819771Y-23110285D01*
X46748342Y-23146000D01*
X46391200Y-23110285D02*
X46391200Y-23860285D01*
X46391200Y-23146000D02*
X46319771Y-23110285D01*
X46176914Y-23110285D01*
X46105485Y-23146000D01*
X46069771Y-23181714D01*
X46034057Y-23253142D01*
X46034057Y-23467428D01*
X46069771Y-23538857D01*
X46105485Y-23574571D01*
X46176914Y-23610285D01*
X46319771Y-23610285D01*
X46391200Y-23574571D01*
X45426914Y-23574571D02*
X45498342Y-23610285D01*
X45641200Y-23610285D01*
X45712628Y-23574571D01*
X45748342Y-23503142D01*
X45748342Y-23217428D01*
X45712628Y-23146000D01*
X45641200Y-23110285D01*
X45498342Y-23110285D01*
X45426914Y-23146000D01*
X45391200Y-23217428D01*
X45391200Y-23288857D01*
X45748342Y-23360285D01*
X45069771Y-23610285D02*
X45069771Y-23110285D01*
X45069771Y-23253142D02*
X45034057Y-23181714D01*
X44998342Y-23146000D01*
X44926914Y-23110285D01*
X44855485Y-23110285D01*
X44069771Y-23574571D02*
X43962628Y-23610285D01*
X43784057Y-23610285D01*
X43712628Y-23574571D01*
X43676914Y-23538857D01*
X43641200Y-23467428D01*
X43641200Y-23396000D01*
X43676914Y-23324571D01*
X43712628Y-23288857D01*
X43784057Y-23253142D01*
X43926914Y-23217428D01*
X43998342Y-23181714D01*
X44034057Y-23146000D01*
X44069771Y-23074571D01*
X44069771Y-23003142D01*
X44034057Y-22931714D01*
X43998342Y-22896000D01*
X43926914Y-22860285D01*
X43748342Y-22860285D01*
X43641200Y-22896000D01*
X42998342Y-23610285D02*
X42998342Y-23217428D01*
X43034057Y-23146000D01*
X43105485Y-23110285D01*
X43248342Y-23110285D01*
X43319771Y-23146000D01*
X42998342Y-23574571D02*
X43069771Y-23610285D01*
X43248342Y-23610285D01*
X43319771Y-23574571D01*
X43355485Y-23503142D01*
X43355485Y-23431714D01*
X43319771Y-23360285D01*
X43248342Y-23324571D01*
X43069771Y-23324571D01*
X42998342Y-23288857D01*
X43319771Y-22860285D02*
X43284057Y-22896000D01*
X43319771Y-22931714D01*
X43355485Y-22896000D01*
X43319771Y-22860285D01*
X43319771Y-22931714D01*
X43034057Y-22860285D02*
X42998342Y-22896000D01*
X43034057Y-22931714D01*
X43069771Y-22896000D01*
X43034057Y-22860285D01*
X43034057Y-22931714D01*
X42641200Y-23610285D02*
X42641200Y-23110285D01*
X42641200Y-23253142D02*
X42605485Y-23181714D01*
X42569771Y-23146000D01*
X42498342Y-23110285D01*
X42426914Y-23110285D01*
X42176914Y-23110285D02*
X42176914Y-23610285D01*
X42176914Y-23181714D02*
X42141200Y-23146000D01*
X42069771Y-23110285D01*
X41962628Y-23110285D01*
X41891200Y-23146000D01*
X41855485Y-23217428D01*
X41855485Y-23610285D01*
X41212628Y-23574571D02*
X41284057Y-23610285D01*
X41426914Y-23610285D01*
X41498342Y-23574571D01*
X41534057Y-23503142D01*
X41534057Y-23217428D01*
X41498342Y-23146000D01*
X41426914Y-23110285D01*
X41284057Y-23110285D01*
X41212628Y-23146000D01*
X41176914Y-23217428D01*
X41176914Y-23288857D01*
X41534057Y-23360285D01*
X40891200Y-23574571D02*
X40819771Y-23610285D01*
X40676914Y-23610285D01*
X40605485Y-23574571D01*
X40569771Y-23503142D01*
X40569771Y-23467428D01*
X40605485Y-23396000D01*
X40676914Y-23360285D01*
X40784057Y-23360285D01*
X40855485Y-23324571D01*
X40891200Y-23253142D01*
X40891200Y-23217428D01*
X40855485Y-23146000D01*
X40784057Y-23110285D01*
X40676914Y-23110285D01*
X40605485Y-23146000D01*
X40248342Y-23110285D02*
X40248342Y-23753142D01*
X40284057Y-23824571D01*
X40355485Y-23860285D01*
X40391200Y-23860285D01*
X40248342Y-22860285D02*
X40284057Y-22896000D01*
X40248342Y-22931714D01*
X40212628Y-22896000D01*
X40248342Y-22860285D01*
X40248342Y-22931714D01*
X39784057Y-23610285D02*
X39855485Y-23574571D01*
X39891200Y-23538857D01*
X39926914Y-23467428D01*
X39926914Y-23253142D01*
X39891200Y-23181714D01*
X39855485Y-23146000D01*
X39784057Y-23110285D01*
X39676914Y-23110285D01*
X39605485Y-23146000D01*
X39569771Y-23181714D01*
X39534057Y-23253142D01*
X39534057Y-23467428D01*
X39569771Y-23538857D01*
X39605485Y-23574571D01*
X39676914Y-23610285D01*
X39784057Y-23610285D01*
X39855485Y-22860285D02*
X39819771Y-22896000D01*
X39855485Y-22931714D01*
X39891200Y-22896000D01*
X39855485Y-22860285D01*
X39855485Y-22931714D01*
X39569771Y-22860285D02*
X39534057Y-22896000D01*
X39569771Y-22931714D01*
X39605485Y-22896000D01*
X39569771Y-22860285D01*
X39569771Y-22931714D01*
X46266200Y-26110285D02*
X46266200Y-25360285D01*
X45837628Y-26110285D01*
X45837628Y-25360285D01*
X45194771Y-26074571D02*
X45266200Y-26110285D01*
X45409057Y-26110285D01*
X45480485Y-26074571D01*
X45516200Y-26003142D01*
X45516200Y-25717428D01*
X45480485Y-25646000D01*
X45409057Y-25610285D01*
X45266200Y-25610285D01*
X45194771Y-25646000D01*
X45159057Y-25717428D01*
X45159057Y-25788857D01*
X45516200Y-25860285D01*
X44516200Y-26110285D02*
X44516200Y-25717428D01*
X44551914Y-25646000D01*
X44623342Y-25610285D01*
X44766200Y-25610285D01*
X44837628Y-25646000D01*
X44516200Y-26074571D02*
X44587628Y-26110285D01*
X44766200Y-26110285D01*
X44837628Y-26074571D01*
X44873342Y-26003142D01*
X44873342Y-25931714D01*
X44837628Y-25860285D01*
X44766200Y-25824571D01*
X44587628Y-25824571D01*
X44516200Y-25788857D01*
X44159057Y-26110285D02*
X44159057Y-25610285D01*
X44159057Y-25753142D02*
X44123342Y-25681714D01*
X44087628Y-25646000D01*
X44016200Y-25610285D01*
X43944771Y-25610285D01*
X43694771Y-25610285D02*
X43694771Y-26110285D01*
X43694771Y-25681714D02*
X43659057Y-25646000D01*
X43587628Y-25610285D01*
X43480485Y-25610285D01*
X43409057Y-25646000D01*
X43373342Y-25717428D01*
X43373342Y-26110285D01*
X42730485Y-26074571D02*
X42801914Y-26110285D01*
X42944771Y-26110285D01*
X43016200Y-26074571D01*
X43051914Y-26003142D01*
X43051914Y-25717428D01*
X43016200Y-25646000D01*
X42944771Y-25610285D01*
X42801914Y-25610285D01*
X42730485Y-25646000D01*
X42694771Y-25717428D01*
X42694771Y-25788857D01*
X43051914Y-25860285D01*
X42409057Y-26074571D02*
X42337628Y-26110285D01*
X42194771Y-26110285D01*
X42123342Y-26074571D01*
X42087628Y-26003142D01*
X42087628Y-25967428D01*
X42123342Y-25896000D01*
X42194771Y-25860285D01*
X42301914Y-25860285D01*
X42373342Y-25824571D01*
X42409057Y-25753142D01*
X42409057Y-25717428D01*
X42373342Y-25646000D01*
X42301914Y-25610285D01*
X42194771Y-25610285D01*
X42123342Y-25646000D01*
X41801914Y-26074571D02*
X41730485Y-26110285D01*
X41587628Y-26110285D01*
X41516200Y-26074571D01*
X41480485Y-26003142D01*
X41480485Y-25967428D01*
X41516200Y-25896000D01*
X41587628Y-25860285D01*
X41694771Y-25860285D01*
X41766200Y-25824571D01*
X41801914Y-25753142D01*
X41801914Y-25717428D01*
X41766200Y-25646000D01*
X41694771Y-25610285D01*
X41587628Y-25610285D01*
X41516200Y-25646000D01*
X47051914Y-26967428D02*
X46801914Y-26967428D01*
X46694771Y-27360285D02*
X47051914Y-27360285D01*
X47051914Y-26610285D01*
X46694771Y-26610285D01*
X46051914Y-27360285D02*
X46051914Y-26967428D01*
X46087628Y-26896000D01*
X46159057Y-26860285D01*
X46301914Y-26860285D01*
X46373342Y-26896000D01*
X46051914Y-27324571D02*
X46123342Y-27360285D01*
X46301914Y-27360285D01*
X46373342Y-27324571D01*
X46409057Y-27253142D01*
X46409057Y-27181714D01*
X46373342Y-27110285D01*
X46301914Y-27074571D01*
X46123342Y-27074571D01*
X46051914Y-27038857D01*
X45730485Y-27324571D02*
X45659057Y-27360285D01*
X45516200Y-27360285D01*
X45444771Y-27324571D01*
X45409057Y-27253142D01*
X45409057Y-27217428D01*
X45444771Y-27146000D01*
X45516200Y-27110285D01*
X45623342Y-27110285D01*
X45694771Y-27074571D01*
X45730485Y-27003142D01*
X45730485Y-26967428D01*
X45694771Y-26896000D01*
X45623342Y-26860285D01*
X45516200Y-26860285D01*
X45444771Y-26896000D01*
X45159057Y-26860285D02*
X44980485Y-27360285D01*
X44801914Y-26860285D02*
X44980485Y-27360285D01*
X45051914Y-27538857D01*
X45087628Y-27574571D01*
X45159057Y-27610285D01*
X43980485Y-27324571D02*
X43873342Y-27360285D01*
X43694771Y-27360285D01*
X43623342Y-27324571D01*
X43587628Y-27288857D01*
X43551914Y-27217428D01*
X43551914Y-27146000D01*
X43587628Y-27074571D01*
X43623342Y-27038857D01*
X43694771Y-27003142D01*
X43837628Y-26967428D01*
X43909057Y-26931714D01*
X43944771Y-26896000D01*
X43980485Y-26824571D01*
X43980485Y-26753142D01*
X43944771Y-26681714D01*
X43909057Y-26646000D01*
X43837628Y-26610285D01*
X43659057Y-26610285D01*
X43551914Y-26646000D01*
X43123342Y-27360285D02*
X43194771Y-27324571D01*
X43230485Y-27288857D01*
X43266200Y-27217428D01*
X43266200Y-27003142D01*
X43230485Y-26931714D01*
X43194771Y-26896000D01*
X43123342Y-26860285D01*
X43016200Y-26860285D01*
X42944771Y-26896000D01*
X42909057Y-26931714D01*
X42873342Y-27003142D01*
X42873342Y-27217428D01*
X42909057Y-27288857D01*
X42944771Y-27324571D01*
X43016200Y-27360285D01*
X43123342Y-27360285D01*
X42444771Y-27360285D02*
X42516200Y-27324571D01*
X42551914Y-27253142D01*
X42551914Y-26610285D01*
X41837628Y-27360285D02*
X41837628Y-26610285D01*
X41837628Y-27324571D02*
X41909057Y-27360285D01*
X42051914Y-27360285D01*
X42123342Y-27324571D01*
X42159057Y-27288857D01*
X42194771Y-27217428D01*
X42194771Y-27003142D01*
X42159057Y-26931714D01*
X42123342Y-26896000D01*
X42051914Y-26860285D01*
X41909057Y-26860285D01*
X41837628Y-26896000D01*
X41194771Y-27324571D02*
X41266200Y-27360285D01*
X41409057Y-27360285D01*
X41480485Y-27324571D01*
X41516200Y-27253142D01*
X41516200Y-26967428D01*
X41480485Y-26896000D01*
X41409057Y-26860285D01*
X41266200Y-26860285D01*
X41194771Y-26896000D01*
X41159057Y-26967428D01*
X41159057Y-27038857D01*
X41516200Y-27110285D01*
X40837628Y-27360285D02*
X40837628Y-26860285D01*
X40837628Y-27003142D02*
X40801914Y-26931714D01*
X40766200Y-26896000D01*
X40694771Y-26860285D01*
X40623342Y-26860285D01*
X46284057Y-28217428D02*
X46176914Y-28253142D01*
X46141200Y-28288857D01*
X46105485Y-28360285D01*
X46105485Y-28467428D01*
X46141200Y-28538857D01*
X46176914Y-28574571D01*
X46248342Y-28610285D01*
X46534057Y-28610285D01*
X46534057Y-27860285D01*
X46284057Y-27860285D01*
X46212628Y-27896000D01*
X46176914Y-27931714D01*
X46141200Y-28003142D01*
X46141200Y-28074571D01*
X46176914Y-28146000D01*
X46212628Y-28181714D01*
X46284057Y-28217428D01*
X46534057Y-28217428D01*
X45462628Y-28610285D02*
X45462628Y-28217428D01*
X45498342Y-28146000D01*
X45569771Y-28110285D01*
X45712628Y-28110285D01*
X45784057Y-28146000D01*
X45462628Y-28574571D02*
X45534057Y-28610285D01*
X45712628Y-28610285D01*
X45784057Y-28574571D01*
X45819771Y-28503142D01*
X45819771Y-28431714D01*
X45784057Y-28360285D01*
X45712628Y-28324571D01*
X45534057Y-28324571D01*
X45462628Y-28288857D01*
X44784057Y-28574571D02*
X44855485Y-28610285D01*
X44998342Y-28610285D01*
X45069771Y-28574571D01*
X45105485Y-28538857D01*
X45141200Y-28467428D01*
X45141200Y-28253142D01*
X45105485Y-28181714D01*
X45069771Y-28146000D01*
X44998342Y-28110285D01*
X44855485Y-28110285D01*
X44784057Y-28146000D01*
X44462628Y-28610285D02*
X44462628Y-27860285D01*
X44391200Y-28324571D02*
X44176914Y-28610285D01*
X44176914Y-28110285D02*
X44462628Y-28396000D01*
X43855485Y-28110285D02*
X43855485Y-28860285D01*
X43855485Y-28146000D02*
X43784057Y-28110285D01*
X43641200Y-28110285D01*
X43569771Y-28146000D01*
X43534057Y-28181714D01*
X43498342Y-28253142D01*
X43498342Y-28467428D01*
X43534057Y-28538857D01*
X43569771Y-28574571D01*
X43641200Y-28610285D01*
X43784057Y-28610285D01*
X43855485Y-28574571D01*
X42855485Y-28610285D02*
X42855485Y-28217428D01*
X42891200Y-28146000D01*
X42962628Y-28110285D01*
X43105485Y-28110285D01*
X43176914Y-28146000D01*
X42855485Y-28574571D02*
X42926914Y-28610285D01*
X43105485Y-28610285D01*
X43176914Y-28574571D01*
X43212628Y-28503142D01*
X43212628Y-28431714D01*
X43176914Y-28360285D01*
X43105485Y-28324571D01*
X42926914Y-28324571D01*
X42855485Y-28288857D01*
X42176914Y-28574571D02*
X42248342Y-28610285D01*
X42391200Y-28610285D01*
X42462628Y-28574571D01*
X42498342Y-28538857D01*
X42534057Y-28467428D01*
X42534057Y-28253142D01*
X42498342Y-28181714D01*
X42462628Y-28146000D01*
X42391200Y-28110285D01*
X42248342Y-28110285D01*
X42176914Y-28146000D01*
X41855485Y-28610285D02*
X41855485Y-27860285D01*
X41784057Y-28324571D02*
X41569771Y-28610285D01*
X41569771Y-28110285D02*
X41855485Y-28396000D01*
X41248342Y-28538857D02*
X41212628Y-28574571D01*
X41248342Y-28610285D01*
X41284057Y-28574571D01*
X41248342Y-28538857D01*
X41248342Y-28610285D01*
X41248342Y-28146000D02*
X41212628Y-28181714D01*
X41248342Y-28217428D01*
X41284057Y-28181714D01*
X41248342Y-28146000D01*
X41248342Y-28217428D01*
X46444771Y-29467428D02*
X46337628Y-29503142D01*
X46301914Y-29538857D01*
X46266200Y-29610285D01*
X46266200Y-29717428D01*
X46301914Y-29788857D01*
X46337628Y-29824571D01*
X46409057Y-29860285D01*
X46694771Y-29860285D01*
X46694771Y-29110285D01*
X46444771Y-29110285D01*
X46373342Y-29146000D01*
X46337628Y-29181714D01*
X46301914Y-29253142D01*
X46301914Y-29324571D01*
X46337628Y-29396000D01*
X46373342Y-29431714D01*
X46444771Y-29467428D01*
X46694771Y-29467428D01*
X45659057Y-29824571D02*
X45730485Y-29860285D01*
X45873342Y-29860285D01*
X45944771Y-29824571D01*
X45980485Y-29753142D01*
X45980485Y-29467428D01*
X45944771Y-29396000D01*
X45873342Y-29360285D01*
X45730485Y-29360285D01*
X45659057Y-29396000D01*
X45623342Y-29467428D01*
X45623342Y-29538857D01*
X45980485Y-29610285D01*
X45301914Y-29360285D02*
X45301914Y-29860285D01*
X45301914Y-29431714D02*
X45266200Y-29396000D01*
X45194771Y-29360285D01*
X45087628Y-29360285D01*
X45016200Y-29396000D01*
X44980485Y-29467428D01*
X44980485Y-29860285D01*
X44051914Y-29860285D02*
X44051914Y-29110285D01*
X43801914Y-29646000D01*
X43551914Y-29110285D01*
X43551914Y-29860285D01*
X43087628Y-29860285D02*
X43159057Y-29824571D01*
X43194771Y-29788857D01*
X43230485Y-29717428D01*
X43230485Y-29503142D01*
X43194771Y-29431714D01*
X43159057Y-29396000D01*
X43087628Y-29360285D01*
X42980485Y-29360285D01*
X42909057Y-29396000D01*
X42873342Y-29431714D01*
X42837628Y-29503142D01*
X42837628Y-29717428D01*
X42873342Y-29788857D01*
X42909057Y-29824571D01*
X42980485Y-29860285D01*
X43087628Y-29860285D01*
X42516200Y-29860285D02*
X42516200Y-29360285D01*
X42516200Y-29503142D02*
X42480485Y-29431714D01*
X42444771Y-29396000D01*
X42373342Y-29360285D01*
X42301914Y-29360285D01*
X41766200Y-29824571D02*
X41837628Y-29860285D01*
X41980485Y-29860285D01*
X42051914Y-29824571D01*
X42087628Y-29753142D01*
X42087628Y-29467428D01*
X42051914Y-29396000D01*
X41980485Y-29360285D01*
X41837628Y-29360285D01*
X41766200Y-29396000D01*
X41730485Y-29467428D01*
X41730485Y-29538857D01*
X42087628Y-29610285D01*
X41409057Y-29360285D02*
X41409057Y-29860285D01*
X41409057Y-29431714D02*
X41373342Y-29396000D01*
X41301914Y-29360285D01*
X41194771Y-29360285D01*
X41123342Y-29396000D01*
X41087628Y-29467428D01*
X41087628Y-29860285D01*
X47123342Y-30431714D02*
X47087628Y-30396000D01*
X47016200Y-30360285D01*
X46837628Y-30360285D01*
X46766200Y-30396000D01*
X46730485Y-30431714D01*
X46694771Y-30503142D01*
X46694771Y-30574571D01*
X46730485Y-30681714D01*
X47159057Y-31110285D01*
X46694771Y-31110285D01*
X46230485Y-30360285D02*
X46159057Y-30360285D01*
X46087628Y-30396000D01*
X46051914Y-30431714D01*
X46016200Y-30503142D01*
X45980485Y-30646000D01*
X45980485Y-30824571D01*
X46016200Y-30967428D01*
X46051914Y-31038857D01*
X46087628Y-31074571D01*
X46159057Y-31110285D01*
X46230485Y-31110285D01*
X46301914Y-31074571D01*
X46337628Y-31038857D01*
X46373342Y-30967428D01*
X46409057Y-30824571D01*
X46409057Y-30646000D01*
X46373342Y-30503142D01*
X46337628Y-30431714D01*
X46301914Y-30396000D01*
X46230485Y-30360285D01*
X45266200Y-31110285D02*
X45694771Y-31110285D01*
X45480485Y-31110285D02*
X45480485Y-30360285D01*
X45551914Y-30467428D01*
X45623342Y-30538857D01*
X45694771Y-30574571D01*
X44837628Y-30681714D02*
X44909057Y-30646000D01*
X44944771Y-30610285D01*
X44980485Y-30538857D01*
X44980485Y-30503142D01*
X44944771Y-30431714D01*
X44909057Y-30396000D01*
X44837628Y-30360285D01*
X44694771Y-30360285D01*
X44623342Y-30396000D01*
X44587628Y-30431714D01*
X44551914Y-30503142D01*
X44551914Y-30538857D01*
X44587628Y-30610285D01*
X44623342Y-30646000D01*
X44694771Y-30681714D01*
X44837628Y-30681714D01*
X44909057Y-30717428D01*
X44944771Y-30753142D01*
X44980485Y-30824571D01*
X44980485Y-30967428D01*
X44944771Y-31038857D01*
X44909057Y-31074571D01*
X44837628Y-31110285D01*
X44694771Y-31110285D01*
X44623342Y-31074571D01*
X44587628Y-31038857D01*
X44551914Y-30967428D01*
X44551914Y-30824571D01*
X44587628Y-30753142D01*
X44623342Y-30717428D01*
X44694771Y-30681714D01*
X43659057Y-31038857D02*
X43623342Y-31074571D01*
X43659057Y-31110285D01*
X43694771Y-31074571D01*
X43659057Y-31038857D01*
X43659057Y-31110285D01*
X43659057Y-30646000D02*
X43623342Y-30681714D01*
X43659057Y-30717428D01*
X43694771Y-30681714D01*
X43659057Y-30646000D01*
X43659057Y-30717428D01*
X42730485Y-31110285D02*
X42730485Y-30610285D01*
X42730485Y-30753142D02*
X42694771Y-30681714D01*
X42659057Y-30646000D01*
X42587628Y-30610285D01*
X42516200Y-30610285D01*
X41980485Y-31074571D02*
X42051914Y-31110285D01*
X42194771Y-31110285D01*
X42266200Y-31074571D01*
X42301914Y-31003142D01*
X42301914Y-30717428D01*
X42266200Y-30646000D01*
X42194771Y-30610285D01*
X42051914Y-30610285D01*
X41980485Y-30646000D01*
X41944771Y-30717428D01*
X41944771Y-30788857D01*
X42301914Y-30860285D01*
X41694771Y-30610285D02*
X41516200Y-31110285D01*
X41337628Y-30610285D01*
X40659057Y-31110285D02*
X41087628Y-31110285D01*
X40873342Y-31110285D02*
X40873342Y-30360285D01*
X40944771Y-30467428D01*
X41016200Y-30538857D01*
X41087628Y-30574571D01*
D10*
X39687428Y-15918571D02*
X38544571Y-14418571D01*
X39473142Y-14418571D02*
X39330285Y-14490000D01*
X39258857Y-14632857D01*
X39330285Y-14775714D01*
X39473142Y-14847142D01*
X39616000Y-14775714D01*
X39687428Y-14632857D01*
X39616000Y-14490000D01*
X39473142Y-14418571D01*
X38616000Y-15847142D02*
X38544571Y-15704285D01*
X38616000Y-15561428D01*
X38758857Y-15490000D01*
X38901714Y-15561428D01*
X38973142Y-15704285D01*
X38901714Y-15847142D01*
X38758857Y-15918571D01*
X38616000Y-15847142D01*
X39401714Y-16578971D02*
X39116000Y-16793257D01*
X38830285Y-16578971D01*
D13*
X49445664Y-68487866D02*
X49428997Y-68521200D01*
X49428997Y-68587866D01*
X49445664Y-68621200D01*
X49462331Y-68637866D01*
X49495664Y-68654533D01*
X49595664Y-68654533D01*
X49628997Y-68637866D01*
X49645664Y-68621200D01*
X49662331Y-68587866D01*
X49662331Y-68521200D01*
X49645664Y-68487866D01*
X49428997Y-68287866D02*
X49445664Y-68321200D01*
X49462331Y-68337866D01*
X49495664Y-68354533D01*
X49595664Y-68354533D01*
X49628997Y-68337866D01*
X49645664Y-68321200D01*
X49662331Y-68287866D01*
X49662331Y-68237866D01*
X49645664Y-68204533D01*
X49628997Y-68187866D01*
X49595664Y-68171200D01*
X49495664Y-68171200D01*
X49462331Y-68187866D01*
X49445664Y-68204533D01*
X49428997Y-68237866D01*
X49428997Y-68287866D01*
X49662331Y-68054533D02*
X49428997Y-67971200D01*
X49662331Y-67887866D01*
X49445664Y-67621200D02*
X49428997Y-67654533D01*
X49428997Y-67721200D01*
X49445664Y-67754533D01*
X49478997Y-67771200D01*
X49612331Y-67771200D01*
X49645664Y-67754533D01*
X49662331Y-67721200D01*
X49662331Y-67654533D01*
X49645664Y-67621200D01*
X49612331Y-67604533D01*
X49578997Y-67604533D01*
X49545664Y-67771200D01*
X49428997Y-67454533D02*
X49662331Y-67454533D01*
X49595664Y-67454533D02*
X49628997Y-67437866D01*
X49645664Y-67421200D01*
X49662331Y-67387866D01*
X49662331Y-67354533D01*
X49049831Y-68354533D02*
X49049831Y-68221200D01*
X48816497Y-68304533D02*
X49116497Y-68304533D01*
X49149831Y-68287866D01*
X49166497Y-68254533D01*
X49166497Y-68221200D01*
X48816497Y-68054533D02*
X48833164Y-68087866D01*
X48849831Y-68104533D01*
X48883164Y-68121200D01*
X48983164Y-68121200D01*
X49016497Y-68104533D01*
X49033164Y-68087866D01*
X49049831Y-68054533D01*
X49049831Y-68004533D01*
X49033164Y-67971200D01*
X49016497Y-67954533D01*
X48983164Y-67937866D01*
X48883164Y-67937866D01*
X48849831Y-67954533D01*
X48833164Y-67971200D01*
X48816497Y-68004533D01*
X48816497Y-68054533D01*
X48816497Y-67787866D02*
X49049831Y-67787866D01*
X48983164Y-67787866D02*
X49016497Y-67771200D01*
X49033164Y-67754533D01*
X49049831Y-67721200D01*
X49049831Y-67687866D01*
D10*
X49653771Y-94891942D02*
X49439485Y-94963371D01*
X49082342Y-94963371D01*
X48939485Y-94891942D01*
X48868057Y-94820514D01*
X48796628Y-94677657D01*
X48796628Y-94534800D01*
X48868057Y-94391942D01*
X48939485Y-94320514D01*
X49082342Y-94249085D01*
X49368057Y-94177657D01*
X49510914Y-94106228D01*
X49582342Y-94034800D01*
X49653771Y-93891942D01*
X49653771Y-93749085D01*
X49582342Y-93606228D01*
X49510914Y-93534800D01*
X49368057Y-93463371D01*
X49010914Y-93463371D01*
X48796628Y-93534800D01*
X49225200Y-93249085D02*
X49225200Y-95177657D01*
X49460114Y-92270971D02*
X49174400Y-92485257D01*
X48888685Y-92270971D01*
D12*
X40135904Y-59478690D02*
X40302571Y-59240595D01*
X40421619Y-59478690D02*
X40421619Y-58978690D01*
X40231142Y-58978690D01*
X40183523Y-59002500D01*
X40159714Y-59026309D01*
X40135904Y-59073928D01*
X40135904Y-59145357D01*
X40159714Y-59192976D01*
X40183523Y-59216785D01*
X40231142Y-59240595D01*
X40421619Y-59240595D01*
X39921619Y-59216785D02*
X39754952Y-59216785D01*
X39683523Y-59478690D02*
X39921619Y-59478690D01*
X39921619Y-58978690D01*
X39683523Y-58978690D01*
X39469238Y-59478690D02*
X39469238Y-58978690D01*
X39350190Y-58978690D01*
X39278761Y-59002500D01*
X39231142Y-59050119D01*
X39207333Y-59097738D01*
X39183523Y-59192976D01*
X39183523Y-59264404D01*
X39207333Y-59359642D01*
X39231142Y-59407261D01*
X39278761Y-59454880D01*
X39350190Y-59478690D01*
X39469238Y-59478690D01*
X40921619Y-60329880D02*
X40850190Y-60353690D01*
X40731142Y-60353690D01*
X40683523Y-60329880D01*
X40659714Y-60306071D01*
X40635904Y-60258452D01*
X40635904Y-60210833D01*
X40659714Y-60163214D01*
X40683523Y-60139404D01*
X40731142Y-60115595D01*
X40826380Y-60091785D01*
X40874000Y-60067976D01*
X40897809Y-60044166D01*
X40921619Y-59996547D01*
X40921619Y-59948928D01*
X40897809Y-59901309D01*
X40874000Y-59877500D01*
X40826380Y-59853690D01*
X40707333Y-59853690D01*
X40635904Y-59877500D01*
X40493047Y-59853690D02*
X40207333Y-59853690D01*
X40350190Y-60353690D02*
X40350190Y-59853690D01*
X39754952Y-60353690D02*
X39921619Y-60115595D01*
X40040666Y-60353690D02*
X40040666Y-59853690D01*
X39850190Y-59853690D01*
X39802571Y-59877500D01*
X39778761Y-59901309D01*
X39754952Y-59948928D01*
X39754952Y-60020357D01*
X39778761Y-60067976D01*
X39802571Y-60091785D01*
X39850190Y-60115595D01*
X40040666Y-60115595D01*
X39540666Y-60353690D02*
X39540666Y-59853690D01*
X39302571Y-60353690D02*
X39302571Y-59853690D01*
X39112095Y-59853690D01*
X39064476Y-59877500D01*
X39040666Y-59901309D01*
X39016857Y-59948928D01*
X39016857Y-60020357D01*
X39040666Y-60067976D01*
X39064476Y-60091785D01*
X39112095Y-60115595D01*
X39302571Y-60115595D01*
X38802571Y-60091785D02*
X38635904Y-60091785D01*
X38564476Y-60353690D02*
X38802571Y-60353690D01*
X38802571Y-59853690D01*
X38564476Y-59853690D01*
X38350190Y-60306071D02*
X38326380Y-60329880D01*
X38350190Y-60353690D01*
X38374000Y-60329880D01*
X38350190Y-60306071D01*
X38350190Y-60353690D01*
X38350190Y-60163214D02*
X38374000Y-59877500D01*
X38350190Y-59853690D01*
X38326380Y-59877500D01*
X38350190Y-60163214D01*
X38350190Y-59853690D01*
D10*
X38322285Y-92641028D02*
X38608000Y-92426742D01*
X38893714Y-92641028D01*
X38608000Y-95125314D02*
X38536571Y-95196742D01*
X38608000Y-95268171D01*
X38679428Y-95196742D01*
X38608000Y-95125314D01*
X38608000Y-95268171D01*
X38608000Y-94696742D02*
X38679428Y-93839600D01*
X38608000Y-93768171D01*
X38536571Y-93839600D01*
X38608000Y-94696742D01*
X38608000Y-93768171D01*
D14*
X41402000Y-58420000D02*
X41402000Y-60960000D01*
X49022000Y-60960000D02*
X49022000Y-58420000D01*
X37947600Y-60960000D02*
X49022000Y-60960000D01*
X37947600Y-58420000D02*
X37947600Y-60960000D01*
X49022000Y-58420000D02*
X37947600Y-58420000D01*
D15*
G04 #@! TO.C,J10*
X49082000Y-60966406D02*
X43882000Y-60966406D01*
X49082000Y-50746406D02*
X49082000Y-60966406D01*
X43882000Y-48146406D02*
X43882000Y-60966406D01*
X49082000Y-50746406D02*
X46482000Y-50746406D01*
X46482000Y-50746406D02*
X46482000Y-48146406D01*
X46482000Y-48146406D02*
X43882000Y-48146406D01*
X49082000Y-49476406D02*
X49082000Y-48146406D01*
X49082000Y-48146406D02*
X47752000Y-48146406D01*
D16*
X47291523Y-46598786D02*
X47291523Y-47313072D01*
X47339142Y-47455929D01*
X47434380Y-47551167D01*
X47577238Y-47598786D01*
X47672476Y-47598786D01*
X46291523Y-47598786D02*
X46862952Y-47598786D01*
X46577238Y-47598786D02*
X46577238Y-46598786D01*
X46672476Y-46741644D01*
X46767714Y-46836882D01*
X46862952Y-46884501D01*
X45672476Y-46598786D02*
X45577238Y-46598786D01*
X45482000Y-46646406D01*
X45434380Y-46694025D01*
X45386761Y-46789263D01*
X45339142Y-46979739D01*
X45339142Y-47217834D01*
X45386761Y-47408310D01*
X45434380Y-47503548D01*
X45482000Y-47551167D01*
X45577238Y-47598786D01*
X45672476Y-47598786D01*
X45767714Y-47551167D01*
X45815333Y-47503548D01*
X45862952Y-47408310D01*
X45910571Y-47217834D01*
X45910571Y-46979739D01*
X45862952Y-46789263D01*
X45815333Y-46694025D01*
X45767714Y-46646406D01*
X45672476Y-46598786D01*
G04 #@! TD*
M02*
