M48
;DRILL file {KiCad (5.0.0-rc2-47-g52fceb3)} date Wednesday, June 13, 2018 at 04:52:10 PM
;FORMAT={-:-/ absolute / inch / decimal}
FMAT,2
INCH,TZ
T1C0.0157
T2C0.0394
%
G90
G05
M72
T1
X1.55Y-1.86
X1.56Y-0.94
X1.59Y-2.16
X1.64Y-2.52
X1.66Y-2.12
X1.66Y-3.23
X1.7Y-3.318
X1.7329Y-1.0149
X1.87Y-3.39
X1.88Y-0.64
X1.894Y-3.692
X1.938Y-1.208
T2
X1.5381Y-3.8124
X1.6381Y-3.8124
X1.7381Y-3.8124
X1.8381Y-3.8124
X1.9381Y-3.8124
X1.78Y-1.9479
X1.78Y-2.0479
X1.78Y-2.1479
X1.78Y-2.2479
X1.78Y-2.3479
X1.88Y-1.9479
X1.88Y-2.0479
X1.88Y-2.1479
X1.88Y-2.2479
X1.88Y-2.3479
X1.5381Y-0.4878
X1.6381Y-0.4878
X1.7381Y-0.4878
X1.8381Y-0.4878
X1.9381Y-0.4878
X1.5591Y-1.49
X1.5591Y-1.59
X1.5591Y-1.69
X1.5591Y-2.63
X1.5591Y-2.73
X1.5591Y-2.83
T0
M30
