G04 #@! TF.GenerationSoftware,KiCad,Pcbnew,(5.0.0-rc2-47-g52fceb3)*
G04 #@! TF.CreationDate,2018-06-13T16:52:08-05:00*
G04 #@! TF.ProjectId,nearness,6E6561726E6573732E6B696361645F70,rev?*
G04 #@! TF.SameCoordinates,Original*
G04 #@! TF.FileFunction,Copper,L1,Top,Signal*
G04 #@! TF.FilePolarity,Positive*
%FSLAX46Y46*%
G04 Gerber Fmt 4.6, Leading zero omitted, Abs format (unit mm)*
G04 Created by KiCad (PCBNEW (5.0.0-rc2-47-g52fceb3)) date Wednesday, June 13, 2018 at 04:52:08 PM*
%MOMM*%
%LPD*%
G01*
G04 APERTURE LIST*
G04 #@! TA.AperFunction,SMDPad,CuDef*
%ADD10R,1.300000X1.500000*%
G04 #@! TD*
G04 #@! TA.AperFunction,SMDPad,CuDef*
%ADD11R,1.500000X1.300000*%
G04 #@! TD*
G04 #@! TA.AperFunction,SMDPad,CuDef*
%ADD12R,1.500000X1.250000*%
G04 #@! TD*
G04 #@! TA.AperFunction,SMDPad,CuDef*
%ADD13R,0.600000X1.550000*%
G04 #@! TD*
G04 #@! TA.AperFunction,ComponentPad*
%ADD14R,1.700000X1.700000*%
G04 #@! TD*
G04 #@! TA.AperFunction,ComponentPad*
%ADD15O,1.700000X1.700000*%
G04 #@! TD*
G04 #@! TA.AperFunction,SMDPad,CuDef*
%ADD16R,0.900000X1.200000*%
G04 #@! TD*
G04 #@! TA.AperFunction,SMDPad,CuDef*
%ADD17R,1.250000X1.500000*%
G04 #@! TD*
G04 #@! TA.AperFunction,ViaPad*
%ADD18C,0.800000*%
G04 #@! TD*
G04 #@! TA.AperFunction,Conductor*
%ADD19C,0.250000*%
G04 #@! TD*
G04 #@! TA.AperFunction,Conductor*
%ADD20C,0.500000*%
G04 #@! TD*
G04 #@! TA.AperFunction,Conductor*
%ADD21C,0.254000*%
G04 #@! TD*
G04 APERTURE END LIST*
D10*
G04 #@! TO.P,R20,1*
G04 #@! TO.N,Net-(P6-Pad1)*
X48514000Y-80692000D03*
G04 #@! TO.P,R20,2*
G04 #@! TO.N,Net-(C2-Pad1)*
X48514000Y-83392000D03*
G04 #@! TD*
D11*
G04 #@! TO.P,R17,2*
G04 #@! TO.N,Net-(P6-Pad1)*
X48000603Y-77927833D03*
G04 #@! TO.P,R17,1*
G04 #@! TO.N,Net-(J14-Pad1)*
X45300603Y-77927833D03*
G04 #@! TD*
D10*
G04 #@! TO.P,R19,2*
G04 #@! TO.N,Net-(C1-Pad1)*
X39624000Y-26336000D03*
G04 #@! TO.P,R19,1*
G04 #@! TO.N,Net-(P5-Pad1)*
X39624000Y-29036000D03*
G04 #@! TD*
D11*
G04 #@! TO.P,R18,1*
G04 #@! TO.N,Net-(J14-Pad1)*
X42652430Y-78022702D03*
G04 #@! TO.P,R18,2*
G04 #@! TO.N,Net-(P6-Pad2)*
X39952430Y-78022702D03*
G04 #@! TD*
G04 #@! TO.P,R15,1*
G04 #@! TO.N,Net-(J13-Pad1)*
X42944052Y-31750000D03*
G04 #@! TO.P,R15,2*
G04 #@! TO.N,Net-(P5-Pad1)*
X40244052Y-31750000D03*
G04 #@! TD*
D12*
G04 #@! TO.P,C2,2*
G04 #@! TO.N,Net-(C2-Pad2)*
X45106603Y-89103833D03*
G04 #@! TO.P,C2,1*
G04 #@! TO.N,Net-(C2-Pad1)*
X42606603Y-89103833D03*
G04 #@! TD*
D11*
G04 #@! TO.P,R24,1*
G04 #@! TO.N,Net-(C2-Pad2)*
X45206603Y-91643833D03*
G04 #@! TO.P,R24,2*
G04 #@! TO.N,Net-(J14-Pad5)*
X42506603Y-91643833D03*
G04 #@! TD*
G04 #@! TO.P,R16,1*
G04 #@! TO.N,Net-(J13-Pad1)*
X45132000Y-31750000D03*
G04 #@! TO.P,R16,2*
G04 #@! TO.N,Net-(P5-Pad2)*
X47832000Y-31750000D03*
G04 #@! TD*
D10*
G04 #@! TO.P,R22,1*
G04 #@! TO.N,Net-(C2-Pad1)*
X40132000Y-88820000D03*
G04 #@! TO.P,R22,2*
G04 #@! TO.N,Net-(J14-Pad5)*
X40132000Y-91520000D03*
G04 #@! TD*
D11*
G04 #@! TO.P,R23,2*
G04 #@! TO.N,Net-(J13-Pad5)*
X44976052Y-18360841D03*
G04 #@! TO.P,R23,1*
G04 #@! TO.N,Net-(C1-Pad2)*
X42276052Y-18360841D03*
G04 #@! TD*
D13*
G04 #@! TO.P,U1,1*
G04 #@! TO.N,Net-(P5-Pad1)*
X42037000Y-29116000D03*
G04 #@! TO.P,U1,2*
G04 #@! TO.N,Net-(J13-Pad1)*
X43307000Y-29116000D03*
G04 #@! TO.P,U1,3*
G04 #@! TO.N,GND*
X44577000Y-29116000D03*
G04 #@! TO.P,U1,4*
G04 #@! TO.N,-12V*
X45847000Y-29116000D03*
G04 #@! TO.P,U1,5*
G04 #@! TO.N,GND*
X45847000Y-23716000D03*
G04 #@! TO.P,U1,6*
G04 #@! TO.N,Net-(C1-Pad1)*
X44577000Y-23716000D03*
G04 #@! TO.P,U1,7*
G04 #@! TO.N,Net-(C1-Pad2)*
X43307000Y-23716000D03*
G04 #@! TO.P,U1,8*
G04 #@! TO.N,+12V*
X42037000Y-23716000D03*
G04 #@! TD*
G04 #@! TO.P,U2,8*
G04 #@! TO.N,+12V*
X45761603Y-85961833D03*
G04 #@! TO.P,U2,7*
G04 #@! TO.N,Net-(C2-Pad2)*
X44491603Y-85961833D03*
G04 #@! TO.P,U2,6*
G04 #@! TO.N,Net-(C2-Pad1)*
X43221603Y-85961833D03*
G04 #@! TO.P,U2,5*
G04 #@! TO.N,GND*
X41951603Y-85961833D03*
G04 #@! TO.P,U2,4*
G04 #@! TO.N,-12V*
X41951603Y-80561833D03*
G04 #@! TO.P,U2,3*
G04 #@! TO.N,GND*
X43221603Y-80561833D03*
G04 #@! TO.P,U2,2*
G04 #@! TO.N,Net-(J14-Pad1)*
X44491603Y-80561833D03*
G04 #@! TO.P,U2,1*
G04 #@! TO.N,Net-(P6-Pad1)*
X45761603Y-80561833D03*
G04 #@! TD*
D14*
G04 #@! TO.P,P6,1*
G04 #@! TO.N,Net-(P6-Pad1)*
X39600000Y-66802000D03*
D15*
G04 #@! TO.P,P6,2*
G04 #@! TO.N,Net-(P6-Pad2)*
X39600000Y-69342000D03*
G04 #@! TO.P,P6,3*
G04 #@! TO.N,Net-(P6-Pad3)*
X39600000Y-71882000D03*
G04 #@! TD*
G04 #@! TO.P,P5,3*
G04 #@! TO.N,Net-(P5-Pad3)*
X39600000Y-42926000D03*
G04 #@! TO.P,P5,2*
G04 #@! TO.N,Net-(P5-Pad2)*
X39600000Y-40386000D03*
D14*
G04 #@! TO.P,P5,1*
G04 #@! TO.N,Net-(P5-Pad1)*
X39600000Y-37846000D03*
G04 #@! TD*
G04 #@! TO.P,J13,1*
G04 #@! TO.N,Net-(J13-Pad1)*
X39068000Y-12390400D03*
D15*
G04 #@! TO.P,J13,2*
G04 #@! TO.N,GND*
X41608000Y-12390400D03*
G04 #@! TO.P,J13,3*
X44148000Y-12390400D03*
G04 #@! TO.P,J13,4*
X46688000Y-12390400D03*
G04 #@! TO.P,J13,5*
G04 #@! TO.N,Net-(J13-Pad5)*
X49228000Y-12390400D03*
G04 #@! TD*
G04 #@! TO.P,J14,5*
G04 #@! TO.N,Net-(J14-Pad5)*
X49228000Y-96835400D03*
G04 #@! TO.P,J14,4*
G04 #@! TO.N,GND*
X46688000Y-96835400D03*
G04 #@! TO.P,J14,3*
X44148000Y-96835400D03*
G04 #@! TO.P,J14,2*
X41608000Y-96835400D03*
D14*
G04 #@! TO.P,J14,1*
G04 #@! TO.N,Net-(J14-Pad1)*
X39068000Y-96835400D03*
G04 #@! TD*
D16*
G04 #@! TO.P,D1,1*
G04 #@! TO.N,+12V*
X39244000Y-49530000D03*
G04 #@! TO.P,D1,2*
G04 #@! TO.N,Net-(D1-Pad2)*
X42544000Y-49530000D03*
G04 #@! TD*
G04 #@! TO.P,D2,1*
G04 #@! TO.N,Net-(D2-Pad1)*
X42544000Y-59944000D03*
G04 #@! TO.P,D2,2*
G04 #@! TO.N,-12V*
X39244000Y-59944000D03*
G04 #@! TD*
D14*
G04 #@! TO.P,J10,1*
G04 #@! TO.N,Net-(D1-Pad2)*
X47752000Y-49476406D03*
D15*
G04 #@! TO.P,J10,2*
X45212000Y-49476406D03*
G04 #@! TO.P,J10,3*
G04 #@! TO.N,GND*
X47752000Y-52016406D03*
G04 #@! TO.P,J10,4*
X45212000Y-52016406D03*
G04 #@! TO.P,J10,5*
X47752000Y-54556406D03*
G04 #@! TO.P,J10,6*
X45212000Y-54556406D03*
G04 #@! TO.P,J10,7*
X47752000Y-57096406D03*
G04 #@! TO.P,J10,8*
X45212000Y-57096406D03*
G04 #@! TO.P,J10,9*
G04 #@! TO.N,Net-(D2-Pad1)*
X47752000Y-59636406D03*
G04 #@! TO.P,J10,10*
X45212000Y-59636406D03*
G04 #@! TD*
D17*
G04 #@! TO.P,C5,1*
G04 #@! TO.N,+12V*
X39624000Y-21062000D03*
G04 #@! TO.P,C5,2*
G04 #@! TO.N,GND*
X39624000Y-18562000D03*
G04 #@! TD*
D12*
G04 #@! TO.P,C1,1*
G04 #@! TO.N,Net-(C1-Pad1)*
X44876052Y-20574000D03*
G04 #@! TO.P,C1,2*
G04 #@! TO.N,Net-(C1-Pad2)*
X42376052Y-20574000D03*
G04 #@! TD*
D17*
G04 #@! TO.P,C8,2*
G04 #@! TO.N,-12V*
X48514000Y-29190000D03*
G04 #@! TO.P,C8,1*
G04 #@! TO.N,GND*
X48514000Y-26690000D03*
G04 #@! TD*
D10*
G04 #@! TO.P,R21,2*
G04 #@! TO.N,Net-(J13-Pad5)*
X47690052Y-18280841D03*
G04 #@! TO.P,R21,1*
G04 #@! TO.N,Net-(C1-Pad1)*
X47690052Y-20980841D03*
G04 #@! TD*
D17*
G04 #@! TO.P,C7,1*
G04 #@! TO.N,+12V*
X47906430Y-88920000D03*
G04 #@! TO.P,C7,2*
G04 #@! TO.N,GND*
X47906430Y-91420000D03*
G04 #@! TD*
G04 #@! TO.P,C6,2*
G04 #@! TO.N,-12V*
X39370000Y-80582702D03*
G04 #@! TO.P,C6,1*
G04 #@! TO.N,GND*
X39370000Y-83082702D03*
G04 #@! TD*
D12*
G04 #@! TO.P,C4,2*
G04 #@! TO.N,-12V*
X39644000Y-57150000D03*
G04 #@! TO.P,C4,1*
G04 #@! TO.N,GND*
X42144000Y-57150000D03*
G04 #@! TD*
G04 #@! TO.P,C3,1*
G04 #@! TO.N,+12V*
X39644000Y-52070000D03*
G04 #@! TO.P,C3,2*
G04 #@! TO.N,GND*
X42144000Y-52070000D03*
G04 #@! TD*
D18*
G04 #@! TO.N,-12V*
X40386000Y-54864000D03*
X41656000Y-64008000D03*
X49225200Y-30683200D03*
X42164000Y-82042000D03*
G04 #@! TO.N,+12V*
X39624000Y-23876000D03*
X42164000Y-53848000D03*
X47498000Y-86106000D03*
X39370000Y-47244000D03*
G04 #@! TO.N,Net-(J13-Pad5)*
X47752000Y-16256000D03*
G04 #@! TO.N,Net-(J14-Pad1)*
X43180000Y-84277200D03*
G04 #@! TO.N,Net-(J13-Pad1)*
X44015253Y-25778053D03*
G04 #@! TO.N,Net-(J14-Pad5)*
X48107600Y-93776800D03*
G04 #@! TD*
D19*
G04 #@! TO.N,Net-(C1-Pad2)*
X42376052Y-20574000D02*
X42376052Y-21449000D01*
X42376052Y-21449000D02*
X43307000Y-22379948D01*
X43307000Y-22379948D02*
X43307000Y-22691000D01*
X43307000Y-22691000D02*
X43307000Y-23716000D01*
X42276052Y-18360841D02*
X42276052Y-20474000D01*
X42276052Y-20474000D02*
X42376052Y-20574000D01*
G04 #@! TO.N,Net-(C2-Pad2)*
X45106603Y-89103833D02*
X45106603Y-91543833D01*
X45106603Y-91543833D02*
X45206603Y-91643833D01*
X44491603Y-85961833D02*
X44491603Y-88488833D01*
X44491603Y-88488833D02*
X45106603Y-89103833D01*
G04 #@! TO.N,Net-(C1-Pad1)*
X44577000Y-20873052D02*
X44876052Y-20574000D01*
X42432000Y-26336000D02*
X44577000Y-24191000D01*
X44577000Y-24191000D02*
X44577000Y-23716000D01*
X39624000Y-26336000D02*
X42432000Y-26336000D01*
X44577000Y-23716000D02*
X44577000Y-20873052D01*
X44876052Y-20574000D02*
X47283211Y-20574000D01*
X47283211Y-20574000D02*
X47690052Y-20980841D01*
G04 #@! TO.N,Net-(C2-Pad1)*
X40132000Y-88820000D02*
X42322770Y-88820000D01*
X43221603Y-85486833D02*
X43221603Y-85961833D01*
X45316436Y-83392000D02*
X43221603Y-85486833D01*
X48514000Y-83392000D02*
X45316436Y-83392000D01*
X43221603Y-87613833D02*
X43221603Y-85961833D01*
X42606603Y-89103833D02*
X42606603Y-88228833D01*
X42606603Y-88228833D02*
X43221603Y-87613833D01*
X42322770Y-88820000D02*
X42606603Y-89103833D01*
G04 #@! TO.N,Net-(P5-Pad1)*
X39624000Y-29036000D02*
X41957000Y-29036000D01*
X40244052Y-29656052D02*
X39624000Y-29036000D01*
X40244052Y-31750000D02*
X40244052Y-29656052D01*
X41957000Y-29036000D02*
X42037000Y-29116000D01*
X40244052Y-37201948D02*
X39600000Y-37846000D01*
X40244052Y-31750000D02*
X40244052Y-37201948D01*
G04 #@! TO.N,Net-(P5-Pad2)*
X47832000Y-31750000D02*
X47832000Y-32650000D01*
X47832000Y-31750000D02*
X47732000Y-31750000D01*
X39116000Y-40366000D02*
X39116000Y-40386000D01*
X40096000Y-40386000D02*
X39600000Y-40386000D01*
X47832000Y-32650000D02*
X40096000Y-40386000D01*
G04 #@! TO.N,Net-(P6-Pad1)*
X40700000Y-66802000D02*
X39600000Y-66802000D01*
X48000603Y-74102603D02*
X40700000Y-66802000D01*
X45891770Y-80692000D02*
X45761603Y-80561833D01*
X48514000Y-80692000D02*
X45891770Y-80692000D01*
X48514000Y-80692000D02*
X48514000Y-78441230D01*
X48000603Y-77927833D02*
X48000603Y-74102603D01*
X48514000Y-78441230D02*
X48000603Y-77927833D01*
G04 #@! TO.N,Net-(P6-Pad2)*
X39952430Y-77122702D02*
X42113200Y-74961932D01*
X42113200Y-71855200D02*
X39600000Y-69342000D01*
X39952430Y-78022702D02*
X39952430Y-77122702D01*
X42113200Y-74961932D02*
X42113200Y-71855200D01*
D20*
G04 #@! TO.N,Net-(D2-Pad1)*
X45212000Y-59636406D02*
X42851594Y-59636406D01*
X47752000Y-59636406D02*
X45212000Y-59636406D01*
X42851594Y-59636406D02*
X42544000Y-59944000D01*
G04 #@! TO.N,Net-(D1-Pad2)*
X42597594Y-49476406D02*
X42544000Y-49530000D01*
X45212000Y-49476406D02*
X42597594Y-49476406D01*
X47752000Y-49476406D02*
X45212000Y-49476406D01*
G04 #@! TO.N,-12V*
X48514000Y-29190000D02*
X45921000Y-29190000D01*
X45921000Y-29190000D02*
X45847000Y-29116000D01*
X48514000Y-29190000D02*
X48514000Y-29972000D01*
X48514000Y-29972000D02*
X49225200Y-30683200D01*
X48514000Y-29190000D02*
X48514000Y-29768800D01*
X42164000Y-82042000D02*
X42164000Y-80774230D01*
X42164000Y-80774230D02*
X41951603Y-80561833D01*
X39644000Y-57150000D02*
X39644000Y-55606000D01*
X39644000Y-55606000D02*
X40386000Y-54864000D01*
X39244000Y-59944000D02*
X39244000Y-61596000D01*
X39244000Y-61596000D02*
X41656000Y-64008000D01*
X39244000Y-59944000D02*
X39244000Y-57550000D01*
X39244000Y-57550000D02*
X39644000Y-57150000D01*
D19*
X41951603Y-80561833D02*
X39390869Y-80561833D01*
X39390869Y-80561833D02*
X39370000Y-80582702D01*
D20*
G04 #@! TO.N,+12V*
X39624000Y-23876000D02*
X41877000Y-23876000D01*
X41877000Y-23876000D02*
X42037000Y-23716000D01*
X39244000Y-49530000D02*
X39244000Y-47370000D01*
X39244000Y-47370000D02*
X39370000Y-47244000D01*
X47498000Y-86106000D02*
X45905770Y-86106000D01*
X45905770Y-86106000D02*
X45761603Y-85961833D01*
X39644000Y-52070000D02*
X41422000Y-53848000D01*
X41422000Y-53848000D02*
X42164000Y-53848000D01*
X39244000Y-49530000D02*
X39244000Y-51670000D01*
X39244000Y-51670000D02*
X39644000Y-52070000D01*
D19*
X47906430Y-88710702D02*
X47031430Y-88710702D01*
X45761603Y-86986833D02*
X45761603Y-85961833D01*
X47031430Y-88710702D02*
X45761603Y-87440875D01*
X45761603Y-87440875D02*
X45761603Y-86986833D01*
X42037000Y-23716000D02*
X42037000Y-23241000D01*
X39858000Y-21062000D02*
X39624000Y-21062000D01*
X42037000Y-23241000D02*
X39858000Y-21062000D01*
G04 #@! TO.N,Net-(J13-Pad5)*
X47690052Y-18280841D02*
X47690052Y-16317948D01*
X47690052Y-16317948D02*
X47752000Y-16256000D01*
X47690052Y-18280841D02*
X47690052Y-18248348D01*
X44976052Y-18360841D02*
X44876052Y-18360841D01*
X47690052Y-18280841D02*
X45056052Y-18280841D01*
X45056052Y-18280841D02*
X44976052Y-18360841D01*
G04 #@! TO.N,Net-(J14-Pad1)*
X44491603Y-80561833D02*
X44491603Y-82965597D01*
X44491603Y-82965597D02*
X43180000Y-84277200D01*
D20*
X44491603Y-81036833D02*
X44450000Y-81078436D01*
D19*
X44491603Y-81036833D02*
X44491603Y-80561833D01*
X45300603Y-77927833D02*
X42747299Y-77927833D01*
X42747299Y-77927833D02*
X42652430Y-78022702D01*
X45300603Y-77927833D02*
X45300603Y-79277833D01*
X45300603Y-79277833D02*
X44491603Y-80086833D01*
X44491603Y-80086833D02*
X44491603Y-80561833D01*
G04 #@! TO.N,Net-(J13-Pad1)*
X43307000Y-29116000D02*
X43307000Y-26486306D01*
X43307000Y-26486306D02*
X44015253Y-25778053D01*
X39116000Y-12600789D02*
X39116000Y-12446000D01*
X43307000Y-28641000D02*
X43307000Y-29116000D01*
X42944052Y-31750000D02*
X42944052Y-29478948D01*
X42944052Y-29478948D02*
X43307000Y-29116000D01*
X45132000Y-31750000D02*
X42944052Y-31750000D01*
G04 #@! TO.N,Net-(J14-Pad5)*
X43231570Y-93268800D02*
X47599600Y-93268800D01*
X47599600Y-93268800D02*
X48107600Y-93776800D01*
X42506603Y-91643833D02*
X42506603Y-92543833D01*
X42506603Y-92543833D02*
X43231570Y-93268800D01*
D20*
X42506603Y-91643833D02*
X42571033Y-91643833D01*
D19*
X40132000Y-91520000D02*
X42382770Y-91520000D01*
X42382770Y-91520000D02*
X42506603Y-91643833D01*
G04 #@! TD*
D21*
G04 #@! TO.N,GND*
G36*
X41735000Y-12263400D02*
X44021000Y-12263400D01*
X44021000Y-12243400D01*
X44275000Y-12243400D01*
X44275000Y-12263400D01*
X46561000Y-12263400D01*
X46561000Y-12243400D01*
X46815000Y-12243400D01*
X46815000Y-12263400D01*
X46835000Y-12263400D01*
X46835000Y-12517400D01*
X46815000Y-12517400D01*
X46815000Y-13710555D01*
X47044890Y-13831876D01*
X47454924Y-13662045D01*
X47883183Y-13271758D01*
X47944157Y-13141922D01*
X48157375Y-13461025D01*
X48648582Y-13789239D01*
X49081744Y-13875400D01*
X49374256Y-13875400D01*
X49807418Y-13789239D01*
X50115001Y-13583719D01*
X50115001Y-30126783D01*
X50102631Y-30096920D01*
X49811480Y-29805769D01*
X49786440Y-29795397D01*
X49786440Y-28440000D01*
X49737157Y-28192235D01*
X49596809Y-27982191D01*
X49535680Y-27941346D01*
X49677327Y-27799698D01*
X49774000Y-27566309D01*
X49774000Y-26975750D01*
X49615250Y-26817000D01*
X48641000Y-26817000D01*
X48641000Y-26837000D01*
X48387000Y-26837000D01*
X48387000Y-26817000D01*
X47412750Y-26817000D01*
X47254000Y-26975750D01*
X47254000Y-27566309D01*
X47350673Y-27799698D01*
X47492320Y-27941346D01*
X47431191Y-27982191D01*
X47290843Y-28192235D01*
X47268413Y-28305000D01*
X46787279Y-28305000D01*
X46745157Y-28093235D01*
X46604809Y-27883191D01*
X46394765Y-27742843D01*
X46147000Y-27693560D01*
X45547000Y-27693560D01*
X45299235Y-27742843D01*
X45220028Y-27795768D01*
X45003310Y-27706000D01*
X44862750Y-27706000D01*
X44704000Y-27864750D01*
X44704000Y-28989000D01*
X44724000Y-28989000D01*
X44724000Y-29243000D01*
X44704000Y-29243000D01*
X44704000Y-29263000D01*
X44450000Y-29263000D01*
X44450000Y-29243000D01*
X44430000Y-29243000D01*
X44430000Y-28989000D01*
X44450000Y-28989000D01*
X44450000Y-27864750D01*
X44291250Y-27706000D01*
X44150690Y-27706000D01*
X44067000Y-27740666D01*
X44067000Y-26813053D01*
X44221127Y-26813053D01*
X44601533Y-26655484D01*
X44892684Y-26364333D01*
X45050253Y-25983927D01*
X45050253Y-25813691D01*
X47254000Y-25813691D01*
X47254000Y-26404250D01*
X47412750Y-26563000D01*
X48387000Y-26563000D01*
X48387000Y-25463750D01*
X48641000Y-25463750D01*
X48641000Y-26563000D01*
X49615250Y-26563000D01*
X49774000Y-26404250D01*
X49774000Y-25813691D01*
X49677327Y-25580302D01*
X49498699Y-25401673D01*
X49265310Y-25305000D01*
X48799750Y-25305000D01*
X48641000Y-25463750D01*
X48387000Y-25463750D01*
X48228250Y-25305000D01*
X47762690Y-25305000D01*
X47529301Y-25401673D01*
X47350673Y-25580302D01*
X47254000Y-25813691D01*
X45050253Y-25813691D01*
X45050253Y-25572179D01*
X44892684Y-25191773D01*
X44839351Y-25138440D01*
X44877000Y-25138440D01*
X45124765Y-25089157D01*
X45203972Y-25036232D01*
X45420690Y-25126000D01*
X45561250Y-25126000D01*
X45720000Y-24967250D01*
X45720000Y-23843000D01*
X45974000Y-23843000D01*
X45974000Y-24967250D01*
X46132750Y-25126000D01*
X46273310Y-25126000D01*
X46506699Y-25029327D01*
X46685327Y-24850698D01*
X46782000Y-24617309D01*
X46782000Y-24001750D01*
X46623250Y-23843000D01*
X45974000Y-23843000D01*
X45720000Y-23843000D01*
X45700000Y-23843000D01*
X45700000Y-23589000D01*
X45720000Y-23589000D01*
X45720000Y-22464750D01*
X45974000Y-22464750D01*
X45974000Y-23589000D01*
X46623250Y-23589000D01*
X46782000Y-23430250D01*
X46782000Y-22814691D01*
X46685327Y-22581302D01*
X46506699Y-22402673D01*
X46273310Y-22306000D01*
X46132750Y-22306000D01*
X45974000Y-22464750D01*
X45720000Y-22464750D01*
X45561250Y-22306000D01*
X45420690Y-22306000D01*
X45337000Y-22340666D01*
X45337000Y-21846440D01*
X45626052Y-21846440D01*
X45873817Y-21797157D01*
X46083861Y-21656809D01*
X46224209Y-21446765D01*
X46246639Y-21334000D01*
X46392612Y-21334000D01*
X46392612Y-21730841D01*
X46441895Y-21978606D01*
X46582243Y-22188650D01*
X46792287Y-22328998D01*
X47040052Y-22378281D01*
X48340052Y-22378281D01*
X48587817Y-22328998D01*
X48797861Y-22188650D01*
X48938209Y-21978606D01*
X48987492Y-21730841D01*
X48987492Y-20230841D01*
X48938209Y-19983076D01*
X48797861Y-19773032D01*
X48587817Y-19632684D01*
X48578552Y-19630841D01*
X48587817Y-19628998D01*
X48797861Y-19488650D01*
X48938209Y-19278606D01*
X48987492Y-19030841D01*
X48987492Y-17530841D01*
X48938209Y-17283076D01*
X48797861Y-17073032D01*
X48587817Y-16932684D01*
X48547122Y-16924589D01*
X48629431Y-16842280D01*
X48787000Y-16461874D01*
X48787000Y-16050126D01*
X48629431Y-15669720D01*
X48338280Y-15378569D01*
X47957874Y-15221000D01*
X47546126Y-15221000D01*
X47165720Y-15378569D01*
X46874569Y-15669720D01*
X46717000Y-16050126D01*
X46717000Y-16461874D01*
X46874569Y-16842280D01*
X46930053Y-16897764D01*
X46930053Y-16905281D01*
X46792287Y-16932684D01*
X46582243Y-17073032D01*
X46441895Y-17283076D01*
X46394601Y-17520841D01*
X46335699Y-17520841D01*
X46324209Y-17463076D01*
X46183861Y-17253032D01*
X45973817Y-17112684D01*
X45726052Y-17063401D01*
X44226052Y-17063401D01*
X43978287Y-17112684D01*
X43768243Y-17253032D01*
X43627895Y-17463076D01*
X43626052Y-17472341D01*
X43624209Y-17463076D01*
X43483861Y-17253032D01*
X43273817Y-17112684D01*
X43026052Y-17063401D01*
X41526052Y-17063401D01*
X41278287Y-17112684D01*
X41068243Y-17253032D01*
X40927895Y-17463076D01*
X40883740Y-17685062D01*
X40787327Y-17452302D01*
X40608699Y-17273673D01*
X40375310Y-17177000D01*
X39909750Y-17177000D01*
X39751000Y-17335750D01*
X39751000Y-18435000D01*
X39771000Y-18435000D01*
X39771000Y-18689000D01*
X39751000Y-18689000D01*
X39751000Y-18709000D01*
X39497000Y-18709000D01*
X39497000Y-18689000D01*
X38522750Y-18689000D01*
X38364000Y-18847750D01*
X38364000Y-19438309D01*
X38460673Y-19671698D01*
X38602320Y-19813346D01*
X38541191Y-19854191D01*
X38400843Y-20064235D01*
X38351560Y-20312000D01*
X38351560Y-21812000D01*
X38400843Y-22059765D01*
X38541191Y-22269809D01*
X38751235Y-22410157D01*
X38999000Y-22459440D01*
X40180638Y-22459440D01*
X40712198Y-22991000D01*
X40192007Y-22991000D01*
X39829874Y-22841000D01*
X39418126Y-22841000D01*
X39037720Y-22998569D01*
X38746569Y-23289720D01*
X38589000Y-23670126D01*
X38589000Y-24081874D01*
X38746569Y-24462280D01*
X39037720Y-24753431D01*
X39418126Y-24911000D01*
X39829874Y-24911000D01*
X40192007Y-24761000D01*
X41153700Y-24761000D01*
X41279191Y-24948809D01*
X41489235Y-25089157D01*
X41737000Y-25138440D01*
X42337000Y-25138440D01*
X42584765Y-25089157D01*
X42642859Y-25050339D01*
X42117199Y-25576000D01*
X40919451Y-25576000D01*
X40872157Y-25338235D01*
X40731809Y-25128191D01*
X40521765Y-24987843D01*
X40274000Y-24938560D01*
X38974000Y-24938560D01*
X38726235Y-24987843D01*
X38516191Y-25128191D01*
X38375843Y-25338235D01*
X38326560Y-25586000D01*
X38326560Y-27086000D01*
X38375843Y-27333765D01*
X38516191Y-27543809D01*
X38726235Y-27684157D01*
X38735500Y-27686000D01*
X38726235Y-27687843D01*
X38516191Y-27828191D01*
X38375843Y-28038235D01*
X38326560Y-28286000D01*
X38326560Y-29786000D01*
X38375843Y-30033765D01*
X38516191Y-30243809D01*
X38726235Y-30384157D01*
X38974000Y-30433440D01*
X39484053Y-30433440D01*
X39484053Y-30454549D01*
X39246287Y-30501843D01*
X39036243Y-30642191D01*
X38895895Y-30852235D01*
X38846612Y-31100000D01*
X38846612Y-32400000D01*
X38895895Y-32647765D01*
X39036243Y-32857809D01*
X39246287Y-32998157D01*
X39484052Y-33045451D01*
X39484053Y-36348560D01*
X38750000Y-36348560D01*
X38502235Y-36397843D01*
X38292191Y-36538191D01*
X38151843Y-36748235D01*
X38102560Y-36996000D01*
X38102560Y-38696000D01*
X38151843Y-38943765D01*
X38292191Y-39153809D01*
X38502235Y-39294157D01*
X38547619Y-39303184D01*
X38529375Y-39315375D01*
X38201161Y-39806582D01*
X38085908Y-40386000D01*
X38201161Y-40965418D01*
X38529375Y-41456625D01*
X38827761Y-41656000D01*
X38529375Y-41855375D01*
X38201161Y-42346582D01*
X38085908Y-42926000D01*
X38201161Y-43505418D01*
X38529375Y-43996625D01*
X39020582Y-44324839D01*
X39453744Y-44411000D01*
X39746256Y-44411000D01*
X40179418Y-44324839D01*
X40670625Y-43996625D01*
X40998839Y-43505418D01*
X41114092Y-42926000D01*
X40998839Y-42346582D01*
X40670625Y-41855375D01*
X40372239Y-41656000D01*
X40670625Y-41456625D01*
X40998839Y-40965418D01*
X41100011Y-40456790D01*
X48316473Y-33240329D01*
X48379929Y-33197929D01*
X48480483Y-33047440D01*
X48582000Y-33047440D01*
X48829765Y-32998157D01*
X49039809Y-32857809D01*
X49180157Y-32647765D01*
X49229440Y-32400000D01*
X49229440Y-31718200D01*
X49431074Y-31718200D01*
X49811480Y-31560631D01*
X50102631Y-31269480D01*
X50115001Y-31239617D01*
X50115000Y-95642081D01*
X49807418Y-95436561D01*
X49374256Y-95350400D01*
X49081744Y-95350400D01*
X48648582Y-95436561D01*
X48157375Y-95764775D01*
X47944157Y-96083878D01*
X47883183Y-95954042D01*
X47454924Y-95563755D01*
X47044890Y-95393924D01*
X46815000Y-95515245D01*
X46815000Y-96708400D01*
X46835000Y-96708400D01*
X46835000Y-96962400D01*
X46815000Y-96962400D01*
X46815000Y-96982400D01*
X46561000Y-96982400D01*
X46561000Y-96962400D01*
X44275000Y-96962400D01*
X44275000Y-96982400D01*
X44021000Y-96982400D01*
X44021000Y-96962400D01*
X41735000Y-96962400D01*
X41735000Y-96982400D01*
X41481000Y-96982400D01*
X41481000Y-96962400D01*
X41461000Y-96962400D01*
X41461000Y-96708400D01*
X41481000Y-96708400D01*
X41481000Y-95515245D01*
X41735000Y-95515245D01*
X41735000Y-96708400D01*
X44021000Y-96708400D01*
X44021000Y-95515245D01*
X44275000Y-95515245D01*
X44275000Y-96708400D01*
X46561000Y-96708400D01*
X46561000Y-95515245D01*
X46331110Y-95393924D01*
X45921076Y-95563755D01*
X45492817Y-95954042D01*
X45418000Y-96113354D01*
X45343183Y-95954042D01*
X44914924Y-95563755D01*
X44504890Y-95393924D01*
X44275000Y-95515245D01*
X44021000Y-95515245D01*
X43791110Y-95393924D01*
X43381076Y-95563755D01*
X42952817Y-95954042D01*
X42878000Y-96113354D01*
X42803183Y-95954042D01*
X42374924Y-95563755D01*
X41964890Y-95393924D01*
X41735000Y-95515245D01*
X41481000Y-95515245D01*
X41251110Y-95393924D01*
X40841076Y-95563755D01*
X40536739Y-95841108D01*
X40516157Y-95737635D01*
X40375809Y-95527591D01*
X40165765Y-95387243D01*
X39918000Y-95337960D01*
X38218000Y-95337960D01*
X38023000Y-95376748D01*
X38023000Y-86247583D01*
X41016603Y-86247583D01*
X41016603Y-86863142D01*
X41113276Y-87096531D01*
X41291904Y-87275160D01*
X41525293Y-87371833D01*
X41665853Y-87371833D01*
X41824603Y-87213083D01*
X41824603Y-86088833D01*
X41175353Y-86088833D01*
X41016603Y-86247583D01*
X38023000Y-86247583D01*
X38023000Y-85060524D01*
X41016603Y-85060524D01*
X41016603Y-85676083D01*
X41175353Y-85834833D01*
X41824603Y-85834833D01*
X41824603Y-84710583D01*
X41665853Y-84551833D01*
X41525293Y-84551833D01*
X41291904Y-84648506D01*
X41113276Y-84827135D01*
X41016603Y-85060524D01*
X38023000Y-85060524D01*
X38023000Y-83368452D01*
X38110000Y-83368452D01*
X38110000Y-83959011D01*
X38206673Y-84192400D01*
X38385301Y-84371029D01*
X38618690Y-84467702D01*
X39084250Y-84467702D01*
X39243000Y-84308952D01*
X39243000Y-83209702D01*
X39497000Y-83209702D01*
X39497000Y-84308952D01*
X39655750Y-84467702D01*
X40121310Y-84467702D01*
X40354699Y-84371029D01*
X40533327Y-84192400D01*
X40630000Y-83959011D01*
X40630000Y-83368452D01*
X40471250Y-83209702D01*
X39497000Y-83209702D01*
X39243000Y-83209702D01*
X38268750Y-83209702D01*
X38110000Y-83368452D01*
X38023000Y-83368452D01*
X38023000Y-69342000D01*
X38085908Y-69342000D01*
X38201161Y-69921418D01*
X38529375Y-70412625D01*
X38827761Y-70612000D01*
X38529375Y-70811375D01*
X38201161Y-71302582D01*
X38085908Y-71882000D01*
X38201161Y-72461418D01*
X38529375Y-72952625D01*
X39020582Y-73280839D01*
X39453744Y-73367000D01*
X39746256Y-73367000D01*
X40179418Y-73280839D01*
X40670625Y-72952625D01*
X40998839Y-72461418D01*
X41105980Y-71922782D01*
X41353201Y-72170003D01*
X41353200Y-74647130D01*
X39467958Y-76532373D01*
X39404502Y-76574773D01*
X39362102Y-76638229D01*
X39362101Y-76638230D01*
X39303948Y-76725262D01*
X39202430Y-76725262D01*
X38954665Y-76774545D01*
X38744621Y-76914893D01*
X38604273Y-77124937D01*
X38554990Y-77372702D01*
X38554990Y-78672702D01*
X38604273Y-78920467D01*
X38744621Y-79130511D01*
X38826561Y-79185262D01*
X38745000Y-79185262D01*
X38497235Y-79234545D01*
X38287191Y-79374893D01*
X38146843Y-79584937D01*
X38097560Y-79832702D01*
X38097560Y-81332702D01*
X38146843Y-81580467D01*
X38287191Y-81790511D01*
X38348320Y-81831356D01*
X38206673Y-81973004D01*
X38110000Y-82206393D01*
X38110000Y-82796952D01*
X38268750Y-82955702D01*
X39243000Y-82955702D01*
X39243000Y-82935702D01*
X39497000Y-82935702D01*
X39497000Y-82955702D01*
X40471250Y-82955702D01*
X40630000Y-82796952D01*
X40630000Y-82206393D01*
X40533327Y-81973004D01*
X40391680Y-81831356D01*
X40452809Y-81790511D01*
X40593157Y-81580467D01*
X40642440Y-81332702D01*
X40642440Y-81321833D01*
X41004163Y-81321833D01*
X41004163Y-81336833D01*
X41053446Y-81584598D01*
X41164403Y-81750656D01*
X41129000Y-81836126D01*
X41129000Y-82247874D01*
X41286569Y-82628280D01*
X41577720Y-82919431D01*
X41958126Y-83077000D01*
X42369874Y-83077000D01*
X42750280Y-82919431D01*
X43041431Y-82628280D01*
X43199000Y-82247874D01*
X43199000Y-81836126D01*
X43094603Y-81584089D01*
X43094603Y-80688833D01*
X43074603Y-80688833D01*
X43074603Y-80434833D01*
X43094603Y-80434833D01*
X43094603Y-80414833D01*
X43348603Y-80414833D01*
X43348603Y-80434833D01*
X43368603Y-80434833D01*
X43368603Y-80688833D01*
X43348603Y-80688833D01*
X43348603Y-81813083D01*
X43507353Y-81971833D01*
X43647913Y-81971833D01*
X43731604Y-81937167D01*
X43731604Y-82650794D01*
X43140199Y-83242200D01*
X42974126Y-83242200D01*
X42593720Y-83399769D01*
X42302569Y-83690920D01*
X42145000Y-84071326D01*
X42145000Y-84483074D01*
X42192189Y-84596997D01*
X42078603Y-84710583D01*
X42078603Y-85834833D01*
X42098603Y-85834833D01*
X42098603Y-86088833D01*
X42078603Y-86088833D01*
X42078603Y-87213083D01*
X42237353Y-87371833D01*
X42377913Y-87371833D01*
X42396500Y-87364134D01*
X42122130Y-87638505D01*
X42058675Y-87680904D01*
X42016275Y-87744360D01*
X42016274Y-87744361D01*
X41958121Y-87831393D01*
X41856603Y-87831393D01*
X41608838Y-87880676D01*
X41417246Y-88008695D01*
X41380157Y-87822235D01*
X41239809Y-87612191D01*
X41029765Y-87471843D01*
X40782000Y-87422560D01*
X39482000Y-87422560D01*
X39234235Y-87471843D01*
X39024191Y-87612191D01*
X38883843Y-87822235D01*
X38834560Y-88070000D01*
X38834560Y-89570000D01*
X38883843Y-89817765D01*
X39024191Y-90027809D01*
X39234235Y-90168157D01*
X39243500Y-90170000D01*
X39234235Y-90171843D01*
X39024191Y-90312191D01*
X38883843Y-90522235D01*
X38834560Y-90770000D01*
X38834560Y-92270000D01*
X38883843Y-92517765D01*
X39024191Y-92727809D01*
X39234235Y-92868157D01*
X39482000Y-92917440D01*
X40782000Y-92917440D01*
X41029765Y-92868157D01*
X41239809Y-92727809D01*
X41261339Y-92695587D01*
X41298794Y-92751642D01*
X41508838Y-92891990D01*
X41756603Y-92941273D01*
X41858121Y-92941273D01*
X41878828Y-92972262D01*
X41958675Y-93091762D01*
X42022131Y-93134162D01*
X42641240Y-93753272D01*
X42683641Y-93816729D01*
X42935033Y-93984704D01*
X43156718Y-94028800D01*
X43156722Y-94028800D01*
X43231569Y-94043688D01*
X43306416Y-94028800D01*
X47091706Y-94028800D01*
X47230169Y-94363080D01*
X47521320Y-94654231D01*
X47901726Y-94811800D01*
X48313474Y-94811800D01*
X48693880Y-94654231D01*
X48985031Y-94363080D01*
X49142600Y-93982674D01*
X49142600Y-93570926D01*
X48985031Y-93190520D01*
X48693880Y-92899369D01*
X48466053Y-92805000D01*
X48657740Y-92805000D01*
X48891129Y-92708327D01*
X49069757Y-92529698D01*
X49166430Y-92296309D01*
X49166430Y-91705750D01*
X49007680Y-91547000D01*
X48033430Y-91547000D01*
X48033430Y-91567000D01*
X47779430Y-91567000D01*
X47779430Y-91547000D01*
X46805180Y-91547000D01*
X46646430Y-91705750D01*
X46646430Y-92296309D01*
X46734447Y-92508800D01*
X46561284Y-92508800D01*
X46604043Y-92293833D01*
X46604043Y-90993833D01*
X46554760Y-90746068D01*
X46414412Y-90536024D01*
X46204368Y-90395676D01*
X45981712Y-90351387D01*
X46104368Y-90326990D01*
X46314412Y-90186642D01*
X46454760Y-89976598D01*
X46504043Y-89728833D01*
X46504043Y-89272357D01*
X46633990Y-89359185D01*
X46633990Y-89670000D01*
X46683273Y-89917765D01*
X46823621Y-90127809D01*
X46884750Y-90168654D01*
X46743103Y-90310302D01*
X46646430Y-90543691D01*
X46646430Y-91134250D01*
X46805180Y-91293000D01*
X47779430Y-91293000D01*
X47779430Y-91273000D01*
X48033430Y-91273000D01*
X48033430Y-91293000D01*
X49007680Y-91293000D01*
X49166430Y-91134250D01*
X49166430Y-90543691D01*
X49069757Y-90310302D01*
X48928110Y-90168654D01*
X48989239Y-90127809D01*
X49129587Y-89917765D01*
X49178870Y-89670000D01*
X49178870Y-88170000D01*
X49129587Y-87922235D01*
X48989239Y-87712191D01*
X48779195Y-87571843D01*
X48531430Y-87522560D01*
X47281430Y-87522560D01*
X47033665Y-87571843D01*
X46993926Y-87598396D01*
X46547754Y-87152225D01*
X46655482Y-86991000D01*
X46929993Y-86991000D01*
X47292126Y-87141000D01*
X47703874Y-87141000D01*
X48084280Y-86983431D01*
X48375431Y-86692280D01*
X48533000Y-86311874D01*
X48533000Y-85900126D01*
X48375431Y-85519720D01*
X48084280Y-85228569D01*
X47703874Y-85071000D01*
X47292126Y-85071000D01*
X46929993Y-85221000D01*
X46709043Y-85221000D01*
X46709043Y-85186833D01*
X46659760Y-84939068D01*
X46519412Y-84729024D01*
X46309368Y-84588676D01*
X46061603Y-84539393D01*
X45461603Y-84539393D01*
X45213838Y-84588676D01*
X45155745Y-84627493D01*
X45631238Y-84152000D01*
X47218549Y-84152000D01*
X47265843Y-84389765D01*
X47406191Y-84599809D01*
X47616235Y-84740157D01*
X47864000Y-84789440D01*
X49164000Y-84789440D01*
X49411765Y-84740157D01*
X49621809Y-84599809D01*
X49762157Y-84389765D01*
X49811440Y-84142000D01*
X49811440Y-82642000D01*
X49762157Y-82394235D01*
X49621809Y-82184191D01*
X49411765Y-82043843D01*
X49402500Y-82042000D01*
X49411765Y-82040157D01*
X49621809Y-81899809D01*
X49762157Y-81689765D01*
X49811440Y-81442000D01*
X49811440Y-79942000D01*
X49762157Y-79694235D01*
X49621809Y-79484191D01*
X49411765Y-79343843D01*
X49274000Y-79316440D01*
X49274000Y-78937483D01*
X49348760Y-78825598D01*
X49398043Y-78577833D01*
X49398043Y-77277833D01*
X49348760Y-77030068D01*
X49208412Y-76820024D01*
X48998368Y-76679676D01*
X48760603Y-76632382D01*
X48760603Y-74177451D01*
X48775491Y-74102603D01*
X48760603Y-74027755D01*
X48760603Y-74027751D01*
X48716507Y-73806066D01*
X48716507Y-73806065D01*
X48590932Y-73618130D01*
X48548532Y-73554674D01*
X48485076Y-73512274D01*
X41290331Y-66317530D01*
X41247929Y-66254071D01*
X41097440Y-66153517D01*
X41097440Y-65952000D01*
X41048157Y-65704235D01*
X40907809Y-65494191D01*
X40697765Y-65353843D01*
X40450000Y-65304560D01*
X38750000Y-65304560D01*
X38502235Y-65353843D01*
X38292191Y-65494191D01*
X38151843Y-65704235D01*
X38102560Y-65952000D01*
X38102560Y-67652000D01*
X38151843Y-67899765D01*
X38292191Y-68109809D01*
X38502235Y-68250157D01*
X38547619Y-68259184D01*
X38529375Y-68271375D01*
X38201161Y-68762582D01*
X38085908Y-69342000D01*
X38023000Y-69342000D01*
X38023000Y-48930000D01*
X38146560Y-48930000D01*
X38146560Y-50130000D01*
X38195843Y-50377765D01*
X38336191Y-50587809D01*
X38359001Y-50603050D01*
X38359001Y-51102714D01*
X38295843Y-51197235D01*
X38246560Y-51445000D01*
X38246560Y-52695000D01*
X38295843Y-52942765D01*
X38436191Y-53152809D01*
X38646235Y-53293157D01*
X38894000Y-53342440D01*
X39664862Y-53342440D01*
X40159829Y-53837407D01*
X39799720Y-53986569D01*
X39508569Y-54277720D01*
X39358569Y-54639852D01*
X39079845Y-54918577D01*
X39005952Y-54967951D01*
X38956578Y-55041844D01*
X38956576Y-55041846D01*
X38810348Y-55260691D01*
X38741663Y-55606000D01*
X38759001Y-55693165D01*
X38759001Y-55904413D01*
X38646235Y-55926843D01*
X38436191Y-56067191D01*
X38295843Y-56277235D01*
X38246560Y-56525000D01*
X38246560Y-57775000D01*
X38295843Y-58022765D01*
X38359001Y-58117287D01*
X38359000Y-58870950D01*
X38336191Y-58886191D01*
X38195843Y-59096235D01*
X38146560Y-59344000D01*
X38146560Y-60544000D01*
X38195843Y-60791765D01*
X38336191Y-61001809D01*
X38359001Y-61017050D01*
X38359001Y-61508835D01*
X38341663Y-61596000D01*
X38410348Y-61941309D01*
X38556576Y-62160154D01*
X38556578Y-62160156D01*
X38605952Y-62234049D01*
X38679845Y-62283423D01*
X40628569Y-64232148D01*
X40778569Y-64594280D01*
X41069720Y-64885431D01*
X41450126Y-65043000D01*
X41861874Y-65043000D01*
X42242280Y-64885431D01*
X42533431Y-64594280D01*
X42691000Y-64213874D01*
X42691000Y-63802126D01*
X42533431Y-63421720D01*
X42242280Y-63130569D01*
X41880148Y-62980569D01*
X40129000Y-61229422D01*
X40129000Y-61017050D01*
X40151809Y-61001809D01*
X40292157Y-60791765D01*
X40341440Y-60544000D01*
X40341440Y-59344000D01*
X41446560Y-59344000D01*
X41446560Y-60544000D01*
X41495843Y-60791765D01*
X41636191Y-61001809D01*
X41846235Y-61142157D01*
X42094000Y-61191440D01*
X42994000Y-61191440D01*
X43241765Y-61142157D01*
X43451809Y-61001809D01*
X43592157Y-60791765D01*
X43641440Y-60544000D01*
X43641440Y-60521406D01*
X44017344Y-60521406D01*
X44141375Y-60707031D01*
X44632582Y-61035245D01*
X45065744Y-61121406D01*
X45358256Y-61121406D01*
X45791418Y-61035245D01*
X46282625Y-60707031D01*
X46406656Y-60521406D01*
X46557344Y-60521406D01*
X46681375Y-60707031D01*
X47172582Y-61035245D01*
X47605744Y-61121406D01*
X47898256Y-61121406D01*
X48331418Y-61035245D01*
X48822625Y-60707031D01*
X49150839Y-60215824D01*
X49266092Y-59636406D01*
X49150839Y-59056988D01*
X48822625Y-58565781D01*
X48503522Y-58352563D01*
X48633358Y-58291589D01*
X49023645Y-57863330D01*
X49193476Y-57453296D01*
X49072155Y-57223406D01*
X47879000Y-57223406D01*
X47879000Y-57243406D01*
X47625000Y-57243406D01*
X47625000Y-57223406D01*
X45339000Y-57223406D01*
X45339000Y-57243406D01*
X45085000Y-57243406D01*
X45085000Y-57223406D01*
X43891845Y-57223406D01*
X43770524Y-57453296D01*
X43940355Y-57863330D01*
X44330642Y-58291589D01*
X44460478Y-58352563D01*
X44141375Y-58565781D01*
X44017344Y-58751406D01*
X43250091Y-58751406D01*
X43241765Y-58745843D01*
X42994000Y-58696560D01*
X42094000Y-58696560D01*
X41846235Y-58745843D01*
X41636191Y-58886191D01*
X41495843Y-59096235D01*
X41446560Y-59344000D01*
X40341440Y-59344000D01*
X40292157Y-59096235D01*
X40151809Y-58886191D01*
X40129000Y-58870950D01*
X40129000Y-58422440D01*
X40394000Y-58422440D01*
X40641765Y-58373157D01*
X40851809Y-58232809D01*
X40892654Y-58171680D01*
X41034302Y-58313327D01*
X41267691Y-58410000D01*
X41858250Y-58410000D01*
X42017000Y-58251250D01*
X42017000Y-57277000D01*
X42271000Y-57277000D01*
X42271000Y-58251250D01*
X42429750Y-58410000D01*
X43020309Y-58410000D01*
X43253698Y-58313327D01*
X43432327Y-58134699D01*
X43529000Y-57901310D01*
X43529000Y-57435750D01*
X43370250Y-57277000D01*
X42271000Y-57277000D01*
X42017000Y-57277000D01*
X41997000Y-57277000D01*
X41997000Y-57023000D01*
X42017000Y-57023000D01*
X42017000Y-56048750D01*
X42271000Y-56048750D01*
X42271000Y-57023000D01*
X43370250Y-57023000D01*
X43529000Y-56864250D01*
X43529000Y-56398690D01*
X43432327Y-56165301D01*
X43253698Y-55986673D01*
X43020309Y-55890000D01*
X42429750Y-55890000D01*
X42271000Y-56048750D01*
X42017000Y-56048750D01*
X41858250Y-55890000D01*
X41267691Y-55890000D01*
X41034302Y-55986673D01*
X40892654Y-56128320D01*
X40851809Y-56067191D01*
X40641765Y-55926843D01*
X40585856Y-55915722D01*
X40610148Y-55891431D01*
X40972280Y-55741431D01*
X41263431Y-55450280D01*
X41421000Y-55069874D01*
X41421000Y-54913296D01*
X43770524Y-54913296D01*
X43940355Y-55323330D01*
X44330642Y-55751589D01*
X44489954Y-55826406D01*
X44330642Y-55901223D01*
X43940355Y-56329482D01*
X43770524Y-56739516D01*
X43891845Y-56969406D01*
X45085000Y-56969406D01*
X45085000Y-54683406D01*
X45339000Y-54683406D01*
X45339000Y-56969406D01*
X47625000Y-56969406D01*
X47625000Y-54683406D01*
X47879000Y-54683406D01*
X47879000Y-56969406D01*
X49072155Y-56969406D01*
X49193476Y-56739516D01*
X49023645Y-56329482D01*
X48633358Y-55901223D01*
X48474046Y-55826406D01*
X48633358Y-55751589D01*
X49023645Y-55323330D01*
X49193476Y-54913296D01*
X49072155Y-54683406D01*
X47879000Y-54683406D01*
X47625000Y-54683406D01*
X45339000Y-54683406D01*
X45085000Y-54683406D01*
X43891845Y-54683406D01*
X43770524Y-54913296D01*
X41421000Y-54913296D01*
X41421000Y-54750138D01*
X41422000Y-54750337D01*
X41509161Y-54733000D01*
X41595993Y-54733000D01*
X41958126Y-54883000D01*
X42369874Y-54883000D01*
X42750280Y-54725431D01*
X43041431Y-54434280D01*
X43199000Y-54053874D01*
X43199000Y-53642126D01*
X43062478Y-53312533D01*
X43253698Y-53233327D01*
X43432327Y-53054699D01*
X43529000Y-52821310D01*
X43529000Y-52373296D01*
X43770524Y-52373296D01*
X43940355Y-52783330D01*
X44330642Y-53211589D01*
X44489954Y-53286406D01*
X44330642Y-53361223D01*
X43940355Y-53789482D01*
X43770524Y-54199516D01*
X43891845Y-54429406D01*
X45085000Y-54429406D01*
X45085000Y-52143406D01*
X45339000Y-52143406D01*
X45339000Y-54429406D01*
X47625000Y-54429406D01*
X47625000Y-52143406D01*
X47879000Y-52143406D01*
X47879000Y-54429406D01*
X49072155Y-54429406D01*
X49193476Y-54199516D01*
X49023645Y-53789482D01*
X48633358Y-53361223D01*
X48474046Y-53286406D01*
X48633358Y-53211589D01*
X49023645Y-52783330D01*
X49193476Y-52373296D01*
X49072155Y-52143406D01*
X47879000Y-52143406D01*
X47625000Y-52143406D01*
X45339000Y-52143406D01*
X45085000Y-52143406D01*
X43891845Y-52143406D01*
X43770524Y-52373296D01*
X43529000Y-52373296D01*
X43529000Y-52355750D01*
X43370250Y-52197000D01*
X42271000Y-52197000D01*
X42271000Y-52217000D01*
X42017000Y-52217000D01*
X42017000Y-52197000D01*
X41997000Y-52197000D01*
X41997000Y-51943000D01*
X42017000Y-51943000D01*
X42017000Y-50968750D01*
X42271000Y-50968750D01*
X42271000Y-51943000D01*
X43370250Y-51943000D01*
X43529000Y-51784250D01*
X43529000Y-51318690D01*
X43432327Y-51085301D01*
X43253698Y-50906673D01*
X43020309Y-50810000D01*
X42429750Y-50810000D01*
X42271000Y-50968750D01*
X42017000Y-50968750D01*
X41858250Y-50810000D01*
X41267691Y-50810000D01*
X41034302Y-50906673D01*
X40892654Y-51048320D01*
X40851809Y-50987191D01*
X40641765Y-50846843D01*
X40394000Y-50797560D01*
X40129000Y-50797560D01*
X40129000Y-50603050D01*
X40151809Y-50587809D01*
X40292157Y-50377765D01*
X40341440Y-50130000D01*
X40341440Y-48930000D01*
X41446560Y-48930000D01*
X41446560Y-50130000D01*
X41495843Y-50377765D01*
X41636191Y-50587809D01*
X41846235Y-50728157D01*
X42094000Y-50777440D01*
X42994000Y-50777440D01*
X43241765Y-50728157D01*
X43451809Y-50587809D01*
X43592157Y-50377765D01*
X43595411Y-50361406D01*
X44017344Y-50361406D01*
X44141375Y-50547031D01*
X44460478Y-50760249D01*
X44330642Y-50821223D01*
X43940355Y-51249482D01*
X43770524Y-51659516D01*
X43891845Y-51889406D01*
X45085000Y-51889406D01*
X45085000Y-51869406D01*
X45339000Y-51869406D01*
X45339000Y-51889406D01*
X47625000Y-51889406D01*
X47625000Y-51869406D01*
X47879000Y-51869406D01*
X47879000Y-51889406D01*
X49072155Y-51889406D01*
X49193476Y-51659516D01*
X49023645Y-51249482D01*
X48746292Y-50945145D01*
X48849765Y-50924563D01*
X49059809Y-50784215D01*
X49200157Y-50574171D01*
X49249440Y-50326406D01*
X49249440Y-48626406D01*
X49200157Y-48378641D01*
X49059809Y-48168597D01*
X48849765Y-48028249D01*
X48602000Y-47978966D01*
X46902000Y-47978966D01*
X46654235Y-48028249D01*
X46444191Y-48168597D01*
X46303843Y-48378641D01*
X46294816Y-48424025D01*
X46282625Y-48405781D01*
X45791418Y-48077567D01*
X45358256Y-47991406D01*
X45065744Y-47991406D01*
X44632582Y-48077567D01*
X44141375Y-48405781D01*
X44017344Y-48591406D01*
X43531467Y-48591406D01*
X43451809Y-48472191D01*
X43241765Y-48331843D01*
X42994000Y-48282560D01*
X42094000Y-48282560D01*
X41846235Y-48331843D01*
X41636191Y-48472191D01*
X41495843Y-48682235D01*
X41446560Y-48930000D01*
X40341440Y-48930000D01*
X40292157Y-48682235D01*
X40151809Y-48472191D01*
X40129000Y-48456950D01*
X40129000Y-47948711D01*
X40247431Y-47830280D01*
X40405000Y-47449874D01*
X40405000Y-47038126D01*
X40247431Y-46657720D01*
X39956280Y-46366569D01*
X39575874Y-46209000D01*
X39164126Y-46209000D01*
X38783720Y-46366569D01*
X38492569Y-46657720D01*
X38335000Y-47038126D01*
X38335000Y-47449874D01*
X38359001Y-47507817D01*
X38359000Y-48456950D01*
X38336191Y-48472191D01*
X38195843Y-48682235D01*
X38146560Y-48930000D01*
X38023000Y-48930000D01*
X38023000Y-17685691D01*
X38364000Y-17685691D01*
X38364000Y-18276250D01*
X38522750Y-18435000D01*
X39497000Y-18435000D01*
X39497000Y-17335750D01*
X39338250Y-17177000D01*
X38872690Y-17177000D01*
X38639301Y-17273673D01*
X38460673Y-17452302D01*
X38364000Y-17685691D01*
X38023000Y-17685691D01*
X38023000Y-13849052D01*
X38218000Y-13887840D01*
X39918000Y-13887840D01*
X40165765Y-13838557D01*
X40375809Y-13698209D01*
X40516157Y-13488165D01*
X40536739Y-13384692D01*
X40841076Y-13662045D01*
X41251110Y-13831876D01*
X41481000Y-13710555D01*
X41481000Y-12517400D01*
X41735000Y-12517400D01*
X41735000Y-13710555D01*
X41964890Y-13831876D01*
X42374924Y-13662045D01*
X42803183Y-13271758D01*
X42878000Y-13112446D01*
X42952817Y-13271758D01*
X43381076Y-13662045D01*
X43791110Y-13831876D01*
X44021000Y-13710555D01*
X44021000Y-12517400D01*
X44275000Y-12517400D01*
X44275000Y-13710555D01*
X44504890Y-13831876D01*
X44914924Y-13662045D01*
X45343183Y-13271758D01*
X45418000Y-13112446D01*
X45492817Y-13271758D01*
X45921076Y-13662045D01*
X46331110Y-13831876D01*
X46561000Y-13710555D01*
X46561000Y-12517400D01*
X44275000Y-12517400D01*
X44021000Y-12517400D01*
X41735000Y-12517400D01*
X41481000Y-12517400D01*
X41461000Y-12517400D01*
X41461000Y-12263400D01*
X41481000Y-12263400D01*
X41481000Y-12243400D01*
X41735000Y-12243400D01*
X41735000Y-12263400D01*
X41735000Y-12263400D01*
G37*
X41735000Y-12263400D02*
X44021000Y-12263400D01*
X44021000Y-12243400D01*
X44275000Y-12243400D01*
X44275000Y-12263400D01*
X46561000Y-12263400D01*
X46561000Y-12243400D01*
X46815000Y-12243400D01*
X46815000Y-12263400D01*
X46835000Y-12263400D01*
X46835000Y-12517400D01*
X46815000Y-12517400D01*
X46815000Y-13710555D01*
X47044890Y-13831876D01*
X47454924Y-13662045D01*
X47883183Y-13271758D01*
X47944157Y-13141922D01*
X48157375Y-13461025D01*
X48648582Y-13789239D01*
X49081744Y-13875400D01*
X49374256Y-13875400D01*
X49807418Y-13789239D01*
X50115001Y-13583719D01*
X50115001Y-30126783D01*
X50102631Y-30096920D01*
X49811480Y-29805769D01*
X49786440Y-29795397D01*
X49786440Y-28440000D01*
X49737157Y-28192235D01*
X49596809Y-27982191D01*
X49535680Y-27941346D01*
X49677327Y-27799698D01*
X49774000Y-27566309D01*
X49774000Y-26975750D01*
X49615250Y-26817000D01*
X48641000Y-26817000D01*
X48641000Y-26837000D01*
X48387000Y-26837000D01*
X48387000Y-26817000D01*
X47412750Y-26817000D01*
X47254000Y-26975750D01*
X47254000Y-27566309D01*
X47350673Y-27799698D01*
X47492320Y-27941346D01*
X47431191Y-27982191D01*
X47290843Y-28192235D01*
X47268413Y-28305000D01*
X46787279Y-28305000D01*
X46745157Y-28093235D01*
X46604809Y-27883191D01*
X46394765Y-27742843D01*
X46147000Y-27693560D01*
X45547000Y-27693560D01*
X45299235Y-27742843D01*
X45220028Y-27795768D01*
X45003310Y-27706000D01*
X44862750Y-27706000D01*
X44704000Y-27864750D01*
X44704000Y-28989000D01*
X44724000Y-28989000D01*
X44724000Y-29243000D01*
X44704000Y-29243000D01*
X44704000Y-29263000D01*
X44450000Y-29263000D01*
X44450000Y-29243000D01*
X44430000Y-29243000D01*
X44430000Y-28989000D01*
X44450000Y-28989000D01*
X44450000Y-27864750D01*
X44291250Y-27706000D01*
X44150690Y-27706000D01*
X44067000Y-27740666D01*
X44067000Y-26813053D01*
X44221127Y-26813053D01*
X44601533Y-26655484D01*
X44892684Y-26364333D01*
X45050253Y-25983927D01*
X45050253Y-25813691D01*
X47254000Y-25813691D01*
X47254000Y-26404250D01*
X47412750Y-26563000D01*
X48387000Y-26563000D01*
X48387000Y-25463750D01*
X48641000Y-25463750D01*
X48641000Y-26563000D01*
X49615250Y-26563000D01*
X49774000Y-26404250D01*
X49774000Y-25813691D01*
X49677327Y-25580302D01*
X49498699Y-25401673D01*
X49265310Y-25305000D01*
X48799750Y-25305000D01*
X48641000Y-25463750D01*
X48387000Y-25463750D01*
X48228250Y-25305000D01*
X47762690Y-25305000D01*
X47529301Y-25401673D01*
X47350673Y-25580302D01*
X47254000Y-25813691D01*
X45050253Y-25813691D01*
X45050253Y-25572179D01*
X44892684Y-25191773D01*
X44839351Y-25138440D01*
X44877000Y-25138440D01*
X45124765Y-25089157D01*
X45203972Y-25036232D01*
X45420690Y-25126000D01*
X45561250Y-25126000D01*
X45720000Y-24967250D01*
X45720000Y-23843000D01*
X45974000Y-23843000D01*
X45974000Y-24967250D01*
X46132750Y-25126000D01*
X46273310Y-25126000D01*
X46506699Y-25029327D01*
X46685327Y-24850698D01*
X46782000Y-24617309D01*
X46782000Y-24001750D01*
X46623250Y-23843000D01*
X45974000Y-23843000D01*
X45720000Y-23843000D01*
X45700000Y-23843000D01*
X45700000Y-23589000D01*
X45720000Y-23589000D01*
X45720000Y-22464750D01*
X45974000Y-22464750D01*
X45974000Y-23589000D01*
X46623250Y-23589000D01*
X46782000Y-23430250D01*
X46782000Y-22814691D01*
X46685327Y-22581302D01*
X46506699Y-22402673D01*
X46273310Y-22306000D01*
X46132750Y-22306000D01*
X45974000Y-22464750D01*
X45720000Y-22464750D01*
X45561250Y-22306000D01*
X45420690Y-22306000D01*
X45337000Y-22340666D01*
X45337000Y-21846440D01*
X45626052Y-21846440D01*
X45873817Y-21797157D01*
X46083861Y-21656809D01*
X46224209Y-21446765D01*
X46246639Y-21334000D01*
X46392612Y-21334000D01*
X46392612Y-21730841D01*
X46441895Y-21978606D01*
X46582243Y-22188650D01*
X46792287Y-22328998D01*
X47040052Y-22378281D01*
X48340052Y-22378281D01*
X48587817Y-22328998D01*
X48797861Y-22188650D01*
X48938209Y-21978606D01*
X48987492Y-21730841D01*
X48987492Y-20230841D01*
X48938209Y-19983076D01*
X48797861Y-19773032D01*
X48587817Y-19632684D01*
X48578552Y-19630841D01*
X48587817Y-19628998D01*
X48797861Y-19488650D01*
X48938209Y-19278606D01*
X48987492Y-19030841D01*
X48987492Y-17530841D01*
X48938209Y-17283076D01*
X48797861Y-17073032D01*
X48587817Y-16932684D01*
X48547122Y-16924589D01*
X48629431Y-16842280D01*
X48787000Y-16461874D01*
X48787000Y-16050126D01*
X48629431Y-15669720D01*
X48338280Y-15378569D01*
X47957874Y-15221000D01*
X47546126Y-15221000D01*
X47165720Y-15378569D01*
X46874569Y-15669720D01*
X46717000Y-16050126D01*
X46717000Y-16461874D01*
X46874569Y-16842280D01*
X46930053Y-16897764D01*
X46930053Y-16905281D01*
X46792287Y-16932684D01*
X46582243Y-17073032D01*
X46441895Y-17283076D01*
X46394601Y-17520841D01*
X46335699Y-17520841D01*
X46324209Y-17463076D01*
X46183861Y-17253032D01*
X45973817Y-17112684D01*
X45726052Y-17063401D01*
X44226052Y-17063401D01*
X43978287Y-17112684D01*
X43768243Y-17253032D01*
X43627895Y-17463076D01*
X43626052Y-17472341D01*
X43624209Y-17463076D01*
X43483861Y-17253032D01*
X43273817Y-17112684D01*
X43026052Y-17063401D01*
X41526052Y-17063401D01*
X41278287Y-17112684D01*
X41068243Y-17253032D01*
X40927895Y-17463076D01*
X40883740Y-17685062D01*
X40787327Y-17452302D01*
X40608699Y-17273673D01*
X40375310Y-17177000D01*
X39909750Y-17177000D01*
X39751000Y-17335750D01*
X39751000Y-18435000D01*
X39771000Y-18435000D01*
X39771000Y-18689000D01*
X39751000Y-18689000D01*
X39751000Y-18709000D01*
X39497000Y-18709000D01*
X39497000Y-18689000D01*
X38522750Y-18689000D01*
X38364000Y-18847750D01*
X38364000Y-19438309D01*
X38460673Y-19671698D01*
X38602320Y-19813346D01*
X38541191Y-19854191D01*
X38400843Y-20064235D01*
X38351560Y-20312000D01*
X38351560Y-21812000D01*
X38400843Y-22059765D01*
X38541191Y-22269809D01*
X38751235Y-22410157D01*
X38999000Y-22459440D01*
X40180638Y-22459440D01*
X40712198Y-22991000D01*
X40192007Y-22991000D01*
X39829874Y-22841000D01*
X39418126Y-22841000D01*
X39037720Y-22998569D01*
X38746569Y-23289720D01*
X38589000Y-23670126D01*
X38589000Y-24081874D01*
X38746569Y-24462280D01*
X39037720Y-24753431D01*
X39418126Y-24911000D01*
X39829874Y-24911000D01*
X40192007Y-24761000D01*
X41153700Y-24761000D01*
X41279191Y-24948809D01*
X41489235Y-25089157D01*
X41737000Y-25138440D01*
X42337000Y-25138440D01*
X42584765Y-25089157D01*
X42642859Y-25050339D01*
X42117199Y-25576000D01*
X40919451Y-25576000D01*
X40872157Y-25338235D01*
X40731809Y-25128191D01*
X40521765Y-24987843D01*
X40274000Y-24938560D01*
X38974000Y-24938560D01*
X38726235Y-24987843D01*
X38516191Y-25128191D01*
X38375843Y-25338235D01*
X38326560Y-25586000D01*
X38326560Y-27086000D01*
X38375843Y-27333765D01*
X38516191Y-27543809D01*
X38726235Y-27684157D01*
X38735500Y-27686000D01*
X38726235Y-27687843D01*
X38516191Y-27828191D01*
X38375843Y-28038235D01*
X38326560Y-28286000D01*
X38326560Y-29786000D01*
X38375843Y-30033765D01*
X38516191Y-30243809D01*
X38726235Y-30384157D01*
X38974000Y-30433440D01*
X39484053Y-30433440D01*
X39484053Y-30454549D01*
X39246287Y-30501843D01*
X39036243Y-30642191D01*
X38895895Y-30852235D01*
X38846612Y-31100000D01*
X38846612Y-32400000D01*
X38895895Y-32647765D01*
X39036243Y-32857809D01*
X39246287Y-32998157D01*
X39484052Y-33045451D01*
X39484053Y-36348560D01*
X38750000Y-36348560D01*
X38502235Y-36397843D01*
X38292191Y-36538191D01*
X38151843Y-36748235D01*
X38102560Y-36996000D01*
X38102560Y-38696000D01*
X38151843Y-38943765D01*
X38292191Y-39153809D01*
X38502235Y-39294157D01*
X38547619Y-39303184D01*
X38529375Y-39315375D01*
X38201161Y-39806582D01*
X38085908Y-40386000D01*
X38201161Y-40965418D01*
X38529375Y-41456625D01*
X38827761Y-41656000D01*
X38529375Y-41855375D01*
X38201161Y-42346582D01*
X38085908Y-42926000D01*
X38201161Y-43505418D01*
X38529375Y-43996625D01*
X39020582Y-44324839D01*
X39453744Y-44411000D01*
X39746256Y-44411000D01*
X40179418Y-44324839D01*
X40670625Y-43996625D01*
X40998839Y-43505418D01*
X41114092Y-42926000D01*
X40998839Y-42346582D01*
X40670625Y-41855375D01*
X40372239Y-41656000D01*
X40670625Y-41456625D01*
X40998839Y-40965418D01*
X41100011Y-40456790D01*
X48316473Y-33240329D01*
X48379929Y-33197929D01*
X48480483Y-33047440D01*
X48582000Y-33047440D01*
X48829765Y-32998157D01*
X49039809Y-32857809D01*
X49180157Y-32647765D01*
X49229440Y-32400000D01*
X49229440Y-31718200D01*
X49431074Y-31718200D01*
X49811480Y-31560631D01*
X50102631Y-31269480D01*
X50115001Y-31239617D01*
X50115000Y-95642081D01*
X49807418Y-95436561D01*
X49374256Y-95350400D01*
X49081744Y-95350400D01*
X48648582Y-95436561D01*
X48157375Y-95764775D01*
X47944157Y-96083878D01*
X47883183Y-95954042D01*
X47454924Y-95563755D01*
X47044890Y-95393924D01*
X46815000Y-95515245D01*
X46815000Y-96708400D01*
X46835000Y-96708400D01*
X46835000Y-96962400D01*
X46815000Y-96962400D01*
X46815000Y-96982400D01*
X46561000Y-96982400D01*
X46561000Y-96962400D01*
X44275000Y-96962400D01*
X44275000Y-96982400D01*
X44021000Y-96982400D01*
X44021000Y-96962400D01*
X41735000Y-96962400D01*
X41735000Y-96982400D01*
X41481000Y-96982400D01*
X41481000Y-96962400D01*
X41461000Y-96962400D01*
X41461000Y-96708400D01*
X41481000Y-96708400D01*
X41481000Y-95515245D01*
X41735000Y-95515245D01*
X41735000Y-96708400D01*
X44021000Y-96708400D01*
X44021000Y-95515245D01*
X44275000Y-95515245D01*
X44275000Y-96708400D01*
X46561000Y-96708400D01*
X46561000Y-95515245D01*
X46331110Y-95393924D01*
X45921076Y-95563755D01*
X45492817Y-95954042D01*
X45418000Y-96113354D01*
X45343183Y-95954042D01*
X44914924Y-95563755D01*
X44504890Y-95393924D01*
X44275000Y-95515245D01*
X44021000Y-95515245D01*
X43791110Y-95393924D01*
X43381076Y-95563755D01*
X42952817Y-95954042D01*
X42878000Y-96113354D01*
X42803183Y-95954042D01*
X42374924Y-95563755D01*
X41964890Y-95393924D01*
X41735000Y-95515245D01*
X41481000Y-95515245D01*
X41251110Y-95393924D01*
X40841076Y-95563755D01*
X40536739Y-95841108D01*
X40516157Y-95737635D01*
X40375809Y-95527591D01*
X40165765Y-95387243D01*
X39918000Y-95337960D01*
X38218000Y-95337960D01*
X38023000Y-95376748D01*
X38023000Y-86247583D01*
X41016603Y-86247583D01*
X41016603Y-86863142D01*
X41113276Y-87096531D01*
X41291904Y-87275160D01*
X41525293Y-87371833D01*
X41665853Y-87371833D01*
X41824603Y-87213083D01*
X41824603Y-86088833D01*
X41175353Y-86088833D01*
X41016603Y-86247583D01*
X38023000Y-86247583D01*
X38023000Y-85060524D01*
X41016603Y-85060524D01*
X41016603Y-85676083D01*
X41175353Y-85834833D01*
X41824603Y-85834833D01*
X41824603Y-84710583D01*
X41665853Y-84551833D01*
X41525293Y-84551833D01*
X41291904Y-84648506D01*
X41113276Y-84827135D01*
X41016603Y-85060524D01*
X38023000Y-85060524D01*
X38023000Y-83368452D01*
X38110000Y-83368452D01*
X38110000Y-83959011D01*
X38206673Y-84192400D01*
X38385301Y-84371029D01*
X38618690Y-84467702D01*
X39084250Y-84467702D01*
X39243000Y-84308952D01*
X39243000Y-83209702D01*
X39497000Y-83209702D01*
X39497000Y-84308952D01*
X39655750Y-84467702D01*
X40121310Y-84467702D01*
X40354699Y-84371029D01*
X40533327Y-84192400D01*
X40630000Y-83959011D01*
X40630000Y-83368452D01*
X40471250Y-83209702D01*
X39497000Y-83209702D01*
X39243000Y-83209702D01*
X38268750Y-83209702D01*
X38110000Y-83368452D01*
X38023000Y-83368452D01*
X38023000Y-69342000D01*
X38085908Y-69342000D01*
X38201161Y-69921418D01*
X38529375Y-70412625D01*
X38827761Y-70612000D01*
X38529375Y-70811375D01*
X38201161Y-71302582D01*
X38085908Y-71882000D01*
X38201161Y-72461418D01*
X38529375Y-72952625D01*
X39020582Y-73280839D01*
X39453744Y-73367000D01*
X39746256Y-73367000D01*
X40179418Y-73280839D01*
X40670625Y-72952625D01*
X40998839Y-72461418D01*
X41105980Y-71922782D01*
X41353201Y-72170003D01*
X41353200Y-74647130D01*
X39467958Y-76532373D01*
X39404502Y-76574773D01*
X39362102Y-76638229D01*
X39362101Y-76638230D01*
X39303948Y-76725262D01*
X39202430Y-76725262D01*
X38954665Y-76774545D01*
X38744621Y-76914893D01*
X38604273Y-77124937D01*
X38554990Y-77372702D01*
X38554990Y-78672702D01*
X38604273Y-78920467D01*
X38744621Y-79130511D01*
X38826561Y-79185262D01*
X38745000Y-79185262D01*
X38497235Y-79234545D01*
X38287191Y-79374893D01*
X38146843Y-79584937D01*
X38097560Y-79832702D01*
X38097560Y-81332702D01*
X38146843Y-81580467D01*
X38287191Y-81790511D01*
X38348320Y-81831356D01*
X38206673Y-81973004D01*
X38110000Y-82206393D01*
X38110000Y-82796952D01*
X38268750Y-82955702D01*
X39243000Y-82955702D01*
X39243000Y-82935702D01*
X39497000Y-82935702D01*
X39497000Y-82955702D01*
X40471250Y-82955702D01*
X40630000Y-82796952D01*
X40630000Y-82206393D01*
X40533327Y-81973004D01*
X40391680Y-81831356D01*
X40452809Y-81790511D01*
X40593157Y-81580467D01*
X40642440Y-81332702D01*
X40642440Y-81321833D01*
X41004163Y-81321833D01*
X41004163Y-81336833D01*
X41053446Y-81584598D01*
X41164403Y-81750656D01*
X41129000Y-81836126D01*
X41129000Y-82247874D01*
X41286569Y-82628280D01*
X41577720Y-82919431D01*
X41958126Y-83077000D01*
X42369874Y-83077000D01*
X42750280Y-82919431D01*
X43041431Y-82628280D01*
X43199000Y-82247874D01*
X43199000Y-81836126D01*
X43094603Y-81584089D01*
X43094603Y-80688833D01*
X43074603Y-80688833D01*
X43074603Y-80434833D01*
X43094603Y-80434833D01*
X43094603Y-80414833D01*
X43348603Y-80414833D01*
X43348603Y-80434833D01*
X43368603Y-80434833D01*
X43368603Y-80688833D01*
X43348603Y-80688833D01*
X43348603Y-81813083D01*
X43507353Y-81971833D01*
X43647913Y-81971833D01*
X43731604Y-81937167D01*
X43731604Y-82650794D01*
X43140199Y-83242200D01*
X42974126Y-83242200D01*
X42593720Y-83399769D01*
X42302569Y-83690920D01*
X42145000Y-84071326D01*
X42145000Y-84483074D01*
X42192189Y-84596997D01*
X42078603Y-84710583D01*
X42078603Y-85834833D01*
X42098603Y-85834833D01*
X42098603Y-86088833D01*
X42078603Y-86088833D01*
X42078603Y-87213083D01*
X42237353Y-87371833D01*
X42377913Y-87371833D01*
X42396500Y-87364134D01*
X42122130Y-87638505D01*
X42058675Y-87680904D01*
X42016275Y-87744360D01*
X42016274Y-87744361D01*
X41958121Y-87831393D01*
X41856603Y-87831393D01*
X41608838Y-87880676D01*
X41417246Y-88008695D01*
X41380157Y-87822235D01*
X41239809Y-87612191D01*
X41029765Y-87471843D01*
X40782000Y-87422560D01*
X39482000Y-87422560D01*
X39234235Y-87471843D01*
X39024191Y-87612191D01*
X38883843Y-87822235D01*
X38834560Y-88070000D01*
X38834560Y-89570000D01*
X38883843Y-89817765D01*
X39024191Y-90027809D01*
X39234235Y-90168157D01*
X39243500Y-90170000D01*
X39234235Y-90171843D01*
X39024191Y-90312191D01*
X38883843Y-90522235D01*
X38834560Y-90770000D01*
X38834560Y-92270000D01*
X38883843Y-92517765D01*
X39024191Y-92727809D01*
X39234235Y-92868157D01*
X39482000Y-92917440D01*
X40782000Y-92917440D01*
X41029765Y-92868157D01*
X41239809Y-92727809D01*
X41261339Y-92695587D01*
X41298794Y-92751642D01*
X41508838Y-92891990D01*
X41756603Y-92941273D01*
X41858121Y-92941273D01*
X41878828Y-92972262D01*
X41958675Y-93091762D01*
X42022131Y-93134162D01*
X42641240Y-93753272D01*
X42683641Y-93816729D01*
X42935033Y-93984704D01*
X43156718Y-94028800D01*
X43156722Y-94028800D01*
X43231569Y-94043688D01*
X43306416Y-94028800D01*
X47091706Y-94028800D01*
X47230169Y-94363080D01*
X47521320Y-94654231D01*
X47901726Y-94811800D01*
X48313474Y-94811800D01*
X48693880Y-94654231D01*
X48985031Y-94363080D01*
X49142600Y-93982674D01*
X49142600Y-93570926D01*
X48985031Y-93190520D01*
X48693880Y-92899369D01*
X48466053Y-92805000D01*
X48657740Y-92805000D01*
X48891129Y-92708327D01*
X49069757Y-92529698D01*
X49166430Y-92296309D01*
X49166430Y-91705750D01*
X49007680Y-91547000D01*
X48033430Y-91547000D01*
X48033430Y-91567000D01*
X47779430Y-91567000D01*
X47779430Y-91547000D01*
X46805180Y-91547000D01*
X46646430Y-91705750D01*
X46646430Y-92296309D01*
X46734447Y-92508800D01*
X46561284Y-92508800D01*
X46604043Y-92293833D01*
X46604043Y-90993833D01*
X46554760Y-90746068D01*
X46414412Y-90536024D01*
X46204368Y-90395676D01*
X45981712Y-90351387D01*
X46104368Y-90326990D01*
X46314412Y-90186642D01*
X46454760Y-89976598D01*
X46504043Y-89728833D01*
X46504043Y-89272357D01*
X46633990Y-89359185D01*
X46633990Y-89670000D01*
X46683273Y-89917765D01*
X46823621Y-90127809D01*
X46884750Y-90168654D01*
X46743103Y-90310302D01*
X46646430Y-90543691D01*
X46646430Y-91134250D01*
X46805180Y-91293000D01*
X47779430Y-91293000D01*
X47779430Y-91273000D01*
X48033430Y-91273000D01*
X48033430Y-91293000D01*
X49007680Y-91293000D01*
X49166430Y-91134250D01*
X49166430Y-90543691D01*
X49069757Y-90310302D01*
X48928110Y-90168654D01*
X48989239Y-90127809D01*
X49129587Y-89917765D01*
X49178870Y-89670000D01*
X49178870Y-88170000D01*
X49129587Y-87922235D01*
X48989239Y-87712191D01*
X48779195Y-87571843D01*
X48531430Y-87522560D01*
X47281430Y-87522560D01*
X47033665Y-87571843D01*
X46993926Y-87598396D01*
X46547754Y-87152225D01*
X46655482Y-86991000D01*
X46929993Y-86991000D01*
X47292126Y-87141000D01*
X47703874Y-87141000D01*
X48084280Y-86983431D01*
X48375431Y-86692280D01*
X48533000Y-86311874D01*
X48533000Y-85900126D01*
X48375431Y-85519720D01*
X48084280Y-85228569D01*
X47703874Y-85071000D01*
X47292126Y-85071000D01*
X46929993Y-85221000D01*
X46709043Y-85221000D01*
X46709043Y-85186833D01*
X46659760Y-84939068D01*
X46519412Y-84729024D01*
X46309368Y-84588676D01*
X46061603Y-84539393D01*
X45461603Y-84539393D01*
X45213838Y-84588676D01*
X45155745Y-84627493D01*
X45631238Y-84152000D01*
X47218549Y-84152000D01*
X47265843Y-84389765D01*
X47406191Y-84599809D01*
X47616235Y-84740157D01*
X47864000Y-84789440D01*
X49164000Y-84789440D01*
X49411765Y-84740157D01*
X49621809Y-84599809D01*
X49762157Y-84389765D01*
X49811440Y-84142000D01*
X49811440Y-82642000D01*
X49762157Y-82394235D01*
X49621809Y-82184191D01*
X49411765Y-82043843D01*
X49402500Y-82042000D01*
X49411765Y-82040157D01*
X49621809Y-81899809D01*
X49762157Y-81689765D01*
X49811440Y-81442000D01*
X49811440Y-79942000D01*
X49762157Y-79694235D01*
X49621809Y-79484191D01*
X49411765Y-79343843D01*
X49274000Y-79316440D01*
X49274000Y-78937483D01*
X49348760Y-78825598D01*
X49398043Y-78577833D01*
X49398043Y-77277833D01*
X49348760Y-77030068D01*
X49208412Y-76820024D01*
X48998368Y-76679676D01*
X48760603Y-76632382D01*
X48760603Y-74177451D01*
X48775491Y-74102603D01*
X48760603Y-74027755D01*
X48760603Y-74027751D01*
X48716507Y-73806066D01*
X48716507Y-73806065D01*
X48590932Y-73618130D01*
X48548532Y-73554674D01*
X48485076Y-73512274D01*
X41290331Y-66317530D01*
X41247929Y-66254071D01*
X41097440Y-66153517D01*
X41097440Y-65952000D01*
X41048157Y-65704235D01*
X40907809Y-65494191D01*
X40697765Y-65353843D01*
X40450000Y-65304560D01*
X38750000Y-65304560D01*
X38502235Y-65353843D01*
X38292191Y-65494191D01*
X38151843Y-65704235D01*
X38102560Y-65952000D01*
X38102560Y-67652000D01*
X38151843Y-67899765D01*
X38292191Y-68109809D01*
X38502235Y-68250157D01*
X38547619Y-68259184D01*
X38529375Y-68271375D01*
X38201161Y-68762582D01*
X38085908Y-69342000D01*
X38023000Y-69342000D01*
X38023000Y-48930000D01*
X38146560Y-48930000D01*
X38146560Y-50130000D01*
X38195843Y-50377765D01*
X38336191Y-50587809D01*
X38359001Y-50603050D01*
X38359001Y-51102714D01*
X38295843Y-51197235D01*
X38246560Y-51445000D01*
X38246560Y-52695000D01*
X38295843Y-52942765D01*
X38436191Y-53152809D01*
X38646235Y-53293157D01*
X38894000Y-53342440D01*
X39664862Y-53342440D01*
X40159829Y-53837407D01*
X39799720Y-53986569D01*
X39508569Y-54277720D01*
X39358569Y-54639852D01*
X39079845Y-54918577D01*
X39005952Y-54967951D01*
X38956578Y-55041844D01*
X38956576Y-55041846D01*
X38810348Y-55260691D01*
X38741663Y-55606000D01*
X38759001Y-55693165D01*
X38759001Y-55904413D01*
X38646235Y-55926843D01*
X38436191Y-56067191D01*
X38295843Y-56277235D01*
X38246560Y-56525000D01*
X38246560Y-57775000D01*
X38295843Y-58022765D01*
X38359001Y-58117287D01*
X38359000Y-58870950D01*
X38336191Y-58886191D01*
X38195843Y-59096235D01*
X38146560Y-59344000D01*
X38146560Y-60544000D01*
X38195843Y-60791765D01*
X38336191Y-61001809D01*
X38359001Y-61017050D01*
X38359001Y-61508835D01*
X38341663Y-61596000D01*
X38410348Y-61941309D01*
X38556576Y-62160154D01*
X38556578Y-62160156D01*
X38605952Y-62234049D01*
X38679845Y-62283423D01*
X40628569Y-64232148D01*
X40778569Y-64594280D01*
X41069720Y-64885431D01*
X41450126Y-65043000D01*
X41861874Y-65043000D01*
X42242280Y-64885431D01*
X42533431Y-64594280D01*
X42691000Y-64213874D01*
X42691000Y-63802126D01*
X42533431Y-63421720D01*
X42242280Y-63130569D01*
X41880148Y-62980569D01*
X40129000Y-61229422D01*
X40129000Y-61017050D01*
X40151809Y-61001809D01*
X40292157Y-60791765D01*
X40341440Y-60544000D01*
X40341440Y-59344000D01*
X41446560Y-59344000D01*
X41446560Y-60544000D01*
X41495843Y-60791765D01*
X41636191Y-61001809D01*
X41846235Y-61142157D01*
X42094000Y-61191440D01*
X42994000Y-61191440D01*
X43241765Y-61142157D01*
X43451809Y-61001809D01*
X43592157Y-60791765D01*
X43641440Y-60544000D01*
X43641440Y-60521406D01*
X44017344Y-60521406D01*
X44141375Y-60707031D01*
X44632582Y-61035245D01*
X45065744Y-61121406D01*
X45358256Y-61121406D01*
X45791418Y-61035245D01*
X46282625Y-60707031D01*
X46406656Y-60521406D01*
X46557344Y-60521406D01*
X46681375Y-60707031D01*
X47172582Y-61035245D01*
X47605744Y-61121406D01*
X47898256Y-61121406D01*
X48331418Y-61035245D01*
X48822625Y-60707031D01*
X49150839Y-60215824D01*
X49266092Y-59636406D01*
X49150839Y-59056988D01*
X48822625Y-58565781D01*
X48503522Y-58352563D01*
X48633358Y-58291589D01*
X49023645Y-57863330D01*
X49193476Y-57453296D01*
X49072155Y-57223406D01*
X47879000Y-57223406D01*
X47879000Y-57243406D01*
X47625000Y-57243406D01*
X47625000Y-57223406D01*
X45339000Y-57223406D01*
X45339000Y-57243406D01*
X45085000Y-57243406D01*
X45085000Y-57223406D01*
X43891845Y-57223406D01*
X43770524Y-57453296D01*
X43940355Y-57863330D01*
X44330642Y-58291589D01*
X44460478Y-58352563D01*
X44141375Y-58565781D01*
X44017344Y-58751406D01*
X43250091Y-58751406D01*
X43241765Y-58745843D01*
X42994000Y-58696560D01*
X42094000Y-58696560D01*
X41846235Y-58745843D01*
X41636191Y-58886191D01*
X41495843Y-59096235D01*
X41446560Y-59344000D01*
X40341440Y-59344000D01*
X40292157Y-59096235D01*
X40151809Y-58886191D01*
X40129000Y-58870950D01*
X40129000Y-58422440D01*
X40394000Y-58422440D01*
X40641765Y-58373157D01*
X40851809Y-58232809D01*
X40892654Y-58171680D01*
X41034302Y-58313327D01*
X41267691Y-58410000D01*
X41858250Y-58410000D01*
X42017000Y-58251250D01*
X42017000Y-57277000D01*
X42271000Y-57277000D01*
X42271000Y-58251250D01*
X42429750Y-58410000D01*
X43020309Y-58410000D01*
X43253698Y-58313327D01*
X43432327Y-58134699D01*
X43529000Y-57901310D01*
X43529000Y-57435750D01*
X43370250Y-57277000D01*
X42271000Y-57277000D01*
X42017000Y-57277000D01*
X41997000Y-57277000D01*
X41997000Y-57023000D01*
X42017000Y-57023000D01*
X42017000Y-56048750D01*
X42271000Y-56048750D01*
X42271000Y-57023000D01*
X43370250Y-57023000D01*
X43529000Y-56864250D01*
X43529000Y-56398690D01*
X43432327Y-56165301D01*
X43253698Y-55986673D01*
X43020309Y-55890000D01*
X42429750Y-55890000D01*
X42271000Y-56048750D01*
X42017000Y-56048750D01*
X41858250Y-55890000D01*
X41267691Y-55890000D01*
X41034302Y-55986673D01*
X40892654Y-56128320D01*
X40851809Y-56067191D01*
X40641765Y-55926843D01*
X40585856Y-55915722D01*
X40610148Y-55891431D01*
X40972280Y-55741431D01*
X41263431Y-55450280D01*
X41421000Y-55069874D01*
X41421000Y-54913296D01*
X43770524Y-54913296D01*
X43940355Y-55323330D01*
X44330642Y-55751589D01*
X44489954Y-55826406D01*
X44330642Y-55901223D01*
X43940355Y-56329482D01*
X43770524Y-56739516D01*
X43891845Y-56969406D01*
X45085000Y-56969406D01*
X45085000Y-54683406D01*
X45339000Y-54683406D01*
X45339000Y-56969406D01*
X47625000Y-56969406D01*
X47625000Y-54683406D01*
X47879000Y-54683406D01*
X47879000Y-56969406D01*
X49072155Y-56969406D01*
X49193476Y-56739516D01*
X49023645Y-56329482D01*
X48633358Y-55901223D01*
X48474046Y-55826406D01*
X48633358Y-55751589D01*
X49023645Y-55323330D01*
X49193476Y-54913296D01*
X49072155Y-54683406D01*
X47879000Y-54683406D01*
X47625000Y-54683406D01*
X45339000Y-54683406D01*
X45085000Y-54683406D01*
X43891845Y-54683406D01*
X43770524Y-54913296D01*
X41421000Y-54913296D01*
X41421000Y-54750138D01*
X41422000Y-54750337D01*
X41509161Y-54733000D01*
X41595993Y-54733000D01*
X41958126Y-54883000D01*
X42369874Y-54883000D01*
X42750280Y-54725431D01*
X43041431Y-54434280D01*
X43199000Y-54053874D01*
X43199000Y-53642126D01*
X43062478Y-53312533D01*
X43253698Y-53233327D01*
X43432327Y-53054699D01*
X43529000Y-52821310D01*
X43529000Y-52373296D01*
X43770524Y-52373296D01*
X43940355Y-52783330D01*
X44330642Y-53211589D01*
X44489954Y-53286406D01*
X44330642Y-53361223D01*
X43940355Y-53789482D01*
X43770524Y-54199516D01*
X43891845Y-54429406D01*
X45085000Y-54429406D01*
X45085000Y-52143406D01*
X45339000Y-52143406D01*
X45339000Y-54429406D01*
X47625000Y-54429406D01*
X47625000Y-52143406D01*
X47879000Y-52143406D01*
X47879000Y-54429406D01*
X49072155Y-54429406D01*
X49193476Y-54199516D01*
X49023645Y-53789482D01*
X48633358Y-53361223D01*
X48474046Y-53286406D01*
X48633358Y-53211589D01*
X49023645Y-52783330D01*
X49193476Y-52373296D01*
X49072155Y-52143406D01*
X47879000Y-52143406D01*
X47625000Y-52143406D01*
X45339000Y-52143406D01*
X45085000Y-52143406D01*
X43891845Y-52143406D01*
X43770524Y-52373296D01*
X43529000Y-52373296D01*
X43529000Y-52355750D01*
X43370250Y-52197000D01*
X42271000Y-52197000D01*
X42271000Y-52217000D01*
X42017000Y-52217000D01*
X42017000Y-52197000D01*
X41997000Y-52197000D01*
X41997000Y-51943000D01*
X42017000Y-51943000D01*
X42017000Y-50968750D01*
X42271000Y-50968750D01*
X42271000Y-51943000D01*
X43370250Y-51943000D01*
X43529000Y-51784250D01*
X43529000Y-51318690D01*
X43432327Y-51085301D01*
X43253698Y-50906673D01*
X43020309Y-50810000D01*
X42429750Y-50810000D01*
X42271000Y-50968750D01*
X42017000Y-50968750D01*
X41858250Y-50810000D01*
X41267691Y-50810000D01*
X41034302Y-50906673D01*
X40892654Y-51048320D01*
X40851809Y-50987191D01*
X40641765Y-50846843D01*
X40394000Y-50797560D01*
X40129000Y-50797560D01*
X40129000Y-50603050D01*
X40151809Y-50587809D01*
X40292157Y-50377765D01*
X40341440Y-50130000D01*
X40341440Y-48930000D01*
X41446560Y-48930000D01*
X41446560Y-50130000D01*
X41495843Y-50377765D01*
X41636191Y-50587809D01*
X41846235Y-50728157D01*
X42094000Y-50777440D01*
X42994000Y-50777440D01*
X43241765Y-50728157D01*
X43451809Y-50587809D01*
X43592157Y-50377765D01*
X43595411Y-50361406D01*
X44017344Y-50361406D01*
X44141375Y-50547031D01*
X44460478Y-50760249D01*
X44330642Y-50821223D01*
X43940355Y-51249482D01*
X43770524Y-51659516D01*
X43891845Y-51889406D01*
X45085000Y-51889406D01*
X45085000Y-51869406D01*
X45339000Y-51869406D01*
X45339000Y-51889406D01*
X47625000Y-51889406D01*
X47625000Y-51869406D01*
X47879000Y-51869406D01*
X47879000Y-51889406D01*
X49072155Y-51889406D01*
X49193476Y-51659516D01*
X49023645Y-51249482D01*
X48746292Y-50945145D01*
X48849765Y-50924563D01*
X49059809Y-50784215D01*
X49200157Y-50574171D01*
X49249440Y-50326406D01*
X49249440Y-48626406D01*
X49200157Y-48378641D01*
X49059809Y-48168597D01*
X48849765Y-48028249D01*
X48602000Y-47978966D01*
X46902000Y-47978966D01*
X46654235Y-48028249D01*
X46444191Y-48168597D01*
X46303843Y-48378641D01*
X46294816Y-48424025D01*
X46282625Y-48405781D01*
X45791418Y-48077567D01*
X45358256Y-47991406D01*
X45065744Y-47991406D01*
X44632582Y-48077567D01*
X44141375Y-48405781D01*
X44017344Y-48591406D01*
X43531467Y-48591406D01*
X43451809Y-48472191D01*
X43241765Y-48331843D01*
X42994000Y-48282560D01*
X42094000Y-48282560D01*
X41846235Y-48331843D01*
X41636191Y-48472191D01*
X41495843Y-48682235D01*
X41446560Y-48930000D01*
X40341440Y-48930000D01*
X40292157Y-48682235D01*
X40151809Y-48472191D01*
X40129000Y-48456950D01*
X40129000Y-47948711D01*
X40247431Y-47830280D01*
X40405000Y-47449874D01*
X40405000Y-47038126D01*
X40247431Y-46657720D01*
X39956280Y-46366569D01*
X39575874Y-46209000D01*
X39164126Y-46209000D01*
X38783720Y-46366569D01*
X38492569Y-46657720D01*
X38335000Y-47038126D01*
X38335000Y-47449874D01*
X38359001Y-47507817D01*
X38359000Y-48456950D01*
X38336191Y-48472191D01*
X38195843Y-48682235D01*
X38146560Y-48930000D01*
X38023000Y-48930000D01*
X38023000Y-17685691D01*
X38364000Y-17685691D01*
X38364000Y-18276250D01*
X38522750Y-18435000D01*
X39497000Y-18435000D01*
X39497000Y-17335750D01*
X39338250Y-17177000D01*
X38872690Y-17177000D01*
X38639301Y-17273673D01*
X38460673Y-17452302D01*
X38364000Y-17685691D01*
X38023000Y-17685691D01*
X38023000Y-13849052D01*
X38218000Y-13887840D01*
X39918000Y-13887840D01*
X40165765Y-13838557D01*
X40375809Y-13698209D01*
X40516157Y-13488165D01*
X40536739Y-13384692D01*
X40841076Y-13662045D01*
X41251110Y-13831876D01*
X41481000Y-13710555D01*
X41481000Y-12517400D01*
X41735000Y-12517400D01*
X41735000Y-13710555D01*
X41964890Y-13831876D01*
X42374924Y-13662045D01*
X42803183Y-13271758D01*
X42878000Y-13112446D01*
X42952817Y-13271758D01*
X43381076Y-13662045D01*
X43791110Y-13831876D01*
X44021000Y-13710555D01*
X44021000Y-12517400D01*
X44275000Y-12517400D01*
X44275000Y-13710555D01*
X44504890Y-13831876D01*
X44914924Y-13662045D01*
X45343183Y-13271758D01*
X45418000Y-13112446D01*
X45492817Y-13271758D01*
X45921076Y-13662045D01*
X46331110Y-13831876D01*
X46561000Y-13710555D01*
X46561000Y-12517400D01*
X44275000Y-12517400D01*
X44021000Y-12517400D01*
X41735000Y-12517400D01*
X41481000Y-12517400D01*
X41461000Y-12517400D01*
X41461000Y-12263400D01*
X41481000Y-12263400D01*
X41481000Y-12243400D01*
X41735000Y-12243400D01*
X41735000Y-12263400D01*
G04 #@! TD*
M02*
