G04 #@! TF.GenerationSoftware,KiCad,Pcbnew,(5.0.0-rc2-47-g52fceb3)*
G04 #@! TF.CreationDate,2018-06-13T16:43:58-05:00*
G04 #@! TF.ProjectId,nearness_att_panel,6E6561726E6573735F6174745F70616E,rev?*
G04 #@! TF.SameCoordinates,Original*
G04 #@! TF.FileFunction,Soldermask,Bot*
G04 #@! TF.FilePolarity,Negative*
%FSLAX46Y46*%
G04 Gerber Fmt 4.6, Leading zero omitted, Abs format (unit mm)*
G04 Created by KiCad (PCBNEW (5.0.0-rc2-47-g52fceb3)) date Wednesday, June 13, 2018 at 04:43:58 PM*
%MOMM*%
%LPD*%
G01*
G04 APERTURE LIST*
%ADD10C,0.300000*%
%ADD11C,0.250000*%
%ADD12C,6.600000*%
%ADD13C,3.600000*%
G04 APERTURE END LIST*
D10*
X22324506Y-103600120D02*
X22499469Y-103701135D01*
X22398454Y-103876099D01*
X22223490Y-103775084D01*
X22324506Y-103600120D01*
X22398454Y-103876099D01*
X22102661Y-102772184D02*
X21520982Y-101153285D01*
X21621997Y-100978321D01*
X21796960Y-101079337D01*
X22102661Y-102772184D01*
X21621997Y-100978321D01*
X22121306Y-39388920D02*
X22296269Y-39489935D01*
X22195254Y-39664899D01*
X22020290Y-39563884D01*
X22121306Y-39388920D01*
X22195254Y-39664899D01*
X21899461Y-38560984D02*
X21317782Y-36942085D01*
X21418797Y-36767121D01*
X21593760Y-36868137D01*
X21899461Y-38560984D01*
X21418797Y-36767121D01*
X22527706Y-71088120D02*
X22702669Y-71189135D01*
X22601654Y-71364099D01*
X22426690Y-71263084D01*
X22527706Y-71088120D01*
X22601654Y-71364099D01*
X22305861Y-70260184D02*
X21724182Y-68641285D01*
X21825197Y-68466321D01*
X22000160Y-68567337D01*
X22305861Y-70260184D01*
X21825197Y-68466321D01*
D11*
X28297142Y-65594457D02*
X28344761Y-65546838D01*
X28392380Y-65403980D01*
X28392380Y-65308742D01*
X28344761Y-65165885D01*
X28249523Y-65070647D01*
X28154285Y-65023028D01*
X27963809Y-64975409D01*
X27820952Y-64975409D01*
X27630476Y-65023028D01*
X27535238Y-65070647D01*
X27440000Y-65165885D01*
X27392380Y-65308742D01*
X27392380Y-65403980D01*
X27440000Y-65546838D01*
X27487619Y-65594457D01*
X28297142Y-66594457D02*
X28344761Y-66546838D01*
X28392380Y-66403980D01*
X28392380Y-66308742D01*
X28344761Y-66165885D01*
X28249523Y-66070647D01*
X28154285Y-66023028D01*
X27963809Y-65975409D01*
X27820952Y-65975409D01*
X27630476Y-66023028D01*
X27535238Y-66070647D01*
X27440000Y-66165885D01*
X27392380Y-66308742D01*
X27392380Y-66403980D01*
X27440000Y-66546838D01*
X27487619Y-66594457D01*
X27868571Y-68118266D02*
X27916190Y-68261123D01*
X27963809Y-68308742D01*
X28059047Y-68356361D01*
X28201904Y-68356361D01*
X28297142Y-68308742D01*
X28344761Y-68261123D01*
X28392380Y-68165885D01*
X28392380Y-67784933D01*
X27392380Y-67784933D01*
X27392380Y-68118266D01*
X27440000Y-68213504D01*
X27487619Y-68261123D01*
X27582857Y-68308742D01*
X27678095Y-68308742D01*
X27773333Y-68261123D01*
X27820952Y-68213504D01*
X27868571Y-68118266D01*
X27868571Y-67784933D01*
X27916190Y-68975409D02*
X28392380Y-68975409D01*
X27392380Y-68642076D02*
X27916190Y-68975409D01*
X27392380Y-69308742D01*
X28344761Y-70356361D02*
X28392380Y-70499219D01*
X28392380Y-70737314D01*
X28344761Y-70832552D01*
X28297142Y-70880171D01*
X28201904Y-70927790D01*
X28106666Y-70927790D01*
X28011428Y-70880171D01*
X27963809Y-70832552D01*
X27916190Y-70737314D01*
X27868571Y-70546838D01*
X27820952Y-70451600D01*
X27773333Y-70403980D01*
X27678095Y-70356361D01*
X27582857Y-70356361D01*
X27487619Y-70403980D01*
X27440000Y-70451600D01*
X27392380Y-70546838D01*
X27392380Y-70784933D01*
X27440000Y-70927790D01*
X28106666Y-71308742D02*
X28106666Y-71784933D01*
X28392380Y-71213504D02*
X27392380Y-71546838D01*
X28392380Y-71880171D01*
X27725714Y-73403980D02*
X28392380Y-73403980D01*
X27344761Y-73165885D02*
X28059047Y-72927790D01*
X28059047Y-73546838D01*
X28297142Y-73927790D02*
X28344761Y-73975409D01*
X28392380Y-73927790D01*
X28344761Y-73880171D01*
X28297142Y-73927790D01*
X28392380Y-73927790D01*
X27392380Y-74594457D02*
X27392380Y-74689695D01*
X27440000Y-74784933D01*
X27487619Y-74832552D01*
X27582857Y-74880171D01*
X27773333Y-74927790D01*
X28011428Y-74927790D01*
X28201904Y-74880171D01*
X28297142Y-74832552D01*
X28344761Y-74784933D01*
X28392380Y-74689695D01*
X28392380Y-74594457D01*
X28344761Y-74499219D01*
X28297142Y-74451600D01*
X28201904Y-74403980D01*
X28011428Y-74356361D01*
X27773333Y-74356361D01*
X27582857Y-74403980D01*
X27487619Y-74451600D01*
X27440000Y-74499219D01*
X27392380Y-74594457D01*
X21922571Y-119414580D02*
X22017809Y-119366961D01*
X22065428Y-119319342D01*
X22113047Y-119224104D01*
X22113047Y-118938390D01*
X22065428Y-118843152D01*
X22017809Y-118795533D01*
X21922571Y-118747914D01*
X21779714Y-118747914D01*
X21684476Y-118795533D01*
X21636857Y-118843152D01*
X21589238Y-118938390D01*
X21589238Y-119224104D01*
X21636857Y-119319342D01*
X21684476Y-119366961D01*
X21779714Y-119414580D01*
X21922571Y-119414580D01*
X21160666Y-119414580D02*
X21160666Y-118747914D01*
X21160666Y-118938390D02*
X21113047Y-118843152D01*
X21065428Y-118795533D01*
X20970190Y-118747914D01*
X20874952Y-118747914D01*
X20541619Y-119414580D02*
X20541619Y-118747914D01*
X20541619Y-118414580D02*
X20589238Y-118462200D01*
X20541619Y-118509819D01*
X20494000Y-118462200D01*
X20541619Y-118414580D01*
X20541619Y-118509819D01*
X19636857Y-118747914D02*
X19636857Y-119557438D01*
X19684476Y-119652676D01*
X19732095Y-119700295D01*
X19827333Y-119747914D01*
X19970190Y-119747914D01*
X20065428Y-119700295D01*
X19636857Y-119366961D02*
X19732095Y-119414580D01*
X19922571Y-119414580D01*
X20017809Y-119366961D01*
X20065428Y-119319342D01*
X20113047Y-119224104D01*
X20113047Y-118938390D01*
X20065428Y-118843152D01*
X20017809Y-118795533D01*
X19922571Y-118747914D01*
X19732095Y-118747914D01*
X19636857Y-118795533D01*
X19160666Y-119414580D02*
X19160666Y-118747914D01*
X19160666Y-118414580D02*
X19208285Y-118462200D01*
X19160666Y-118509819D01*
X19113047Y-118462200D01*
X19160666Y-118414580D01*
X19160666Y-118509819D01*
X18684476Y-118747914D02*
X18684476Y-119414580D01*
X18684476Y-118843152D02*
X18636857Y-118795533D01*
X18541619Y-118747914D01*
X18398761Y-118747914D01*
X18303523Y-118795533D01*
X18255904Y-118890771D01*
X18255904Y-119414580D01*
X17351142Y-119414580D02*
X17351142Y-118890771D01*
X17398761Y-118795533D01*
X17494000Y-118747914D01*
X17684476Y-118747914D01*
X17779714Y-118795533D01*
X17351142Y-119366961D02*
X17446380Y-119414580D01*
X17684476Y-119414580D01*
X17779714Y-119366961D01*
X17827333Y-119271723D01*
X17827333Y-119176485D01*
X17779714Y-119081247D01*
X17684476Y-119033628D01*
X17446380Y-119033628D01*
X17351142Y-118986009D01*
X16732095Y-119414580D02*
X16827333Y-119366961D01*
X16874952Y-119271723D01*
X16874952Y-118414580D01*
X15589238Y-118747914D02*
X15589238Y-119414580D01*
X15589238Y-118843152D02*
X15541619Y-118795533D01*
X15446380Y-118747914D01*
X15303523Y-118747914D01*
X15208285Y-118795533D01*
X15160666Y-118890771D01*
X15160666Y-119414580D01*
X14303523Y-119366961D02*
X14398761Y-119414580D01*
X14589238Y-119414580D01*
X14684476Y-119366961D01*
X14732095Y-119271723D01*
X14732095Y-118890771D01*
X14684476Y-118795533D01*
X14589238Y-118747914D01*
X14398761Y-118747914D01*
X14303523Y-118795533D01*
X14255904Y-118890771D01*
X14255904Y-118986009D01*
X14732095Y-119081247D01*
X13398761Y-119414580D02*
X13398761Y-118890771D01*
X13446380Y-118795533D01*
X13541619Y-118747914D01*
X13732095Y-118747914D01*
X13827333Y-118795533D01*
X13398761Y-119366961D02*
X13494000Y-119414580D01*
X13732095Y-119414580D01*
X13827333Y-119366961D01*
X13874952Y-119271723D01*
X13874952Y-119176485D01*
X13827333Y-119081247D01*
X13732095Y-119033628D01*
X13494000Y-119033628D01*
X13398761Y-118986009D01*
X12922571Y-119414580D02*
X12922571Y-118747914D01*
X12922571Y-118938390D02*
X12874952Y-118843152D01*
X12827333Y-118795533D01*
X12732095Y-118747914D01*
X12636857Y-118747914D01*
X12303523Y-118747914D02*
X12303523Y-119414580D01*
X12303523Y-118843152D02*
X12255904Y-118795533D01*
X12160666Y-118747914D01*
X12017809Y-118747914D01*
X11922571Y-118795533D01*
X11874952Y-118890771D01*
X11874952Y-119414580D01*
X11017809Y-119366961D02*
X11113047Y-119414580D01*
X11303523Y-119414580D01*
X11398761Y-119366961D01*
X11446380Y-119271723D01*
X11446380Y-118890771D01*
X11398761Y-118795533D01*
X11303523Y-118747914D01*
X11113047Y-118747914D01*
X11017809Y-118795533D01*
X10970190Y-118890771D01*
X10970190Y-118986009D01*
X11446380Y-119081247D01*
X10589238Y-119366961D02*
X10494000Y-119414580D01*
X10303523Y-119414580D01*
X10208285Y-119366961D01*
X10160666Y-119271723D01*
X10160666Y-119224104D01*
X10208285Y-119128866D01*
X10303523Y-119081247D01*
X10446380Y-119081247D01*
X10541619Y-119033628D01*
X10589238Y-118938390D01*
X10589238Y-118890771D01*
X10541619Y-118795533D01*
X10446380Y-118747914D01*
X10303523Y-118747914D01*
X10208285Y-118795533D01*
X9779714Y-119366961D02*
X9684476Y-119414580D01*
X9494000Y-119414580D01*
X9398761Y-119366961D01*
X9351142Y-119271723D01*
X9351142Y-119224104D01*
X9398761Y-119128866D01*
X9494000Y-119081247D01*
X9636857Y-119081247D01*
X9732095Y-119033628D01*
X9779714Y-118938390D01*
X9779714Y-118890771D01*
X9732095Y-118795533D01*
X9636857Y-118747914D01*
X9494000Y-118747914D01*
X9398761Y-118795533D01*
X8922571Y-119319342D02*
X8874952Y-119366961D01*
X8922571Y-119414580D01*
X8970190Y-119366961D01*
X8922571Y-119319342D01*
X8922571Y-119414580D01*
X8922571Y-118795533D02*
X8874952Y-118843152D01*
X8922571Y-118890771D01*
X8970190Y-118843152D01*
X8922571Y-118795533D01*
X8922571Y-118890771D01*
X20970190Y-120164580D02*
X20970190Y-120878866D01*
X21017809Y-121021723D01*
X21113047Y-121116961D01*
X21255904Y-121164580D01*
X21351142Y-121164580D01*
X20113047Y-121116961D02*
X20208285Y-121164580D01*
X20398761Y-121164580D01*
X20494000Y-121116961D01*
X20541619Y-121021723D01*
X20541619Y-120640771D01*
X20494000Y-120545533D01*
X20398761Y-120497914D01*
X20208285Y-120497914D01*
X20113047Y-120545533D01*
X20065428Y-120640771D01*
X20065428Y-120736009D01*
X20541619Y-120831247D01*
X19684476Y-121116961D02*
X19589238Y-121164580D01*
X19398761Y-121164580D01*
X19303523Y-121116961D01*
X19255904Y-121021723D01*
X19255904Y-120974104D01*
X19303523Y-120878866D01*
X19398761Y-120831247D01*
X19541619Y-120831247D01*
X19636857Y-120783628D01*
X19684476Y-120688390D01*
X19684476Y-120640771D01*
X19636857Y-120545533D01*
X19541619Y-120497914D01*
X19398761Y-120497914D01*
X19303523Y-120545533D01*
X18827333Y-120497914D02*
X18827333Y-121497914D01*
X18827333Y-120545533D02*
X18732095Y-120497914D01*
X18541619Y-120497914D01*
X18446380Y-120545533D01*
X18398761Y-120593152D01*
X18351142Y-120688390D01*
X18351142Y-120974104D01*
X18398761Y-121069342D01*
X18446380Y-121116961D01*
X18541619Y-121164580D01*
X18732095Y-121164580D01*
X18827333Y-121116961D01*
X17541619Y-121116961D02*
X17636857Y-121164580D01*
X17827333Y-121164580D01*
X17922571Y-121116961D01*
X17970190Y-121021723D01*
X17970190Y-120640771D01*
X17922571Y-120545533D01*
X17827333Y-120497914D01*
X17636857Y-120497914D01*
X17541619Y-120545533D01*
X17494000Y-120640771D01*
X17494000Y-120736009D01*
X17970190Y-120831247D01*
X17065428Y-121164580D02*
X17065428Y-120497914D01*
X17065428Y-120688390D02*
X17017809Y-120593152D01*
X16970190Y-120545533D01*
X16874952Y-120497914D01*
X16779714Y-120497914D01*
X15732095Y-121116961D02*
X15589238Y-121164580D01*
X15351142Y-121164580D01*
X15255904Y-121116961D01*
X15208285Y-121069342D01*
X15160666Y-120974104D01*
X15160666Y-120878866D01*
X15208285Y-120783628D01*
X15255904Y-120736009D01*
X15351142Y-120688390D01*
X15541619Y-120640771D01*
X15636857Y-120593152D01*
X15684476Y-120545533D01*
X15732095Y-120450295D01*
X15732095Y-120355057D01*
X15684476Y-120259819D01*
X15636857Y-120212200D01*
X15541619Y-120164580D01*
X15303523Y-120164580D01*
X15160666Y-120212200D01*
X14303523Y-121164580D02*
X14303523Y-120640771D01*
X14351142Y-120545533D01*
X14446380Y-120497914D01*
X14636857Y-120497914D01*
X14732095Y-120545533D01*
X14303523Y-121116961D02*
X14398761Y-121164580D01*
X14636857Y-121164580D01*
X14732095Y-121116961D01*
X14779714Y-121021723D01*
X14779714Y-120926485D01*
X14732095Y-120831247D01*
X14636857Y-120783628D01*
X14398761Y-120783628D01*
X14303523Y-120736009D01*
X14732095Y-120164580D02*
X14684476Y-120212200D01*
X14732095Y-120259819D01*
X14779714Y-120212200D01*
X14732095Y-120164580D01*
X14732095Y-120259819D01*
X14351142Y-120164580D02*
X14303523Y-120212200D01*
X14351142Y-120259819D01*
X14398761Y-120212200D01*
X14351142Y-120164580D01*
X14351142Y-120259819D01*
X13827333Y-121164580D02*
X13827333Y-120497914D01*
X13827333Y-120688390D02*
X13779714Y-120593152D01*
X13732095Y-120545533D01*
X13636857Y-120497914D01*
X13541619Y-120497914D01*
X13208285Y-120497914D02*
X13208285Y-121164580D01*
X13208285Y-120593152D02*
X13160666Y-120545533D01*
X13065428Y-120497914D01*
X12922571Y-120497914D01*
X12827333Y-120545533D01*
X12779714Y-120640771D01*
X12779714Y-121164580D01*
X11922571Y-121116961D02*
X12017809Y-121164580D01*
X12208285Y-121164580D01*
X12303523Y-121116961D01*
X12351142Y-121021723D01*
X12351142Y-120640771D01*
X12303523Y-120545533D01*
X12208285Y-120497914D01*
X12017809Y-120497914D01*
X11922571Y-120545533D01*
X11874952Y-120640771D01*
X11874952Y-120736009D01*
X12351142Y-120831247D01*
X11494000Y-121116961D02*
X11398761Y-121164580D01*
X11208285Y-121164580D01*
X11113047Y-121116961D01*
X11065428Y-121021723D01*
X11065428Y-120974104D01*
X11113047Y-120878866D01*
X11208285Y-120831247D01*
X11351142Y-120831247D01*
X11446380Y-120783628D01*
X11494000Y-120688390D01*
X11494000Y-120640771D01*
X11446380Y-120545533D01*
X11351142Y-120497914D01*
X11208285Y-120497914D01*
X11113047Y-120545533D01*
X10636857Y-120497914D02*
X10636857Y-121355057D01*
X10684476Y-121450295D01*
X10779714Y-121497914D01*
X10827333Y-121497914D01*
X10636857Y-120164580D02*
X10684476Y-120212200D01*
X10636857Y-120259819D01*
X10589238Y-120212200D01*
X10636857Y-120164580D01*
X10636857Y-120259819D01*
X10017809Y-121164580D02*
X10113047Y-121116961D01*
X10160666Y-121069342D01*
X10208285Y-120974104D01*
X10208285Y-120688390D01*
X10160666Y-120593152D01*
X10113047Y-120545533D01*
X10017809Y-120497914D01*
X9874952Y-120497914D01*
X9779714Y-120545533D01*
X9732095Y-120593152D01*
X9684476Y-120688390D01*
X9684476Y-120974104D01*
X9732095Y-121069342D01*
X9779714Y-121116961D01*
X9874952Y-121164580D01*
X10017809Y-121164580D01*
X10113047Y-120164580D02*
X10065428Y-120212200D01*
X10113047Y-120259819D01*
X10160666Y-120212200D01*
X10113047Y-120164580D01*
X10113047Y-120259819D01*
X9732095Y-120164580D02*
X9684476Y-120212200D01*
X9732095Y-120259819D01*
X9779714Y-120212200D01*
X9732095Y-120164580D01*
X9732095Y-120259819D01*
X22111409Y-8049580D02*
X22111409Y-7525771D01*
X22159028Y-7430533D01*
X22254266Y-7382914D01*
X22444742Y-7382914D01*
X22539980Y-7430533D01*
X22111409Y-8001961D02*
X22206647Y-8049580D01*
X22444742Y-8049580D01*
X22539980Y-8001961D01*
X22587600Y-7906723D01*
X22587600Y-7811485D01*
X22539980Y-7716247D01*
X22444742Y-7668628D01*
X22206647Y-7668628D01*
X22111409Y-7621009D01*
X21778076Y-7382914D02*
X21397123Y-7382914D01*
X21635219Y-7049580D02*
X21635219Y-7906723D01*
X21587600Y-8001961D01*
X21492361Y-8049580D01*
X21397123Y-8049580D01*
X21206647Y-7382914D02*
X20825695Y-7382914D01*
X21063790Y-7049580D02*
X21063790Y-7906723D01*
X21016171Y-8001961D01*
X20920933Y-8049580D01*
X20825695Y-8049580D01*
X20111409Y-8001961D02*
X20206647Y-8049580D01*
X20397123Y-8049580D01*
X20492361Y-8001961D01*
X20539980Y-7906723D01*
X20539980Y-7525771D01*
X20492361Y-7430533D01*
X20397123Y-7382914D01*
X20206647Y-7382914D01*
X20111409Y-7430533D01*
X20063790Y-7525771D01*
X20063790Y-7621009D01*
X20539980Y-7716247D01*
X19635219Y-7382914D02*
X19635219Y-8049580D01*
X19635219Y-7478152D02*
X19587600Y-7430533D01*
X19492361Y-7382914D01*
X19349504Y-7382914D01*
X19254266Y-7430533D01*
X19206647Y-7525771D01*
X19206647Y-8049580D01*
X18301885Y-7382914D02*
X18301885Y-8049580D01*
X18730457Y-7382914D02*
X18730457Y-7906723D01*
X18682838Y-8001961D01*
X18587600Y-8049580D01*
X18444742Y-8049580D01*
X18349504Y-8001961D01*
X18301885Y-7954342D01*
X17397123Y-8049580D02*
X17397123Y-7525771D01*
X17444742Y-7430533D01*
X17539980Y-7382914D01*
X17730457Y-7382914D01*
X17825695Y-7430533D01*
X17397123Y-8001961D02*
X17492361Y-8049580D01*
X17730457Y-8049580D01*
X17825695Y-8001961D01*
X17873314Y-7906723D01*
X17873314Y-7811485D01*
X17825695Y-7716247D01*
X17730457Y-7668628D01*
X17492361Y-7668628D01*
X17397123Y-7621009D01*
X17063790Y-7382914D02*
X16682838Y-7382914D01*
X16920933Y-7049580D02*
X16920933Y-7906723D01*
X16873314Y-8001961D01*
X16778076Y-8049580D01*
X16682838Y-8049580D01*
X15968552Y-8001961D02*
X16063790Y-8049580D01*
X16254266Y-8049580D01*
X16349504Y-8001961D01*
X16397123Y-7906723D01*
X16397123Y-7525771D01*
X16349504Y-7430533D01*
X16254266Y-7382914D01*
X16063790Y-7382914D01*
X15968552Y-7430533D01*
X15920933Y-7525771D01*
X15920933Y-7621009D01*
X16397123Y-7716247D01*
X15063790Y-8049580D02*
X15063790Y-7049580D01*
X15063790Y-8001961D02*
X15159028Y-8049580D01*
X15349504Y-8049580D01*
X15444742Y-8001961D01*
X15492361Y-7954342D01*
X15539980Y-7859104D01*
X15539980Y-7573390D01*
X15492361Y-7478152D01*
X15444742Y-7430533D01*
X15349504Y-7382914D01*
X15159028Y-7382914D01*
X15063790Y-7430533D01*
X13825695Y-7382914D02*
X13825695Y-8049580D01*
X13825695Y-7478152D02*
X13778076Y-7430533D01*
X13682838Y-7382914D01*
X13539980Y-7382914D01*
X13444742Y-7430533D01*
X13397123Y-7525771D01*
X13397123Y-8049580D01*
X12539980Y-8001961D02*
X12635219Y-8049580D01*
X12825695Y-8049580D01*
X12920933Y-8001961D01*
X12968552Y-7906723D01*
X12968552Y-7525771D01*
X12920933Y-7430533D01*
X12825695Y-7382914D01*
X12635219Y-7382914D01*
X12539980Y-7430533D01*
X12492361Y-7525771D01*
X12492361Y-7621009D01*
X12968552Y-7716247D01*
X11635219Y-8049580D02*
X11635219Y-7525771D01*
X11682838Y-7430533D01*
X11778076Y-7382914D01*
X11968552Y-7382914D01*
X12063790Y-7430533D01*
X11635219Y-8001961D02*
X11730457Y-8049580D01*
X11968552Y-8049580D01*
X12063790Y-8001961D01*
X12111409Y-7906723D01*
X12111409Y-7811485D01*
X12063790Y-7716247D01*
X11968552Y-7668628D01*
X11730457Y-7668628D01*
X11635219Y-7621009D01*
X11159028Y-8049580D02*
X11159028Y-7382914D01*
X11159028Y-7573390D02*
X11111409Y-7478152D01*
X11063790Y-7430533D01*
X10968552Y-7382914D01*
X10873314Y-7382914D01*
X10539980Y-7382914D02*
X10539980Y-8049580D01*
X10539980Y-7478152D02*
X10492361Y-7430533D01*
X10397123Y-7382914D01*
X10254266Y-7382914D01*
X10159028Y-7430533D01*
X10111409Y-7525771D01*
X10111409Y-8049580D01*
X9254266Y-8001961D02*
X9349504Y-8049580D01*
X9539980Y-8049580D01*
X9635219Y-8001961D01*
X9682838Y-7906723D01*
X9682838Y-7525771D01*
X9635219Y-7430533D01*
X9539980Y-7382914D01*
X9349504Y-7382914D01*
X9254266Y-7430533D01*
X9206647Y-7525771D01*
X9206647Y-7621009D01*
X9682838Y-7716247D01*
X8825695Y-8001961D02*
X8730457Y-8049580D01*
X8539980Y-8049580D01*
X8444742Y-8001961D01*
X8397123Y-7906723D01*
X8397123Y-7859104D01*
X8444742Y-7763866D01*
X8539980Y-7716247D01*
X8682838Y-7716247D01*
X8778076Y-7668628D01*
X8825695Y-7573390D01*
X8825695Y-7525771D01*
X8778076Y-7430533D01*
X8682838Y-7382914D01*
X8539980Y-7382914D01*
X8444742Y-7430533D01*
X8016171Y-8001961D02*
X7920933Y-8049580D01*
X7730457Y-8049580D01*
X7635219Y-8001961D01*
X7587600Y-7906723D01*
X7587600Y-7859104D01*
X7635219Y-7763866D01*
X7730457Y-7716247D01*
X7873314Y-7716247D01*
X7968552Y-7668628D01*
X8016171Y-7573390D01*
X8016171Y-7525771D01*
X7968552Y-7430533D01*
X7873314Y-7382914D01*
X7730457Y-7382914D01*
X7635219Y-7430533D01*
X18873314Y-9799580D02*
X18873314Y-8799580D01*
X18873314Y-9180533D02*
X18778076Y-9132914D01*
X18587600Y-9132914D01*
X18492361Y-9180533D01*
X18444742Y-9228152D01*
X18397123Y-9323390D01*
X18397123Y-9609104D01*
X18444742Y-9704342D01*
X18492361Y-9751961D01*
X18587600Y-9799580D01*
X18778076Y-9799580D01*
X18873314Y-9751961D01*
X17587600Y-9751961D02*
X17682838Y-9799580D01*
X17873314Y-9799580D01*
X17968552Y-9751961D01*
X18016171Y-9656723D01*
X18016171Y-9275771D01*
X17968552Y-9180533D01*
X17873314Y-9132914D01*
X17682838Y-9132914D01*
X17587600Y-9180533D01*
X17539980Y-9275771D01*
X17539980Y-9371009D01*
X18016171Y-9466247D01*
X17111409Y-9132914D02*
X17111409Y-9799580D01*
X17111409Y-9228152D02*
X17063790Y-9180533D01*
X16968552Y-9132914D01*
X16825695Y-9132914D01*
X16730457Y-9180533D01*
X16682838Y-9275771D01*
X16682838Y-9799580D01*
X15444742Y-9799580D02*
X15444742Y-9132914D01*
X15444742Y-9228152D02*
X15397123Y-9180533D01*
X15301885Y-9132914D01*
X15159028Y-9132914D01*
X15063790Y-9180533D01*
X15016171Y-9275771D01*
X15016171Y-9799580D01*
X15016171Y-9275771D02*
X14968552Y-9180533D01*
X14873314Y-9132914D01*
X14730457Y-9132914D01*
X14635219Y-9180533D01*
X14587600Y-9275771D01*
X14587600Y-9799580D01*
X13968552Y-9799580D02*
X14063790Y-9751961D01*
X14111409Y-9704342D01*
X14159028Y-9609104D01*
X14159028Y-9323390D01*
X14111409Y-9228152D01*
X14063790Y-9180533D01*
X13968552Y-9132914D01*
X13825695Y-9132914D01*
X13730457Y-9180533D01*
X13682838Y-9228152D01*
X13635219Y-9323390D01*
X13635219Y-9609104D01*
X13682838Y-9704342D01*
X13730457Y-9751961D01*
X13825695Y-9799580D01*
X13968552Y-9799580D01*
X13206647Y-9799580D02*
X13206647Y-9132914D01*
X13206647Y-9323390D02*
X13159028Y-9228152D01*
X13111409Y-9180533D01*
X13016171Y-9132914D01*
X12920933Y-9132914D01*
X12206647Y-9751961D02*
X12301885Y-9799580D01*
X12492361Y-9799580D01*
X12587600Y-9751961D01*
X12635219Y-9656723D01*
X12635219Y-9275771D01*
X12587600Y-9180533D01*
X12492361Y-9132914D01*
X12301885Y-9132914D01*
X12206647Y-9180533D01*
X12159028Y-9275771D01*
X12159028Y-9371009D01*
X12635219Y-9466247D01*
X11730457Y-9132914D02*
X11730457Y-9799580D01*
X11730457Y-9228152D02*
X11682838Y-9180533D01*
X11587600Y-9132914D01*
X11444742Y-9132914D01*
X11349504Y-9180533D01*
X11301885Y-9275771D01*
X11301885Y-9799580D01*
X18778076Y-10644819D02*
X18730457Y-10597200D01*
X18635219Y-10549580D01*
X18397123Y-10549580D01*
X18301885Y-10597200D01*
X18254266Y-10644819D01*
X18206647Y-10740057D01*
X18206647Y-10835295D01*
X18254266Y-10978152D01*
X18825695Y-11549580D01*
X18206647Y-11549580D01*
X17587600Y-10549580D02*
X17492361Y-10549580D01*
X17397123Y-10597200D01*
X17349504Y-10644819D01*
X17301885Y-10740057D01*
X17254266Y-10930533D01*
X17254266Y-11168628D01*
X17301885Y-11359104D01*
X17349504Y-11454342D01*
X17397123Y-11501961D01*
X17492361Y-11549580D01*
X17587600Y-11549580D01*
X17682838Y-11501961D01*
X17730457Y-11454342D01*
X17778076Y-11359104D01*
X17825695Y-11168628D01*
X17825695Y-10930533D01*
X17778076Y-10740057D01*
X17730457Y-10644819D01*
X17682838Y-10597200D01*
X17587600Y-10549580D01*
X16301885Y-11549580D02*
X16873314Y-11549580D01*
X16587600Y-11549580D02*
X16587600Y-10549580D01*
X16682838Y-10692438D01*
X16778076Y-10787676D01*
X16873314Y-10835295D01*
X15730457Y-10978152D02*
X15825695Y-10930533D01*
X15873314Y-10882914D01*
X15920933Y-10787676D01*
X15920933Y-10740057D01*
X15873314Y-10644819D01*
X15825695Y-10597200D01*
X15730457Y-10549580D01*
X15539980Y-10549580D01*
X15444742Y-10597200D01*
X15397123Y-10644819D01*
X15349504Y-10740057D01*
X15349504Y-10787676D01*
X15397123Y-10882914D01*
X15444742Y-10930533D01*
X15539980Y-10978152D01*
X15730457Y-10978152D01*
X15825695Y-11025771D01*
X15873314Y-11073390D01*
X15920933Y-11168628D01*
X15920933Y-11359104D01*
X15873314Y-11454342D01*
X15825695Y-11501961D01*
X15730457Y-11549580D01*
X15539980Y-11549580D01*
X15444742Y-11501961D01*
X15397123Y-11454342D01*
X15349504Y-11359104D01*
X15349504Y-11168628D01*
X15397123Y-11073390D01*
X15444742Y-11025771D01*
X15539980Y-10978152D01*
X14159028Y-11549580D02*
X14159028Y-10882914D01*
X14159028Y-11073390D02*
X14111409Y-10978152D01*
X14063790Y-10930533D01*
X13968552Y-10882914D01*
X13873314Y-10882914D01*
X13159028Y-11501961D02*
X13254266Y-11549580D01*
X13444742Y-11549580D01*
X13539980Y-11501961D01*
X13587600Y-11406723D01*
X13587600Y-11025771D01*
X13539980Y-10930533D01*
X13444742Y-10882914D01*
X13254266Y-10882914D01*
X13159028Y-10930533D01*
X13111409Y-11025771D01*
X13111409Y-11121009D01*
X13587600Y-11216247D01*
X12778076Y-10882914D02*
X12539980Y-11549580D01*
X12301885Y-10882914D01*
X11397123Y-11549580D02*
X11968552Y-11549580D01*
X11682838Y-11549580D02*
X11682838Y-10549580D01*
X11778076Y-10692438D01*
X11873314Y-10787676D01*
X11968552Y-10835295D01*
D12*
G04 #@! TO.C,REF\002A\002A*
X7500000Y-15980000D03*
G04 #@! TD*
G04 #@! TO.C,REF\002A\002A*
X22500000Y-110456000D03*
G04 #@! TD*
G04 #@! TO.C,REF\002A\002A*
X22500000Y-94475000D03*
G04 #@! TD*
G04 #@! TO.C,REF\002A\002A*
X22500000Y-78493000D03*
G04 #@! TD*
G04 #@! TO.C,REF\002A\002A*
X22500000Y-62512000D03*
G04 #@! TD*
G04 #@! TO.C,REF\002A\002A*
X22500000Y-46531000D03*
G04 #@! TD*
G04 #@! TO.C,REF\002A\002A*
X22500000Y-30550000D03*
G04 #@! TD*
G04 #@! TO.C,REF\002A\002A*
X22500000Y-14569000D03*
G04 #@! TD*
G04 #@! TO.C,REF\002A\002A*
X7500000Y-112500000D03*
G04 #@! TD*
G04 #@! TO.C,REF\002A\002A*
X7500000Y-100435000D03*
G04 #@! TD*
G04 #@! TO.C,REF\002A\002A*
X7500000Y-88370000D03*
G04 #@! TD*
G04 #@! TO.C,REF\002A\002A*
X7500000Y-76305000D03*
G04 #@! TD*
G04 #@! TO.C,REF\002A\002A*
X7500000Y-64240000D03*
G04 #@! TD*
G04 #@! TO.C,REF\002A\002A*
X7500000Y-52175000D03*
G04 #@! TD*
G04 #@! TO.C,REF\002A\002A*
X7500000Y-40110000D03*
G04 #@! TD*
G04 #@! TO.C,REF\002A\002A*
X7500000Y-28045000D03*
G04 #@! TD*
D13*
G04 #@! TO.C,REF\002A\002A*
X15240000Y-3000000D03*
G04 #@! TD*
G04 #@! TO.C,REF\002A\002A*
X15240000Y-125500000D03*
G04 #@! TD*
M02*
