G04 #@! TF.GenerationSoftware,KiCad,Pcbnew,(5.0.0-rc2-47-g52fceb3)*
G04 #@! TF.CreationDate,2018-06-13T16:43:58-05:00*
G04 #@! TF.ProjectId,nearness_att_panel,6E6561726E6573735F6174745F70616E,rev?*
G04 #@! TF.SameCoordinates,Original*
G04 #@! TF.FileFunction,Copper,L2,Bot,Signal*
G04 #@! TF.FilePolarity,Positive*
%FSLAX46Y46*%
G04 Gerber Fmt 4.6, Leading zero omitted, Abs format (unit mm)*
G04 Created by KiCad (PCBNEW (5.0.0-rc2-47-g52fceb3)) date Wednesday, June 13, 2018 at 04:43:58 PM*
%MOMM*%
%LPD*%
G01*
G04 APERTURE LIST*
G04 #@! TA.AperFunction,ComponentPad*
%ADD10C,6.200000*%
G04 #@! TD*
G04 #@! TA.AperFunction,ComponentPad*
%ADD11C,3.200000*%
G04 #@! TD*
G04 #@! TA.AperFunction,NonConductor*
%ADD12C,0.254000*%
G04 #@! TD*
G04 APERTURE END LIST*
D10*
G04 #@! TO.P,REF\002A\002A,*
G04 #@! TO.N,*
X7500000Y-15980000D03*
G04 #@! TD*
G04 #@! TO.P,REF\002A\002A,*
G04 #@! TO.N,*
X22500000Y-110456000D03*
G04 #@! TD*
G04 #@! TO.P,REF\002A\002A,*
G04 #@! TO.N,*
X22500000Y-94475000D03*
G04 #@! TD*
G04 #@! TO.P,REF\002A\002A,*
G04 #@! TO.N,*
X22500000Y-78493000D03*
G04 #@! TD*
G04 #@! TO.P,REF\002A\002A,*
G04 #@! TO.N,*
X22500000Y-62512000D03*
G04 #@! TD*
G04 #@! TO.P,REF\002A\002A,*
G04 #@! TO.N,*
X22500000Y-46531000D03*
G04 #@! TD*
G04 #@! TO.P,REF\002A\002A,*
G04 #@! TO.N,*
X22500000Y-30550000D03*
G04 #@! TD*
G04 #@! TO.P,REF\002A\002A,*
G04 #@! TO.N,*
X22500000Y-14569000D03*
G04 #@! TD*
G04 #@! TO.P,REF\002A\002A,*
G04 #@! TO.N,*
X7500000Y-112500000D03*
G04 #@! TD*
G04 #@! TO.P,REF\002A\002A,*
G04 #@! TO.N,*
X7500000Y-100435000D03*
G04 #@! TD*
G04 #@! TO.P,REF\002A\002A,*
G04 #@! TO.N,*
X7500000Y-88370000D03*
G04 #@! TD*
G04 #@! TO.P,REF\002A\002A,*
G04 #@! TO.N,*
X7500000Y-76305000D03*
G04 #@! TD*
G04 #@! TO.P,REF\002A\002A,*
G04 #@! TO.N,*
X7500000Y-64240000D03*
G04 #@! TD*
G04 #@! TO.P,REF\002A\002A,*
G04 #@! TO.N,*
X7500000Y-52175000D03*
G04 #@! TD*
G04 #@! TO.P,REF\002A\002A,*
G04 #@! TO.N,*
X7500000Y-40110000D03*
G04 #@! TD*
G04 #@! TO.P,REF\002A\002A,*
G04 #@! TO.N,*
X7500000Y-28045000D03*
G04 #@! TD*
D11*
G04 #@! TO.P,REF\002A\002A,*
G04 #@! TO.N,*
X15240000Y-3000000D03*
G04 #@! TD*
G04 #@! TO.P,REF\002A\002A,*
G04 #@! TO.N,*
X15240000Y-125500000D03*
G04 #@! TD*
D12*
G36*
X29798000Y-9657882D02*
X29798001Y-128298000D01*
X1485834Y-128298000D01*
X202000Y-128295828D01*
X202000Y-125116696D01*
X13313000Y-125116696D01*
X13313000Y-125883304D01*
X13606368Y-126591558D01*
X14148442Y-127133632D01*
X14856696Y-127427000D01*
X15623304Y-127427000D01*
X16331558Y-127133632D01*
X16873632Y-126591558D01*
X17167000Y-125883304D01*
X17167000Y-125116696D01*
X16873632Y-124408442D01*
X16331558Y-123866368D01*
X15623304Y-123573000D01*
X14856696Y-123573000D01*
X14148442Y-123866368D01*
X13606368Y-124408442D01*
X13313000Y-125116696D01*
X202000Y-125116696D01*
X202000Y-111818327D01*
X4073000Y-111818327D01*
X4073000Y-113181673D01*
X4594730Y-114441240D01*
X5558760Y-115405270D01*
X6818327Y-115927000D01*
X8181673Y-115927000D01*
X9441240Y-115405270D01*
X10405270Y-114441240D01*
X10927000Y-113181673D01*
X10927000Y-111818327D01*
X10405270Y-110558760D01*
X9620837Y-109774327D01*
X19073000Y-109774327D01*
X19073000Y-111137673D01*
X19594730Y-112397240D01*
X20558760Y-113361270D01*
X21818327Y-113883000D01*
X23181673Y-113883000D01*
X24441240Y-113361270D01*
X25405270Y-112397240D01*
X25927000Y-111137673D01*
X25927000Y-109774327D01*
X25405270Y-108514760D01*
X24441240Y-107550730D01*
X23181673Y-107029000D01*
X21818327Y-107029000D01*
X20558760Y-107550730D01*
X19594730Y-108514760D01*
X19073000Y-109774327D01*
X9620837Y-109774327D01*
X9441240Y-109594730D01*
X8181673Y-109073000D01*
X6818327Y-109073000D01*
X5558760Y-109594730D01*
X4594730Y-110558760D01*
X4073000Y-111818327D01*
X202000Y-111818327D01*
X202000Y-99753327D01*
X4073000Y-99753327D01*
X4073000Y-101116673D01*
X4594730Y-102376240D01*
X5558760Y-103340270D01*
X6818327Y-103862000D01*
X8181673Y-103862000D01*
X9441240Y-103340270D01*
X10405270Y-102376240D01*
X10927000Y-101116673D01*
X10927000Y-99753327D01*
X10405270Y-98493760D01*
X9441240Y-97529730D01*
X8181673Y-97008000D01*
X6818327Y-97008000D01*
X5558760Y-97529730D01*
X4594730Y-98493760D01*
X4073000Y-99753327D01*
X202000Y-99753327D01*
X202000Y-93793327D01*
X19073000Y-93793327D01*
X19073000Y-95156673D01*
X19594730Y-96416240D01*
X20558760Y-97380270D01*
X21818327Y-97902000D01*
X23181673Y-97902000D01*
X24441240Y-97380270D01*
X25405270Y-96416240D01*
X25927000Y-95156673D01*
X25927000Y-93793327D01*
X25405270Y-92533760D01*
X24441240Y-91569730D01*
X23181673Y-91048000D01*
X21818327Y-91048000D01*
X20558760Y-91569730D01*
X19594730Y-92533760D01*
X19073000Y-93793327D01*
X202000Y-93793327D01*
X202000Y-87688327D01*
X4073000Y-87688327D01*
X4073000Y-89051673D01*
X4594730Y-90311240D01*
X5558760Y-91275270D01*
X6818327Y-91797000D01*
X8181673Y-91797000D01*
X9441240Y-91275270D01*
X10405270Y-90311240D01*
X10927000Y-89051673D01*
X10927000Y-87688327D01*
X10405270Y-86428760D01*
X9441240Y-85464730D01*
X8181673Y-84943000D01*
X6818327Y-84943000D01*
X5558760Y-85464730D01*
X4594730Y-86428760D01*
X4073000Y-87688327D01*
X202000Y-87688327D01*
X202000Y-75623327D01*
X4073000Y-75623327D01*
X4073000Y-76986673D01*
X4594730Y-78246240D01*
X5558760Y-79210270D01*
X6818327Y-79732000D01*
X8181673Y-79732000D01*
X9441240Y-79210270D01*
X10405270Y-78246240D01*
X10585416Y-77811327D01*
X19073000Y-77811327D01*
X19073000Y-79174673D01*
X19594730Y-80434240D01*
X20558760Y-81398270D01*
X21818327Y-81920000D01*
X23181673Y-81920000D01*
X24441240Y-81398270D01*
X25405270Y-80434240D01*
X25927000Y-79174673D01*
X25927000Y-77811327D01*
X25405270Y-76551760D01*
X24441240Y-75587730D01*
X23181673Y-75066000D01*
X21818327Y-75066000D01*
X20558760Y-75587730D01*
X19594730Y-76551760D01*
X19073000Y-77811327D01*
X10585416Y-77811327D01*
X10927000Y-76986673D01*
X10927000Y-75623327D01*
X10405270Y-74363760D01*
X9441240Y-73399730D01*
X8181673Y-72878000D01*
X6818327Y-72878000D01*
X5558760Y-73399730D01*
X4594730Y-74363760D01*
X4073000Y-75623327D01*
X202000Y-75623327D01*
X202000Y-63558327D01*
X4073000Y-63558327D01*
X4073000Y-64921673D01*
X4594730Y-66181240D01*
X5558760Y-67145270D01*
X6818327Y-67667000D01*
X8181673Y-67667000D01*
X9441240Y-67145270D01*
X10405270Y-66181240D01*
X10927000Y-64921673D01*
X10927000Y-63558327D01*
X10405270Y-62298760D01*
X9936837Y-61830327D01*
X19073000Y-61830327D01*
X19073000Y-63193673D01*
X19594730Y-64453240D01*
X20558760Y-65417270D01*
X21818327Y-65939000D01*
X23181673Y-65939000D01*
X24441240Y-65417270D01*
X25405270Y-64453240D01*
X25927000Y-63193673D01*
X25927000Y-61830327D01*
X25405270Y-60570760D01*
X24441240Y-59606730D01*
X23181673Y-59085000D01*
X21818327Y-59085000D01*
X20558760Y-59606730D01*
X19594730Y-60570760D01*
X19073000Y-61830327D01*
X9936837Y-61830327D01*
X9441240Y-61334730D01*
X8181673Y-60813000D01*
X6818327Y-60813000D01*
X5558760Y-61334730D01*
X4594730Y-62298760D01*
X4073000Y-63558327D01*
X202000Y-63558327D01*
X202000Y-51493327D01*
X4073000Y-51493327D01*
X4073000Y-52856673D01*
X4594730Y-54116240D01*
X5558760Y-55080270D01*
X6818327Y-55602000D01*
X8181673Y-55602000D01*
X9441240Y-55080270D01*
X10405270Y-54116240D01*
X10927000Y-52856673D01*
X10927000Y-51493327D01*
X10405270Y-50233760D01*
X9441240Y-49269730D01*
X8181673Y-48748000D01*
X6818327Y-48748000D01*
X5558760Y-49269730D01*
X4594730Y-50233760D01*
X4073000Y-51493327D01*
X202000Y-51493327D01*
X202000Y-45849327D01*
X19073000Y-45849327D01*
X19073000Y-47212673D01*
X19594730Y-48472240D01*
X20558760Y-49436270D01*
X21818327Y-49958000D01*
X23181673Y-49958000D01*
X24441240Y-49436270D01*
X25405270Y-48472240D01*
X25927000Y-47212673D01*
X25927000Y-45849327D01*
X25405270Y-44589760D01*
X24441240Y-43625730D01*
X23181673Y-43104000D01*
X21818327Y-43104000D01*
X20558760Y-43625730D01*
X19594730Y-44589760D01*
X19073000Y-45849327D01*
X202000Y-45849327D01*
X202000Y-39428327D01*
X4073000Y-39428327D01*
X4073000Y-40791673D01*
X4594730Y-42051240D01*
X5558760Y-43015270D01*
X6818327Y-43537000D01*
X8181673Y-43537000D01*
X9441240Y-43015270D01*
X10405270Y-42051240D01*
X10927000Y-40791673D01*
X10927000Y-39428327D01*
X10405270Y-38168760D01*
X9441240Y-37204730D01*
X8181673Y-36683000D01*
X6818327Y-36683000D01*
X5558760Y-37204730D01*
X4594730Y-38168760D01*
X4073000Y-39428327D01*
X202000Y-39428327D01*
X202000Y-27363327D01*
X4073000Y-27363327D01*
X4073000Y-28726673D01*
X4594730Y-29986240D01*
X5558760Y-30950270D01*
X6818327Y-31472000D01*
X8181673Y-31472000D01*
X9441240Y-30950270D01*
X10405270Y-29986240D01*
X10454111Y-29868327D01*
X19073000Y-29868327D01*
X19073000Y-31231673D01*
X19594730Y-32491240D01*
X20558760Y-33455270D01*
X21818327Y-33977000D01*
X23181673Y-33977000D01*
X24441240Y-33455270D01*
X25405270Y-32491240D01*
X25927000Y-31231673D01*
X25927000Y-29868327D01*
X25405270Y-28608760D01*
X24441240Y-27644730D01*
X23181673Y-27123000D01*
X21818327Y-27123000D01*
X20558760Y-27644730D01*
X19594730Y-28608760D01*
X19073000Y-29868327D01*
X10454111Y-29868327D01*
X10927000Y-28726673D01*
X10927000Y-27363327D01*
X10405270Y-26103760D01*
X9441240Y-25139730D01*
X8181673Y-24618000D01*
X6818327Y-24618000D01*
X5558760Y-25139730D01*
X4594730Y-26103760D01*
X4073000Y-27363327D01*
X202000Y-27363327D01*
X202000Y-15298327D01*
X4073000Y-15298327D01*
X4073000Y-16661673D01*
X4594730Y-17921240D01*
X5558760Y-18885270D01*
X6818327Y-19407000D01*
X8181673Y-19407000D01*
X9441240Y-18885270D01*
X10405270Y-17921240D01*
X10927000Y-16661673D01*
X10927000Y-15298327D01*
X10405270Y-14038760D01*
X10253837Y-13887327D01*
X19073000Y-13887327D01*
X19073000Y-15250673D01*
X19594730Y-16510240D01*
X20558760Y-17474270D01*
X21818327Y-17996000D01*
X23181673Y-17996000D01*
X24441240Y-17474270D01*
X25405270Y-16510240D01*
X25927000Y-15250673D01*
X25927000Y-13887327D01*
X25405270Y-12627760D01*
X24441240Y-11663730D01*
X23181673Y-11142000D01*
X21818327Y-11142000D01*
X20558760Y-11663730D01*
X19594730Y-12627760D01*
X19073000Y-13887327D01*
X10253837Y-13887327D01*
X9441240Y-13074730D01*
X8181673Y-12553000D01*
X6818327Y-12553000D01*
X5558760Y-13074730D01*
X4594730Y-14038760D01*
X4073000Y-15298327D01*
X202000Y-15298327D01*
X202000Y-2616696D01*
X13313000Y-2616696D01*
X13313000Y-3383304D01*
X13606368Y-4091558D01*
X14148442Y-4633632D01*
X14856696Y-4927000D01*
X15623304Y-4927000D01*
X16331558Y-4633632D01*
X16873632Y-4091558D01*
X17167000Y-3383304D01*
X17167000Y-2616696D01*
X16873632Y-1908442D01*
X16331558Y-1366368D01*
X15623304Y-1073000D01*
X14856696Y-1073000D01*
X14148442Y-1366368D01*
X13606368Y-1908442D01*
X13313000Y-2616696D01*
X202000Y-2616696D01*
X202000Y-202000D01*
X29794260Y-202000D01*
X29798000Y-9657882D01*
X29798000Y-9657882D01*
G37*
X29798000Y-9657882D02*
X29798001Y-128298000D01*
X1485834Y-128298000D01*
X202000Y-128295828D01*
X202000Y-125116696D01*
X13313000Y-125116696D01*
X13313000Y-125883304D01*
X13606368Y-126591558D01*
X14148442Y-127133632D01*
X14856696Y-127427000D01*
X15623304Y-127427000D01*
X16331558Y-127133632D01*
X16873632Y-126591558D01*
X17167000Y-125883304D01*
X17167000Y-125116696D01*
X16873632Y-124408442D01*
X16331558Y-123866368D01*
X15623304Y-123573000D01*
X14856696Y-123573000D01*
X14148442Y-123866368D01*
X13606368Y-124408442D01*
X13313000Y-125116696D01*
X202000Y-125116696D01*
X202000Y-111818327D01*
X4073000Y-111818327D01*
X4073000Y-113181673D01*
X4594730Y-114441240D01*
X5558760Y-115405270D01*
X6818327Y-115927000D01*
X8181673Y-115927000D01*
X9441240Y-115405270D01*
X10405270Y-114441240D01*
X10927000Y-113181673D01*
X10927000Y-111818327D01*
X10405270Y-110558760D01*
X9620837Y-109774327D01*
X19073000Y-109774327D01*
X19073000Y-111137673D01*
X19594730Y-112397240D01*
X20558760Y-113361270D01*
X21818327Y-113883000D01*
X23181673Y-113883000D01*
X24441240Y-113361270D01*
X25405270Y-112397240D01*
X25927000Y-111137673D01*
X25927000Y-109774327D01*
X25405270Y-108514760D01*
X24441240Y-107550730D01*
X23181673Y-107029000D01*
X21818327Y-107029000D01*
X20558760Y-107550730D01*
X19594730Y-108514760D01*
X19073000Y-109774327D01*
X9620837Y-109774327D01*
X9441240Y-109594730D01*
X8181673Y-109073000D01*
X6818327Y-109073000D01*
X5558760Y-109594730D01*
X4594730Y-110558760D01*
X4073000Y-111818327D01*
X202000Y-111818327D01*
X202000Y-99753327D01*
X4073000Y-99753327D01*
X4073000Y-101116673D01*
X4594730Y-102376240D01*
X5558760Y-103340270D01*
X6818327Y-103862000D01*
X8181673Y-103862000D01*
X9441240Y-103340270D01*
X10405270Y-102376240D01*
X10927000Y-101116673D01*
X10927000Y-99753327D01*
X10405270Y-98493760D01*
X9441240Y-97529730D01*
X8181673Y-97008000D01*
X6818327Y-97008000D01*
X5558760Y-97529730D01*
X4594730Y-98493760D01*
X4073000Y-99753327D01*
X202000Y-99753327D01*
X202000Y-93793327D01*
X19073000Y-93793327D01*
X19073000Y-95156673D01*
X19594730Y-96416240D01*
X20558760Y-97380270D01*
X21818327Y-97902000D01*
X23181673Y-97902000D01*
X24441240Y-97380270D01*
X25405270Y-96416240D01*
X25927000Y-95156673D01*
X25927000Y-93793327D01*
X25405270Y-92533760D01*
X24441240Y-91569730D01*
X23181673Y-91048000D01*
X21818327Y-91048000D01*
X20558760Y-91569730D01*
X19594730Y-92533760D01*
X19073000Y-93793327D01*
X202000Y-93793327D01*
X202000Y-87688327D01*
X4073000Y-87688327D01*
X4073000Y-89051673D01*
X4594730Y-90311240D01*
X5558760Y-91275270D01*
X6818327Y-91797000D01*
X8181673Y-91797000D01*
X9441240Y-91275270D01*
X10405270Y-90311240D01*
X10927000Y-89051673D01*
X10927000Y-87688327D01*
X10405270Y-86428760D01*
X9441240Y-85464730D01*
X8181673Y-84943000D01*
X6818327Y-84943000D01*
X5558760Y-85464730D01*
X4594730Y-86428760D01*
X4073000Y-87688327D01*
X202000Y-87688327D01*
X202000Y-75623327D01*
X4073000Y-75623327D01*
X4073000Y-76986673D01*
X4594730Y-78246240D01*
X5558760Y-79210270D01*
X6818327Y-79732000D01*
X8181673Y-79732000D01*
X9441240Y-79210270D01*
X10405270Y-78246240D01*
X10585416Y-77811327D01*
X19073000Y-77811327D01*
X19073000Y-79174673D01*
X19594730Y-80434240D01*
X20558760Y-81398270D01*
X21818327Y-81920000D01*
X23181673Y-81920000D01*
X24441240Y-81398270D01*
X25405270Y-80434240D01*
X25927000Y-79174673D01*
X25927000Y-77811327D01*
X25405270Y-76551760D01*
X24441240Y-75587730D01*
X23181673Y-75066000D01*
X21818327Y-75066000D01*
X20558760Y-75587730D01*
X19594730Y-76551760D01*
X19073000Y-77811327D01*
X10585416Y-77811327D01*
X10927000Y-76986673D01*
X10927000Y-75623327D01*
X10405270Y-74363760D01*
X9441240Y-73399730D01*
X8181673Y-72878000D01*
X6818327Y-72878000D01*
X5558760Y-73399730D01*
X4594730Y-74363760D01*
X4073000Y-75623327D01*
X202000Y-75623327D01*
X202000Y-63558327D01*
X4073000Y-63558327D01*
X4073000Y-64921673D01*
X4594730Y-66181240D01*
X5558760Y-67145270D01*
X6818327Y-67667000D01*
X8181673Y-67667000D01*
X9441240Y-67145270D01*
X10405270Y-66181240D01*
X10927000Y-64921673D01*
X10927000Y-63558327D01*
X10405270Y-62298760D01*
X9936837Y-61830327D01*
X19073000Y-61830327D01*
X19073000Y-63193673D01*
X19594730Y-64453240D01*
X20558760Y-65417270D01*
X21818327Y-65939000D01*
X23181673Y-65939000D01*
X24441240Y-65417270D01*
X25405270Y-64453240D01*
X25927000Y-63193673D01*
X25927000Y-61830327D01*
X25405270Y-60570760D01*
X24441240Y-59606730D01*
X23181673Y-59085000D01*
X21818327Y-59085000D01*
X20558760Y-59606730D01*
X19594730Y-60570760D01*
X19073000Y-61830327D01*
X9936837Y-61830327D01*
X9441240Y-61334730D01*
X8181673Y-60813000D01*
X6818327Y-60813000D01*
X5558760Y-61334730D01*
X4594730Y-62298760D01*
X4073000Y-63558327D01*
X202000Y-63558327D01*
X202000Y-51493327D01*
X4073000Y-51493327D01*
X4073000Y-52856673D01*
X4594730Y-54116240D01*
X5558760Y-55080270D01*
X6818327Y-55602000D01*
X8181673Y-55602000D01*
X9441240Y-55080270D01*
X10405270Y-54116240D01*
X10927000Y-52856673D01*
X10927000Y-51493327D01*
X10405270Y-50233760D01*
X9441240Y-49269730D01*
X8181673Y-48748000D01*
X6818327Y-48748000D01*
X5558760Y-49269730D01*
X4594730Y-50233760D01*
X4073000Y-51493327D01*
X202000Y-51493327D01*
X202000Y-45849327D01*
X19073000Y-45849327D01*
X19073000Y-47212673D01*
X19594730Y-48472240D01*
X20558760Y-49436270D01*
X21818327Y-49958000D01*
X23181673Y-49958000D01*
X24441240Y-49436270D01*
X25405270Y-48472240D01*
X25927000Y-47212673D01*
X25927000Y-45849327D01*
X25405270Y-44589760D01*
X24441240Y-43625730D01*
X23181673Y-43104000D01*
X21818327Y-43104000D01*
X20558760Y-43625730D01*
X19594730Y-44589760D01*
X19073000Y-45849327D01*
X202000Y-45849327D01*
X202000Y-39428327D01*
X4073000Y-39428327D01*
X4073000Y-40791673D01*
X4594730Y-42051240D01*
X5558760Y-43015270D01*
X6818327Y-43537000D01*
X8181673Y-43537000D01*
X9441240Y-43015270D01*
X10405270Y-42051240D01*
X10927000Y-40791673D01*
X10927000Y-39428327D01*
X10405270Y-38168760D01*
X9441240Y-37204730D01*
X8181673Y-36683000D01*
X6818327Y-36683000D01*
X5558760Y-37204730D01*
X4594730Y-38168760D01*
X4073000Y-39428327D01*
X202000Y-39428327D01*
X202000Y-27363327D01*
X4073000Y-27363327D01*
X4073000Y-28726673D01*
X4594730Y-29986240D01*
X5558760Y-30950270D01*
X6818327Y-31472000D01*
X8181673Y-31472000D01*
X9441240Y-30950270D01*
X10405270Y-29986240D01*
X10454111Y-29868327D01*
X19073000Y-29868327D01*
X19073000Y-31231673D01*
X19594730Y-32491240D01*
X20558760Y-33455270D01*
X21818327Y-33977000D01*
X23181673Y-33977000D01*
X24441240Y-33455270D01*
X25405270Y-32491240D01*
X25927000Y-31231673D01*
X25927000Y-29868327D01*
X25405270Y-28608760D01*
X24441240Y-27644730D01*
X23181673Y-27123000D01*
X21818327Y-27123000D01*
X20558760Y-27644730D01*
X19594730Y-28608760D01*
X19073000Y-29868327D01*
X10454111Y-29868327D01*
X10927000Y-28726673D01*
X10927000Y-27363327D01*
X10405270Y-26103760D01*
X9441240Y-25139730D01*
X8181673Y-24618000D01*
X6818327Y-24618000D01*
X5558760Y-25139730D01*
X4594730Y-26103760D01*
X4073000Y-27363327D01*
X202000Y-27363327D01*
X202000Y-15298327D01*
X4073000Y-15298327D01*
X4073000Y-16661673D01*
X4594730Y-17921240D01*
X5558760Y-18885270D01*
X6818327Y-19407000D01*
X8181673Y-19407000D01*
X9441240Y-18885270D01*
X10405270Y-17921240D01*
X10927000Y-16661673D01*
X10927000Y-15298327D01*
X10405270Y-14038760D01*
X10253837Y-13887327D01*
X19073000Y-13887327D01*
X19073000Y-15250673D01*
X19594730Y-16510240D01*
X20558760Y-17474270D01*
X21818327Y-17996000D01*
X23181673Y-17996000D01*
X24441240Y-17474270D01*
X25405270Y-16510240D01*
X25927000Y-15250673D01*
X25927000Y-13887327D01*
X25405270Y-12627760D01*
X24441240Y-11663730D01*
X23181673Y-11142000D01*
X21818327Y-11142000D01*
X20558760Y-11663730D01*
X19594730Y-12627760D01*
X19073000Y-13887327D01*
X10253837Y-13887327D01*
X9441240Y-13074730D01*
X8181673Y-12553000D01*
X6818327Y-12553000D01*
X5558760Y-13074730D01*
X4594730Y-14038760D01*
X4073000Y-15298327D01*
X202000Y-15298327D01*
X202000Y-2616696D01*
X13313000Y-2616696D01*
X13313000Y-3383304D01*
X13606368Y-4091558D01*
X14148442Y-4633632D01*
X14856696Y-4927000D01*
X15623304Y-4927000D01*
X16331558Y-4633632D01*
X16873632Y-4091558D01*
X17167000Y-3383304D01*
X17167000Y-2616696D01*
X16873632Y-1908442D01*
X16331558Y-1366368D01*
X15623304Y-1073000D01*
X14856696Y-1073000D01*
X14148442Y-1366368D01*
X13606368Y-1908442D01*
X13313000Y-2616696D01*
X202000Y-2616696D01*
X202000Y-202000D01*
X29794260Y-202000D01*
X29798000Y-9657882D01*
M02*
