G04 #@! TF.GenerationSoftware,KiCad,Pcbnew,(5.0.0-rc2-47-g52fceb3)*
G04 #@! TF.CreationDate,2018-06-13T16:43:58-05:00*
G04 #@! TF.ProjectId,nearness_att_panel,6E6561726E6573735F6174745F70616E,rev?*
G04 #@! TF.SameCoordinates,Original*
G04 #@! TF.FileFunction,Legend,Top*
G04 #@! TF.FilePolarity,Positive*
%FSLAX46Y46*%
G04 Gerber Fmt 4.6, Leading zero omitted, Abs format (unit mm)*
G04 Created by KiCad (PCBNEW (5.0.0-rc2-47-g52fceb3)) date Wednesday, June 13, 2018 at 04:43:58 PM*
%MOMM*%
%LPD*%
G01*
G04 APERTURE LIST*
%ADD10C,10.000000*%
%ADD11C,0.150000*%
G04 APERTURE END LIST*
D10*
X14317128Y-15951200D02*
G75*
G03X14317128Y-15951200I-6849528J0D01*
G01*
X13954351Y-112623600D02*
G75*
G03X13954351Y-112623600I-6588351J0D01*
G01*
D11*
G36*
X4622800Y-82194400D02*
X-4521200Y-92913200D01*
X36271200Y-99466400D01*
X4622800Y-82194400D01*
G37*
X4622800Y-82194400D02*
X-4521200Y-92913200D01*
X36271200Y-99466400D01*
X4622800Y-82194400D01*
G36*
X6096000Y-58369200D02*
X-6248400Y-73558400D01*
X40690800Y-61163200D01*
X6096000Y-58369200D01*
G37*
X6096000Y-58369200D02*
X-6248400Y-73558400D01*
X40690800Y-61163200D01*
X6096000Y-58369200D01*
G36*
X-1219200Y-37185600D02*
X1473200Y-48971200D01*
X34798000Y-24180800D01*
X-1219200Y-37185600D01*
G37*
X-1219200Y-37185600D02*
X1473200Y-48971200D01*
X34798000Y-24180800D01*
X-1219200Y-37185600D01*
G04 #@! TO.C,REF\002A\002A*
X6166666Y-16192380D02*
X5833333Y-15716190D01*
X5595238Y-16192380D02*
X5595238Y-15192380D01*
X5976190Y-15192380D01*
X6071428Y-15240000D01*
X6119047Y-15287619D01*
X6166666Y-15382857D01*
X6166666Y-15525714D01*
X6119047Y-15620952D01*
X6071428Y-15668571D01*
X5976190Y-15716190D01*
X5595238Y-15716190D01*
X6595238Y-15668571D02*
X6928571Y-15668571D01*
X7071428Y-16192380D02*
X6595238Y-16192380D01*
X6595238Y-15192380D01*
X7071428Y-15192380D01*
X7833333Y-15668571D02*
X7500000Y-15668571D01*
X7500000Y-16192380D02*
X7500000Y-15192380D01*
X7976190Y-15192380D01*
X8500000Y-15192380D02*
X8500000Y-15430476D01*
X8261904Y-15335238D02*
X8500000Y-15430476D01*
X8738095Y-15335238D01*
X8357142Y-15620952D02*
X8500000Y-15430476D01*
X8642857Y-15620952D01*
X9261904Y-15192380D02*
X9261904Y-15430476D01*
X9023809Y-15335238D02*
X9261904Y-15430476D01*
X9500000Y-15335238D01*
X9119047Y-15620952D02*
X9261904Y-15430476D01*
X9404761Y-15620952D01*
X21166666Y-110668380D02*
X20833333Y-110192190D01*
X20595238Y-110668380D02*
X20595238Y-109668380D01*
X20976190Y-109668380D01*
X21071428Y-109716000D01*
X21119047Y-109763619D01*
X21166666Y-109858857D01*
X21166666Y-110001714D01*
X21119047Y-110096952D01*
X21071428Y-110144571D01*
X20976190Y-110192190D01*
X20595238Y-110192190D01*
X21595238Y-110144571D02*
X21928571Y-110144571D01*
X22071428Y-110668380D02*
X21595238Y-110668380D01*
X21595238Y-109668380D01*
X22071428Y-109668380D01*
X22833333Y-110144571D02*
X22500000Y-110144571D01*
X22500000Y-110668380D02*
X22500000Y-109668380D01*
X22976190Y-109668380D01*
X23500000Y-109668380D02*
X23500000Y-109906476D01*
X23261904Y-109811238D02*
X23500000Y-109906476D01*
X23738095Y-109811238D01*
X23357142Y-110096952D02*
X23500000Y-109906476D01*
X23642857Y-110096952D01*
X24261904Y-109668380D02*
X24261904Y-109906476D01*
X24023809Y-109811238D02*
X24261904Y-109906476D01*
X24500000Y-109811238D01*
X24119047Y-110096952D02*
X24261904Y-109906476D01*
X24404761Y-110096952D01*
X21166666Y-94687380D02*
X20833333Y-94211190D01*
X20595238Y-94687380D02*
X20595238Y-93687380D01*
X20976190Y-93687380D01*
X21071428Y-93735000D01*
X21119047Y-93782619D01*
X21166666Y-93877857D01*
X21166666Y-94020714D01*
X21119047Y-94115952D01*
X21071428Y-94163571D01*
X20976190Y-94211190D01*
X20595238Y-94211190D01*
X21595238Y-94163571D02*
X21928571Y-94163571D01*
X22071428Y-94687380D02*
X21595238Y-94687380D01*
X21595238Y-93687380D01*
X22071428Y-93687380D01*
X22833333Y-94163571D02*
X22500000Y-94163571D01*
X22500000Y-94687380D02*
X22500000Y-93687380D01*
X22976190Y-93687380D01*
X23500000Y-93687380D02*
X23500000Y-93925476D01*
X23261904Y-93830238D02*
X23500000Y-93925476D01*
X23738095Y-93830238D01*
X23357142Y-94115952D02*
X23500000Y-93925476D01*
X23642857Y-94115952D01*
X24261904Y-93687380D02*
X24261904Y-93925476D01*
X24023809Y-93830238D02*
X24261904Y-93925476D01*
X24500000Y-93830238D01*
X24119047Y-94115952D02*
X24261904Y-93925476D01*
X24404761Y-94115952D01*
X21166666Y-78705380D02*
X20833333Y-78229190D01*
X20595238Y-78705380D02*
X20595238Y-77705380D01*
X20976190Y-77705380D01*
X21071428Y-77753000D01*
X21119047Y-77800619D01*
X21166666Y-77895857D01*
X21166666Y-78038714D01*
X21119047Y-78133952D01*
X21071428Y-78181571D01*
X20976190Y-78229190D01*
X20595238Y-78229190D01*
X21595238Y-78181571D02*
X21928571Y-78181571D01*
X22071428Y-78705380D02*
X21595238Y-78705380D01*
X21595238Y-77705380D01*
X22071428Y-77705380D01*
X22833333Y-78181571D02*
X22500000Y-78181571D01*
X22500000Y-78705380D02*
X22500000Y-77705380D01*
X22976190Y-77705380D01*
X23500000Y-77705380D02*
X23500000Y-77943476D01*
X23261904Y-77848238D02*
X23500000Y-77943476D01*
X23738095Y-77848238D01*
X23357142Y-78133952D02*
X23500000Y-77943476D01*
X23642857Y-78133952D01*
X24261904Y-77705380D02*
X24261904Y-77943476D01*
X24023809Y-77848238D02*
X24261904Y-77943476D01*
X24500000Y-77848238D01*
X24119047Y-78133952D02*
X24261904Y-77943476D01*
X24404761Y-78133952D01*
X21166666Y-62724380D02*
X20833333Y-62248190D01*
X20595238Y-62724380D02*
X20595238Y-61724380D01*
X20976190Y-61724380D01*
X21071428Y-61772000D01*
X21119047Y-61819619D01*
X21166666Y-61914857D01*
X21166666Y-62057714D01*
X21119047Y-62152952D01*
X21071428Y-62200571D01*
X20976190Y-62248190D01*
X20595238Y-62248190D01*
X21595238Y-62200571D02*
X21928571Y-62200571D01*
X22071428Y-62724380D02*
X21595238Y-62724380D01*
X21595238Y-61724380D01*
X22071428Y-61724380D01*
X22833333Y-62200571D02*
X22500000Y-62200571D01*
X22500000Y-62724380D02*
X22500000Y-61724380D01*
X22976190Y-61724380D01*
X23500000Y-61724380D02*
X23500000Y-61962476D01*
X23261904Y-61867238D02*
X23500000Y-61962476D01*
X23738095Y-61867238D01*
X23357142Y-62152952D02*
X23500000Y-61962476D01*
X23642857Y-62152952D01*
X24261904Y-61724380D02*
X24261904Y-61962476D01*
X24023809Y-61867238D02*
X24261904Y-61962476D01*
X24500000Y-61867238D01*
X24119047Y-62152952D02*
X24261904Y-61962476D01*
X24404761Y-62152952D01*
X21166666Y-46743380D02*
X20833333Y-46267190D01*
X20595238Y-46743380D02*
X20595238Y-45743380D01*
X20976190Y-45743380D01*
X21071428Y-45791000D01*
X21119047Y-45838619D01*
X21166666Y-45933857D01*
X21166666Y-46076714D01*
X21119047Y-46171952D01*
X21071428Y-46219571D01*
X20976190Y-46267190D01*
X20595238Y-46267190D01*
X21595238Y-46219571D02*
X21928571Y-46219571D01*
X22071428Y-46743380D02*
X21595238Y-46743380D01*
X21595238Y-45743380D01*
X22071428Y-45743380D01*
X22833333Y-46219571D02*
X22500000Y-46219571D01*
X22500000Y-46743380D02*
X22500000Y-45743380D01*
X22976190Y-45743380D01*
X23500000Y-45743380D02*
X23500000Y-45981476D01*
X23261904Y-45886238D02*
X23500000Y-45981476D01*
X23738095Y-45886238D01*
X23357142Y-46171952D02*
X23500000Y-45981476D01*
X23642857Y-46171952D01*
X24261904Y-45743380D02*
X24261904Y-45981476D01*
X24023809Y-45886238D02*
X24261904Y-45981476D01*
X24500000Y-45886238D01*
X24119047Y-46171952D02*
X24261904Y-45981476D01*
X24404761Y-46171952D01*
X21166666Y-30762380D02*
X20833333Y-30286190D01*
X20595238Y-30762380D02*
X20595238Y-29762380D01*
X20976190Y-29762380D01*
X21071428Y-29810000D01*
X21119047Y-29857619D01*
X21166666Y-29952857D01*
X21166666Y-30095714D01*
X21119047Y-30190952D01*
X21071428Y-30238571D01*
X20976190Y-30286190D01*
X20595238Y-30286190D01*
X21595238Y-30238571D02*
X21928571Y-30238571D01*
X22071428Y-30762380D02*
X21595238Y-30762380D01*
X21595238Y-29762380D01*
X22071428Y-29762380D01*
X22833333Y-30238571D02*
X22500000Y-30238571D01*
X22500000Y-30762380D02*
X22500000Y-29762380D01*
X22976190Y-29762380D01*
X23500000Y-29762380D02*
X23500000Y-30000476D01*
X23261904Y-29905238D02*
X23500000Y-30000476D01*
X23738095Y-29905238D01*
X23357142Y-30190952D02*
X23500000Y-30000476D01*
X23642857Y-30190952D01*
X24261904Y-29762380D02*
X24261904Y-30000476D01*
X24023809Y-29905238D02*
X24261904Y-30000476D01*
X24500000Y-29905238D01*
X24119047Y-30190952D02*
X24261904Y-30000476D01*
X24404761Y-30190952D01*
X21166666Y-14781380D02*
X20833333Y-14305190D01*
X20595238Y-14781380D02*
X20595238Y-13781380D01*
X20976190Y-13781380D01*
X21071428Y-13829000D01*
X21119047Y-13876619D01*
X21166666Y-13971857D01*
X21166666Y-14114714D01*
X21119047Y-14209952D01*
X21071428Y-14257571D01*
X20976190Y-14305190D01*
X20595238Y-14305190D01*
X21595238Y-14257571D02*
X21928571Y-14257571D01*
X22071428Y-14781380D02*
X21595238Y-14781380D01*
X21595238Y-13781380D01*
X22071428Y-13781380D01*
X22833333Y-14257571D02*
X22500000Y-14257571D01*
X22500000Y-14781380D02*
X22500000Y-13781380D01*
X22976190Y-13781380D01*
X23500000Y-13781380D02*
X23500000Y-14019476D01*
X23261904Y-13924238D02*
X23500000Y-14019476D01*
X23738095Y-13924238D01*
X23357142Y-14209952D02*
X23500000Y-14019476D01*
X23642857Y-14209952D01*
X24261904Y-13781380D02*
X24261904Y-14019476D01*
X24023809Y-13924238D02*
X24261904Y-14019476D01*
X24500000Y-13924238D01*
X24119047Y-14209952D02*
X24261904Y-14019476D01*
X24404761Y-14209952D01*
X6166666Y-112712380D02*
X5833333Y-112236190D01*
X5595238Y-112712380D02*
X5595238Y-111712380D01*
X5976190Y-111712380D01*
X6071428Y-111760000D01*
X6119047Y-111807619D01*
X6166666Y-111902857D01*
X6166666Y-112045714D01*
X6119047Y-112140952D01*
X6071428Y-112188571D01*
X5976190Y-112236190D01*
X5595238Y-112236190D01*
X6595238Y-112188571D02*
X6928571Y-112188571D01*
X7071428Y-112712380D02*
X6595238Y-112712380D01*
X6595238Y-111712380D01*
X7071428Y-111712380D01*
X7833333Y-112188571D02*
X7500000Y-112188571D01*
X7500000Y-112712380D02*
X7500000Y-111712380D01*
X7976190Y-111712380D01*
X8500000Y-111712380D02*
X8500000Y-111950476D01*
X8261904Y-111855238D02*
X8500000Y-111950476D01*
X8738095Y-111855238D01*
X8357142Y-112140952D02*
X8500000Y-111950476D01*
X8642857Y-112140952D01*
X9261904Y-111712380D02*
X9261904Y-111950476D01*
X9023809Y-111855238D02*
X9261904Y-111950476D01*
X9500000Y-111855238D01*
X9119047Y-112140952D02*
X9261904Y-111950476D01*
X9404761Y-112140952D01*
X6166666Y-100647380D02*
X5833333Y-100171190D01*
X5595238Y-100647380D02*
X5595238Y-99647380D01*
X5976190Y-99647380D01*
X6071428Y-99695000D01*
X6119047Y-99742619D01*
X6166666Y-99837857D01*
X6166666Y-99980714D01*
X6119047Y-100075952D01*
X6071428Y-100123571D01*
X5976190Y-100171190D01*
X5595238Y-100171190D01*
X6595238Y-100123571D02*
X6928571Y-100123571D01*
X7071428Y-100647380D02*
X6595238Y-100647380D01*
X6595238Y-99647380D01*
X7071428Y-99647380D01*
X7833333Y-100123571D02*
X7500000Y-100123571D01*
X7500000Y-100647380D02*
X7500000Y-99647380D01*
X7976190Y-99647380D01*
X8500000Y-99647380D02*
X8500000Y-99885476D01*
X8261904Y-99790238D02*
X8500000Y-99885476D01*
X8738095Y-99790238D01*
X8357142Y-100075952D02*
X8500000Y-99885476D01*
X8642857Y-100075952D01*
X9261904Y-99647380D02*
X9261904Y-99885476D01*
X9023809Y-99790238D02*
X9261904Y-99885476D01*
X9500000Y-99790238D01*
X9119047Y-100075952D02*
X9261904Y-99885476D01*
X9404761Y-100075952D01*
X6166666Y-88582380D02*
X5833333Y-88106190D01*
X5595238Y-88582380D02*
X5595238Y-87582380D01*
X5976190Y-87582380D01*
X6071428Y-87630000D01*
X6119047Y-87677619D01*
X6166666Y-87772857D01*
X6166666Y-87915714D01*
X6119047Y-88010952D01*
X6071428Y-88058571D01*
X5976190Y-88106190D01*
X5595238Y-88106190D01*
X6595238Y-88058571D02*
X6928571Y-88058571D01*
X7071428Y-88582380D02*
X6595238Y-88582380D01*
X6595238Y-87582380D01*
X7071428Y-87582380D01*
X7833333Y-88058571D02*
X7500000Y-88058571D01*
X7500000Y-88582380D02*
X7500000Y-87582380D01*
X7976190Y-87582380D01*
X8500000Y-87582380D02*
X8500000Y-87820476D01*
X8261904Y-87725238D02*
X8500000Y-87820476D01*
X8738095Y-87725238D01*
X8357142Y-88010952D02*
X8500000Y-87820476D01*
X8642857Y-88010952D01*
X9261904Y-87582380D02*
X9261904Y-87820476D01*
X9023809Y-87725238D02*
X9261904Y-87820476D01*
X9500000Y-87725238D01*
X9119047Y-88010952D02*
X9261904Y-87820476D01*
X9404761Y-88010952D01*
X6166666Y-76517380D02*
X5833333Y-76041190D01*
X5595238Y-76517380D02*
X5595238Y-75517380D01*
X5976190Y-75517380D01*
X6071428Y-75565000D01*
X6119047Y-75612619D01*
X6166666Y-75707857D01*
X6166666Y-75850714D01*
X6119047Y-75945952D01*
X6071428Y-75993571D01*
X5976190Y-76041190D01*
X5595238Y-76041190D01*
X6595238Y-75993571D02*
X6928571Y-75993571D01*
X7071428Y-76517380D02*
X6595238Y-76517380D01*
X6595238Y-75517380D01*
X7071428Y-75517380D01*
X7833333Y-75993571D02*
X7500000Y-75993571D01*
X7500000Y-76517380D02*
X7500000Y-75517380D01*
X7976190Y-75517380D01*
X8500000Y-75517380D02*
X8500000Y-75755476D01*
X8261904Y-75660238D02*
X8500000Y-75755476D01*
X8738095Y-75660238D01*
X8357142Y-75945952D02*
X8500000Y-75755476D01*
X8642857Y-75945952D01*
X9261904Y-75517380D02*
X9261904Y-75755476D01*
X9023809Y-75660238D02*
X9261904Y-75755476D01*
X9500000Y-75660238D01*
X9119047Y-75945952D02*
X9261904Y-75755476D01*
X9404761Y-75945952D01*
X6166666Y-64452380D02*
X5833333Y-63976190D01*
X5595238Y-64452380D02*
X5595238Y-63452380D01*
X5976190Y-63452380D01*
X6071428Y-63500000D01*
X6119047Y-63547619D01*
X6166666Y-63642857D01*
X6166666Y-63785714D01*
X6119047Y-63880952D01*
X6071428Y-63928571D01*
X5976190Y-63976190D01*
X5595238Y-63976190D01*
X6595238Y-63928571D02*
X6928571Y-63928571D01*
X7071428Y-64452380D02*
X6595238Y-64452380D01*
X6595238Y-63452380D01*
X7071428Y-63452380D01*
X7833333Y-63928571D02*
X7500000Y-63928571D01*
X7500000Y-64452380D02*
X7500000Y-63452380D01*
X7976190Y-63452380D01*
X8500000Y-63452380D02*
X8500000Y-63690476D01*
X8261904Y-63595238D02*
X8500000Y-63690476D01*
X8738095Y-63595238D01*
X8357142Y-63880952D02*
X8500000Y-63690476D01*
X8642857Y-63880952D01*
X9261904Y-63452380D02*
X9261904Y-63690476D01*
X9023809Y-63595238D02*
X9261904Y-63690476D01*
X9500000Y-63595238D01*
X9119047Y-63880952D02*
X9261904Y-63690476D01*
X9404761Y-63880952D01*
X6166666Y-52387380D02*
X5833333Y-51911190D01*
X5595238Y-52387380D02*
X5595238Y-51387380D01*
X5976190Y-51387380D01*
X6071428Y-51435000D01*
X6119047Y-51482619D01*
X6166666Y-51577857D01*
X6166666Y-51720714D01*
X6119047Y-51815952D01*
X6071428Y-51863571D01*
X5976190Y-51911190D01*
X5595238Y-51911190D01*
X6595238Y-51863571D02*
X6928571Y-51863571D01*
X7071428Y-52387380D02*
X6595238Y-52387380D01*
X6595238Y-51387380D01*
X7071428Y-51387380D01*
X7833333Y-51863571D02*
X7500000Y-51863571D01*
X7500000Y-52387380D02*
X7500000Y-51387380D01*
X7976190Y-51387380D01*
X8500000Y-51387380D02*
X8500000Y-51625476D01*
X8261904Y-51530238D02*
X8500000Y-51625476D01*
X8738095Y-51530238D01*
X8357142Y-51815952D02*
X8500000Y-51625476D01*
X8642857Y-51815952D01*
X9261904Y-51387380D02*
X9261904Y-51625476D01*
X9023809Y-51530238D02*
X9261904Y-51625476D01*
X9500000Y-51530238D01*
X9119047Y-51815952D02*
X9261904Y-51625476D01*
X9404761Y-51815952D01*
X6166666Y-40322380D02*
X5833333Y-39846190D01*
X5595238Y-40322380D02*
X5595238Y-39322380D01*
X5976190Y-39322380D01*
X6071428Y-39370000D01*
X6119047Y-39417619D01*
X6166666Y-39512857D01*
X6166666Y-39655714D01*
X6119047Y-39750952D01*
X6071428Y-39798571D01*
X5976190Y-39846190D01*
X5595238Y-39846190D01*
X6595238Y-39798571D02*
X6928571Y-39798571D01*
X7071428Y-40322380D02*
X6595238Y-40322380D01*
X6595238Y-39322380D01*
X7071428Y-39322380D01*
X7833333Y-39798571D02*
X7500000Y-39798571D01*
X7500000Y-40322380D02*
X7500000Y-39322380D01*
X7976190Y-39322380D01*
X8500000Y-39322380D02*
X8500000Y-39560476D01*
X8261904Y-39465238D02*
X8500000Y-39560476D01*
X8738095Y-39465238D01*
X8357142Y-39750952D02*
X8500000Y-39560476D01*
X8642857Y-39750952D01*
X9261904Y-39322380D02*
X9261904Y-39560476D01*
X9023809Y-39465238D02*
X9261904Y-39560476D01*
X9500000Y-39465238D01*
X9119047Y-39750952D02*
X9261904Y-39560476D01*
X9404761Y-39750952D01*
X6166666Y-28257380D02*
X5833333Y-27781190D01*
X5595238Y-28257380D02*
X5595238Y-27257380D01*
X5976190Y-27257380D01*
X6071428Y-27305000D01*
X6119047Y-27352619D01*
X6166666Y-27447857D01*
X6166666Y-27590714D01*
X6119047Y-27685952D01*
X6071428Y-27733571D01*
X5976190Y-27781190D01*
X5595238Y-27781190D01*
X6595238Y-27733571D02*
X6928571Y-27733571D01*
X7071428Y-28257380D02*
X6595238Y-28257380D01*
X6595238Y-27257380D01*
X7071428Y-27257380D01*
X7833333Y-27733571D02*
X7500000Y-27733571D01*
X7500000Y-28257380D02*
X7500000Y-27257380D01*
X7976190Y-27257380D01*
X8500000Y-27257380D02*
X8500000Y-27495476D01*
X8261904Y-27400238D02*
X8500000Y-27495476D01*
X8738095Y-27400238D01*
X8357142Y-27685952D02*
X8500000Y-27495476D01*
X8642857Y-27685952D01*
X9261904Y-27257380D02*
X9261904Y-27495476D01*
X9023809Y-27400238D02*
X9261904Y-27495476D01*
X9500000Y-27400238D01*
X9119047Y-27685952D02*
X9261904Y-27495476D01*
X9404761Y-27685952D01*
G04 #@! TD*
M02*
