G04 #@! TF.GenerationSoftware,KiCad,Pcbnew,(5.0.0-rc2-47-g52fceb3)*
G04 #@! TF.CreationDate,2018-06-13T16:43:58-05:00*
G04 #@! TF.ProjectId,nearness_att_panel,6E6561726E6573735F6174745F70616E,rev?*
G04 #@! TF.SameCoordinates,Original*
G04 #@! TF.FileFunction,Soldermask,Top*
G04 #@! TF.FilePolarity,Negative*
%FSLAX46Y46*%
G04 Gerber Fmt 4.6, Leading zero omitted, Abs format (unit mm)*
G04 Created by KiCad (PCBNEW (5.0.0-rc2-47-g52fceb3)) date Wednesday, June 13, 2018 at 04:43:58 PM*
%MOMM*%
%LPD*%
G01*
G04 APERTURE LIST*
%ADD10C,0.150000*%
%ADD11C,6.600000*%
%ADD12C,3.600000*%
G04 APERTURE END LIST*
D10*
G36*
X26720800Y-37642800D02*
X30937200Y-54457600D01*
X-2133600Y-55473600D01*
X26720800Y-37642800D01*
G37*
X26720800Y-37642800D02*
X30937200Y-54457600D01*
X-2133600Y-55473600D01*
X26720800Y-37642800D01*
G36*
X34645600Y-103530400D02*
X23723600Y-118110000D01*
X-4470400Y-93065600D01*
X34645600Y-103530400D01*
G37*
X34645600Y-103530400D02*
X23723600Y-118110000D01*
X-4470400Y-93065600D01*
X34645600Y-103530400D01*
G36*
X28143200Y-73152000D02*
X26822400Y-89408000D01*
X-3962400Y-74930000D01*
X-3860800Y-74930000D01*
X28143200Y-73152000D01*
G37*
X28143200Y-73152000D02*
X26822400Y-89408000D01*
X-3962400Y-74930000D01*
X-3860800Y-74930000D01*
X28143200Y-73152000D01*
G36*
X33578800Y-20726400D02*
X1676400Y-33121600D01*
X23926800Y-6197600D01*
X33578800Y-20726400D01*
G37*
X33578800Y-20726400D02*
X1676400Y-33121600D01*
X23926800Y-6197600D01*
X33578800Y-20726400D01*
D11*
G04 #@! TO.C,REF\002A\002A*
X7500000Y-15980000D03*
G04 #@! TD*
G04 #@! TO.C,REF\002A\002A*
X22500000Y-110456000D03*
G04 #@! TD*
G04 #@! TO.C,REF\002A\002A*
X22500000Y-94475000D03*
G04 #@! TD*
G04 #@! TO.C,REF\002A\002A*
X22500000Y-78493000D03*
G04 #@! TD*
G04 #@! TO.C,REF\002A\002A*
X22500000Y-62512000D03*
G04 #@! TD*
G04 #@! TO.C,REF\002A\002A*
X22500000Y-46531000D03*
G04 #@! TD*
G04 #@! TO.C,REF\002A\002A*
X22500000Y-30550000D03*
G04 #@! TD*
G04 #@! TO.C,REF\002A\002A*
X22500000Y-14569000D03*
G04 #@! TD*
G04 #@! TO.C,REF\002A\002A*
X7500000Y-112500000D03*
G04 #@! TD*
G04 #@! TO.C,REF\002A\002A*
X7500000Y-100435000D03*
G04 #@! TD*
G04 #@! TO.C,REF\002A\002A*
X7500000Y-88370000D03*
G04 #@! TD*
G04 #@! TO.C,REF\002A\002A*
X7500000Y-76305000D03*
G04 #@! TD*
G04 #@! TO.C,REF\002A\002A*
X7500000Y-64240000D03*
G04 #@! TD*
G04 #@! TO.C,REF\002A\002A*
X7500000Y-52175000D03*
G04 #@! TD*
G04 #@! TO.C,REF\002A\002A*
X7500000Y-40110000D03*
G04 #@! TD*
G04 #@! TO.C,REF\002A\002A*
X7500000Y-28045000D03*
G04 #@! TD*
D12*
G04 #@! TO.C,REF\002A\002A*
X15240000Y-3000000D03*
G04 #@! TD*
G04 #@! TO.C,REF\002A\002A*
X15240000Y-125500000D03*
G04 #@! TD*
M02*
