G04 #@! TF.GenerationSoftware,KiCad,Pcbnew,(5.0.0-rc2-47-g52fceb3)*
G04 #@! TF.CreationDate,2018-07-16T10:42:13-05:00*
G04 #@! TF.ProjectId,nearness,6E6561726E6573732E6B696361645F70,rev?*
G04 #@! TF.SameCoordinates,Original*
G04 #@! TF.FileFunction,Soldermask,Bot*
G04 #@! TF.FilePolarity,Negative*
%FSLAX46Y46*%
G04 Gerber Fmt 4.6, Leading zero omitted, Abs format (unit mm)*
G04 Created by KiCad (PCBNEW (5.0.0-rc2-47-g52fceb3)) date Monday, July 16, 2018 at 10:42:13 AM*
%MOMM*%
%LPD*%
G01*
G04 APERTURE LIST*
%ADD10C,0.300000*%
%ADD11C,0.250000*%
%ADD12C,0.187500*%
%ADD13C,1.800000*%
%ADD14C,3.000000*%
%ADD15R,1.300000X1.500000*%
%ADD16R,1.500000X1.300000*%
%ADD17R,1.700000X1.700000*%
%ADD18O,1.700000X1.700000*%
%ADD19C,2.150000*%
G04 APERTURE END LIST*
D10*
X4303002Y-36921294D02*
X4248190Y-37080481D01*
X4407376Y-37135293D01*
X4462189Y-36976106D01*
X4303002Y-36921294D01*
X4407376Y-37135293D01*
X3989880Y-36279298D02*
X3470635Y-34943120D01*
X3311449Y-34888308D01*
X3256636Y-35047494D01*
X3989880Y-36279298D01*
X3311449Y-34888308D01*
X4332997Y-108295294D02*
X4173810Y-108350106D01*
X4228623Y-108509293D01*
X4387809Y-108454481D01*
X4332997Y-108295294D01*
X4228623Y-108509293D01*
X4646119Y-107653298D02*
X5379363Y-106421494D01*
X5324550Y-106262308D01*
X5165364Y-106317120D01*
X4646119Y-107653298D01*
X5324550Y-106262308D01*
D11*
X13472029Y-59174436D02*
X13407294Y-59155874D01*
X13300911Y-59160397D01*
X13092668Y-59275828D01*
X13032457Y-59363649D01*
X13013895Y-59428384D01*
X13018419Y-59534767D01*
X13064591Y-59618064D01*
X13175498Y-59719924D01*
X13952315Y-59942672D01*
X13410884Y-60242793D01*
X12384643Y-59668293D02*
X12301346Y-59714466D01*
X12241135Y-59802286D01*
X12222572Y-59867021D01*
X12227096Y-59973404D01*
X12277792Y-60163085D01*
X12393223Y-60371328D01*
X12527216Y-60514836D01*
X12615037Y-60575047D01*
X12679772Y-60593609D01*
X12786155Y-60589085D01*
X12869452Y-60542913D01*
X12929663Y-60455092D01*
X12948226Y-60390357D01*
X12943702Y-60283974D01*
X12893006Y-60094294D01*
X12777575Y-59886051D01*
X12643582Y-59742543D01*
X12555761Y-59682332D01*
X12491026Y-59663769D01*
X12384643Y-59668293D01*
X11744941Y-61166240D02*
X12244724Y-60889205D01*
X11994833Y-61027723D02*
X11510023Y-60153103D01*
X11662579Y-60231876D01*
X11792048Y-60269001D01*
X11898431Y-60264477D01*
X10968124Y-60943491D02*
X11028335Y-60855670D01*
X11046898Y-60790935D01*
X11042374Y-60684552D01*
X11019288Y-60642903D01*
X10931467Y-60582693D01*
X10866732Y-60564130D01*
X10760349Y-60568654D01*
X10593755Y-60660999D01*
X10533544Y-60748820D01*
X10514981Y-60813554D01*
X10519505Y-60919938D01*
X10542591Y-60961586D01*
X10630412Y-61021797D01*
X10695147Y-61040359D01*
X10801530Y-61035836D01*
X10968124Y-60943491D01*
X11074508Y-60938967D01*
X11139242Y-60957530D01*
X11227063Y-61017740D01*
X11319408Y-61184335D01*
X11323932Y-61290718D01*
X11305369Y-61355453D01*
X11245159Y-61443274D01*
X11078564Y-61535618D01*
X10972181Y-61540142D01*
X10907446Y-61521580D01*
X10819625Y-61461369D01*
X10727281Y-61294775D01*
X10722757Y-61188391D01*
X10741319Y-61123657D01*
X10801530Y-61035836D01*
D12*
X8358628Y-59471850D02*
X8001485Y-59471850D01*
X8430057Y-59686135D02*
X8180057Y-58936135D01*
X7930057Y-59686135D01*
X7787199Y-59186135D02*
X7501485Y-59186135D01*
X7680057Y-58936135D02*
X7680057Y-59578992D01*
X7644342Y-59650421D01*
X7572914Y-59686135D01*
X7501485Y-59686135D01*
X7358628Y-59186135D02*
X7072914Y-59186135D01*
X7251485Y-58936135D02*
X7251485Y-59578992D01*
X7215771Y-59650421D01*
X7144342Y-59686135D01*
X7072914Y-59686135D01*
X6537200Y-59650421D02*
X6608628Y-59686135D01*
X6751485Y-59686135D01*
X6822914Y-59650421D01*
X6858628Y-59578992D01*
X6858628Y-59293278D01*
X6822914Y-59221850D01*
X6751485Y-59186135D01*
X6608628Y-59186135D01*
X6537200Y-59221850D01*
X6501485Y-59293278D01*
X6501485Y-59364707D01*
X6858628Y-59436135D01*
X6180057Y-59186135D02*
X6180057Y-59686135D01*
X6180057Y-59257564D02*
X6144342Y-59221850D01*
X6072914Y-59186135D01*
X5965771Y-59186135D01*
X5894342Y-59221850D01*
X5858628Y-59293278D01*
X5858628Y-59686135D01*
X5180057Y-59186135D02*
X5180057Y-59686135D01*
X5501485Y-59186135D02*
X5501485Y-59578992D01*
X5465771Y-59650421D01*
X5394342Y-59686135D01*
X5287200Y-59686135D01*
X5215771Y-59650421D01*
X5180057Y-59614707D01*
X4501485Y-59686135D02*
X4501485Y-59293278D01*
X4537200Y-59221850D01*
X4608628Y-59186135D01*
X4751485Y-59186135D01*
X4822914Y-59221850D01*
X4501485Y-59650421D02*
X4572914Y-59686135D01*
X4751485Y-59686135D01*
X4822914Y-59650421D01*
X4858628Y-59578992D01*
X4858628Y-59507564D01*
X4822914Y-59436135D01*
X4751485Y-59400421D01*
X4572914Y-59400421D01*
X4501485Y-59364707D01*
X4251485Y-59186135D02*
X3965771Y-59186135D01*
X4144342Y-58936135D02*
X4144342Y-59578992D01*
X4108628Y-59650421D01*
X4037200Y-59686135D01*
X3965771Y-59686135D01*
X3430057Y-59650421D02*
X3501485Y-59686135D01*
X3644342Y-59686135D01*
X3715771Y-59650421D01*
X3751485Y-59578992D01*
X3751485Y-59293278D01*
X3715771Y-59221850D01*
X3644342Y-59186135D01*
X3501485Y-59186135D01*
X3430057Y-59221850D01*
X3394342Y-59293278D01*
X3394342Y-59364707D01*
X3751485Y-59436135D01*
X2751485Y-59686135D02*
X2751485Y-58936135D01*
X2751485Y-59650421D02*
X2822914Y-59686135D01*
X2965771Y-59686135D01*
X3037200Y-59650421D01*
X3072914Y-59614707D01*
X3108628Y-59543278D01*
X3108628Y-59328992D01*
X3072914Y-59257564D01*
X3037200Y-59221850D01*
X2965771Y-59186135D01*
X2822914Y-59186135D01*
X2751485Y-59221850D01*
X8376485Y-60998635D02*
X8376485Y-60248635D01*
X7947914Y-60998635D01*
X7947914Y-60248635D01*
X7305057Y-60962921D02*
X7376485Y-60998635D01*
X7519342Y-60998635D01*
X7590771Y-60962921D01*
X7626485Y-60891492D01*
X7626485Y-60605778D01*
X7590771Y-60534350D01*
X7519342Y-60498635D01*
X7376485Y-60498635D01*
X7305057Y-60534350D01*
X7269342Y-60605778D01*
X7269342Y-60677207D01*
X7626485Y-60748635D01*
X6626485Y-60998635D02*
X6626485Y-60605778D01*
X6662200Y-60534350D01*
X6733628Y-60498635D01*
X6876485Y-60498635D01*
X6947914Y-60534350D01*
X6626485Y-60962921D02*
X6697914Y-60998635D01*
X6876485Y-60998635D01*
X6947914Y-60962921D01*
X6983628Y-60891492D01*
X6983628Y-60820064D01*
X6947914Y-60748635D01*
X6876485Y-60712921D01*
X6697914Y-60712921D01*
X6626485Y-60677207D01*
X6269342Y-60998635D02*
X6269342Y-60498635D01*
X6269342Y-60641492D02*
X6233628Y-60570064D01*
X6197914Y-60534350D01*
X6126485Y-60498635D01*
X6055057Y-60498635D01*
X5805057Y-60498635D02*
X5805057Y-60998635D01*
X5805057Y-60570064D02*
X5769342Y-60534350D01*
X5697914Y-60498635D01*
X5590771Y-60498635D01*
X5519342Y-60534350D01*
X5483628Y-60605778D01*
X5483628Y-60998635D01*
X4840771Y-60962921D02*
X4912200Y-60998635D01*
X5055057Y-60998635D01*
X5126485Y-60962921D01*
X5162200Y-60891492D01*
X5162200Y-60605778D01*
X5126485Y-60534350D01*
X5055057Y-60498635D01*
X4912200Y-60498635D01*
X4840771Y-60534350D01*
X4805057Y-60605778D01*
X4805057Y-60677207D01*
X5162200Y-60748635D01*
X4519342Y-60962921D02*
X4447914Y-60998635D01*
X4305057Y-60998635D01*
X4233628Y-60962921D01*
X4197914Y-60891492D01*
X4197914Y-60855778D01*
X4233628Y-60784350D01*
X4305057Y-60748635D01*
X4412200Y-60748635D01*
X4483628Y-60712921D01*
X4519342Y-60641492D01*
X4519342Y-60605778D01*
X4483628Y-60534350D01*
X4412200Y-60498635D01*
X4305057Y-60498635D01*
X4233628Y-60534350D01*
X3912200Y-60962921D02*
X3840771Y-60998635D01*
X3697914Y-60998635D01*
X3626485Y-60962921D01*
X3590771Y-60891492D01*
X3590771Y-60855778D01*
X3626485Y-60784350D01*
X3697914Y-60748635D01*
X3805057Y-60748635D01*
X3876485Y-60712921D01*
X3912200Y-60641492D01*
X3912200Y-60605778D01*
X3876485Y-60534350D01*
X3805057Y-60498635D01*
X3697914Y-60498635D01*
X3626485Y-60534350D01*
X3269342Y-60927207D02*
X3233628Y-60962921D01*
X3269342Y-60998635D01*
X3305057Y-60962921D01*
X3269342Y-60927207D01*
X3269342Y-60998635D01*
X3269342Y-60534350D02*
X3233628Y-60570064D01*
X3269342Y-60605778D01*
X3305057Y-60570064D01*
X3269342Y-60534350D01*
X3269342Y-60605778D01*
X8376485Y-61918278D02*
X8269342Y-61953992D01*
X8233628Y-61989707D01*
X8197914Y-62061135D01*
X8197914Y-62168278D01*
X8233628Y-62239707D01*
X8269342Y-62275421D01*
X8340771Y-62311135D01*
X8626485Y-62311135D01*
X8626485Y-61561135D01*
X8376485Y-61561135D01*
X8305057Y-61596850D01*
X8269342Y-61632564D01*
X8233628Y-61703992D01*
X8233628Y-61775421D01*
X8269342Y-61846850D01*
X8305057Y-61882564D01*
X8376485Y-61918278D01*
X8626485Y-61918278D01*
X7590771Y-62275421D02*
X7662199Y-62311135D01*
X7805057Y-62311135D01*
X7876485Y-62275421D01*
X7912199Y-62203992D01*
X7912199Y-61918278D01*
X7876485Y-61846850D01*
X7805057Y-61811135D01*
X7662199Y-61811135D01*
X7590771Y-61846850D01*
X7555057Y-61918278D01*
X7555057Y-61989707D01*
X7912199Y-62061135D01*
X7233628Y-61811135D02*
X7233628Y-62311135D01*
X7233628Y-61882564D02*
X7197914Y-61846850D01*
X7126485Y-61811135D01*
X7019342Y-61811135D01*
X6947914Y-61846850D01*
X6912199Y-61918278D01*
X6912199Y-62311135D01*
X5983628Y-62311135D02*
X5983628Y-61561135D01*
X5733628Y-62096850D01*
X5483628Y-61561135D01*
X5483628Y-62311135D01*
X5019342Y-62311135D02*
X5090771Y-62275421D01*
X5126485Y-62239707D01*
X5162200Y-62168278D01*
X5162200Y-61953992D01*
X5126485Y-61882564D01*
X5090771Y-61846850D01*
X5019342Y-61811135D01*
X4912200Y-61811135D01*
X4840771Y-61846850D01*
X4805057Y-61882564D01*
X4769342Y-61953992D01*
X4769342Y-62168278D01*
X4805057Y-62239707D01*
X4840771Y-62275421D01*
X4912200Y-62311135D01*
X5019342Y-62311135D01*
X4447914Y-62311135D02*
X4447914Y-61811135D01*
X4447914Y-61953992D02*
X4412200Y-61882564D01*
X4376485Y-61846850D01*
X4305057Y-61811135D01*
X4233628Y-61811135D01*
X3697914Y-62275421D02*
X3769342Y-62311135D01*
X3912200Y-62311135D01*
X3983628Y-62275421D01*
X4019342Y-62203992D01*
X4019342Y-61918278D01*
X3983628Y-61846850D01*
X3912200Y-61811135D01*
X3769342Y-61811135D01*
X3697914Y-61846850D01*
X3662200Y-61918278D01*
X3662200Y-61989707D01*
X4019342Y-62061135D01*
X3340771Y-61811135D02*
X3340771Y-62311135D01*
X3340771Y-61882564D02*
X3305057Y-61846850D01*
X3233628Y-61811135D01*
X3126485Y-61811135D01*
X3055057Y-61846850D01*
X3019342Y-61918278D01*
X3019342Y-62311135D01*
X8805057Y-63552207D02*
X8840771Y-63587921D01*
X8947914Y-63623635D01*
X9019342Y-63623635D01*
X9126485Y-63587921D01*
X9197914Y-63516492D01*
X9233628Y-63445064D01*
X9269342Y-63302207D01*
X9269342Y-63195064D01*
X9233628Y-63052207D01*
X9197914Y-62980778D01*
X9126485Y-62909350D01*
X9019342Y-62873635D01*
X8947914Y-62873635D01*
X8840771Y-62909350D01*
X8805057Y-62945064D01*
X8055057Y-63552207D02*
X8090771Y-63587921D01*
X8197914Y-63623635D01*
X8269342Y-63623635D01*
X8376485Y-63587921D01*
X8447914Y-63516492D01*
X8483628Y-63445064D01*
X8519342Y-63302207D01*
X8519342Y-63195064D01*
X8483628Y-63052207D01*
X8447914Y-62980778D01*
X8376485Y-62909350D01*
X8269342Y-62873635D01*
X8197914Y-62873635D01*
X8090771Y-62909350D01*
X8055057Y-62945064D01*
X6912200Y-63230778D02*
X6805057Y-63266492D01*
X6769342Y-63302207D01*
X6733628Y-63373635D01*
X6733628Y-63480778D01*
X6769342Y-63552207D01*
X6805057Y-63587921D01*
X6876485Y-63623635D01*
X7162200Y-63623635D01*
X7162200Y-62873635D01*
X6912200Y-62873635D01*
X6840771Y-62909350D01*
X6805057Y-62945064D01*
X6769342Y-63016492D01*
X6769342Y-63087921D01*
X6805057Y-63159350D01*
X6840771Y-63195064D01*
X6912200Y-63230778D01*
X7162200Y-63230778D01*
X6269342Y-63266492D02*
X6269342Y-63623635D01*
X6519342Y-62873635D02*
X6269342Y-63266492D01*
X6019342Y-62873635D01*
X5233628Y-63587921D02*
X5126485Y-63623635D01*
X4947914Y-63623635D01*
X4876485Y-63587921D01*
X4840771Y-63552207D01*
X4805057Y-63480778D01*
X4805057Y-63409350D01*
X4840771Y-63337921D01*
X4876485Y-63302207D01*
X4947914Y-63266492D01*
X5090771Y-63230778D01*
X5162200Y-63195064D01*
X5197914Y-63159350D01*
X5233628Y-63087921D01*
X5233628Y-63016492D01*
X5197914Y-62945064D01*
X5162200Y-62909350D01*
X5090771Y-62873635D01*
X4912200Y-62873635D01*
X4805057Y-62909350D01*
X4519342Y-63409350D02*
X4162199Y-63409350D01*
X4590771Y-63623635D02*
X4340771Y-62873635D01*
X4090771Y-63623635D01*
X2947914Y-63123635D02*
X2947914Y-63623635D01*
X3126485Y-62837921D02*
X3305057Y-63373635D01*
X2840771Y-63373635D01*
X2555057Y-63552207D02*
X2519342Y-63587921D01*
X2555057Y-63623635D01*
X2590771Y-63587921D01*
X2555057Y-63552207D01*
X2555057Y-63623635D01*
X2055057Y-62873635D02*
X1983628Y-62873635D01*
X1912200Y-62909350D01*
X1876485Y-62945064D01*
X1840771Y-63016492D01*
X1805057Y-63159350D01*
X1805057Y-63337921D01*
X1840771Y-63480778D01*
X1876485Y-63552207D01*
X1912200Y-63587921D01*
X1983628Y-63623635D01*
X2055057Y-63623635D01*
X2126485Y-63587921D01*
X2162200Y-63552207D01*
X2197914Y-63480778D01*
X2233628Y-63337921D01*
X2233628Y-63159350D01*
X2197914Y-63016492D01*
X2162200Y-62945064D01*
X2126485Y-62909350D01*
X2055057Y-62873635D01*
D13*
G04 #@! TO.C,RV1*
X20001900Y-12814380D03*
X22501900Y-12814380D03*
X25001900Y-12814380D03*
D14*
X18101900Y-5814380D03*
X26901900Y-5814380D03*
G04 #@! TD*
D13*
G04 #@! TO.C,RV2*
X20001900Y-28795380D03*
X22501900Y-28795380D03*
X25001900Y-28795380D03*
D14*
X18101900Y-21795380D03*
X26901900Y-21795380D03*
G04 #@! TD*
D13*
G04 #@! TO.C,RV3*
X20001900Y-44776380D03*
X22501900Y-44776380D03*
X25001900Y-44776380D03*
D14*
X18101900Y-37776380D03*
X26901900Y-37776380D03*
G04 #@! TD*
D13*
G04 #@! TO.C,RV4*
X20001900Y-60757380D03*
X22501900Y-60757380D03*
X25001900Y-60757380D03*
D14*
X18101900Y-53757380D03*
X26901900Y-53757380D03*
G04 #@! TD*
D13*
G04 #@! TO.C,RV5*
X20001900Y-76738380D03*
X22501900Y-76738380D03*
X25001900Y-76738380D03*
D14*
X18101900Y-69738380D03*
X26901900Y-69738380D03*
G04 #@! TD*
D13*
G04 #@! TO.C,RV6*
X20001900Y-92720380D03*
X22501900Y-92720380D03*
X25001900Y-92720380D03*
D14*
X18101900Y-85720380D03*
X26901900Y-85720380D03*
G04 #@! TD*
D13*
G04 #@! TO.C,RV7*
X20001900Y-108681380D03*
X22501900Y-108681380D03*
X25001900Y-108681380D03*
D14*
X18101900Y-101681380D03*
X26901900Y-101681380D03*
G04 #@! TD*
D15*
G04 #@! TO.C,R14*
X23418800Y-105845600D03*
X23418800Y-103145600D03*
G04 #@! TD*
D16*
G04 #@! TO.C,R13*
X16150000Y-106070400D03*
X18850000Y-106070400D03*
G04 #@! TD*
D15*
G04 #@! TO.C,R12*
X23164800Y-89996000D03*
X23164800Y-87296000D03*
G04 #@! TD*
D16*
G04 #@! TO.C,R11*
X16150000Y-89255600D03*
X18850000Y-89255600D03*
G04 #@! TD*
D15*
G04 #@! TO.C,R10*
X23368000Y-73994000D03*
X23368000Y-71294000D03*
G04 #@! TD*
D16*
G04 #@! TO.C,R9*
X16150000Y-73812400D03*
X18850000Y-73812400D03*
G04 #@! TD*
D15*
G04 #@! TO.C,R8*
X23418800Y-57992000D03*
X23418800Y-55292000D03*
G04 #@! TD*
D16*
G04 #@! TO.C,R7*
X16150000Y-57810400D03*
X18850000Y-57810400D03*
G04 #@! TD*
D15*
G04 #@! TO.C,R6*
X23266400Y-41786800D03*
X23266400Y-39086800D03*
G04 #@! TD*
D16*
G04 #@! TO.C,R5*
X16150000Y-42062400D03*
X18850000Y-42062400D03*
G04 #@! TD*
G04 #@! TO.C,R3*
X16150000Y-26111200D03*
X18850000Y-26111200D03*
G04 #@! TD*
D15*
G04 #@! TO.C,R2*
X23418800Y-9681200D03*
X23418800Y-6981200D03*
G04 #@! TD*
D16*
G04 #@! TO.C,R1*
X16150000Y-9855200D03*
X18850000Y-9855200D03*
G04 #@! TD*
D15*
G04 #@! TO.C,R4*
X23215600Y-22983200D03*
X23215600Y-25683200D03*
G04 #@! TD*
D17*
G04 #@! TO.C,J12*
X3000000Y-97445000D03*
D18*
X5540000Y-97445000D03*
X8080000Y-97445000D03*
X10620000Y-97445000D03*
X13160000Y-97445000D03*
G04 #@! TD*
G04 #@! TO.C,J11*
X13160000Y-13000000D03*
X10620000Y-13000000D03*
X8080000Y-13000000D03*
X5540000Y-13000000D03*
D17*
X3000000Y-13000000D03*
G04 #@! TD*
D14*
G04 #@! TO.C,J6*
X7500000Y-67065000D03*
D19*
X2580000Y-67065000D03*
X10880000Y-67065000D03*
D13*
X13596000Y-67065000D03*
G04 #@! TD*
D14*
G04 #@! TO.C,J5*
X7622000Y-55000000D03*
D19*
X2702000Y-55000000D03*
X11002000Y-55000000D03*
D13*
X13718000Y-55000000D03*
G04 #@! TD*
D14*
G04 #@! TO.C,J4*
X7500000Y-42935000D03*
D19*
X2580000Y-42935000D03*
X10880000Y-42935000D03*
D13*
X13596000Y-42935000D03*
G04 #@! TD*
D14*
G04 #@! TO.C,J3*
X7500000Y-30870000D03*
D19*
X2580000Y-30870000D03*
X10880000Y-30870000D03*
D13*
X13596000Y-30870000D03*
G04 #@! TD*
D14*
G04 #@! TO.C,J2*
X7500000Y-18805000D03*
D19*
X2580000Y-18805000D03*
X10880000Y-18805000D03*
D13*
X13596000Y-18805000D03*
G04 #@! TD*
D14*
G04 #@! TO.C,J1*
X7500000Y-6740000D03*
D19*
X2580000Y-6740000D03*
X10880000Y-6740000D03*
D13*
X13596000Y-6740000D03*
G04 #@! TD*
D14*
G04 #@! TO.C,J7*
X7500000Y-79130000D03*
D19*
X2580000Y-79130000D03*
X10880000Y-79130000D03*
D13*
X13596000Y-79130000D03*
G04 #@! TD*
D14*
G04 #@! TO.C,J8*
X7500000Y-91195000D03*
D19*
X2580000Y-91195000D03*
X10880000Y-91195000D03*
D13*
X13596000Y-91195000D03*
G04 #@! TD*
D14*
G04 #@! TO.C,J9*
X7500000Y-103260000D03*
D19*
X2580000Y-103260000D03*
X10880000Y-103260000D03*
D13*
X13596000Y-103260000D03*
G04 #@! TD*
M02*
