G04 #@! TF.GenerationSoftware,KiCad,Pcbnew,(5.0.0-rc2-47-g52fceb3)*
G04 #@! TF.CreationDate,2018-07-16T10:42:13-05:00*
G04 #@! TF.ProjectId,nearness,6E6561726E6573732E6B696361645F70,rev?*
G04 #@! TF.SameCoordinates,Original*
G04 #@! TF.FileFunction,Legend,Bot*
G04 #@! TF.FilePolarity,Positive*
%FSLAX46Y46*%
G04 Gerber Fmt 4.6, Leading zero omitted, Abs format (unit mm)*
G04 Created by KiCad (PCBNEW (5.0.0-rc2-47-g52fceb3)) date Monday, July 16, 2018 at 10:42:13 AM*
%MOMM*%
%LPD*%
G01*
G04 APERTURE LIST*
%ADD10C,0.200000*%
%ADD11C,0.125000*%
%ADD12C,0.300000*%
%ADD13C,0.150000*%
%ADD14C,0.120000*%
%ADD15C,0.010000*%
G04 APERTURE END LIST*
D10*
X13639752Y-101539561D02*
X13258800Y-101825276D01*
X12877847Y-101539561D01*
X2616247Y-101711238D02*
X2997200Y-101425523D01*
X3378152Y-101711238D01*
X12827047Y-9052038D02*
X13208000Y-8766323D01*
X13588952Y-9052038D01*
X3479752Y-8524761D02*
X3098800Y-8810476D01*
X2717847Y-8524761D01*
X8312019Y-49474380D02*
X8645352Y-48998190D01*
X8883447Y-49474380D02*
X8883447Y-48474380D01*
X8502495Y-48474380D01*
X8407257Y-48522000D01*
X8359638Y-48569619D01*
X8312019Y-48664857D01*
X8312019Y-48807714D01*
X8359638Y-48902952D01*
X8407257Y-48950571D01*
X8502495Y-48998190D01*
X8883447Y-48998190D01*
X7883447Y-48950571D02*
X7550114Y-48950571D01*
X7407257Y-49474380D02*
X7883447Y-49474380D01*
X7883447Y-48474380D01*
X7407257Y-48474380D01*
X7121542Y-48474380D02*
X6788209Y-49474380D01*
X6454876Y-48474380D01*
X6169161Y-48569619D02*
X6121542Y-48522000D01*
X6026304Y-48474380D01*
X5788209Y-48474380D01*
X5692971Y-48522000D01*
X5645352Y-48569619D01*
X5597733Y-48664857D01*
X5597733Y-48760095D01*
X5645352Y-48902952D01*
X6216780Y-49474380D01*
X5597733Y-49474380D01*
D11*
X12798571Y-23028085D02*
X12655714Y-23028085D01*
X12584285Y-23063800D01*
X12512857Y-23135228D01*
X12477142Y-23278085D01*
X12477142Y-23528085D01*
X12512857Y-23670942D01*
X12584285Y-23742371D01*
X12655714Y-23778085D01*
X12798571Y-23778085D01*
X12870000Y-23742371D01*
X12941428Y-23670942D01*
X12977142Y-23528085D01*
X12977142Y-23278085D01*
X12941428Y-23135228D01*
X12870000Y-23063800D01*
X12798571Y-23028085D01*
X12155714Y-23778085D02*
X12155714Y-23278085D01*
X12155714Y-23420942D02*
X12120000Y-23349514D01*
X12084285Y-23313800D01*
X12012857Y-23278085D01*
X11941428Y-23278085D01*
X11691428Y-23778085D02*
X11691428Y-23278085D01*
X11691428Y-23028085D02*
X11727142Y-23063800D01*
X11691428Y-23099514D01*
X11655714Y-23063800D01*
X11691428Y-23028085D01*
X11691428Y-23099514D01*
X11012857Y-23278085D02*
X11012857Y-23885228D01*
X11048571Y-23956657D01*
X11084285Y-23992371D01*
X11155714Y-24028085D01*
X11262857Y-24028085D01*
X11334285Y-23992371D01*
X11012857Y-23742371D02*
X11084285Y-23778085D01*
X11227142Y-23778085D01*
X11298571Y-23742371D01*
X11334285Y-23706657D01*
X11370000Y-23635228D01*
X11370000Y-23420942D01*
X11334285Y-23349514D01*
X11298571Y-23313800D01*
X11227142Y-23278085D01*
X11084285Y-23278085D01*
X11012857Y-23313800D01*
X10655714Y-23778085D02*
X10655714Y-23278085D01*
X10655714Y-23028085D02*
X10691428Y-23063800D01*
X10655714Y-23099514D01*
X10620000Y-23063800D01*
X10655714Y-23028085D01*
X10655714Y-23099514D01*
X10298571Y-23278085D02*
X10298571Y-23778085D01*
X10298571Y-23349514D02*
X10262857Y-23313800D01*
X10191428Y-23278085D01*
X10084285Y-23278085D01*
X10012857Y-23313800D01*
X9977142Y-23385228D01*
X9977142Y-23778085D01*
X9298571Y-23778085D02*
X9298571Y-23385228D01*
X9334285Y-23313800D01*
X9405714Y-23278085D01*
X9548571Y-23278085D01*
X9620000Y-23313800D01*
X9298571Y-23742371D02*
X9370000Y-23778085D01*
X9548571Y-23778085D01*
X9620000Y-23742371D01*
X9655714Y-23670942D01*
X9655714Y-23599514D01*
X9620000Y-23528085D01*
X9548571Y-23492371D01*
X9370000Y-23492371D01*
X9298571Y-23456657D01*
X8834285Y-23778085D02*
X8905714Y-23742371D01*
X8941428Y-23670942D01*
X8941428Y-23028085D01*
X7977142Y-23778085D02*
X7977142Y-23028085D01*
X7548571Y-23778085D01*
X7548571Y-23028085D01*
X6905714Y-23742371D02*
X6977142Y-23778085D01*
X7120000Y-23778085D01*
X7191428Y-23742371D01*
X7227142Y-23670942D01*
X7227142Y-23385228D01*
X7191428Y-23313800D01*
X7120000Y-23278085D01*
X6977142Y-23278085D01*
X6905714Y-23313800D01*
X6870000Y-23385228D01*
X6870000Y-23456657D01*
X7227142Y-23528085D01*
X6227142Y-23778085D02*
X6227142Y-23385228D01*
X6262857Y-23313800D01*
X6334285Y-23278085D01*
X6477142Y-23278085D01*
X6548571Y-23313800D01*
X6227142Y-23742371D02*
X6298571Y-23778085D01*
X6477142Y-23778085D01*
X6548571Y-23742371D01*
X6584285Y-23670942D01*
X6584285Y-23599514D01*
X6548571Y-23528085D01*
X6477142Y-23492371D01*
X6298571Y-23492371D01*
X6227142Y-23456657D01*
X5870000Y-23778085D02*
X5870000Y-23278085D01*
X5870000Y-23420942D02*
X5834285Y-23349514D01*
X5798571Y-23313800D01*
X5727142Y-23278085D01*
X5655714Y-23278085D01*
X5405714Y-23278085D02*
X5405714Y-23778085D01*
X5405714Y-23349514D02*
X5370000Y-23313800D01*
X5298571Y-23278085D01*
X5191428Y-23278085D01*
X5120000Y-23313800D01*
X5084285Y-23385228D01*
X5084285Y-23778085D01*
X4441428Y-23742371D02*
X4512857Y-23778085D01*
X4655714Y-23778085D01*
X4727142Y-23742371D01*
X4762857Y-23670942D01*
X4762857Y-23385228D01*
X4727142Y-23313800D01*
X4655714Y-23278085D01*
X4512857Y-23278085D01*
X4441428Y-23313800D01*
X4405714Y-23385228D01*
X4405714Y-23456657D01*
X4762857Y-23528085D01*
X4120000Y-23742371D02*
X4048571Y-23778085D01*
X3905714Y-23778085D01*
X3834285Y-23742371D01*
X3798571Y-23670942D01*
X3798571Y-23635228D01*
X3834285Y-23563800D01*
X3905714Y-23528085D01*
X4012857Y-23528085D01*
X4084285Y-23492371D01*
X4120000Y-23420942D01*
X4120000Y-23385228D01*
X4084285Y-23313800D01*
X4012857Y-23278085D01*
X3905714Y-23278085D01*
X3834285Y-23313800D01*
X3512857Y-23742371D02*
X3441428Y-23778085D01*
X3298571Y-23778085D01*
X3227142Y-23742371D01*
X3191428Y-23670942D01*
X3191428Y-23635228D01*
X3227142Y-23563800D01*
X3298571Y-23528085D01*
X3405714Y-23528085D01*
X3477142Y-23492371D01*
X3512857Y-23420942D01*
X3512857Y-23385228D01*
X3477142Y-23313800D01*
X3405714Y-23278085D01*
X3298571Y-23278085D01*
X3227142Y-23313800D01*
X2870000Y-23706657D02*
X2834285Y-23742371D01*
X2870000Y-23778085D01*
X2905714Y-23742371D01*
X2870000Y-23706657D01*
X2870000Y-23778085D01*
X2870000Y-23313800D02*
X2834285Y-23349514D01*
X2870000Y-23385228D01*
X2905714Y-23349514D01*
X2870000Y-23313800D01*
X2870000Y-23385228D01*
X11727142Y-24278085D02*
X11727142Y-24813800D01*
X11762857Y-24920942D01*
X11834285Y-24992371D01*
X11941428Y-25028085D01*
X12012857Y-25028085D01*
X11084285Y-24992371D02*
X11155714Y-25028085D01*
X11298571Y-25028085D01*
X11370000Y-24992371D01*
X11405714Y-24920942D01*
X11405714Y-24635228D01*
X11370000Y-24563800D01*
X11298571Y-24528085D01*
X11155714Y-24528085D01*
X11084285Y-24563800D01*
X11048571Y-24635228D01*
X11048571Y-24706657D01*
X11405714Y-24778085D01*
X10762857Y-24992371D02*
X10691428Y-25028085D01*
X10548571Y-25028085D01*
X10477142Y-24992371D01*
X10441428Y-24920942D01*
X10441428Y-24885228D01*
X10477142Y-24813800D01*
X10548571Y-24778085D01*
X10655714Y-24778085D01*
X10727142Y-24742371D01*
X10762857Y-24670942D01*
X10762857Y-24635228D01*
X10727142Y-24563800D01*
X10655714Y-24528085D01*
X10548571Y-24528085D01*
X10477142Y-24563800D01*
X10120000Y-24528085D02*
X10120000Y-25278085D01*
X10120000Y-24563800D02*
X10048571Y-24528085D01*
X9905714Y-24528085D01*
X9834285Y-24563800D01*
X9798571Y-24599514D01*
X9762857Y-24670942D01*
X9762857Y-24885228D01*
X9798571Y-24956657D01*
X9834285Y-24992371D01*
X9905714Y-25028085D01*
X10048571Y-25028085D01*
X10120000Y-24992371D01*
X9155714Y-24992371D02*
X9227142Y-25028085D01*
X9370000Y-25028085D01*
X9441428Y-24992371D01*
X9477142Y-24920942D01*
X9477142Y-24635228D01*
X9441428Y-24563800D01*
X9370000Y-24528085D01*
X9227142Y-24528085D01*
X9155714Y-24563800D01*
X9120000Y-24635228D01*
X9120000Y-24706657D01*
X9477142Y-24778085D01*
X8798571Y-25028085D02*
X8798571Y-24528085D01*
X8798571Y-24670942D02*
X8762857Y-24599514D01*
X8727142Y-24563800D01*
X8655714Y-24528085D01*
X8584285Y-24528085D01*
X7798571Y-24992371D02*
X7691428Y-25028085D01*
X7512857Y-25028085D01*
X7441428Y-24992371D01*
X7405714Y-24956657D01*
X7370000Y-24885228D01*
X7370000Y-24813800D01*
X7405714Y-24742371D01*
X7441428Y-24706657D01*
X7512857Y-24670942D01*
X7655714Y-24635228D01*
X7727142Y-24599514D01*
X7762857Y-24563800D01*
X7798571Y-24492371D01*
X7798571Y-24420942D01*
X7762857Y-24349514D01*
X7727142Y-24313800D01*
X7655714Y-24278085D01*
X7477142Y-24278085D01*
X7370000Y-24313800D01*
X6727142Y-25028085D02*
X6727142Y-24635228D01*
X6762857Y-24563800D01*
X6834285Y-24528085D01*
X6977142Y-24528085D01*
X7048571Y-24563800D01*
X6727142Y-24992371D02*
X6798571Y-25028085D01*
X6977142Y-25028085D01*
X7048571Y-24992371D01*
X7084285Y-24920942D01*
X7084285Y-24849514D01*
X7048571Y-24778085D01*
X6977142Y-24742371D01*
X6798571Y-24742371D01*
X6727142Y-24706657D01*
X7048571Y-24278085D02*
X7012857Y-24313800D01*
X7048571Y-24349514D01*
X7084285Y-24313800D01*
X7048571Y-24278085D01*
X7048571Y-24349514D01*
X6762857Y-24278085D02*
X6727142Y-24313800D01*
X6762857Y-24349514D01*
X6798571Y-24313800D01*
X6762857Y-24278085D01*
X6762857Y-24349514D01*
X6370000Y-25028085D02*
X6370000Y-24528085D01*
X6370000Y-24670942D02*
X6334285Y-24599514D01*
X6298571Y-24563800D01*
X6227142Y-24528085D01*
X6155714Y-24528085D01*
X5905714Y-24528085D02*
X5905714Y-25028085D01*
X5905714Y-24599514D02*
X5870000Y-24563800D01*
X5798571Y-24528085D01*
X5691428Y-24528085D01*
X5620000Y-24563800D01*
X5584285Y-24635228D01*
X5584285Y-25028085D01*
X4941428Y-24992371D02*
X5012857Y-25028085D01*
X5155714Y-25028085D01*
X5227142Y-24992371D01*
X5262857Y-24920942D01*
X5262857Y-24635228D01*
X5227142Y-24563800D01*
X5155714Y-24528085D01*
X5012857Y-24528085D01*
X4941428Y-24563800D01*
X4905714Y-24635228D01*
X4905714Y-24706657D01*
X5262857Y-24778085D01*
X4620000Y-24992371D02*
X4548571Y-25028085D01*
X4405714Y-25028085D01*
X4334285Y-24992371D01*
X4298571Y-24920942D01*
X4298571Y-24885228D01*
X4334285Y-24813800D01*
X4405714Y-24778085D01*
X4512857Y-24778085D01*
X4584285Y-24742371D01*
X4620000Y-24670942D01*
X4620000Y-24635228D01*
X4584285Y-24563800D01*
X4512857Y-24528085D01*
X4405714Y-24528085D01*
X4334285Y-24563800D01*
X3977142Y-24528085D02*
X3977142Y-25170942D01*
X4012857Y-25242371D01*
X4084285Y-25278085D01*
X4120000Y-25278085D01*
X3977142Y-24278085D02*
X4012857Y-24313800D01*
X3977142Y-24349514D01*
X3941428Y-24313800D01*
X3977142Y-24278085D01*
X3977142Y-24349514D01*
X3512857Y-25028085D02*
X3584285Y-24992371D01*
X3620000Y-24956657D01*
X3655714Y-24885228D01*
X3655714Y-24670942D01*
X3620000Y-24599514D01*
X3584285Y-24563800D01*
X3512857Y-24528085D01*
X3405714Y-24528085D01*
X3334285Y-24563800D01*
X3298571Y-24599514D01*
X3262857Y-24670942D01*
X3262857Y-24885228D01*
X3298571Y-24956657D01*
X3334285Y-24992371D01*
X3405714Y-25028085D01*
X3512857Y-25028085D01*
X3584285Y-24278085D02*
X3548571Y-24313800D01*
X3584285Y-24349514D01*
X3620000Y-24313800D01*
X3584285Y-24278085D01*
X3584285Y-24349514D01*
X3298571Y-24278085D02*
X3262857Y-24313800D01*
X3298571Y-24349514D01*
X3334285Y-24313800D01*
X3298571Y-24278085D01*
X3298571Y-24349514D01*
X10887857Y-26206657D02*
X10923571Y-26242371D01*
X11030714Y-26278085D01*
X11102142Y-26278085D01*
X11209285Y-26242371D01*
X11280714Y-26170942D01*
X11316428Y-26099514D01*
X11352142Y-25956657D01*
X11352142Y-25849514D01*
X11316428Y-25706657D01*
X11280714Y-25635228D01*
X11209285Y-25563800D01*
X11102142Y-25528085D01*
X11030714Y-25528085D01*
X10923571Y-25563800D01*
X10887857Y-25599514D01*
X10137857Y-26206657D02*
X10173571Y-26242371D01*
X10280714Y-26278085D01*
X10352142Y-26278085D01*
X10459285Y-26242371D01*
X10530714Y-26170942D01*
X10566428Y-26099514D01*
X10602142Y-25956657D01*
X10602142Y-25849514D01*
X10566428Y-25706657D01*
X10530714Y-25635228D01*
X10459285Y-25563800D01*
X10352142Y-25528085D01*
X10280714Y-25528085D01*
X10173571Y-25563800D01*
X10137857Y-25599514D01*
X8995000Y-25885228D02*
X8887857Y-25920942D01*
X8852142Y-25956657D01*
X8816428Y-26028085D01*
X8816428Y-26135228D01*
X8852142Y-26206657D01*
X8887857Y-26242371D01*
X8959285Y-26278085D01*
X9245000Y-26278085D01*
X9245000Y-25528085D01*
X8995000Y-25528085D01*
X8923571Y-25563800D01*
X8887857Y-25599514D01*
X8852142Y-25670942D01*
X8852142Y-25742371D01*
X8887857Y-25813800D01*
X8923571Y-25849514D01*
X8995000Y-25885228D01*
X9245000Y-25885228D01*
X8352142Y-25920942D02*
X8352142Y-26278085D01*
X8602142Y-25528085D02*
X8352142Y-25920942D01*
X8102142Y-25528085D01*
X7316428Y-26242371D02*
X7209285Y-26278085D01*
X7030714Y-26278085D01*
X6959285Y-26242371D01*
X6923571Y-26206657D01*
X6887857Y-26135228D01*
X6887857Y-26063800D01*
X6923571Y-25992371D01*
X6959285Y-25956657D01*
X7030714Y-25920942D01*
X7173571Y-25885228D01*
X7245000Y-25849514D01*
X7280714Y-25813800D01*
X7316428Y-25742371D01*
X7316428Y-25670942D01*
X7280714Y-25599514D01*
X7245000Y-25563800D01*
X7173571Y-25528085D01*
X6995000Y-25528085D01*
X6887857Y-25563800D01*
X6602142Y-26063800D02*
X6245000Y-26063800D01*
X6673571Y-26278085D02*
X6423571Y-25528085D01*
X6173571Y-26278085D01*
X5030714Y-25778085D02*
X5030714Y-26278085D01*
X5209285Y-25492371D02*
X5387857Y-26028085D01*
X4923571Y-26028085D01*
X4637857Y-26206657D02*
X4602142Y-26242371D01*
X4637857Y-26278085D01*
X4673571Y-26242371D01*
X4637857Y-26206657D01*
X4637857Y-26278085D01*
X4137857Y-25528085D02*
X4066428Y-25528085D01*
X3995000Y-25563800D01*
X3959285Y-25599514D01*
X3923571Y-25670942D01*
X3887857Y-25813800D01*
X3887857Y-25992371D01*
X3923571Y-26135228D01*
X3959285Y-26206657D01*
X3995000Y-26242371D01*
X4066428Y-26278085D01*
X4137857Y-26278085D01*
X4209285Y-26242371D01*
X4245000Y-26206657D01*
X4280714Y-26135228D01*
X4316428Y-25992371D01*
X4316428Y-25813800D01*
X4280714Y-25670942D01*
X4245000Y-25599514D01*
X4209285Y-25563800D01*
X4137857Y-25528085D01*
D12*
X3721028Y-10940171D02*
X2578171Y-9440171D01*
X3506742Y-9440171D02*
X3363885Y-9511600D01*
X3292457Y-9654457D01*
X3363885Y-9797314D01*
X3506742Y-9868742D01*
X3649600Y-9797314D01*
X3721028Y-9654457D01*
X3649600Y-9511600D01*
X3506742Y-9440171D01*
X2649600Y-10868742D02*
X2578171Y-10725885D01*
X2649600Y-10583028D01*
X2792457Y-10511600D01*
X2935314Y-10583028D01*
X3006742Y-10725885D01*
X2935314Y-10868742D01*
X2792457Y-10940171D01*
X2649600Y-10868742D01*
X12463542Y-11143371D02*
X12534971Y-11143371D01*
X12677828Y-11071942D01*
X12892114Y-10857657D01*
X13249257Y-10429085D01*
X13392114Y-10214800D01*
X13463542Y-10000514D01*
X13463542Y-9857657D01*
X13392114Y-9714800D01*
X13249257Y-9643371D01*
X13177828Y-9643371D01*
X13034971Y-9714800D01*
X12963542Y-9857657D01*
X12963542Y-9929085D01*
X13034971Y-10071942D01*
X13106400Y-10143371D01*
X13534971Y-10429085D01*
X13606400Y-10500514D01*
X13677828Y-10643371D01*
X13677828Y-10857657D01*
X13606400Y-11000514D01*
X13534971Y-11071942D01*
X13392114Y-11143371D01*
X13177828Y-11143371D01*
X13034971Y-11071942D01*
X12963542Y-11000514D01*
X12749257Y-10714800D01*
X12677828Y-10500514D01*
X12677828Y-10357657D01*
X13687371Y-100632342D02*
X13473085Y-100703771D01*
X13115942Y-100703771D01*
X12973085Y-100632342D01*
X12901657Y-100560914D01*
X12830228Y-100418057D01*
X12830228Y-100275200D01*
X12901657Y-100132342D01*
X12973085Y-100060914D01*
X13115942Y-99989485D01*
X13401657Y-99918057D01*
X13544514Y-99846628D01*
X13615942Y-99775200D01*
X13687371Y-99632342D01*
X13687371Y-99489485D01*
X13615942Y-99346628D01*
X13544514Y-99275200D01*
X13401657Y-99203771D01*
X13044514Y-99203771D01*
X12830228Y-99275200D01*
X13258800Y-98989485D02*
X13258800Y-100918057D01*
X2997199Y-100611714D02*
X2925771Y-100683142D01*
X2997199Y-100754571D01*
X3068628Y-100683142D01*
X2997199Y-100611714D01*
X2997199Y-100754571D01*
X2997199Y-100183142D02*
X3068628Y-99326000D01*
X2997199Y-99254571D01*
X2925771Y-99326000D01*
X2997199Y-100183142D01*
X2997199Y-99254571D01*
D13*
G04 #@! TO.C,R14*
X22529800Y-106908600D02*
X24307800Y-106908600D01*
X22529800Y-102082600D02*
X22529800Y-106908600D01*
X24307800Y-102082600D02*
X22529800Y-102082600D01*
X24307800Y-106908600D02*
X24307800Y-102082600D01*
D14*
X22538800Y-103895600D02*
X22538800Y-105095600D01*
X24298800Y-105095600D02*
X24298800Y-103895600D01*
G04 #@! TO.C,R13*
X18100000Y-105190400D02*
X16900000Y-105190400D01*
X16900000Y-106950400D02*
X18100000Y-106950400D01*
D13*
X19913000Y-105181400D02*
X15087000Y-105181400D01*
X15087000Y-105181400D02*
X15087000Y-106959400D01*
X15087000Y-106959400D02*
X19913000Y-106959400D01*
X19913000Y-106959400D02*
X19913000Y-105181400D01*
G04 #@! TO.C,R12*
X22275800Y-91059000D02*
X24053800Y-91059000D01*
X22275800Y-86233000D02*
X22275800Y-91059000D01*
X24053800Y-86233000D02*
X22275800Y-86233000D01*
X24053800Y-91059000D02*
X24053800Y-86233000D01*
D14*
X22284800Y-88046000D02*
X22284800Y-89246000D01*
X24044800Y-89246000D02*
X24044800Y-88046000D01*
G04 #@! TO.C,R11*
X18100000Y-88375600D02*
X16900000Y-88375600D01*
X16900000Y-90135600D02*
X18100000Y-90135600D01*
D13*
X19913000Y-88366600D02*
X15087000Y-88366600D01*
X15087000Y-88366600D02*
X15087000Y-90144600D01*
X15087000Y-90144600D02*
X19913000Y-90144600D01*
X19913000Y-90144600D02*
X19913000Y-88366600D01*
G04 #@! TO.C,R10*
X22479000Y-75057000D02*
X24257000Y-75057000D01*
X22479000Y-70231000D02*
X22479000Y-75057000D01*
X24257000Y-70231000D02*
X22479000Y-70231000D01*
X24257000Y-75057000D02*
X24257000Y-70231000D01*
D14*
X22488000Y-72044000D02*
X22488000Y-73244000D01*
X24248000Y-73244000D02*
X24248000Y-72044000D01*
G04 #@! TO.C,R9*
X18100000Y-72932400D02*
X16900000Y-72932400D01*
X16900000Y-74692400D02*
X18100000Y-74692400D01*
D13*
X19913000Y-72923400D02*
X15087000Y-72923400D01*
X15087000Y-72923400D02*
X15087000Y-74701400D01*
X15087000Y-74701400D02*
X19913000Y-74701400D01*
X19913000Y-74701400D02*
X19913000Y-72923400D01*
G04 #@! TO.C,R8*
X22529800Y-59055000D02*
X24307800Y-59055000D01*
X22529800Y-54229000D02*
X22529800Y-59055000D01*
X24307800Y-54229000D02*
X22529800Y-54229000D01*
X24307800Y-59055000D02*
X24307800Y-54229000D01*
D14*
X22538800Y-56042000D02*
X22538800Y-57242000D01*
X24298800Y-57242000D02*
X24298800Y-56042000D01*
G04 #@! TO.C,R7*
X18100000Y-56930400D02*
X16900000Y-56930400D01*
X16900000Y-58690400D02*
X18100000Y-58690400D01*
D13*
X19913000Y-56921400D02*
X15087000Y-56921400D01*
X15087000Y-56921400D02*
X15087000Y-58699400D01*
X15087000Y-58699400D02*
X19913000Y-58699400D01*
X19913000Y-58699400D02*
X19913000Y-56921400D01*
G04 #@! TO.C,R6*
X22377400Y-42849800D02*
X24155400Y-42849800D01*
X22377400Y-38023800D02*
X22377400Y-42849800D01*
X24155400Y-38023800D02*
X22377400Y-38023800D01*
X24155400Y-42849800D02*
X24155400Y-38023800D01*
D14*
X22386400Y-39836800D02*
X22386400Y-41036800D01*
X24146400Y-41036800D02*
X24146400Y-39836800D01*
G04 #@! TO.C,R5*
X18100000Y-41182400D02*
X16900000Y-41182400D01*
X16900000Y-42942400D02*
X18100000Y-42942400D01*
D13*
X19913000Y-41173400D02*
X15087000Y-41173400D01*
X15087000Y-41173400D02*
X15087000Y-42951400D01*
X15087000Y-42951400D02*
X19913000Y-42951400D01*
X19913000Y-42951400D02*
X19913000Y-41173400D01*
D14*
G04 #@! TO.C,R3*
X18100000Y-25231200D02*
X16900000Y-25231200D01*
X16900000Y-26991200D02*
X18100000Y-26991200D01*
D13*
X19913000Y-25222200D02*
X15087000Y-25222200D01*
X15087000Y-25222200D02*
X15087000Y-27000200D01*
X15087000Y-27000200D02*
X19913000Y-27000200D01*
X19913000Y-27000200D02*
X19913000Y-25222200D01*
G04 #@! TO.C,R2*
X22529800Y-10744200D02*
X24307800Y-10744200D01*
X22529800Y-5918200D02*
X22529800Y-10744200D01*
X24307800Y-5918200D02*
X22529800Y-5918200D01*
X24307800Y-10744200D02*
X24307800Y-5918200D01*
D14*
X22538800Y-7731200D02*
X22538800Y-8931200D01*
X24298800Y-8931200D02*
X24298800Y-7731200D01*
G04 #@! TO.C,R1*
X18100000Y-8975200D02*
X16900000Y-8975200D01*
X16900000Y-10735200D02*
X18100000Y-10735200D01*
D13*
X19913000Y-8966200D02*
X15087000Y-8966200D01*
X15087000Y-8966200D02*
X15087000Y-10744200D01*
X15087000Y-10744200D02*
X19913000Y-10744200D01*
X19913000Y-10744200D02*
X19913000Y-8966200D01*
D14*
G04 #@! TO.C,R4*
X24095600Y-24933200D02*
X24095600Y-23733200D01*
X22335600Y-23733200D02*
X22335600Y-24933200D01*
D13*
X24104600Y-26746200D02*
X24104600Y-21920200D01*
X24104600Y-21920200D02*
X22326600Y-21920200D01*
X22326600Y-21920200D02*
X22326600Y-26746200D01*
X22326600Y-26746200D02*
X24104600Y-26746200D01*
D14*
G04 #@! TO.C,J12*
X14490000Y-96115000D02*
X14490000Y-98775000D01*
X4270000Y-96115000D02*
X14490000Y-96115000D01*
X4270000Y-98775000D02*
X14490000Y-98775000D01*
X4270000Y-96115000D02*
X4270000Y-98775000D01*
X3000000Y-96115000D02*
X1670000Y-96115000D01*
X1670000Y-96115000D02*
X1670000Y-97445000D01*
G04 #@! TO.C,J11*
X1670000Y-11670000D02*
X1670000Y-13000000D01*
X3000000Y-11670000D02*
X1670000Y-11670000D01*
X4270000Y-11670000D02*
X4270000Y-14330000D01*
X4270000Y-14330000D02*
X14490000Y-14330000D01*
X4270000Y-11670000D02*
X14490000Y-11670000D01*
X14490000Y-11670000D02*
X14490000Y-14330000D01*
D15*
G04 #@! TO.C,G\002A\002A\002A*
G36*
X8281315Y-72961310D02*
X8294028Y-72974022D01*
X8306740Y-72961310D01*
X8294028Y-72948597D01*
X8281315Y-72961310D01*
X8281315Y-72961310D01*
G37*
X8281315Y-72961310D02*
X8294028Y-72974022D01*
X8306740Y-72961310D01*
X8294028Y-72948597D01*
X8281315Y-72961310D01*
G36*
X7289723Y-73876625D02*
X7265468Y-73899472D01*
X7264298Y-73903551D01*
X7283969Y-73914472D01*
X7289723Y-73914763D01*
X7314172Y-73895217D01*
X7315149Y-73887837D01*
X7299572Y-73872652D01*
X7289723Y-73876625D01*
X7289723Y-73876625D01*
G37*
X7289723Y-73876625D02*
X7265468Y-73899472D01*
X7264298Y-73903551D01*
X7283969Y-73914472D01*
X7289723Y-73914763D01*
X7314172Y-73895217D01*
X7315149Y-73887837D01*
X7299572Y-73872652D01*
X7289723Y-73876625D01*
G36*
X7298199Y-73948664D02*
X7295156Y-73978838D01*
X7298199Y-73982564D01*
X7313314Y-73979074D01*
X7315149Y-73965614D01*
X7305846Y-73944686D01*
X7298199Y-73948664D01*
X7298199Y-73948664D01*
G37*
X7298199Y-73948664D02*
X7295156Y-73978838D01*
X7298199Y-73982564D01*
X7313314Y-73979074D01*
X7315149Y-73965614D01*
X7305846Y-73944686D01*
X7298199Y-73948664D01*
G36*
X7265037Y-74035813D02*
X7264298Y-74041890D01*
X7283646Y-74066577D01*
X7289723Y-74067316D01*
X7314410Y-74047968D01*
X7315149Y-74041890D01*
X7295801Y-74017204D01*
X7289723Y-74016465D01*
X7265037Y-74035813D01*
X7265037Y-74035813D01*
G37*
X7265037Y-74035813D02*
X7264298Y-74041890D01*
X7283646Y-74066577D01*
X7289723Y-74067316D01*
X7314410Y-74047968D01*
X7315149Y-74041890D01*
X7295801Y-74017204D01*
X7289723Y-74016465D01*
X7265037Y-74035813D01*
G36*
X7442276Y-74232581D02*
X7454989Y-74245294D01*
X7467701Y-74232581D01*
X7454989Y-74219868D01*
X7442276Y-74232581D01*
X7442276Y-74232581D01*
G37*
X7442276Y-74232581D02*
X7454989Y-74245294D01*
X7467701Y-74232581D01*
X7454989Y-74219868D01*
X7442276Y-74232581D01*
G36*
X7247348Y-74253769D02*
X7250838Y-74268884D01*
X7264298Y-74270719D01*
X7285226Y-74261416D01*
X7281248Y-74253769D01*
X7251074Y-74250726D01*
X7247348Y-74253769D01*
X7247348Y-74253769D01*
G37*
X7247348Y-74253769D02*
X7250838Y-74268884D01*
X7264298Y-74270719D01*
X7285226Y-74261416D01*
X7281248Y-74253769D01*
X7251074Y-74250726D01*
X7247348Y-74253769D01*
G36*
X7312399Y-74352692D02*
X7311335Y-74359708D01*
X7331129Y-74389520D01*
X7338667Y-74392973D01*
X7361851Y-74380700D01*
X7366000Y-74359708D01*
X7353099Y-74328064D01*
X7338667Y-74326443D01*
X7312399Y-74352692D01*
X7312399Y-74352692D01*
G37*
X7312399Y-74352692D02*
X7311335Y-74359708D01*
X7331129Y-74389520D01*
X7338667Y-74392973D01*
X7361851Y-74380700D01*
X7366000Y-74359708D01*
X7353099Y-74328064D01*
X7338667Y-74326443D01*
X7312399Y-74352692D01*
G36*
X7208362Y-74494463D02*
X7195847Y-74517233D01*
X7226635Y-74524788D01*
X7238873Y-74524973D01*
X7279285Y-74519846D01*
X7275223Y-74500674D01*
X7269383Y-74494463D01*
X7234784Y-74477044D01*
X7208362Y-74494463D01*
X7208362Y-74494463D01*
G37*
X7208362Y-74494463D02*
X7195847Y-74517233D01*
X7226635Y-74524788D01*
X7238873Y-74524973D01*
X7279285Y-74519846D01*
X7275223Y-74500674D01*
X7269383Y-74494463D01*
X7234784Y-74477044D01*
X7208362Y-74494463D01*
G36*
X8001635Y-74512261D02*
X8014348Y-74524973D01*
X8027061Y-74512261D01*
X8014348Y-74499548D01*
X8001635Y-74512261D01*
X8001635Y-74512261D01*
G37*
X8001635Y-74512261D02*
X8014348Y-74524973D01*
X8027061Y-74512261D01*
X8014348Y-74499548D01*
X8001635Y-74512261D01*
G36*
X4238672Y-72325674D02*
X4251385Y-72338387D01*
X4264098Y-72325674D01*
X4251385Y-72312961D01*
X4238672Y-72325674D01*
X4238672Y-72325674D01*
G37*
X4238672Y-72325674D02*
X4251385Y-72338387D01*
X4264098Y-72325674D01*
X4251385Y-72312961D01*
X4238672Y-72325674D01*
G36*
X9196630Y-72351099D02*
X9209343Y-72363812D01*
X9222056Y-72351099D01*
X9209343Y-72338387D01*
X9196630Y-72351099D01*
X9196630Y-72351099D01*
G37*
X9196630Y-72351099D02*
X9209343Y-72363812D01*
X9222056Y-72351099D01*
X9209343Y-72338387D01*
X9196630Y-72351099D01*
G36*
X4950584Y-74435984D02*
X4963297Y-74448697D01*
X4976010Y-74435984D01*
X4963297Y-74423272D01*
X4950584Y-74435984D01*
X4950584Y-74435984D01*
G37*
X4950584Y-74435984D02*
X4963297Y-74448697D01*
X4976010Y-74435984D01*
X4963297Y-74423272D01*
X4950584Y-74435984D01*
G36*
X9400034Y-74512261D02*
X9412746Y-74524973D01*
X9425459Y-74512261D01*
X9412746Y-74499548D01*
X9400034Y-74512261D01*
X9400034Y-74512261D01*
G37*
X9400034Y-74512261D02*
X9412746Y-74524973D01*
X9425459Y-74512261D01*
X9412746Y-74499548D01*
X9400034Y-74512261D01*
G36*
X4035269Y-75681830D02*
X4011014Y-75704678D01*
X4009844Y-75708756D01*
X4029515Y-75719677D01*
X4035269Y-75719968D01*
X4059717Y-75700422D01*
X4060694Y-75693042D01*
X4045118Y-75677857D01*
X4035269Y-75681830D01*
X4035269Y-75681830D01*
G37*
X4035269Y-75681830D02*
X4011014Y-75704678D01*
X4009844Y-75708756D01*
X4029515Y-75719677D01*
X4035269Y-75719968D01*
X4059717Y-75700422D01*
X4060694Y-75693042D01*
X4045118Y-75677857D01*
X4035269Y-75681830D01*
G36*
X4111545Y-75910659D02*
X4124258Y-75923372D01*
X4136971Y-75910659D01*
X4124258Y-75897946D01*
X4111545Y-75910659D01*
X4111545Y-75910659D01*
G37*
X4111545Y-75910659D02*
X4124258Y-75923372D01*
X4136971Y-75910659D01*
X4124258Y-75897946D01*
X4111545Y-75910659D01*
G36*
X4314949Y-75936084D02*
X4327661Y-75948797D01*
X4340374Y-75936084D01*
X4327661Y-75923372D01*
X4314949Y-75936084D01*
X4314949Y-75936084D01*
G37*
X4314949Y-75936084D02*
X4327661Y-75948797D01*
X4340374Y-75936084D01*
X4327661Y-75923372D01*
X4314949Y-75936084D01*
G36*
X4111545Y-75986935D02*
X4124258Y-75999648D01*
X4136971Y-75986935D01*
X4124258Y-75974223D01*
X4111545Y-75986935D01*
X4111545Y-75986935D01*
G37*
X4111545Y-75986935D02*
X4124258Y-75999648D01*
X4136971Y-75986935D01*
X4124258Y-75974223D01*
X4111545Y-75986935D01*
G36*
X7524315Y-69639299D02*
X7526607Y-69653034D01*
X7536878Y-69691697D01*
X7554614Y-69770505D01*
X7577836Y-69879637D01*
X7604561Y-70009272D01*
X7632810Y-70149590D01*
X7660601Y-70290768D01*
X7685954Y-70422987D01*
X7706887Y-70536426D01*
X7719515Y-70609458D01*
X7748193Y-70796099D01*
X7775671Y-70996612D01*
X7801433Y-71204960D01*
X7824962Y-71415110D01*
X7845743Y-71621026D01*
X7863259Y-71816674D01*
X7876994Y-71996019D01*
X7886431Y-72153027D01*
X7891055Y-72281661D01*
X7890348Y-72375889D01*
X7883794Y-72429674D01*
X7876136Y-72440088D01*
X7857842Y-72438109D01*
X7843539Y-72427920D01*
X7832145Y-72403147D01*
X7822578Y-72357415D01*
X7813759Y-72284349D01*
X7804607Y-72177573D01*
X7794038Y-72030712D01*
X7785590Y-71906154D01*
X7775157Y-71758147D01*
X7762637Y-71591912D01*
X7748792Y-71416481D01*
X7734388Y-71240886D01*
X7720186Y-71074157D01*
X7706953Y-70925325D01*
X7695450Y-70803421D01*
X7686442Y-70717477D01*
X7682373Y-70685734D01*
X7651129Y-70484671D01*
X7625014Y-70325813D01*
X7602446Y-70200956D01*
X7581843Y-70101900D01*
X7561625Y-70020441D01*
X7540216Y-69948397D01*
X7500814Y-69827899D01*
X7472173Y-69747886D01*
X7450257Y-69700191D01*
X7431030Y-69676650D01*
X7410455Y-69669095D01*
X7401963Y-69668717D01*
X7372585Y-69684206D01*
X7374926Y-69706156D01*
X7397205Y-69775238D01*
X7426436Y-69881244D01*
X7459527Y-70011251D01*
X7493385Y-70152334D01*
X7524917Y-70291568D01*
X7551029Y-70416031D01*
X7568630Y-70512797D01*
X7569805Y-70520469D01*
X7584969Y-70620817D01*
X7597884Y-70704355D01*
X7606226Y-70756094D01*
X7607270Y-70762010D01*
X7612061Y-70803008D01*
X7619053Y-70881298D01*
X7627090Y-70983433D01*
X7631312Y-71041690D01*
X7639708Y-71154574D01*
X7651332Y-71301988D01*
X7664880Y-71467814D01*
X7679047Y-71635933D01*
X7684815Y-71702751D01*
X7697375Y-71854770D01*
X7708110Y-71999413D01*
X7716207Y-72124545D01*
X7720852Y-72218028D01*
X7721643Y-72252228D01*
X7720263Y-72328190D01*
X7711466Y-72364984D01*
X7688987Y-72374279D01*
X7658392Y-72370035D01*
X7603751Y-72345984D01*
X7589879Y-72296710D01*
X7591365Y-72282536D01*
X7589585Y-72250471D01*
X7582554Y-72181634D01*
X7571692Y-72089668D01*
X7569185Y-72069702D01*
X7554567Y-71940550D01*
X7540528Y-71793589D01*
X7530633Y-71667896D01*
X7520322Y-71541402D01*
X7506536Y-71408009D01*
X7492249Y-71296476D01*
X7492170Y-71295944D01*
X7476922Y-71193418D01*
X7462696Y-71097285D01*
X7454525Y-71041690D01*
X7432456Y-70892822D01*
X7412872Y-70766700D01*
X7391469Y-70635676D01*
X7389219Y-70622171D01*
X7373619Y-70522130D01*
X7360688Y-70427789D01*
X7355335Y-70380629D01*
X7343251Y-70299392D01*
X7319913Y-70181503D01*
X7287983Y-70039221D01*
X7250122Y-69884802D01*
X7235295Y-69827626D01*
X7210415Y-69760734D01*
X7181951Y-69723071D01*
X7172005Y-69719568D01*
X7151997Y-69721882D01*
X7141642Y-69734693D01*
X7141410Y-69766804D01*
X7151771Y-69827017D01*
X7173196Y-69924136D01*
X7185871Y-69979194D01*
X7210554Y-70089629D01*
X7232149Y-70192672D01*
X7246725Y-70269417D01*
X7248634Y-70281118D01*
X7261569Y-70352403D01*
X7274389Y-70404817D01*
X7275546Y-70408246D01*
X7284949Y-70449864D01*
X7297863Y-70526384D01*
X7311687Y-70622224D01*
X7313362Y-70634883D01*
X7330552Y-70761563D01*
X7350108Y-70898942D01*
X7365123Y-70999660D01*
X7377136Y-71088246D01*
X7391908Y-71213157D01*
X7407844Y-71360057D01*
X7423349Y-71514607D01*
X7428738Y-71571732D01*
X7443076Y-71726439D01*
X7457343Y-71879884D01*
X7470169Y-72017394D01*
X7480189Y-72124296D01*
X7482878Y-72152799D01*
X7500196Y-72335880D01*
X7427152Y-72316344D01*
X7391728Y-72302977D01*
X7365914Y-72279209D01*
X7346832Y-72236497D01*
X7331605Y-72166299D01*
X7317357Y-72060070D01*
X7306144Y-71957005D01*
X7295091Y-71851119D01*
X7283871Y-71743764D01*
X7279580Y-71702751D01*
X7265413Y-71577810D01*
X7249087Y-71449604D01*
X7233143Y-71337252D01*
X7222162Y-71270519D01*
X7212957Y-71204771D01*
X7204397Y-71118597D01*
X7202405Y-71092541D01*
X7189138Y-70927148D01*
X7174591Y-70788365D01*
X7159654Y-70682894D01*
X7145217Y-70617438D01*
X7137017Y-70600003D01*
X7125801Y-70559513D01*
X7129815Y-70541103D01*
X7130382Y-70501455D01*
X7120690Y-70423891D01*
X7103112Y-70319752D01*
X7080022Y-70200379D01*
X7053796Y-70077113D01*
X7026807Y-69961294D01*
X7001430Y-69864263D01*
X6980039Y-69797361D01*
X6969544Y-69775602D01*
X6941375Y-69745904D01*
X6924964Y-69751705D01*
X6920383Y-69795752D01*
X6927704Y-69880790D01*
X6946998Y-70009567D01*
X6978335Y-70184830D01*
X6980454Y-70196106D01*
X7020704Y-70418285D01*
X7054296Y-70620767D01*
X7080199Y-70796445D01*
X7097381Y-70938208D01*
X7104810Y-71038946D01*
X7105034Y-71054403D01*
X7108261Y-71101692D01*
X7116950Y-71184593D01*
X7129499Y-71288361D01*
X7135463Y-71334082D01*
X7150430Y-71449075D01*
X7169049Y-71596192D01*
X7189019Y-71757058D01*
X7208040Y-71913296D01*
X7209249Y-71923356D01*
X7252523Y-72283800D01*
X7185258Y-72281888D01*
X7148445Y-72277412D01*
X7126436Y-72258830D01*
X7113252Y-72214465D01*
X7102912Y-72132642D01*
X7101419Y-72118207D01*
X7088161Y-72020444D01*
X7070841Y-71933363D01*
X7057093Y-71886802D01*
X7033119Y-71811615D01*
X7021349Y-71754663D01*
X7013023Y-71692241D01*
X7001102Y-71605861D01*
X6995214Y-71563973D01*
X6983465Y-71475197D01*
X6974540Y-71397527D01*
X6972213Y-71372221D01*
X6963597Y-71273903D01*
X6952041Y-71160835D01*
X6939362Y-71048981D01*
X6927379Y-70954300D01*
X6917910Y-70892757D01*
X6917191Y-70889137D01*
X6904566Y-70825651D01*
X6895174Y-70769730D01*
X6886527Y-70703891D01*
X6876134Y-70610647D01*
X6871944Y-70571320D01*
X6859212Y-70466390D01*
X6841890Y-70344184D01*
X6821758Y-70215073D01*
X6800598Y-70089422D01*
X6780190Y-69977601D01*
X6762317Y-69889979D01*
X6748759Y-69836922D01*
X6743979Y-69826409D01*
X6716589Y-69828369D01*
X6701564Y-69839900D01*
X6692570Y-69855748D01*
X6688007Y-69884792D01*
X6688426Y-69932350D01*
X6694379Y-70003743D01*
X6706419Y-70104291D01*
X6725097Y-70239314D01*
X6750966Y-70414131D01*
X6782744Y-70622171D01*
X6802840Y-70758489D01*
X6826352Y-70927310D01*
X6850845Y-71110623D01*
X6873884Y-71290419D01*
X6882414Y-71359508D01*
X6902498Y-71514479D01*
X6923923Y-71663020D01*
X6944778Y-71792970D01*
X6963152Y-71892166D01*
X6972556Y-71933248D01*
X6994069Y-72032868D01*
X7007545Y-72130731D01*
X7009872Y-72174789D01*
X7009701Y-72274823D01*
X6901814Y-72104287D01*
X6793057Y-71932112D01*
X6707200Y-71795394D01*
X6639766Y-71686735D01*
X6586280Y-71598738D01*
X6542266Y-71524007D01*
X6503249Y-71455145D01*
X6464754Y-71384753D01*
X6451176Y-71359508D01*
X6395283Y-71258005D01*
X6341411Y-71164824D01*
X6298725Y-71095672D01*
X6288338Y-71080356D01*
X6244608Y-71016547D01*
X6210904Y-70963707D01*
X6209143Y-70960702D01*
X6167715Y-70894869D01*
X6107659Y-70806190D01*
X6038563Y-70708086D01*
X5970016Y-70613976D01*
X5911606Y-70537280D01*
X5876654Y-70495333D01*
X5835607Y-70445883D01*
X5815467Y-70411498D01*
X5815049Y-70408699D01*
X5799880Y-70377987D01*
X5762353Y-70327496D01*
X5751769Y-70314895D01*
X5699344Y-70244676D01*
X5645434Y-70158942D01*
X5631042Y-70132962D01*
X5586305Y-70057922D01*
X5553892Y-70028278D01*
X5529529Y-70041362D01*
X5519063Y-70063007D01*
X5514711Y-70080740D01*
X5517345Y-70102469D01*
X5530322Y-70133565D01*
X5557003Y-70179397D01*
X5600746Y-70245335D01*
X5664910Y-70336750D01*
X5752854Y-70459011D01*
X5853342Y-70597426D01*
X6048060Y-70872522D01*
X6210963Y-71119153D01*
X6346628Y-71344370D01*
X6397405Y-71435784D01*
X6445929Y-71520558D01*
X6504127Y-71615685D01*
X6527392Y-71651900D01*
X6573659Y-71724004D01*
X6609774Y-71782963D01*
X6621876Y-71804453D01*
X6642243Y-71840810D01*
X6682602Y-71910316D01*
X6736826Y-72002488D01*
X6790075Y-72092223D01*
X6862164Y-72215492D01*
X6907970Y-72298702D01*
X6929275Y-72344197D01*
X6927862Y-72354323D01*
X6905513Y-72331425D01*
X6864010Y-72277847D01*
X6805136Y-72195934D01*
X6730674Y-72088031D01*
X6642406Y-71956484D01*
X6542115Y-71803637D01*
X6431583Y-71631834D01*
X6388219Y-71563572D01*
X6349511Y-71504812D01*
X6319886Y-71463811D01*
X6318282Y-71461870D01*
X6285717Y-71419612D01*
X6231145Y-71344845D01*
X6161272Y-71247028D01*
X6082801Y-71135623D01*
X6002437Y-71020091D01*
X5926883Y-70909891D01*
X5921425Y-70901850D01*
X5857773Y-70809403D01*
X5801404Y-70730043D01*
X5760606Y-70675325D01*
X5748170Y-70660309D01*
X5713978Y-70617073D01*
X5659773Y-70541463D01*
X5592795Y-70444034D01*
X5520281Y-70335344D01*
X5449471Y-70225950D01*
X5438732Y-70209007D01*
X5384871Y-70132528D01*
X5349740Y-70103294D01*
X5333311Y-70121288D01*
X5331966Y-70140484D01*
X5346248Y-70176910D01*
X5386464Y-70248442D01*
X5448670Y-70349037D01*
X5528921Y-70472653D01*
X5623273Y-70613250D01*
X5727781Y-70764785D01*
X5838501Y-70921217D01*
X5872583Y-70968537D01*
X5965491Y-71098900D01*
X6071032Y-71250757D01*
X6192322Y-71428706D01*
X6332480Y-71637345D01*
X6494623Y-71881273D01*
X6617166Y-72066822D01*
X6700792Y-72195449D01*
X6758505Y-72289310D01*
X6793715Y-72355186D01*
X6809829Y-72399855D01*
X6810257Y-72430100D01*
X6805699Y-72441847D01*
X6777497Y-72480769D01*
X6761251Y-72490346D01*
X6739450Y-72471130D01*
X6693912Y-72419375D01*
X6631483Y-72343169D01*
X6565099Y-72258528D01*
X6477756Y-72145427D01*
X6386530Y-72027912D01*
X6304676Y-71923031D01*
X6264098Y-71871384D01*
X6199385Y-71786384D01*
X6143395Y-71707561D01*
X6107275Y-71650673D01*
X6105074Y-71646585D01*
X6061412Y-71577482D01*
X6008514Y-71510212D01*
X5938883Y-71431407D01*
X5898503Y-71381742D01*
X5881745Y-71353352D01*
X5882981Y-71338376D01*
X5884370Y-71336800D01*
X5877299Y-71317603D01*
X5856826Y-71306535D01*
X5820828Y-71275450D01*
X5815049Y-71255548D01*
X5798428Y-71218153D01*
X5756097Y-71161951D01*
X5726060Y-71128959D01*
X5674914Y-71073157D01*
X5642737Y-71032019D01*
X5637071Y-71020178D01*
X5621630Y-70991406D01*
X5584039Y-70944395D01*
X5579864Y-70939729D01*
X5528036Y-70873808D01*
X5489876Y-70812861D01*
X5459724Y-70765140D01*
X5406542Y-70690789D01*
X5339553Y-70602495D01*
X5305542Y-70559311D01*
X5239630Y-70472159D01*
X5188207Y-70395549D01*
X5158481Y-70340669D01*
X5153988Y-70324126D01*
X5140532Y-70284955D01*
X5113317Y-70284643D01*
X5096399Y-70310709D01*
X5093304Y-70339038D01*
X5103388Y-70377363D01*
X5129779Y-70430748D01*
X5175610Y-70504255D01*
X5244010Y-70602948D01*
X5338109Y-70731888D01*
X5446187Y-70876425D01*
X5554124Y-71021228D01*
X5664234Y-71171447D01*
X5767945Y-71315215D01*
X5856686Y-71440663D01*
X5914445Y-71524773D01*
X5984787Y-71626100D01*
X6077845Y-71755013D01*
X6184633Y-71899339D01*
X6296166Y-72046903D01*
X6380085Y-72155662D01*
X6485324Y-72293373D01*
X6569871Y-72409683D01*
X6630559Y-72499935D01*
X6664221Y-72559472D01*
X6669701Y-72581538D01*
X6646498Y-72613464D01*
X6612612Y-72605633D01*
X6562865Y-72555755D01*
X6536761Y-72522721D01*
X6482790Y-72452825D01*
X6434391Y-72391869D01*
X6421797Y-72376525D01*
X6359643Y-72300852D01*
X6276879Y-72198440D01*
X6184166Y-72082650D01*
X6092163Y-71966843D01*
X6011531Y-71864378D01*
X5957428Y-71794524D01*
X5903794Y-71725386D01*
X5862032Y-71673613D01*
X5842654Y-71651900D01*
X5821489Y-71627341D01*
X5777204Y-71571571D01*
X5717224Y-71494034D01*
X5675895Y-71439809D01*
X5604181Y-71348329D01*
X5537135Y-71268256D01*
X5484781Y-71211324D01*
X5466495Y-71194608D01*
X5424359Y-71153558D01*
X5408242Y-71123384D01*
X5387943Y-71093161D01*
X5370104Y-71083346D01*
X5336330Y-71052326D01*
X5331966Y-71035072D01*
X5315607Y-70998352D01*
X5273875Y-70941950D01*
X5242977Y-70907088D01*
X5191939Y-70848361D01*
X5159749Y-70802441D01*
X5153988Y-70787377D01*
X5134638Y-70762747D01*
X5128562Y-70762010D01*
X5106005Y-70741417D01*
X5103137Y-70723872D01*
X5089408Y-70690037D01*
X5077711Y-70685734D01*
X5054044Y-70665653D01*
X5052226Y-70653952D01*
X5037659Y-70612543D01*
X5002069Y-70561877D01*
X4957439Y-70514486D01*
X4915755Y-70482906D01*
X4888999Y-70479672D01*
X4887460Y-70481619D01*
X4890213Y-70519709D01*
X4923379Y-70573144D01*
X4929055Y-70579742D01*
X4981988Y-70649875D01*
X5031585Y-70731525D01*
X5036443Y-70740909D01*
X5075517Y-70806405D01*
X5135371Y-70893494D01*
X5204028Y-70984872D01*
X5214104Y-70997578D01*
X5287668Y-71089831D01*
X5359962Y-71180855D01*
X5416487Y-71252392D01*
X5420955Y-71258077D01*
X5476172Y-71327197D01*
X5548697Y-71416404D01*
X5623173Y-71506814D01*
X5625750Y-71509916D01*
X5697742Y-71598294D01*
X5786653Y-71709948D01*
X5878769Y-71827566D01*
X5929599Y-71893442D01*
X6026043Y-72017337D01*
X6136299Y-72155941D01*
X6242387Y-72286750D01*
X6285069Y-72338387D01*
X6363569Y-72434104D01*
X6433927Y-72522674D01*
X6487088Y-72592542D01*
X6509956Y-72625296D01*
X6538441Y-72676732D01*
X6537346Y-72712328D01*
X6505921Y-72758106D01*
X6457139Y-72820122D01*
X6318614Y-72674600D01*
X6244598Y-72593626D01*
X6178713Y-72515929D01*
X6134139Y-72457116D01*
X6131314Y-72452801D01*
X6075919Y-72373469D01*
X5992610Y-72263700D01*
X5887449Y-72130893D01*
X5766493Y-71982449D01*
X5635802Y-71825769D01*
X5501436Y-71668253D01*
X5369454Y-71517300D01*
X5319400Y-71461210D01*
X5198843Y-71326517D01*
X5108803Y-71224625D01*
X5045390Y-71150894D01*
X5004714Y-71100683D01*
X4982885Y-71069352D01*
X4976012Y-71052259D01*
X4975990Y-71051559D01*
X4960310Y-71021171D01*
X4920171Y-70967894D01*
X4887363Y-70929420D01*
X4831864Y-70853873D01*
X4792110Y-70775760D01*
X4782644Y-70743980D01*
X4761214Y-70686221D01*
X4732783Y-70669596D01*
X4707561Y-70696790D01*
X4700302Y-70722322D01*
X4709723Y-70760207D01*
X4740596Y-70824283D01*
X4784908Y-70901709D01*
X4834648Y-70979644D01*
X4881802Y-71045248D01*
X4918358Y-71085680D01*
X4931313Y-71092541D01*
X4948825Y-71113000D01*
X4950584Y-71127584D01*
X4966871Y-71160742D01*
X5010523Y-71220377D01*
X5073734Y-71296245D01*
X5110487Y-71337344D01*
X5173923Y-71407889D01*
X5247346Y-71492054D01*
X5334306Y-71594077D01*
X5438356Y-71718199D01*
X5563044Y-71868659D01*
X5711923Y-72049698D01*
X5888542Y-72265554D01*
X5916750Y-72300099D01*
X5983660Y-72383693D01*
X6039856Y-72456884D01*
X6075998Y-72507403D01*
X6082016Y-72517160D01*
X6112663Y-72559828D01*
X6165925Y-72623329D01*
X6215499Y-72677993D01*
X6271971Y-72739957D01*
X6311078Y-72786364D01*
X6323557Y-72805388D01*
X6300964Y-72804429D01*
X6240396Y-72791587D01*
X6214672Y-72785053D01*
X5860284Y-72785053D01*
X5857916Y-72790248D01*
X5812004Y-72784989D01*
X5724634Y-72769232D01*
X5611645Y-72745903D01*
X5525639Y-72725585D01*
X5472794Y-72709329D01*
X5459665Y-72699404D01*
X5471805Y-72697465D01*
X5534939Y-72703099D01*
X5626756Y-72719750D01*
X5726060Y-72743479D01*
X5817026Y-72769449D01*
X5860284Y-72785053D01*
X6214672Y-72785053D01*
X6152668Y-72769304D01*
X6101085Y-72755129D01*
X5936318Y-72708831D01*
X5845094Y-72683352D01*
X5349229Y-72683352D01*
X5333226Y-72686307D01*
X5291172Y-72680326D01*
X5215313Y-72664304D01*
X5097893Y-72637138D01*
X5097233Y-72636982D01*
X5029810Y-72619030D01*
X4990631Y-72604467D01*
X4986200Y-72599401D01*
X5016541Y-72597030D01*
X5079986Y-72604673D01*
X5160548Y-72619088D01*
X5242239Y-72637032D01*
X5309071Y-72655261D01*
X5345057Y-72670534D01*
X5346935Y-72672568D01*
X5349229Y-72683352D01*
X5845094Y-72683352D01*
X5812866Y-72674351D01*
X5723113Y-72649668D01*
X5659442Y-72632760D01*
X5614238Y-72621605D01*
X5579883Y-72614183D01*
X5548762Y-72608471D01*
X5548082Y-72608354D01*
X5489824Y-72597263D01*
X5397535Y-72578542D01*
X5286868Y-72555393D01*
X5230264Y-72543316D01*
X5137537Y-72524458D01*
X5013815Y-72500834D01*
X4867514Y-72473897D01*
X4707046Y-72445102D01*
X4540826Y-72415901D01*
X4377269Y-72387750D01*
X4224788Y-72362102D01*
X4091797Y-72340411D01*
X3986711Y-72324130D01*
X3917944Y-72314714D01*
X3897115Y-72312961D01*
X3862291Y-72330558D01*
X3857291Y-72347039D01*
X3877366Y-72371194D01*
X3939134Y-72396215D01*
X4044909Y-72422689D01*
X4197007Y-72451206D01*
X4378512Y-72479556D01*
X4450136Y-72491093D01*
X4542316Y-72507256D01*
X4581916Y-72514550D01*
X4688860Y-72533104D01*
X4801368Y-72550452D01*
X4832144Y-72554710D01*
X4900127Y-72566400D01*
X4938643Y-72578350D01*
X4942154Y-72584121D01*
X4913175Y-72586096D01*
X4844750Y-72581365D01*
X4747701Y-72570886D01*
X4653788Y-72558596D01*
X4508450Y-72539912D01*
X4350855Y-72522367D01*
X4206273Y-72508680D01*
X4149683Y-72504332D01*
X4038053Y-72495728D01*
X3938303Y-72486323D01*
X3866851Y-72477722D01*
X3850935Y-72475078D01*
X3800051Y-72471660D01*
X3782147Y-72494538D01*
X3781015Y-72512175D01*
X3786453Y-72538304D01*
X3809580Y-72555397D01*
X3860616Y-72566897D01*
X3949779Y-72576249D01*
X3978062Y-72578562D01*
X4315947Y-72609000D01*
X4611608Y-72643556D01*
X4873593Y-72683501D01*
X5110448Y-72730104D01*
X5288554Y-72773290D01*
X5371898Y-72793083D01*
X5447223Y-72807589D01*
X5453819Y-72808580D01*
X5517395Y-72819015D01*
X5614269Y-72836445D01*
X5730714Y-72858229D01*
X5853008Y-72881729D01*
X5967425Y-72904305D01*
X6060242Y-72923316D01*
X6117733Y-72936124D01*
X6120154Y-72936739D01*
X6238841Y-72961991D01*
X6319957Y-72971904D01*
X6342456Y-72989545D01*
X6337416Y-73043174D01*
X6337227Y-73043942D01*
X6318124Y-73102138D01*
X6300653Y-73133696D01*
X6270921Y-73134752D01*
X6199530Y-73125953D01*
X6094431Y-73108619D01*
X5963572Y-73084073D01*
X5814903Y-73053636D01*
X5800300Y-73050519D01*
X5618039Y-73012383D01*
X5422216Y-72972916D01*
X5230022Y-72935487D01*
X5058651Y-72903464D01*
X4963297Y-72886582D01*
X4643602Y-72832384D01*
X4373604Y-72787742D01*
X4153062Y-72752619D01*
X3981734Y-72726980D01*
X3859380Y-72710788D01*
X3785758Y-72704006D01*
X3761023Y-72705860D01*
X3759582Y-72734418D01*
X3795408Y-72766735D01*
X3856175Y-72795312D01*
X3929560Y-72812655D01*
X3938108Y-72813576D01*
X4010388Y-72822546D01*
X4115957Y-72838375D01*
X4238136Y-72858477D01*
X4314949Y-72871960D01*
X4445620Y-72894463D01*
X4576427Y-72915224D01*
X4687733Y-72931199D01*
X4733577Y-72936849D01*
X4821926Y-72947218D01*
X4893172Y-72956646D01*
X4924267Y-72961674D01*
X4961661Y-72969424D01*
X5039322Y-72985544D01*
X5147735Y-73008058D01*
X5277380Y-73034990D01*
X5357391Y-73051614D01*
X5516290Y-73084216D01*
X5680083Y-73117113D01*
X5832251Y-73147029D01*
X5956274Y-73170694D01*
X5986232Y-73176213D01*
X6090130Y-73196457D01*
X6174240Y-73215354D01*
X6226556Y-73230082D01*
X6237271Y-73235217D01*
X6243525Y-73269788D01*
X6237899Y-73292330D01*
X6201618Y-73316626D01*
X6120460Y-73319622D01*
X5995696Y-73301370D01*
X5891325Y-73278015D01*
X5815465Y-73263439D01*
X5715608Y-73249379D01*
X5648385Y-73242190D01*
X5549460Y-73229660D01*
X5424485Y-73208855D01*
X5296767Y-73183747D01*
X5267003Y-73177232D01*
X5106088Y-73143562D01*
X4919110Y-73108355D01*
X4719494Y-73073786D01*
X4520663Y-73042031D01*
X4336041Y-73015267D01*
X4179052Y-72995669D01*
X4098833Y-72987857D01*
X3992186Y-72976549D01*
X3896890Y-72961695D01*
X3831205Y-72946223D01*
X3824694Y-72943898D01*
X3763400Y-72928948D01*
X3734323Y-72939731D01*
X3744427Y-72971905D01*
X3757103Y-72986039D01*
X3806417Y-73011060D01*
X3899951Y-73035806D01*
X4031085Y-73058985D01*
X4193199Y-73079307D01*
X4276810Y-73087381D01*
X4384887Y-73097685D01*
X4480751Y-73109123D01*
X4576316Y-73123758D01*
X4683500Y-73143654D01*
X4814217Y-73170872D01*
X4980385Y-73207476D01*
X5014148Y-73215034D01*
X5165049Y-73247071D01*
X5315793Y-73275940D01*
X5451493Y-73298991D01*
X5557259Y-73313578D01*
X5581615Y-73315965D01*
X5702141Y-73329340D01*
X5828109Y-73348586D01*
X5916894Y-73366190D01*
X5998172Y-73382447D01*
X6057957Y-73389374D01*
X6080408Y-73386674D01*
X6094067Y-73390748D01*
X6094728Y-73397679D01*
X6116197Y-73416661D01*
X6151936Y-73420986D01*
X6194755Y-73429996D01*
X6200608Y-73468399D01*
X6200369Y-73469818D01*
X6189407Y-73515513D01*
X6182936Y-73529627D01*
X6156758Y-73530870D01*
X6088375Y-73522901D01*
X5976295Y-73505473D01*
X5819023Y-73478337D01*
X5615066Y-73441246D01*
X5362930Y-73393951D01*
X5346289Y-73390793D01*
X5156524Y-73356765D01*
X4942428Y-73321620D01*
X4725690Y-73288728D01*
X4528001Y-73261458D01*
X4456399Y-73252555D01*
X4300119Y-73233756D01*
X4149205Y-73215258D01*
X4016113Y-73198611D01*
X3913297Y-73185368D01*
X3870004Y-73179516D01*
X3785896Y-73170979D01*
X3722538Y-73170545D01*
X3697304Y-73176482D01*
X3690494Y-73204441D01*
X3729826Y-73229873D01*
X3810597Y-73251066D01*
X3928105Y-73266306D01*
X3948262Y-73267946D01*
X4053124Y-73276577D01*
X4145398Y-73285366D01*
X4207405Y-73292608D01*
X4213247Y-73293495D01*
X4261018Y-73300881D01*
X4347884Y-73314006D01*
X4462634Y-73331185D01*
X4594058Y-73350736D01*
X4632766Y-73356473D01*
X4771283Y-73377872D01*
X4900493Y-73399436D01*
X5007677Y-73418935D01*
X5080114Y-73434136D01*
X5090424Y-73436763D01*
X5183257Y-73457112D01*
X5275567Y-73470345D01*
X5285040Y-73471131D01*
X5363255Y-73480415D01*
X5463472Y-73496895D01*
X5526582Y-73509241D01*
X5622250Y-73528128D01*
X5709586Y-73543254D01*
X5751485Y-73549144D01*
X5888282Y-73567404D01*
X6036177Y-73593736D01*
X6050234Y-73596495D01*
X6114451Y-73615122D01*
X6141477Y-73644102D01*
X6145579Y-73676051D01*
X6144479Y-73703022D01*
X6136681Y-73721316D01*
X6115435Y-73730707D01*
X6073994Y-73730967D01*
X6005608Y-73721871D01*
X5903528Y-73703190D01*
X5761007Y-73674698D01*
X5692734Y-73660822D01*
X5458850Y-73614531D01*
X5239662Y-73574177D01*
X5025083Y-73538297D01*
X4805025Y-73505426D01*
X4569401Y-73474100D01*
X4308125Y-73442853D01*
X4011110Y-73410223D01*
X3850935Y-73393436D01*
X3761576Y-73388387D01*
X3712445Y-73395195D01*
X3704738Y-73404097D01*
X3729666Y-73441677D01*
X3803954Y-73470325D01*
X3926865Y-73489816D01*
X4003096Y-73495863D01*
X4153278Y-73506217D01*
X4304574Y-73519576D01*
X4476959Y-73537793D01*
X4569203Y-73548356D01*
X4661129Y-73560574D01*
X4786592Y-73579224D01*
X4929098Y-73601657D01*
X5072149Y-73625227D01*
X5199249Y-73647286D01*
X5281115Y-73662611D01*
X5386119Y-73683617D01*
X5508274Y-73708306D01*
X5586220Y-73724193D01*
X5702496Y-73747056D01*
X5836249Y-73771984D01*
X5936225Y-73789705D01*
X6120965Y-73821371D01*
X5834523Y-73947284D01*
X5565097Y-74078582D01*
X5315561Y-74228750D01*
X5076816Y-74404612D01*
X4839760Y-74612996D01*
X4595293Y-74860726D01*
X4547342Y-74912711D01*
X4481291Y-74981969D01*
X4426868Y-75033495D01*
X4393977Y-75058044D01*
X4390680Y-75058907D01*
X4360358Y-75080025D01*
X4330280Y-75128717D01*
X4312055Y-75182995D01*
X4311567Y-75208753D01*
X4305612Y-75250489D01*
X4297832Y-75259603D01*
X4275642Y-75290592D01*
X4238691Y-75357125D01*
X4192484Y-75448109D01*
X4142526Y-75552451D01*
X4094322Y-75659057D01*
X4063098Y-75732681D01*
X4022259Y-75844233D01*
X3993292Y-75946592D01*
X3978514Y-76028867D01*
X3980239Y-76080166D01*
X3987087Y-76090287D01*
X4024183Y-76093994D01*
X4052156Y-76051483D01*
X4070906Y-75971422D01*
X4113228Y-75808364D01*
X4189314Y-75621883D01*
X4293966Y-75421239D01*
X4421988Y-75215686D01*
X4568182Y-75014483D01*
X4690761Y-74867335D01*
X4839331Y-74705343D01*
X4972410Y-74573651D01*
X5103085Y-74460496D01*
X5244443Y-74354116D01*
X5319253Y-74302466D01*
X5418215Y-74239907D01*
X5533573Y-74173717D01*
X5657522Y-74107575D01*
X5782254Y-74045159D01*
X5899963Y-73990149D01*
X6002843Y-73946224D01*
X6083087Y-73917062D01*
X6132888Y-73906341D01*
X6145579Y-73913055D01*
X6153951Y-73956122D01*
X6159061Y-73971163D01*
X6146685Y-73997277D01*
X6093407Y-74038359D01*
X5997020Y-74095900D01*
X5885738Y-74155642D01*
X5672497Y-74270189D01*
X5492966Y-74375412D01*
X5333405Y-74480282D01*
X5180079Y-74593771D01*
X5036969Y-74709933D01*
X4844635Y-74877674D01*
X4689598Y-75028337D01*
X4564930Y-75169946D01*
X4463705Y-75310526D01*
X4378996Y-75458099D01*
X4362273Y-75491515D01*
X4300876Y-75624965D01*
X4245714Y-75759531D01*
X4199858Y-75886009D01*
X4166376Y-75995198D01*
X4148339Y-76077897D01*
X4148817Y-76124904D01*
X4150103Y-76127453D01*
X4181165Y-76148193D01*
X4211902Y-76127020D01*
X4230283Y-76074582D01*
X4243951Y-76009746D01*
X4255580Y-75974223D01*
X4272149Y-75925180D01*
X4275076Y-75910659D01*
X4302153Y-75793837D01*
X4358554Y-75651027D01*
X4422060Y-75521979D01*
X4521016Y-75343736D01*
X4611647Y-75204956D01*
X4700327Y-75096424D01*
X4752050Y-75044926D01*
X4842432Y-74964448D01*
X4956316Y-74867179D01*
X5081967Y-74762731D01*
X5207646Y-74660719D01*
X5321616Y-74570755D01*
X5412140Y-74502453D01*
X5429675Y-74489928D01*
X5490795Y-74450462D01*
X5577752Y-74398778D01*
X5681598Y-74339692D01*
X5793385Y-74278018D01*
X5904164Y-74218571D01*
X6004987Y-74166166D01*
X6086906Y-74125618D01*
X6140971Y-74101741D01*
X6158206Y-74097933D01*
X6169862Y-74125376D01*
X6179913Y-74156305D01*
X6180757Y-74182159D01*
X6162287Y-74208942D01*
X6117441Y-74242114D01*
X6039157Y-74287139D01*
X5949792Y-74334283D01*
X5579178Y-74552255D01*
X5244222Y-74804624D01*
X4939645Y-75095623D01*
X4793670Y-75261033D01*
X4665080Y-75422129D01*
X4564108Y-75567475D01*
X4480066Y-75714768D01*
X4402267Y-75881701D01*
X4365859Y-75969398D01*
X4324134Y-76083189D01*
X4307825Y-76155585D01*
X4314386Y-76187233D01*
X4341147Y-76200286D01*
X4367108Y-76179048D01*
X4396014Y-76118154D01*
X4427624Y-76025073D01*
X4509729Y-75825389D01*
X4632365Y-75612900D01*
X4789228Y-75394611D01*
X4974017Y-75177528D01*
X5180429Y-74968657D01*
X5402161Y-74775002D01*
X5632910Y-74603569D01*
X5802336Y-74497112D01*
X5949677Y-74414092D01*
X6059095Y-74357709D01*
X6134822Y-74326159D01*
X6181090Y-74317640D01*
X6200594Y-74327437D01*
X6219824Y-74380805D01*
X6195460Y-74421380D01*
X6141577Y-74450355D01*
X6082377Y-74479997D01*
X5997240Y-74528844D01*
X5902305Y-74587541D01*
X5879635Y-74602198D01*
X5793181Y-74657603D01*
X5721209Y-74701836D01*
X5675624Y-74727646D01*
X5668242Y-74730939D01*
X5632171Y-74754886D01*
X5567580Y-74809061D01*
X5481176Y-74887022D01*
X5379666Y-74982323D01*
X5269755Y-75088520D01*
X5158150Y-75199169D01*
X5051558Y-75307825D01*
X4956685Y-75408045D01*
X4908972Y-75460551D01*
X4826739Y-75559239D01*
X4741996Y-75671796D01*
X4659780Y-75790154D01*
X4585132Y-75906245D01*
X4523091Y-76012002D01*
X4478695Y-76099357D01*
X4456984Y-76160242D01*
X4457913Y-76182682D01*
X4489043Y-76203090D01*
X4524784Y-76175175D01*
X4562392Y-76101350D01*
X4594210Y-76038878D01*
X4626575Y-76003009D01*
X4636623Y-75999648D01*
X4669368Y-75978633D01*
X4674431Y-75921362D01*
X4673648Y-75916212D01*
X4687126Y-75873955D01*
X4732515Y-75802923D01*
X4804404Y-75708882D01*
X4897383Y-75597595D01*
X5006040Y-75474826D01*
X5124965Y-75346341D01*
X5248747Y-75217902D01*
X5371974Y-75095275D01*
X5489238Y-74984223D01*
X5595125Y-74890510D01*
X5684227Y-74819901D01*
X5732914Y-74787768D01*
X5819256Y-74735438D01*
X5901223Y-74681664D01*
X5931863Y-74659860D01*
X5986601Y-74622110D01*
X6023426Y-74602177D01*
X6027714Y-74601250D01*
X6057553Y-74588744D01*
X6114117Y-74556942D01*
X6149436Y-74535252D01*
X6216096Y-74497206D01*
X6254555Y-74487956D01*
X6275668Y-74503470D01*
X6294620Y-74547459D01*
X6282992Y-74585041D01*
X6234686Y-74627096D01*
X6190074Y-74656202D01*
X6119665Y-74701501D01*
X6024081Y-74764901D01*
X5919844Y-74835397D01*
X5878625Y-74863670D01*
X5791122Y-74922448D01*
X5720436Y-74967054D01*
X5676004Y-74991689D01*
X5665791Y-74994401D01*
X5642613Y-75004943D01*
X5593117Y-75048392D01*
X5523129Y-75118253D01*
X5438478Y-75208033D01*
X5344992Y-75311236D01*
X5248497Y-75421369D01*
X5154822Y-75531939D01*
X5069795Y-75636450D01*
X4999244Y-75728408D01*
X4969039Y-75770819D01*
X4870838Y-75915404D01*
X4799365Y-76024189D01*
X4751590Y-76102608D01*
X4724486Y-76156096D01*
X4715023Y-76190087D01*
X4720171Y-76210016D01*
X4722703Y-76212807D01*
X4753711Y-76224051D01*
X4781596Y-76194383D01*
X4899640Y-76011869D01*
X5025731Y-75829305D01*
X5154185Y-75653994D01*
X5279318Y-75493240D01*
X5395447Y-75354348D01*
X5496887Y-75244621D01*
X5577273Y-75171885D01*
X5671871Y-75101480D01*
X5780619Y-75023785D01*
X5896147Y-74943676D01*
X6011089Y-74866027D01*
X6118076Y-74795713D01*
X6209741Y-74737609D01*
X6278716Y-74696590D01*
X6317634Y-74677530D01*
X6323557Y-74678116D01*
X6315662Y-74708460D01*
X6293873Y-74778073D01*
X6261039Y-74878209D01*
X6220007Y-75000119D01*
X6193918Y-75076358D01*
X6146454Y-75216289D01*
X6102813Y-75348680D01*
X6066772Y-75461795D01*
X6042112Y-75543897D01*
X6035780Y-75567416D01*
X6018346Y-75629281D01*
X5987953Y-75728776D01*
X5947926Y-75855357D01*
X5901589Y-75998478D01*
X5863454Y-76114062D01*
X5810350Y-76276522D01*
X5773766Y-76397209D01*
X5752771Y-76482114D01*
X5746434Y-76537226D01*
X5753824Y-76568536D01*
X5774012Y-76582035D01*
X5790429Y-76584043D01*
X5804343Y-76562113D01*
X5824882Y-76505721D01*
X5837385Y-76463662D01*
X5857677Y-76394245D01*
X5889589Y-76289585D01*
X5929064Y-76162810D01*
X5972042Y-76027050D01*
X5980806Y-75999648D01*
X6071194Y-75717301D01*
X6147106Y-75479517D01*
X6209720Y-75282477D01*
X6260213Y-75122363D01*
X6299762Y-74995355D01*
X6329542Y-74897636D01*
X6350733Y-74825385D01*
X6364509Y-74774784D01*
X6372048Y-74742015D01*
X6374528Y-74723258D01*
X6374542Y-74722020D01*
X6380840Y-74684383D01*
X6404949Y-74685699D01*
X6452118Y-74724255D01*
X6475094Y-74747806D01*
X6486530Y-74772744D01*
X6485794Y-74810250D01*
X6472250Y-74871503D01*
X6445266Y-74967684D01*
X6436622Y-74997540D01*
X6398832Y-75121539D01*
X6357111Y-75248509D01*
X6319108Y-75355377D01*
X6310913Y-75376687D01*
X6229179Y-75587155D01*
X6164605Y-75760301D01*
X6113949Y-75905384D01*
X6073967Y-76031661D01*
X6043746Y-76139488D01*
X6012969Y-76254753D01*
X5981643Y-76369103D01*
X5956063Y-76459587D01*
X5953958Y-76466800D01*
X5932093Y-76560704D01*
X5934515Y-76614982D01*
X5961674Y-76634925D01*
X5968285Y-76635284D01*
X5985302Y-76612256D01*
X6011545Y-76549685D01*
X6043817Y-76457334D01*
X6078919Y-76344969D01*
X6113654Y-76222356D01*
X6144823Y-76099259D01*
X6147310Y-76088637D01*
X6170296Y-76006511D01*
X6206277Y-75896491D01*
X6248872Y-75777697D01*
X6266070Y-75732681D01*
X6304291Y-75631100D01*
X6349380Y-75505760D01*
X6397650Y-75367563D01*
X6445411Y-75227408D01*
X6488974Y-75096197D01*
X6524650Y-74984829D01*
X6548751Y-74904206D01*
X6555853Y-74876379D01*
X6566878Y-74851999D01*
X6591148Y-74858843D01*
X6632218Y-74891819D01*
X6699337Y-74949948D01*
X6626076Y-75201475D01*
X6585486Y-75334861D01*
X6534848Y-75492625D01*
X6481750Y-75651450D01*
X6449091Y-75745394D01*
X6384276Y-75933074D01*
X6325132Y-76113829D01*
X6273586Y-76280916D01*
X6231565Y-76427591D01*
X6200996Y-76547112D01*
X6183804Y-76632736D01*
X6181916Y-76677720D01*
X6182345Y-76679013D01*
X6197570Y-76703215D01*
X6215564Y-76697320D01*
X6238365Y-76657105D01*
X6268015Y-76578349D01*
X6306554Y-76456832D01*
X6333309Y-76366719D01*
X6372722Y-76236340D01*
X6412550Y-76112132D01*
X6447982Y-76008678D01*
X6472877Y-75943626D01*
X6507487Y-75853249D01*
X6544373Y-75742344D01*
X6566978Y-75665543D01*
X6592240Y-75578618D01*
X6614712Y-75510703D01*
X6628537Y-75478427D01*
X6642709Y-75443637D01*
X6665664Y-75372572D01*
X6693324Y-75278151D01*
X6704751Y-75236885D01*
X6733255Y-75137354D01*
X6758954Y-75056659D01*
X6777718Y-75007438D01*
X6782399Y-74999345D01*
X6816507Y-74993050D01*
X6852948Y-75005625D01*
X6904715Y-75033330D01*
X6842685Y-75265116D01*
X6814563Y-75367768D01*
X6790438Y-75451392D01*
X6773804Y-75504086D01*
X6769195Y-75515444D01*
X6755136Y-75552414D01*
X6731763Y-75629239D01*
X6701610Y-75736326D01*
X6667214Y-75864079D01*
X6631112Y-76002904D01*
X6595839Y-76143206D01*
X6563931Y-76275390D01*
X6537924Y-76389861D01*
X6537263Y-76392915D01*
X6509155Y-76537030D01*
X6497393Y-76635995D01*
X6502091Y-76692847D01*
X6523361Y-76710626D01*
X6548702Y-76701124D01*
X6567385Y-76668180D01*
X6584936Y-76603074D01*
X6591405Y-76564771D01*
X6604007Y-76494903D01*
X6626709Y-76389321D01*
X6656478Y-76261436D01*
X6690281Y-76124659D01*
X6696245Y-76101350D01*
X6730244Y-75970525D01*
X6762610Y-75849410D01*
X6796391Y-75727233D01*
X6834634Y-75593225D01*
X6880386Y-75436616D01*
X6936695Y-75246636D01*
X6963990Y-75155095D01*
X6987254Y-75098983D01*
X7010753Y-75074682D01*
X7016679Y-75075721D01*
X7028004Y-75096582D01*
X7030204Y-75142710D01*
X7022616Y-75218467D01*
X7004575Y-75328215D01*
X6975419Y-75476318D01*
X6934483Y-75667136D01*
X6909858Y-75777842D01*
X6868855Y-75968944D01*
X6833182Y-76151503D01*
X6803910Y-76318526D01*
X6782106Y-76463022D01*
X6768840Y-76578000D01*
X6765180Y-76656467D01*
X6770524Y-76689406D01*
X6805229Y-76709741D01*
X6820854Y-76711560D01*
X6847893Y-76690814D01*
X6858220Y-76625905D01*
X6858400Y-76616215D01*
X6863540Y-76550810D01*
X6876657Y-76451237D01*
X6895530Y-76333147D01*
X6909825Y-76253902D01*
X6932316Y-76134792D01*
X6952621Y-76026807D01*
X6968015Y-75944461D01*
X6974262Y-75910659D01*
X6986656Y-75849474D01*
X7006797Y-75756903D01*
X7030731Y-75651049D01*
X7035369Y-75630979D01*
X7061050Y-75510926D01*
X7084024Y-75387307D01*
X7099541Y-75285794D01*
X7100122Y-75281044D01*
X7113217Y-75199560D01*
X7128888Y-75140608D01*
X7140142Y-75120634D01*
X7150125Y-75113664D01*
X7156765Y-75111915D01*
X7159767Y-75122709D01*
X7158837Y-75153367D01*
X7153678Y-75211210D01*
X7143994Y-75303560D01*
X7129490Y-75437737D01*
X7126048Y-75469645D01*
X7112330Y-75617178D01*
X7100829Y-75780271D01*
X7091691Y-75951281D01*
X7085062Y-76122565D01*
X7081088Y-76286480D01*
X7079915Y-76435381D01*
X7081689Y-76561627D01*
X7086555Y-76657574D01*
X7094659Y-76715578D01*
X7102012Y-76729421D01*
X7125629Y-76714347D01*
X7145153Y-76664825D01*
X7146507Y-76658524D01*
X7153335Y-76599336D01*
X7158837Y-76504317D01*
X7162301Y-76388486D01*
X7163126Y-76307931D01*
X7164956Y-76217697D01*
X7169761Y-76098647D01*
X7176936Y-75959449D01*
X7185878Y-75808772D01*
X7195985Y-75655282D01*
X7206653Y-75507649D01*
X7217279Y-75374541D01*
X7227260Y-75264626D01*
X7235993Y-75186571D01*
X7242874Y-75149045D01*
X7243887Y-75147246D01*
X7271503Y-75145972D01*
X7321505Y-75153105D01*
X7391425Y-75166537D01*
X7392567Y-75742001D01*
X7394219Y-76013802D01*
X7398074Y-76236994D01*
X7404253Y-76413776D01*
X7412873Y-76546347D01*
X7424053Y-76636908D01*
X7437912Y-76687657D01*
X7444087Y-76697152D01*
X7467402Y-76711789D01*
X7482622Y-76694562D01*
X7490735Y-76640356D01*
X7492725Y-76544053D01*
X7491116Y-76453091D01*
X7489395Y-76353715D01*
X7488198Y-76215394D01*
X7487521Y-76050031D01*
X7487359Y-75869530D01*
X7487708Y-75685794D01*
X7488565Y-75510725D01*
X7489923Y-75356228D01*
X7491565Y-75244942D01*
X7498009Y-75188938D01*
X7524462Y-75168051D01*
X7568977Y-75166167D01*
X7611981Y-75169599D01*
X7634121Y-75185130D01*
X7641624Y-75225346D01*
X7640721Y-75302835D01*
X7640483Y-75310662D01*
X7640106Y-75377105D01*
X7641441Y-75485016D01*
X7644283Y-75625047D01*
X7648429Y-75787854D01*
X7653675Y-75964088D01*
X7656734Y-76056855D01*
X7664250Y-76258011D01*
X7671660Y-76412876D01*
X7679362Y-76526005D01*
X7687757Y-76601955D01*
X7697243Y-76645284D01*
X7708219Y-76660547D01*
X7709635Y-76660709D01*
X7735669Y-76653007D01*
X7751565Y-76624244D01*
X7758920Y-76565933D01*
X7759332Y-76469590D01*
X7757502Y-76406455D01*
X7754512Y-76320769D01*
X7750144Y-76195861D01*
X7744804Y-76043330D01*
X7738899Y-75874772D01*
X7732834Y-75701786D01*
X7732487Y-75691900D01*
X7714112Y-75168036D01*
X7781598Y-75155136D01*
X7807798Y-75149617D01*
X7826842Y-75149155D01*
X7840020Y-75160562D01*
X7848620Y-75190655D01*
X7853933Y-75246247D01*
X7857246Y-75334154D01*
X7859849Y-75461189D01*
X7861997Y-75580128D01*
X7865577Y-75698902D01*
X7871922Y-75837209D01*
X7880373Y-75986165D01*
X7890272Y-76136881D01*
X7900962Y-76280471D01*
X7911784Y-76408048D01*
X7922080Y-76510724D01*
X7931192Y-76579614D01*
X7937923Y-76605472D01*
X7967562Y-76607650D01*
X7981470Y-76603532D01*
X7996456Y-76585843D01*
X8003651Y-76542019D01*
X8003503Y-76464033D01*
X7996460Y-76343858D01*
X7996166Y-76339781D01*
X7988236Y-76216252D01*
X7980603Y-76071860D01*
X7973495Y-75914277D01*
X7967139Y-75751180D01*
X7961761Y-75590243D01*
X7957590Y-75439140D01*
X7954853Y-75305546D01*
X7953776Y-75197135D01*
X7954587Y-75121582D01*
X7957514Y-75086562D01*
X7959016Y-75085239D01*
X7968242Y-75114120D01*
X7983012Y-75183484D01*
X8001428Y-75283509D01*
X8021590Y-75404375D01*
X8025399Y-75428482D01*
X8057192Y-75627841D01*
X8089815Y-75825777D01*
X8122098Y-76015797D01*
X8152874Y-76191408D01*
X8180974Y-76346117D01*
X8205230Y-76473430D01*
X8224474Y-76566855D01*
X8237536Y-76619899D01*
X8241476Y-76629345D01*
X8269582Y-76628165D01*
X8284340Y-76617003D01*
X8292060Y-76589127D01*
X8290498Y-76527237D01*
X8279214Y-76427299D01*
X8257767Y-76285282D01*
X8230241Y-76122902D01*
X8184288Y-75858954D01*
X8147008Y-75640840D01*
X8117810Y-75464393D01*
X8096106Y-75325447D01*
X8081307Y-75219834D01*
X8072824Y-75143389D01*
X8070068Y-75091944D01*
X8072449Y-75061334D01*
X8078327Y-75048322D01*
X8105134Y-75032797D01*
X8110537Y-75035177D01*
X8118785Y-75062114D01*
X8137114Y-75130856D01*
X8163575Y-75233799D01*
X8196218Y-75363341D01*
X8233093Y-75511879D01*
X8240507Y-75541990D01*
X8310355Y-75819440D01*
X8371514Y-76048133D01*
X8424395Y-76229339D01*
X8469409Y-76364330D01*
X8506966Y-76454380D01*
X8537478Y-76500760D01*
X8552440Y-76508156D01*
X8570177Y-76507372D01*
X8580014Y-76499561D01*
X8580851Y-76476538D01*
X8571588Y-76430117D01*
X8551125Y-76352112D01*
X8518364Y-76234338D01*
X8513169Y-76215764D01*
X8442463Y-75959666D01*
X8380729Y-75729377D01*
X8328782Y-75528302D01*
X8287436Y-75359851D01*
X8257509Y-75227429D01*
X8239815Y-75134444D01*
X8235169Y-75084304D01*
X8240529Y-75076739D01*
X8277409Y-75099781D01*
X8338461Y-75139412D01*
X8370304Y-75160414D01*
X8706950Y-75353372D01*
X9076299Y-75507527D01*
X9478428Y-75622902D01*
X9913411Y-75699521D01*
X10111838Y-75720668D01*
X10263747Y-75730777D01*
X10419226Y-75735720D01*
X10569370Y-75735805D01*
X10705274Y-75731342D01*
X10818034Y-75722639D01*
X10898745Y-75710005D01*
X10938502Y-75693750D01*
X10939877Y-75691945D01*
X10944644Y-75651062D01*
X10937775Y-75616700D01*
X10915847Y-75581931D01*
X10891427Y-75589517D01*
X10840107Y-75610192D01*
X10747544Y-75626314D01*
X10623161Y-75637639D01*
X10476382Y-75643921D01*
X10316632Y-75644914D01*
X10153335Y-75640373D01*
X9995914Y-75630054D01*
X9870404Y-75616092D01*
X9465896Y-75540537D01*
X9094213Y-75429877D01*
X8749441Y-75281948D01*
X8425667Y-75094586D01*
X8402086Y-75078898D01*
X8313252Y-75013588D01*
X8267316Y-74963299D01*
X8260859Y-74922057D01*
X8290466Y-74883885D01*
X8290535Y-74883828D01*
X8319328Y-74874806D01*
X8367763Y-74885879D01*
X8444481Y-74919844D01*
X8516194Y-74956902D01*
X8721220Y-75060112D01*
X8924333Y-75148730D01*
X9135672Y-75226065D01*
X9365371Y-75295424D01*
X9623568Y-75360116D01*
X9920400Y-75423447D01*
X9984819Y-75436148D01*
X10133288Y-75460255D01*
X10289120Y-75477226D01*
X10444215Y-75487125D01*
X10590473Y-75490013D01*
X10719793Y-75485952D01*
X10824075Y-75475004D01*
X10895218Y-75457231D01*
X10925123Y-75432696D01*
X10925559Y-75428954D01*
X10911216Y-75415077D01*
X10864336Y-75406573D01*
X10779147Y-75402963D01*
X10649877Y-75403770D01*
X10626810Y-75404233D01*
X10458900Y-75404075D01*
X10303611Y-75394564D01*
X10139111Y-75373768D01*
X9984819Y-75347453D01*
X9708179Y-75292292D01*
X9457144Y-75233711D01*
X9239214Y-75173664D01*
X9061888Y-75114104D01*
X9010330Y-75093536D01*
X8865681Y-75030980D01*
X8728758Y-74968694D01*
X8607623Y-74910644D01*
X8510338Y-74860795D01*
X8444966Y-74823112D01*
X8420380Y-74803400D01*
X8423383Y-74766599D01*
X8455236Y-74721134D01*
X8508200Y-74668170D01*
X8731644Y-74773037D01*
X9004362Y-74888084D01*
X9300920Y-74990632D01*
X9600299Y-75074124D01*
X9881479Y-75132002D01*
X9883117Y-75132266D01*
X10037835Y-75154307D01*
X10201700Y-75172665D01*
X10366067Y-75186908D01*
X10522293Y-75196599D01*
X10661735Y-75201306D01*
X10775749Y-75200594D01*
X10855692Y-75194029D01*
X10891192Y-75182905D01*
X10914563Y-75154738D01*
X10904040Y-75134317D01*
X10855649Y-75120674D01*
X10765418Y-75112844D01*
X10629371Y-75109860D01*
X10590435Y-75109758D01*
X10422510Y-75105559D01*
X10245959Y-75093823D01*
X10068849Y-75075842D01*
X9899249Y-75052906D01*
X9745227Y-75026306D01*
X9614850Y-74997335D01*
X9516186Y-74967284D01*
X9457303Y-74937443D01*
X9447262Y-74926790D01*
X9429533Y-74908031D01*
X9425848Y-74924967D01*
X9402816Y-74932839D01*
X9334169Y-74918399D01*
X9219876Y-74881639D01*
X9177561Y-74866576D01*
X9045255Y-74816019D01*
X8913863Y-74761118D01*
X8791854Y-74705954D01*
X8687698Y-74654604D01*
X8609864Y-74611148D01*
X8566822Y-74579664D01*
X8560995Y-74569643D01*
X8578600Y-74512309D01*
X8619664Y-74465005D01*
X8660427Y-74448697D01*
X8708347Y-74458629D01*
X8783353Y-74484284D01*
X8845770Y-74509970D01*
X9117345Y-74618926D01*
X9410024Y-74716560D01*
X9711285Y-74799799D01*
X10008604Y-74865566D01*
X10289460Y-74910788D01*
X10541329Y-74932390D01*
X10569603Y-74933263D01*
X10698479Y-74935885D01*
X10784933Y-74935761D01*
X10837362Y-74931907D01*
X10864165Y-74923338D01*
X10873739Y-74909071D01*
X10874708Y-74897517D01*
X10861673Y-74881586D01*
X10818451Y-74868918D01*
X10738869Y-74858497D01*
X10616754Y-74849306D01*
X10563247Y-74846215D01*
X10295947Y-74819687D01*
X10001211Y-74769881D01*
X9694585Y-74700693D01*
X9391612Y-74616023D01*
X9107838Y-74519766D01*
X8872876Y-74422384D01*
X8761535Y-74366592D01*
X8693707Y-74319977D01*
X8664372Y-74276537D01*
X8668508Y-74230273D01*
X8685275Y-74198178D01*
X8706833Y-74181497D01*
X8746046Y-74185761D01*
X8815189Y-74212802D01*
X8831082Y-74219923D01*
X8913176Y-74254255D01*
X9031920Y-74300240D01*
X9175640Y-74353697D01*
X9332666Y-74410441D01*
X9491323Y-74466292D01*
X9639940Y-74517067D01*
X9766844Y-74558583D01*
X9832266Y-74578654D01*
X10065547Y-74635299D01*
X10310493Y-74669548D01*
X10518369Y-74682560D01*
X10624569Y-74685121D01*
X10690194Y-74682450D01*
X10725396Y-74672881D01*
X10740327Y-74654747D01*
X10742706Y-74645744D01*
X10740106Y-74618668D01*
X10711152Y-74605297D01*
X10644641Y-74601253D01*
X10628675Y-74601178D01*
X10503826Y-74595777D01*
X10358347Y-74580994D01*
X10202042Y-74558768D01*
X10044714Y-74531037D01*
X9896168Y-74499738D01*
X9766207Y-74466809D01*
X9664635Y-74434187D01*
X9601257Y-74403811D01*
X9591996Y-74396277D01*
X9547345Y-74375411D01*
X9522315Y-74372421D01*
X9478053Y-74363181D01*
X9399133Y-74338518D01*
X9297649Y-74303022D01*
X9185693Y-74261278D01*
X9075355Y-74217874D01*
X8978729Y-74177399D01*
X8907907Y-74144438D01*
X8881649Y-74129366D01*
X8819672Y-74099234D01*
X8777810Y-74090202D01*
X8758285Y-74083729D01*
X8780910Y-74069917D01*
X8837852Y-74050797D01*
X8921281Y-74028397D01*
X9023366Y-74004747D01*
X9136274Y-73981876D01*
X9252175Y-73961814D01*
X9301616Y-73954468D01*
X9477673Y-73929549D01*
X9622008Y-73908070D01*
X9745535Y-73887766D01*
X9859169Y-73866368D01*
X9973823Y-73841608D01*
X10100413Y-73811221D01*
X10249853Y-73772937D01*
X10433056Y-73724491D01*
X10518752Y-73701620D01*
X10670807Y-73659075D01*
X10811720Y-73616093D01*
X10932631Y-73575683D01*
X11024675Y-73540855D01*
X11078992Y-73514617D01*
X11086684Y-73508795D01*
X11100712Y-73484885D01*
X11076190Y-73476255D01*
X11011043Y-73483214D01*
X10903195Y-73506071D01*
X10750570Y-73545134D01*
X10642842Y-73574741D01*
X10387709Y-73644328D01*
X10166780Y-73700193D01*
X9966246Y-73745370D01*
X9772301Y-73782896D01*
X9571138Y-73815807D01*
X9496497Y-73826793D01*
X9349891Y-73849439D01*
X9192344Y-73876339D01*
X9047845Y-73903296D01*
X8981705Y-73916824D01*
X8881028Y-73938220D01*
X8801187Y-73954844D01*
X8753720Y-73964310D01*
X8745723Y-73965614D01*
X8741655Y-73943342D01*
X8742610Y-73888746D01*
X8743218Y-73878923D01*
X8749056Y-73792232D01*
X9053308Y-73734496D01*
X8637032Y-73734496D01*
X8628731Y-73863103D01*
X8606589Y-74015660D01*
X8574182Y-74175671D01*
X8535088Y-74326640D01*
X8492886Y-74452072D01*
X8470432Y-74502654D01*
X8358573Y-74670539D01*
X8208611Y-74817293D01*
X8031368Y-74935637D01*
X7837667Y-75018291D01*
X7645679Y-75057357D01*
X7523545Y-75062279D01*
X7400515Y-75057249D01*
X7289099Y-75043843D01*
X7201808Y-75023636D01*
X7151150Y-74998204D01*
X7147971Y-74994678D01*
X7103491Y-74971743D01*
X7068840Y-74973186D01*
X7023055Y-74969814D01*
X7003213Y-74933830D01*
X6980094Y-74891966D01*
X6951619Y-74882643D01*
X6934399Y-74909291D01*
X6933767Y-74919496D01*
X6916702Y-74939275D01*
X6870510Y-74929191D01*
X6802702Y-74894647D01*
X6720785Y-74841047D01*
X6632269Y-74773794D01*
X6544663Y-74698291D01*
X6465474Y-74619942D01*
X6402212Y-74544150D01*
X6392069Y-74529682D01*
X6353143Y-74448868D01*
X6316183Y-74331155D01*
X6284035Y-74190486D01*
X6259549Y-74040805D01*
X6245574Y-73896054D01*
X6243613Y-73802943D01*
X6255350Y-73672181D01*
X6283302Y-73525982D01*
X6324246Y-73372383D01*
X6374958Y-73219423D01*
X6432212Y-73075142D01*
X6492785Y-72947577D01*
X6553452Y-72844768D01*
X6610990Y-72774752D01*
X6662172Y-72745570D01*
X6667884Y-72745194D01*
X6699253Y-72734754D01*
X6701928Y-72726124D01*
X6708311Y-72664111D01*
X6753044Y-72631650D01*
X6799050Y-72597855D01*
X6812971Y-72571178D01*
X6839544Y-72533076D01*
X6895876Y-72481739D01*
X6949200Y-72442493D01*
X7021331Y-72397040D01*
X7078608Y-72373598D01*
X7142544Y-72366947D01*
X7234650Y-72371866D01*
X7238873Y-72372201D01*
X7430883Y-72399560D01*
X7633584Y-72448895D01*
X7824795Y-72514012D01*
X7949374Y-72570556D01*
X8097501Y-72667383D01*
X8245264Y-72797828D01*
X8377191Y-72946954D01*
X8453670Y-73057477D01*
X8517799Y-73189374D01*
X8573182Y-73351404D01*
X8614234Y-73522951D01*
X8635372Y-73683396D01*
X8637032Y-73734496D01*
X9053308Y-73734496D01*
X9169890Y-73712373D01*
X9334666Y-73681274D01*
X9505257Y-73649370D01*
X9665445Y-73619674D01*
X9799011Y-73595201D01*
X9844979Y-73586898D01*
X9963786Y-73563159D01*
X10114577Y-73529454D01*
X10280431Y-73489747D01*
X10444428Y-73448005D01*
X10493327Y-73434979D01*
X10664686Y-73388723D01*
X10793296Y-73353641D01*
X10885487Y-73327594D01*
X10947587Y-73308440D01*
X10985925Y-73294040D01*
X11006829Y-73282254D01*
X11016629Y-73270941D01*
X11021653Y-73257962D01*
X11022262Y-73256110D01*
X11009026Y-73235165D01*
X10953060Y-73230915D01*
X10859412Y-73242637D01*
X10733126Y-73269611D01*
X10579250Y-73311114D01*
X10525667Y-73327144D01*
X9963629Y-73472482D01*
X9565299Y-73544549D01*
X9418984Y-73568198D01*
X9255732Y-73597295D01*
X9105110Y-73626510D01*
X9069503Y-73633927D01*
X8937754Y-73661479D01*
X8847476Y-73677608D01*
X8790410Y-73681505D01*
X8758297Y-73672365D01*
X8742878Y-73649380D01*
X8735894Y-73611743D01*
X8734645Y-73601214D01*
X8724755Y-73516494D01*
X8994632Y-73446316D01*
X9120217Y-73415895D01*
X9241953Y-73390266D01*
X9342854Y-73372819D01*
X9389479Y-73367457D01*
X9560992Y-73349839D01*
X9768899Y-73319252D01*
X10001088Y-73277989D01*
X10245445Y-73228342D01*
X10489859Y-73172606D01*
X10696730Y-73119976D01*
X10831333Y-73083325D01*
X10923597Y-73056306D01*
X10980420Y-73035825D01*
X11008695Y-73018792D01*
X11015320Y-73002114D01*
X11007189Y-72982699D01*
X11006264Y-72981188D01*
X10994989Y-72971141D01*
X10972856Y-72967180D01*
X10933890Y-72970522D01*
X10872114Y-72982383D01*
X10781552Y-73003982D01*
X10656226Y-73036535D01*
X10490161Y-73081258D01*
X10417051Y-73101174D01*
X10347642Y-73120109D01*
X10290986Y-73135038D01*
X10238662Y-73147489D01*
X10182252Y-73158991D01*
X10113335Y-73171072D01*
X10023492Y-73185263D01*
X9904303Y-73203091D01*
X9747348Y-73226086D01*
X9654288Y-73239675D01*
X9490509Y-73264791D01*
X9326483Y-73292040D01*
X9176208Y-73318951D01*
X9053684Y-73343056D01*
X8997973Y-73355465D01*
X8871629Y-73384701D01*
X8785686Y-73400304D01*
X8731438Y-73401847D01*
X8700180Y-73388901D01*
X8683207Y-73361039D01*
X8676928Y-73339691D01*
X8666606Y-73296619D01*
X8670586Y-73272102D01*
X8699358Y-73256135D01*
X8763414Y-73238714D01*
X8789824Y-73232029D01*
X8874445Y-73210079D01*
X8983632Y-73181263D01*
X9086970Y-73153640D01*
X9191762Y-73128990D01*
X9326478Y-73102330D01*
X9470534Y-73077555D01*
X9557341Y-73064597D01*
X9685471Y-73045021D01*
X9846409Y-73017687D01*
X10023266Y-72985609D01*
X10199155Y-72951802D01*
X10277211Y-72936066D01*
X10423831Y-72906755D01*
X10557394Y-72881501D01*
X10668139Y-72862039D01*
X10746303Y-72850102D01*
X10777863Y-72847129D01*
X10834181Y-72838416D01*
X10861996Y-72821470D01*
X10896220Y-72803446D01*
X10955598Y-72796044D01*
X11006614Y-72792510D01*
X11015237Y-72777381D01*
X11001836Y-72757906D01*
X10954894Y-72729326D01*
X10876099Y-72722246D01*
X10760706Y-72736825D01*
X10612537Y-72770967D01*
X10212840Y-72865073D01*
X9794978Y-72944256D01*
X9433424Y-72997246D01*
X9304986Y-73017533D01*
X9157198Y-73047387D01*
X9019130Y-73080854D01*
X9001192Y-73085780D01*
X8858204Y-73125394D01*
X8756234Y-73151624D01*
X8687414Y-73165076D01*
X8643874Y-73166356D01*
X8617745Y-73156072D01*
X8601158Y-73134830D01*
X8592608Y-73117289D01*
X8577961Y-73070597D01*
X8597742Y-73043824D01*
X8632555Y-73027884D01*
X8691214Y-73008196D01*
X8786213Y-72980263D01*
X8904414Y-72947584D01*
X9032681Y-72913659D01*
X9157878Y-72881985D01*
X9266868Y-72856064D01*
X9323757Y-72843762D01*
X9403280Y-72826223D01*
X9521884Y-72798178D01*
X9669501Y-72762175D01*
X9836067Y-72720764D01*
X10011516Y-72676496D01*
X10185781Y-72631920D01*
X10348798Y-72589585D01*
X10490499Y-72552042D01*
X10600820Y-72521839D01*
X10645880Y-72508864D01*
X10766717Y-72471415D01*
X10843656Y-72443092D01*
X10882183Y-72420904D01*
X10887786Y-72401859D01*
X10871067Y-72386105D01*
X10818680Y-72374337D01*
X10730776Y-72385761D01*
X10603295Y-72420994D01*
X10569603Y-72431979D01*
X10492965Y-72456707D01*
X10432660Y-72474781D01*
X10417051Y-72478863D01*
X10375672Y-72489223D01*
X10299630Y-72508946D01*
X10203393Y-72534271D01*
X10175509Y-72541664D01*
X10074152Y-72567916D01*
X9986887Y-72589323D01*
X9929249Y-72602104D01*
X9921255Y-72603514D01*
X9858647Y-72616707D01*
X9832266Y-72624419D01*
X9786633Y-72638852D01*
X9719888Y-72657793D01*
X9626540Y-72682673D01*
X9501095Y-72714922D01*
X9338064Y-72755970D01*
X9131953Y-72807247D01*
X9094929Y-72816418D01*
X8940912Y-72854986D01*
X8801884Y-72890631D01*
X8686130Y-72921159D01*
X8601940Y-72944381D01*
X8557600Y-72958104D01*
X8554853Y-72959229D01*
X8512271Y-72961701D01*
X8493619Y-72935117D01*
X8488748Y-72921116D01*
X8488479Y-72906918D01*
X8496754Y-72888448D01*
X8517520Y-72861637D01*
X8554721Y-72822410D01*
X8612301Y-72766695D01*
X8694206Y-72690421D01*
X8804380Y-72589515D01*
X8946769Y-72459904D01*
X9006986Y-72405150D01*
X9112952Y-72308366D01*
X9207777Y-72220956D01*
X9284076Y-72149789D01*
X9334465Y-72101734D01*
X9349183Y-72086859D01*
X9383937Y-72053187D01*
X9447301Y-71995668D01*
X9529145Y-71923397D01*
X9590724Y-71870004D01*
X9767860Y-71714886D01*
X9910170Y-71584506D01*
X10016405Y-71480131D01*
X10085318Y-71403027D01*
X10115657Y-71354459D01*
X10114373Y-71339052D01*
X10092809Y-71336921D01*
X10051575Y-71358266D01*
X9987040Y-71405878D01*
X9895575Y-71482548D01*
X9773549Y-71591067D01*
X9703038Y-71655304D01*
X9648964Y-71703067D01*
X9572921Y-71768098D01*
X9499635Y-71829446D01*
X9422634Y-71895698D01*
X9323805Y-71984320D01*
X9217686Y-72082139D01*
X9145779Y-72150053D01*
X9036170Y-72253900D01*
X8916858Y-72365418D01*
X8805573Y-72468099D01*
X8749411Y-72519155D01*
X8660369Y-72600985D01*
X8576946Y-72680372D01*
X8512665Y-72744351D01*
X8495157Y-72762925D01*
X8421155Y-72844221D01*
X8341513Y-72767193D01*
X8292954Y-72716168D01*
X8276910Y-72679839D01*
X8287496Y-72639567D01*
X8295780Y-72622334D01*
X8327973Y-72579360D01*
X8390214Y-72513113D01*
X8473409Y-72432781D01*
X8564359Y-72351099D01*
X8686325Y-72243894D01*
X8824465Y-72120152D01*
X8958157Y-71998438D01*
X9029611Y-71932280D01*
X9117604Y-71847165D01*
X9218487Y-71744851D01*
X9326520Y-71631693D01*
X9435967Y-71514046D01*
X9541088Y-71398264D01*
X9636147Y-71290702D01*
X9715404Y-71197714D01*
X9773123Y-71125655D01*
X9803565Y-71080879D01*
X9806841Y-71071532D01*
X9799275Y-71040740D01*
X9774617Y-71039278D01*
X9729920Y-71069497D01*
X9662239Y-71133746D01*
X9568631Y-71234378D01*
X9486629Y-71327121D01*
X9397867Y-71427769D01*
X9314666Y-71519192D01*
X9230975Y-71607318D01*
X9140745Y-71698079D01*
X9037926Y-71797405D01*
X8916468Y-71911226D01*
X8770321Y-72045473D01*
X8593435Y-72206075D01*
X8548770Y-72246460D01*
X8451280Y-72335788D01*
X8360402Y-72421249D01*
X8287051Y-72492453D01*
X8245735Y-72534990D01*
X8192671Y-72585722D01*
X8156439Y-72598542D01*
X8137555Y-72589387D01*
X8120241Y-72562128D01*
X8135256Y-72523769D01*
X8156704Y-72494485D01*
X8203379Y-72438850D01*
X8279092Y-72353172D01*
X8377700Y-72244128D01*
X8493063Y-72118394D01*
X8619039Y-71982645D01*
X8749485Y-71843560D01*
X8878261Y-71707812D01*
X8931812Y-71651900D01*
X9036108Y-71541113D01*
X9138891Y-71427997D01*
X9229364Y-71324681D01*
X9296730Y-71243296D01*
X9305210Y-71232381D01*
X9375519Y-71142375D01*
X9446107Y-71054883D01*
X9499981Y-70990839D01*
X9546716Y-70931082D01*
X9574555Y-70883169D01*
X9577952Y-70870068D01*
X9564220Y-70839219D01*
X9526790Y-70846584D01*
X9471593Y-70889057D01*
X9408132Y-70959057D01*
X9133997Y-71288931D01*
X8863541Y-71590354D01*
X8792636Y-71665507D01*
X8693777Y-71770386D01*
X8574307Y-71898890D01*
X8447458Y-72036691D01*
X8326465Y-72169462D01*
X8294028Y-72205349D01*
X8183819Y-72324792D01*
X8098104Y-72411805D01*
X8039126Y-72464276D01*
X8009132Y-72480091D01*
X8005895Y-72476571D01*
X8005559Y-72456833D01*
X8014710Y-72430063D01*
X8036921Y-72391239D01*
X8075763Y-72335338D01*
X8134808Y-72257338D01*
X8217629Y-72152216D01*
X8327796Y-72014950D01*
X8381359Y-71948634D01*
X8607838Y-71666619D01*
X8800772Y-71422208D01*
X8960434Y-71215024D01*
X9087096Y-71044695D01*
X9181031Y-70910845D01*
X9242511Y-70813102D01*
X9271808Y-70751089D01*
X9271367Y-70725949D01*
X9255157Y-70719122D01*
X9231903Y-70727854D01*
X9198174Y-70756025D01*
X9150537Y-70807514D01*
X9085557Y-70886202D01*
X8999802Y-70995967D01*
X8889840Y-71140689D01*
X8808364Y-71249188D01*
X8695449Y-71398087D01*
X8566975Y-71564460D01*
X8436886Y-71730421D01*
X8319126Y-71878082D01*
X8291199Y-71912560D01*
X8201486Y-72023689D01*
X8121734Y-72124057D01*
X8058178Y-72205697D01*
X8017054Y-72260639D01*
X8005936Y-72277134D01*
X7990733Y-72294491D01*
X7981786Y-72277438D01*
X7977522Y-72219724D01*
X7976536Y-72160409D01*
X7969112Y-71934200D01*
X7951428Y-71701499D01*
X7925641Y-71490518D01*
X7925046Y-71486635D01*
X7910604Y-71388132D01*
X7893669Y-71263102D01*
X7873368Y-71104805D01*
X7848826Y-70906500D01*
X7832816Y-70774723D01*
X7820308Y-70708930D01*
X7804175Y-70669424D01*
X7799364Y-70665446D01*
X7786601Y-70638431D01*
X7789204Y-70614595D01*
X7788582Y-70576276D01*
X7780146Y-70499352D01*
X7765665Y-70395156D01*
X7746903Y-70275023D01*
X7725630Y-70150288D01*
X7703611Y-70032286D01*
X7683372Y-69935684D01*
X7670778Y-69878111D01*
X7654136Y-69799693D01*
X7650267Y-69781172D01*
X7632359Y-69708568D01*
X7614433Y-69655866D01*
X7610259Y-69647689D01*
X7578296Y-69622262D01*
X7542649Y-69619913D01*
X7524315Y-69639299D01*
X7524315Y-69639299D01*
G37*
X7524315Y-69639299D02*
X7526607Y-69653034D01*
X7536878Y-69691697D01*
X7554614Y-69770505D01*
X7577836Y-69879637D01*
X7604561Y-70009272D01*
X7632810Y-70149590D01*
X7660601Y-70290768D01*
X7685954Y-70422987D01*
X7706887Y-70536426D01*
X7719515Y-70609458D01*
X7748193Y-70796099D01*
X7775671Y-70996612D01*
X7801433Y-71204960D01*
X7824962Y-71415110D01*
X7845743Y-71621026D01*
X7863259Y-71816674D01*
X7876994Y-71996019D01*
X7886431Y-72153027D01*
X7891055Y-72281661D01*
X7890348Y-72375889D01*
X7883794Y-72429674D01*
X7876136Y-72440088D01*
X7857842Y-72438109D01*
X7843539Y-72427920D01*
X7832145Y-72403147D01*
X7822578Y-72357415D01*
X7813759Y-72284349D01*
X7804607Y-72177573D01*
X7794038Y-72030712D01*
X7785590Y-71906154D01*
X7775157Y-71758147D01*
X7762637Y-71591912D01*
X7748792Y-71416481D01*
X7734388Y-71240886D01*
X7720186Y-71074157D01*
X7706953Y-70925325D01*
X7695450Y-70803421D01*
X7686442Y-70717477D01*
X7682373Y-70685734D01*
X7651129Y-70484671D01*
X7625014Y-70325813D01*
X7602446Y-70200956D01*
X7581843Y-70101900D01*
X7561625Y-70020441D01*
X7540216Y-69948397D01*
X7500814Y-69827899D01*
X7472173Y-69747886D01*
X7450257Y-69700191D01*
X7431030Y-69676650D01*
X7410455Y-69669095D01*
X7401963Y-69668717D01*
X7372585Y-69684206D01*
X7374926Y-69706156D01*
X7397205Y-69775238D01*
X7426436Y-69881244D01*
X7459527Y-70011251D01*
X7493385Y-70152334D01*
X7524917Y-70291568D01*
X7551029Y-70416031D01*
X7568630Y-70512797D01*
X7569805Y-70520469D01*
X7584969Y-70620817D01*
X7597884Y-70704355D01*
X7606226Y-70756094D01*
X7607270Y-70762010D01*
X7612061Y-70803008D01*
X7619053Y-70881298D01*
X7627090Y-70983433D01*
X7631312Y-71041690D01*
X7639708Y-71154574D01*
X7651332Y-71301988D01*
X7664880Y-71467814D01*
X7679047Y-71635933D01*
X7684815Y-71702751D01*
X7697375Y-71854770D01*
X7708110Y-71999413D01*
X7716207Y-72124545D01*
X7720852Y-72218028D01*
X7721643Y-72252228D01*
X7720263Y-72328190D01*
X7711466Y-72364984D01*
X7688987Y-72374279D01*
X7658392Y-72370035D01*
X7603751Y-72345984D01*
X7589879Y-72296710D01*
X7591365Y-72282536D01*
X7589585Y-72250471D01*
X7582554Y-72181634D01*
X7571692Y-72089668D01*
X7569185Y-72069702D01*
X7554567Y-71940550D01*
X7540528Y-71793589D01*
X7530633Y-71667896D01*
X7520322Y-71541402D01*
X7506536Y-71408009D01*
X7492249Y-71296476D01*
X7492170Y-71295944D01*
X7476922Y-71193418D01*
X7462696Y-71097285D01*
X7454525Y-71041690D01*
X7432456Y-70892822D01*
X7412872Y-70766700D01*
X7391469Y-70635676D01*
X7389219Y-70622171D01*
X7373619Y-70522130D01*
X7360688Y-70427789D01*
X7355335Y-70380629D01*
X7343251Y-70299392D01*
X7319913Y-70181503D01*
X7287983Y-70039221D01*
X7250122Y-69884802D01*
X7235295Y-69827626D01*
X7210415Y-69760734D01*
X7181951Y-69723071D01*
X7172005Y-69719568D01*
X7151997Y-69721882D01*
X7141642Y-69734693D01*
X7141410Y-69766804D01*
X7151771Y-69827017D01*
X7173196Y-69924136D01*
X7185871Y-69979194D01*
X7210554Y-70089629D01*
X7232149Y-70192672D01*
X7246725Y-70269417D01*
X7248634Y-70281118D01*
X7261569Y-70352403D01*
X7274389Y-70404817D01*
X7275546Y-70408246D01*
X7284949Y-70449864D01*
X7297863Y-70526384D01*
X7311687Y-70622224D01*
X7313362Y-70634883D01*
X7330552Y-70761563D01*
X7350108Y-70898942D01*
X7365123Y-70999660D01*
X7377136Y-71088246D01*
X7391908Y-71213157D01*
X7407844Y-71360057D01*
X7423349Y-71514607D01*
X7428738Y-71571732D01*
X7443076Y-71726439D01*
X7457343Y-71879884D01*
X7470169Y-72017394D01*
X7480189Y-72124296D01*
X7482878Y-72152799D01*
X7500196Y-72335880D01*
X7427152Y-72316344D01*
X7391728Y-72302977D01*
X7365914Y-72279209D01*
X7346832Y-72236497D01*
X7331605Y-72166299D01*
X7317357Y-72060070D01*
X7306144Y-71957005D01*
X7295091Y-71851119D01*
X7283871Y-71743764D01*
X7279580Y-71702751D01*
X7265413Y-71577810D01*
X7249087Y-71449604D01*
X7233143Y-71337252D01*
X7222162Y-71270519D01*
X7212957Y-71204771D01*
X7204397Y-71118597D01*
X7202405Y-71092541D01*
X7189138Y-70927148D01*
X7174591Y-70788365D01*
X7159654Y-70682894D01*
X7145217Y-70617438D01*
X7137017Y-70600003D01*
X7125801Y-70559513D01*
X7129815Y-70541103D01*
X7130382Y-70501455D01*
X7120690Y-70423891D01*
X7103112Y-70319752D01*
X7080022Y-70200379D01*
X7053796Y-70077113D01*
X7026807Y-69961294D01*
X7001430Y-69864263D01*
X6980039Y-69797361D01*
X6969544Y-69775602D01*
X6941375Y-69745904D01*
X6924964Y-69751705D01*
X6920383Y-69795752D01*
X6927704Y-69880790D01*
X6946998Y-70009567D01*
X6978335Y-70184830D01*
X6980454Y-70196106D01*
X7020704Y-70418285D01*
X7054296Y-70620767D01*
X7080199Y-70796445D01*
X7097381Y-70938208D01*
X7104810Y-71038946D01*
X7105034Y-71054403D01*
X7108261Y-71101692D01*
X7116950Y-71184593D01*
X7129499Y-71288361D01*
X7135463Y-71334082D01*
X7150430Y-71449075D01*
X7169049Y-71596192D01*
X7189019Y-71757058D01*
X7208040Y-71913296D01*
X7209249Y-71923356D01*
X7252523Y-72283800D01*
X7185258Y-72281888D01*
X7148445Y-72277412D01*
X7126436Y-72258830D01*
X7113252Y-72214465D01*
X7102912Y-72132642D01*
X7101419Y-72118207D01*
X7088161Y-72020444D01*
X7070841Y-71933363D01*
X7057093Y-71886802D01*
X7033119Y-71811615D01*
X7021349Y-71754663D01*
X7013023Y-71692241D01*
X7001102Y-71605861D01*
X6995214Y-71563973D01*
X6983465Y-71475197D01*
X6974540Y-71397527D01*
X6972213Y-71372221D01*
X6963597Y-71273903D01*
X6952041Y-71160835D01*
X6939362Y-71048981D01*
X6927379Y-70954300D01*
X6917910Y-70892757D01*
X6917191Y-70889137D01*
X6904566Y-70825651D01*
X6895174Y-70769730D01*
X6886527Y-70703891D01*
X6876134Y-70610647D01*
X6871944Y-70571320D01*
X6859212Y-70466390D01*
X6841890Y-70344184D01*
X6821758Y-70215073D01*
X6800598Y-70089422D01*
X6780190Y-69977601D01*
X6762317Y-69889979D01*
X6748759Y-69836922D01*
X6743979Y-69826409D01*
X6716589Y-69828369D01*
X6701564Y-69839900D01*
X6692570Y-69855748D01*
X6688007Y-69884792D01*
X6688426Y-69932350D01*
X6694379Y-70003743D01*
X6706419Y-70104291D01*
X6725097Y-70239314D01*
X6750966Y-70414131D01*
X6782744Y-70622171D01*
X6802840Y-70758489D01*
X6826352Y-70927310D01*
X6850845Y-71110623D01*
X6873884Y-71290419D01*
X6882414Y-71359508D01*
X6902498Y-71514479D01*
X6923923Y-71663020D01*
X6944778Y-71792970D01*
X6963152Y-71892166D01*
X6972556Y-71933248D01*
X6994069Y-72032868D01*
X7007545Y-72130731D01*
X7009872Y-72174789D01*
X7009701Y-72274823D01*
X6901814Y-72104287D01*
X6793057Y-71932112D01*
X6707200Y-71795394D01*
X6639766Y-71686735D01*
X6586280Y-71598738D01*
X6542266Y-71524007D01*
X6503249Y-71455145D01*
X6464754Y-71384753D01*
X6451176Y-71359508D01*
X6395283Y-71258005D01*
X6341411Y-71164824D01*
X6298725Y-71095672D01*
X6288338Y-71080356D01*
X6244608Y-71016547D01*
X6210904Y-70963707D01*
X6209143Y-70960702D01*
X6167715Y-70894869D01*
X6107659Y-70806190D01*
X6038563Y-70708086D01*
X5970016Y-70613976D01*
X5911606Y-70537280D01*
X5876654Y-70495333D01*
X5835607Y-70445883D01*
X5815467Y-70411498D01*
X5815049Y-70408699D01*
X5799880Y-70377987D01*
X5762353Y-70327496D01*
X5751769Y-70314895D01*
X5699344Y-70244676D01*
X5645434Y-70158942D01*
X5631042Y-70132962D01*
X5586305Y-70057922D01*
X5553892Y-70028278D01*
X5529529Y-70041362D01*
X5519063Y-70063007D01*
X5514711Y-70080740D01*
X5517345Y-70102469D01*
X5530322Y-70133565D01*
X5557003Y-70179397D01*
X5600746Y-70245335D01*
X5664910Y-70336750D01*
X5752854Y-70459011D01*
X5853342Y-70597426D01*
X6048060Y-70872522D01*
X6210963Y-71119153D01*
X6346628Y-71344370D01*
X6397405Y-71435784D01*
X6445929Y-71520558D01*
X6504127Y-71615685D01*
X6527392Y-71651900D01*
X6573659Y-71724004D01*
X6609774Y-71782963D01*
X6621876Y-71804453D01*
X6642243Y-71840810D01*
X6682602Y-71910316D01*
X6736826Y-72002488D01*
X6790075Y-72092223D01*
X6862164Y-72215492D01*
X6907970Y-72298702D01*
X6929275Y-72344197D01*
X6927862Y-72354323D01*
X6905513Y-72331425D01*
X6864010Y-72277847D01*
X6805136Y-72195934D01*
X6730674Y-72088031D01*
X6642406Y-71956484D01*
X6542115Y-71803637D01*
X6431583Y-71631834D01*
X6388219Y-71563572D01*
X6349511Y-71504812D01*
X6319886Y-71463811D01*
X6318282Y-71461870D01*
X6285717Y-71419612D01*
X6231145Y-71344845D01*
X6161272Y-71247028D01*
X6082801Y-71135623D01*
X6002437Y-71020091D01*
X5926883Y-70909891D01*
X5921425Y-70901850D01*
X5857773Y-70809403D01*
X5801404Y-70730043D01*
X5760606Y-70675325D01*
X5748170Y-70660309D01*
X5713978Y-70617073D01*
X5659773Y-70541463D01*
X5592795Y-70444034D01*
X5520281Y-70335344D01*
X5449471Y-70225950D01*
X5438732Y-70209007D01*
X5384871Y-70132528D01*
X5349740Y-70103294D01*
X5333311Y-70121288D01*
X5331966Y-70140484D01*
X5346248Y-70176910D01*
X5386464Y-70248442D01*
X5448670Y-70349037D01*
X5528921Y-70472653D01*
X5623273Y-70613250D01*
X5727781Y-70764785D01*
X5838501Y-70921217D01*
X5872583Y-70968537D01*
X5965491Y-71098900D01*
X6071032Y-71250757D01*
X6192322Y-71428706D01*
X6332480Y-71637345D01*
X6494623Y-71881273D01*
X6617166Y-72066822D01*
X6700792Y-72195449D01*
X6758505Y-72289310D01*
X6793715Y-72355186D01*
X6809829Y-72399855D01*
X6810257Y-72430100D01*
X6805699Y-72441847D01*
X6777497Y-72480769D01*
X6761251Y-72490346D01*
X6739450Y-72471130D01*
X6693912Y-72419375D01*
X6631483Y-72343169D01*
X6565099Y-72258528D01*
X6477756Y-72145427D01*
X6386530Y-72027912D01*
X6304676Y-71923031D01*
X6264098Y-71871384D01*
X6199385Y-71786384D01*
X6143395Y-71707561D01*
X6107275Y-71650673D01*
X6105074Y-71646585D01*
X6061412Y-71577482D01*
X6008514Y-71510212D01*
X5938883Y-71431407D01*
X5898503Y-71381742D01*
X5881745Y-71353352D01*
X5882981Y-71338376D01*
X5884370Y-71336800D01*
X5877299Y-71317603D01*
X5856826Y-71306535D01*
X5820828Y-71275450D01*
X5815049Y-71255548D01*
X5798428Y-71218153D01*
X5756097Y-71161951D01*
X5726060Y-71128959D01*
X5674914Y-71073157D01*
X5642737Y-71032019D01*
X5637071Y-71020178D01*
X5621630Y-70991406D01*
X5584039Y-70944395D01*
X5579864Y-70939729D01*
X5528036Y-70873808D01*
X5489876Y-70812861D01*
X5459724Y-70765140D01*
X5406542Y-70690789D01*
X5339553Y-70602495D01*
X5305542Y-70559311D01*
X5239630Y-70472159D01*
X5188207Y-70395549D01*
X5158481Y-70340669D01*
X5153988Y-70324126D01*
X5140532Y-70284955D01*
X5113317Y-70284643D01*
X5096399Y-70310709D01*
X5093304Y-70339038D01*
X5103388Y-70377363D01*
X5129779Y-70430748D01*
X5175610Y-70504255D01*
X5244010Y-70602948D01*
X5338109Y-70731888D01*
X5446187Y-70876425D01*
X5554124Y-71021228D01*
X5664234Y-71171447D01*
X5767945Y-71315215D01*
X5856686Y-71440663D01*
X5914445Y-71524773D01*
X5984787Y-71626100D01*
X6077845Y-71755013D01*
X6184633Y-71899339D01*
X6296166Y-72046903D01*
X6380085Y-72155662D01*
X6485324Y-72293373D01*
X6569871Y-72409683D01*
X6630559Y-72499935D01*
X6664221Y-72559472D01*
X6669701Y-72581538D01*
X6646498Y-72613464D01*
X6612612Y-72605633D01*
X6562865Y-72555755D01*
X6536761Y-72522721D01*
X6482790Y-72452825D01*
X6434391Y-72391869D01*
X6421797Y-72376525D01*
X6359643Y-72300852D01*
X6276879Y-72198440D01*
X6184166Y-72082650D01*
X6092163Y-71966843D01*
X6011531Y-71864378D01*
X5957428Y-71794524D01*
X5903794Y-71725386D01*
X5862032Y-71673613D01*
X5842654Y-71651900D01*
X5821489Y-71627341D01*
X5777204Y-71571571D01*
X5717224Y-71494034D01*
X5675895Y-71439809D01*
X5604181Y-71348329D01*
X5537135Y-71268256D01*
X5484781Y-71211324D01*
X5466495Y-71194608D01*
X5424359Y-71153558D01*
X5408242Y-71123384D01*
X5387943Y-71093161D01*
X5370104Y-71083346D01*
X5336330Y-71052326D01*
X5331966Y-71035072D01*
X5315607Y-70998352D01*
X5273875Y-70941950D01*
X5242977Y-70907088D01*
X5191939Y-70848361D01*
X5159749Y-70802441D01*
X5153988Y-70787377D01*
X5134638Y-70762747D01*
X5128562Y-70762010D01*
X5106005Y-70741417D01*
X5103137Y-70723872D01*
X5089408Y-70690037D01*
X5077711Y-70685734D01*
X5054044Y-70665653D01*
X5052226Y-70653952D01*
X5037659Y-70612543D01*
X5002069Y-70561877D01*
X4957439Y-70514486D01*
X4915755Y-70482906D01*
X4888999Y-70479672D01*
X4887460Y-70481619D01*
X4890213Y-70519709D01*
X4923379Y-70573144D01*
X4929055Y-70579742D01*
X4981988Y-70649875D01*
X5031585Y-70731525D01*
X5036443Y-70740909D01*
X5075517Y-70806405D01*
X5135371Y-70893494D01*
X5204028Y-70984872D01*
X5214104Y-70997578D01*
X5287668Y-71089831D01*
X5359962Y-71180855D01*
X5416487Y-71252392D01*
X5420955Y-71258077D01*
X5476172Y-71327197D01*
X5548697Y-71416404D01*
X5623173Y-71506814D01*
X5625750Y-71509916D01*
X5697742Y-71598294D01*
X5786653Y-71709948D01*
X5878769Y-71827566D01*
X5929599Y-71893442D01*
X6026043Y-72017337D01*
X6136299Y-72155941D01*
X6242387Y-72286750D01*
X6285069Y-72338387D01*
X6363569Y-72434104D01*
X6433927Y-72522674D01*
X6487088Y-72592542D01*
X6509956Y-72625296D01*
X6538441Y-72676732D01*
X6537346Y-72712328D01*
X6505921Y-72758106D01*
X6457139Y-72820122D01*
X6318614Y-72674600D01*
X6244598Y-72593626D01*
X6178713Y-72515929D01*
X6134139Y-72457116D01*
X6131314Y-72452801D01*
X6075919Y-72373469D01*
X5992610Y-72263700D01*
X5887449Y-72130893D01*
X5766493Y-71982449D01*
X5635802Y-71825769D01*
X5501436Y-71668253D01*
X5369454Y-71517300D01*
X5319400Y-71461210D01*
X5198843Y-71326517D01*
X5108803Y-71224625D01*
X5045390Y-71150894D01*
X5004714Y-71100683D01*
X4982885Y-71069352D01*
X4976012Y-71052259D01*
X4975990Y-71051559D01*
X4960310Y-71021171D01*
X4920171Y-70967894D01*
X4887363Y-70929420D01*
X4831864Y-70853873D01*
X4792110Y-70775760D01*
X4782644Y-70743980D01*
X4761214Y-70686221D01*
X4732783Y-70669596D01*
X4707561Y-70696790D01*
X4700302Y-70722322D01*
X4709723Y-70760207D01*
X4740596Y-70824283D01*
X4784908Y-70901709D01*
X4834648Y-70979644D01*
X4881802Y-71045248D01*
X4918358Y-71085680D01*
X4931313Y-71092541D01*
X4948825Y-71113000D01*
X4950584Y-71127584D01*
X4966871Y-71160742D01*
X5010523Y-71220377D01*
X5073734Y-71296245D01*
X5110487Y-71337344D01*
X5173923Y-71407889D01*
X5247346Y-71492054D01*
X5334306Y-71594077D01*
X5438356Y-71718199D01*
X5563044Y-71868659D01*
X5711923Y-72049698D01*
X5888542Y-72265554D01*
X5916750Y-72300099D01*
X5983660Y-72383693D01*
X6039856Y-72456884D01*
X6075998Y-72507403D01*
X6082016Y-72517160D01*
X6112663Y-72559828D01*
X6165925Y-72623329D01*
X6215499Y-72677993D01*
X6271971Y-72739957D01*
X6311078Y-72786364D01*
X6323557Y-72805388D01*
X6300964Y-72804429D01*
X6240396Y-72791587D01*
X6214672Y-72785053D01*
X5860284Y-72785053D01*
X5857916Y-72790248D01*
X5812004Y-72784989D01*
X5724634Y-72769232D01*
X5611645Y-72745903D01*
X5525639Y-72725585D01*
X5472794Y-72709329D01*
X5459665Y-72699404D01*
X5471805Y-72697465D01*
X5534939Y-72703099D01*
X5626756Y-72719750D01*
X5726060Y-72743479D01*
X5817026Y-72769449D01*
X5860284Y-72785053D01*
X6214672Y-72785053D01*
X6152668Y-72769304D01*
X6101085Y-72755129D01*
X5936318Y-72708831D01*
X5845094Y-72683352D01*
X5349229Y-72683352D01*
X5333226Y-72686307D01*
X5291172Y-72680326D01*
X5215313Y-72664304D01*
X5097893Y-72637138D01*
X5097233Y-72636982D01*
X5029810Y-72619030D01*
X4990631Y-72604467D01*
X4986200Y-72599401D01*
X5016541Y-72597030D01*
X5079986Y-72604673D01*
X5160548Y-72619088D01*
X5242239Y-72637032D01*
X5309071Y-72655261D01*
X5345057Y-72670534D01*
X5346935Y-72672568D01*
X5349229Y-72683352D01*
X5845094Y-72683352D01*
X5812866Y-72674351D01*
X5723113Y-72649668D01*
X5659442Y-72632760D01*
X5614238Y-72621605D01*
X5579883Y-72614183D01*
X5548762Y-72608471D01*
X5548082Y-72608354D01*
X5489824Y-72597263D01*
X5397535Y-72578542D01*
X5286868Y-72555393D01*
X5230264Y-72543316D01*
X5137537Y-72524458D01*
X5013815Y-72500834D01*
X4867514Y-72473897D01*
X4707046Y-72445102D01*
X4540826Y-72415901D01*
X4377269Y-72387750D01*
X4224788Y-72362102D01*
X4091797Y-72340411D01*
X3986711Y-72324130D01*
X3917944Y-72314714D01*
X3897115Y-72312961D01*
X3862291Y-72330558D01*
X3857291Y-72347039D01*
X3877366Y-72371194D01*
X3939134Y-72396215D01*
X4044909Y-72422689D01*
X4197007Y-72451206D01*
X4378512Y-72479556D01*
X4450136Y-72491093D01*
X4542316Y-72507256D01*
X4581916Y-72514550D01*
X4688860Y-72533104D01*
X4801368Y-72550452D01*
X4832144Y-72554710D01*
X4900127Y-72566400D01*
X4938643Y-72578350D01*
X4942154Y-72584121D01*
X4913175Y-72586096D01*
X4844750Y-72581365D01*
X4747701Y-72570886D01*
X4653788Y-72558596D01*
X4508450Y-72539912D01*
X4350855Y-72522367D01*
X4206273Y-72508680D01*
X4149683Y-72504332D01*
X4038053Y-72495728D01*
X3938303Y-72486323D01*
X3866851Y-72477722D01*
X3850935Y-72475078D01*
X3800051Y-72471660D01*
X3782147Y-72494538D01*
X3781015Y-72512175D01*
X3786453Y-72538304D01*
X3809580Y-72555397D01*
X3860616Y-72566897D01*
X3949779Y-72576249D01*
X3978062Y-72578562D01*
X4315947Y-72609000D01*
X4611608Y-72643556D01*
X4873593Y-72683501D01*
X5110448Y-72730104D01*
X5288554Y-72773290D01*
X5371898Y-72793083D01*
X5447223Y-72807589D01*
X5453819Y-72808580D01*
X5517395Y-72819015D01*
X5614269Y-72836445D01*
X5730714Y-72858229D01*
X5853008Y-72881729D01*
X5967425Y-72904305D01*
X6060242Y-72923316D01*
X6117733Y-72936124D01*
X6120154Y-72936739D01*
X6238841Y-72961991D01*
X6319957Y-72971904D01*
X6342456Y-72989545D01*
X6337416Y-73043174D01*
X6337227Y-73043942D01*
X6318124Y-73102138D01*
X6300653Y-73133696D01*
X6270921Y-73134752D01*
X6199530Y-73125953D01*
X6094431Y-73108619D01*
X5963572Y-73084073D01*
X5814903Y-73053636D01*
X5800300Y-73050519D01*
X5618039Y-73012383D01*
X5422216Y-72972916D01*
X5230022Y-72935487D01*
X5058651Y-72903464D01*
X4963297Y-72886582D01*
X4643602Y-72832384D01*
X4373604Y-72787742D01*
X4153062Y-72752619D01*
X3981734Y-72726980D01*
X3859380Y-72710788D01*
X3785758Y-72704006D01*
X3761023Y-72705860D01*
X3759582Y-72734418D01*
X3795408Y-72766735D01*
X3856175Y-72795312D01*
X3929560Y-72812655D01*
X3938108Y-72813576D01*
X4010388Y-72822546D01*
X4115957Y-72838375D01*
X4238136Y-72858477D01*
X4314949Y-72871960D01*
X4445620Y-72894463D01*
X4576427Y-72915224D01*
X4687733Y-72931199D01*
X4733577Y-72936849D01*
X4821926Y-72947218D01*
X4893172Y-72956646D01*
X4924267Y-72961674D01*
X4961661Y-72969424D01*
X5039322Y-72985544D01*
X5147735Y-73008058D01*
X5277380Y-73034990D01*
X5357391Y-73051614D01*
X5516290Y-73084216D01*
X5680083Y-73117113D01*
X5832251Y-73147029D01*
X5956274Y-73170694D01*
X5986232Y-73176213D01*
X6090130Y-73196457D01*
X6174240Y-73215354D01*
X6226556Y-73230082D01*
X6237271Y-73235217D01*
X6243525Y-73269788D01*
X6237899Y-73292330D01*
X6201618Y-73316626D01*
X6120460Y-73319622D01*
X5995696Y-73301370D01*
X5891325Y-73278015D01*
X5815465Y-73263439D01*
X5715608Y-73249379D01*
X5648385Y-73242190D01*
X5549460Y-73229660D01*
X5424485Y-73208855D01*
X5296767Y-73183747D01*
X5267003Y-73177232D01*
X5106088Y-73143562D01*
X4919110Y-73108355D01*
X4719494Y-73073786D01*
X4520663Y-73042031D01*
X4336041Y-73015267D01*
X4179052Y-72995669D01*
X4098833Y-72987857D01*
X3992186Y-72976549D01*
X3896890Y-72961695D01*
X3831205Y-72946223D01*
X3824694Y-72943898D01*
X3763400Y-72928948D01*
X3734323Y-72939731D01*
X3744427Y-72971905D01*
X3757103Y-72986039D01*
X3806417Y-73011060D01*
X3899951Y-73035806D01*
X4031085Y-73058985D01*
X4193199Y-73079307D01*
X4276810Y-73087381D01*
X4384887Y-73097685D01*
X4480751Y-73109123D01*
X4576316Y-73123758D01*
X4683500Y-73143654D01*
X4814217Y-73170872D01*
X4980385Y-73207476D01*
X5014148Y-73215034D01*
X5165049Y-73247071D01*
X5315793Y-73275940D01*
X5451493Y-73298991D01*
X5557259Y-73313578D01*
X5581615Y-73315965D01*
X5702141Y-73329340D01*
X5828109Y-73348586D01*
X5916894Y-73366190D01*
X5998172Y-73382447D01*
X6057957Y-73389374D01*
X6080408Y-73386674D01*
X6094067Y-73390748D01*
X6094728Y-73397679D01*
X6116197Y-73416661D01*
X6151936Y-73420986D01*
X6194755Y-73429996D01*
X6200608Y-73468399D01*
X6200369Y-73469818D01*
X6189407Y-73515513D01*
X6182936Y-73529627D01*
X6156758Y-73530870D01*
X6088375Y-73522901D01*
X5976295Y-73505473D01*
X5819023Y-73478337D01*
X5615066Y-73441246D01*
X5362930Y-73393951D01*
X5346289Y-73390793D01*
X5156524Y-73356765D01*
X4942428Y-73321620D01*
X4725690Y-73288728D01*
X4528001Y-73261458D01*
X4456399Y-73252555D01*
X4300119Y-73233756D01*
X4149205Y-73215258D01*
X4016113Y-73198611D01*
X3913297Y-73185368D01*
X3870004Y-73179516D01*
X3785896Y-73170979D01*
X3722538Y-73170545D01*
X3697304Y-73176482D01*
X3690494Y-73204441D01*
X3729826Y-73229873D01*
X3810597Y-73251066D01*
X3928105Y-73266306D01*
X3948262Y-73267946D01*
X4053124Y-73276577D01*
X4145398Y-73285366D01*
X4207405Y-73292608D01*
X4213247Y-73293495D01*
X4261018Y-73300881D01*
X4347884Y-73314006D01*
X4462634Y-73331185D01*
X4594058Y-73350736D01*
X4632766Y-73356473D01*
X4771283Y-73377872D01*
X4900493Y-73399436D01*
X5007677Y-73418935D01*
X5080114Y-73434136D01*
X5090424Y-73436763D01*
X5183257Y-73457112D01*
X5275567Y-73470345D01*
X5285040Y-73471131D01*
X5363255Y-73480415D01*
X5463472Y-73496895D01*
X5526582Y-73509241D01*
X5622250Y-73528128D01*
X5709586Y-73543254D01*
X5751485Y-73549144D01*
X5888282Y-73567404D01*
X6036177Y-73593736D01*
X6050234Y-73596495D01*
X6114451Y-73615122D01*
X6141477Y-73644102D01*
X6145579Y-73676051D01*
X6144479Y-73703022D01*
X6136681Y-73721316D01*
X6115435Y-73730707D01*
X6073994Y-73730967D01*
X6005608Y-73721871D01*
X5903528Y-73703190D01*
X5761007Y-73674698D01*
X5692734Y-73660822D01*
X5458850Y-73614531D01*
X5239662Y-73574177D01*
X5025083Y-73538297D01*
X4805025Y-73505426D01*
X4569401Y-73474100D01*
X4308125Y-73442853D01*
X4011110Y-73410223D01*
X3850935Y-73393436D01*
X3761576Y-73388387D01*
X3712445Y-73395195D01*
X3704738Y-73404097D01*
X3729666Y-73441677D01*
X3803954Y-73470325D01*
X3926865Y-73489816D01*
X4003096Y-73495863D01*
X4153278Y-73506217D01*
X4304574Y-73519576D01*
X4476959Y-73537793D01*
X4569203Y-73548356D01*
X4661129Y-73560574D01*
X4786592Y-73579224D01*
X4929098Y-73601657D01*
X5072149Y-73625227D01*
X5199249Y-73647286D01*
X5281115Y-73662611D01*
X5386119Y-73683617D01*
X5508274Y-73708306D01*
X5586220Y-73724193D01*
X5702496Y-73747056D01*
X5836249Y-73771984D01*
X5936225Y-73789705D01*
X6120965Y-73821371D01*
X5834523Y-73947284D01*
X5565097Y-74078582D01*
X5315561Y-74228750D01*
X5076816Y-74404612D01*
X4839760Y-74612996D01*
X4595293Y-74860726D01*
X4547342Y-74912711D01*
X4481291Y-74981969D01*
X4426868Y-75033495D01*
X4393977Y-75058044D01*
X4390680Y-75058907D01*
X4360358Y-75080025D01*
X4330280Y-75128717D01*
X4312055Y-75182995D01*
X4311567Y-75208753D01*
X4305612Y-75250489D01*
X4297832Y-75259603D01*
X4275642Y-75290592D01*
X4238691Y-75357125D01*
X4192484Y-75448109D01*
X4142526Y-75552451D01*
X4094322Y-75659057D01*
X4063098Y-75732681D01*
X4022259Y-75844233D01*
X3993292Y-75946592D01*
X3978514Y-76028867D01*
X3980239Y-76080166D01*
X3987087Y-76090287D01*
X4024183Y-76093994D01*
X4052156Y-76051483D01*
X4070906Y-75971422D01*
X4113228Y-75808364D01*
X4189314Y-75621883D01*
X4293966Y-75421239D01*
X4421988Y-75215686D01*
X4568182Y-75014483D01*
X4690761Y-74867335D01*
X4839331Y-74705343D01*
X4972410Y-74573651D01*
X5103085Y-74460496D01*
X5244443Y-74354116D01*
X5319253Y-74302466D01*
X5418215Y-74239907D01*
X5533573Y-74173717D01*
X5657522Y-74107575D01*
X5782254Y-74045159D01*
X5899963Y-73990149D01*
X6002843Y-73946224D01*
X6083087Y-73917062D01*
X6132888Y-73906341D01*
X6145579Y-73913055D01*
X6153951Y-73956122D01*
X6159061Y-73971163D01*
X6146685Y-73997277D01*
X6093407Y-74038359D01*
X5997020Y-74095900D01*
X5885738Y-74155642D01*
X5672497Y-74270189D01*
X5492966Y-74375412D01*
X5333405Y-74480282D01*
X5180079Y-74593771D01*
X5036969Y-74709933D01*
X4844635Y-74877674D01*
X4689598Y-75028337D01*
X4564930Y-75169946D01*
X4463705Y-75310526D01*
X4378996Y-75458099D01*
X4362273Y-75491515D01*
X4300876Y-75624965D01*
X4245714Y-75759531D01*
X4199858Y-75886009D01*
X4166376Y-75995198D01*
X4148339Y-76077897D01*
X4148817Y-76124904D01*
X4150103Y-76127453D01*
X4181165Y-76148193D01*
X4211902Y-76127020D01*
X4230283Y-76074582D01*
X4243951Y-76009746D01*
X4255580Y-75974223D01*
X4272149Y-75925180D01*
X4275076Y-75910659D01*
X4302153Y-75793837D01*
X4358554Y-75651027D01*
X4422060Y-75521979D01*
X4521016Y-75343736D01*
X4611647Y-75204956D01*
X4700327Y-75096424D01*
X4752050Y-75044926D01*
X4842432Y-74964448D01*
X4956316Y-74867179D01*
X5081967Y-74762731D01*
X5207646Y-74660719D01*
X5321616Y-74570755D01*
X5412140Y-74502453D01*
X5429675Y-74489928D01*
X5490795Y-74450462D01*
X5577752Y-74398778D01*
X5681598Y-74339692D01*
X5793385Y-74278018D01*
X5904164Y-74218571D01*
X6004987Y-74166166D01*
X6086906Y-74125618D01*
X6140971Y-74101741D01*
X6158206Y-74097933D01*
X6169862Y-74125376D01*
X6179913Y-74156305D01*
X6180757Y-74182159D01*
X6162287Y-74208942D01*
X6117441Y-74242114D01*
X6039157Y-74287139D01*
X5949792Y-74334283D01*
X5579178Y-74552255D01*
X5244222Y-74804624D01*
X4939645Y-75095623D01*
X4793670Y-75261033D01*
X4665080Y-75422129D01*
X4564108Y-75567475D01*
X4480066Y-75714768D01*
X4402267Y-75881701D01*
X4365859Y-75969398D01*
X4324134Y-76083189D01*
X4307825Y-76155585D01*
X4314386Y-76187233D01*
X4341147Y-76200286D01*
X4367108Y-76179048D01*
X4396014Y-76118154D01*
X4427624Y-76025073D01*
X4509729Y-75825389D01*
X4632365Y-75612900D01*
X4789228Y-75394611D01*
X4974017Y-75177528D01*
X5180429Y-74968657D01*
X5402161Y-74775002D01*
X5632910Y-74603569D01*
X5802336Y-74497112D01*
X5949677Y-74414092D01*
X6059095Y-74357709D01*
X6134822Y-74326159D01*
X6181090Y-74317640D01*
X6200594Y-74327437D01*
X6219824Y-74380805D01*
X6195460Y-74421380D01*
X6141577Y-74450355D01*
X6082377Y-74479997D01*
X5997240Y-74528844D01*
X5902305Y-74587541D01*
X5879635Y-74602198D01*
X5793181Y-74657603D01*
X5721209Y-74701836D01*
X5675624Y-74727646D01*
X5668242Y-74730939D01*
X5632171Y-74754886D01*
X5567580Y-74809061D01*
X5481176Y-74887022D01*
X5379666Y-74982323D01*
X5269755Y-75088520D01*
X5158150Y-75199169D01*
X5051558Y-75307825D01*
X4956685Y-75408045D01*
X4908972Y-75460551D01*
X4826739Y-75559239D01*
X4741996Y-75671796D01*
X4659780Y-75790154D01*
X4585132Y-75906245D01*
X4523091Y-76012002D01*
X4478695Y-76099357D01*
X4456984Y-76160242D01*
X4457913Y-76182682D01*
X4489043Y-76203090D01*
X4524784Y-76175175D01*
X4562392Y-76101350D01*
X4594210Y-76038878D01*
X4626575Y-76003009D01*
X4636623Y-75999648D01*
X4669368Y-75978633D01*
X4674431Y-75921362D01*
X4673648Y-75916212D01*
X4687126Y-75873955D01*
X4732515Y-75802923D01*
X4804404Y-75708882D01*
X4897383Y-75597595D01*
X5006040Y-75474826D01*
X5124965Y-75346341D01*
X5248747Y-75217902D01*
X5371974Y-75095275D01*
X5489238Y-74984223D01*
X5595125Y-74890510D01*
X5684227Y-74819901D01*
X5732914Y-74787768D01*
X5819256Y-74735438D01*
X5901223Y-74681664D01*
X5931863Y-74659860D01*
X5986601Y-74622110D01*
X6023426Y-74602177D01*
X6027714Y-74601250D01*
X6057553Y-74588744D01*
X6114117Y-74556942D01*
X6149436Y-74535252D01*
X6216096Y-74497206D01*
X6254555Y-74487956D01*
X6275668Y-74503470D01*
X6294620Y-74547459D01*
X6282992Y-74585041D01*
X6234686Y-74627096D01*
X6190074Y-74656202D01*
X6119665Y-74701501D01*
X6024081Y-74764901D01*
X5919844Y-74835397D01*
X5878625Y-74863670D01*
X5791122Y-74922448D01*
X5720436Y-74967054D01*
X5676004Y-74991689D01*
X5665791Y-74994401D01*
X5642613Y-75004943D01*
X5593117Y-75048392D01*
X5523129Y-75118253D01*
X5438478Y-75208033D01*
X5344992Y-75311236D01*
X5248497Y-75421369D01*
X5154822Y-75531939D01*
X5069795Y-75636450D01*
X4999244Y-75728408D01*
X4969039Y-75770819D01*
X4870838Y-75915404D01*
X4799365Y-76024189D01*
X4751590Y-76102608D01*
X4724486Y-76156096D01*
X4715023Y-76190087D01*
X4720171Y-76210016D01*
X4722703Y-76212807D01*
X4753711Y-76224051D01*
X4781596Y-76194383D01*
X4899640Y-76011869D01*
X5025731Y-75829305D01*
X5154185Y-75653994D01*
X5279318Y-75493240D01*
X5395447Y-75354348D01*
X5496887Y-75244621D01*
X5577273Y-75171885D01*
X5671871Y-75101480D01*
X5780619Y-75023785D01*
X5896147Y-74943676D01*
X6011089Y-74866027D01*
X6118076Y-74795713D01*
X6209741Y-74737609D01*
X6278716Y-74696590D01*
X6317634Y-74677530D01*
X6323557Y-74678116D01*
X6315662Y-74708460D01*
X6293873Y-74778073D01*
X6261039Y-74878209D01*
X6220007Y-75000119D01*
X6193918Y-75076358D01*
X6146454Y-75216289D01*
X6102813Y-75348680D01*
X6066772Y-75461795D01*
X6042112Y-75543897D01*
X6035780Y-75567416D01*
X6018346Y-75629281D01*
X5987953Y-75728776D01*
X5947926Y-75855357D01*
X5901589Y-75998478D01*
X5863454Y-76114062D01*
X5810350Y-76276522D01*
X5773766Y-76397209D01*
X5752771Y-76482114D01*
X5746434Y-76537226D01*
X5753824Y-76568536D01*
X5774012Y-76582035D01*
X5790429Y-76584043D01*
X5804343Y-76562113D01*
X5824882Y-76505721D01*
X5837385Y-76463662D01*
X5857677Y-76394245D01*
X5889589Y-76289585D01*
X5929064Y-76162810D01*
X5972042Y-76027050D01*
X5980806Y-75999648D01*
X6071194Y-75717301D01*
X6147106Y-75479517D01*
X6209720Y-75282477D01*
X6260213Y-75122363D01*
X6299762Y-74995355D01*
X6329542Y-74897636D01*
X6350733Y-74825385D01*
X6364509Y-74774784D01*
X6372048Y-74742015D01*
X6374528Y-74723258D01*
X6374542Y-74722020D01*
X6380840Y-74684383D01*
X6404949Y-74685699D01*
X6452118Y-74724255D01*
X6475094Y-74747806D01*
X6486530Y-74772744D01*
X6485794Y-74810250D01*
X6472250Y-74871503D01*
X6445266Y-74967684D01*
X6436622Y-74997540D01*
X6398832Y-75121539D01*
X6357111Y-75248509D01*
X6319108Y-75355377D01*
X6310913Y-75376687D01*
X6229179Y-75587155D01*
X6164605Y-75760301D01*
X6113949Y-75905384D01*
X6073967Y-76031661D01*
X6043746Y-76139488D01*
X6012969Y-76254753D01*
X5981643Y-76369103D01*
X5956063Y-76459587D01*
X5953958Y-76466800D01*
X5932093Y-76560704D01*
X5934515Y-76614982D01*
X5961674Y-76634925D01*
X5968285Y-76635284D01*
X5985302Y-76612256D01*
X6011545Y-76549685D01*
X6043817Y-76457334D01*
X6078919Y-76344969D01*
X6113654Y-76222356D01*
X6144823Y-76099259D01*
X6147310Y-76088637D01*
X6170296Y-76006511D01*
X6206277Y-75896491D01*
X6248872Y-75777697D01*
X6266070Y-75732681D01*
X6304291Y-75631100D01*
X6349380Y-75505760D01*
X6397650Y-75367563D01*
X6445411Y-75227408D01*
X6488974Y-75096197D01*
X6524650Y-74984829D01*
X6548751Y-74904206D01*
X6555853Y-74876379D01*
X6566878Y-74851999D01*
X6591148Y-74858843D01*
X6632218Y-74891819D01*
X6699337Y-74949948D01*
X6626076Y-75201475D01*
X6585486Y-75334861D01*
X6534848Y-75492625D01*
X6481750Y-75651450D01*
X6449091Y-75745394D01*
X6384276Y-75933074D01*
X6325132Y-76113829D01*
X6273586Y-76280916D01*
X6231565Y-76427591D01*
X6200996Y-76547112D01*
X6183804Y-76632736D01*
X6181916Y-76677720D01*
X6182345Y-76679013D01*
X6197570Y-76703215D01*
X6215564Y-76697320D01*
X6238365Y-76657105D01*
X6268015Y-76578349D01*
X6306554Y-76456832D01*
X6333309Y-76366719D01*
X6372722Y-76236340D01*
X6412550Y-76112132D01*
X6447982Y-76008678D01*
X6472877Y-75943626D01*
X6507487Y-75853249D01*
X6544373Y-75742344D01*
X6566978Y-75665543D01*
X6592240Y-75578618D01*
X6614712Y-75510703D01*
X6628537Y-75478427D01*
X6642709Y-75443637D01*
X6665664Y-75372572D01*
X6693324Y-75278151D01*
X6704751Y-75236885D01*
X6733255Y-75137354D01*
X6758954Y-75056659D01*
X6777718Y-75007438D01*
X6782399Y-74999345D01*
X6816507Y-74993050D01*
X6852948Y-75005625D01*
X6904715Y-75033330D01*
X6842685Y-75265116D01*
X6814563Y-75367768D01*
X6790438Y-75451392D01*
X6773804Y-75504086D01*
X6769195Y-75515444D01*
X6755136Y-75552414D01*
X6731763Y-75629239D01*
X6701610Y-75736326D01*
X6667214Y-75864079D01*
X6631112Y-76002904D01*
X6595839Y-76143206D01*
X6563931Y-76275390D01*
X6537924Y-76389861D01*
X6537263Y-76392915D01*
X6509155Y-76537030D01*
X6497393Y-76635995D01*
X6502091Y-76692847D01*
X6523361Y-76710626D01*
X6548702Y-76701124D01*
X6567385Y-76668180D01*
X6584936Y-76603074D01*
X6591405Y-76564771D01*
X6604007Y-76494903D01*
X6626709Y-76389321D01*
X6656478Y-76261436D01*
X6690281Y-76124659D01*
X6696245Y-76101350D01*
X6730244Y-75970525D01*
X6762610Y-75849410D01*
X6796391Y-75727233D01*
X6834634Y-75593225D01*
X6880386Y-75436616D01*
X6936695Y-75246636D01*
X6963990Y-75155095D01*
X6987254Y-75098983D01*
X7010753Y-75074682D01*
X7016679Y-75075721D01*
X7028004Y-75096582D01*
X7030204Y-75142710D01*
X7022616Y-75218467D01*
X7004575Y-75328215D01*
X6975419Y-75476318D01*
X6934483Y-75667136D01*
X6909858Y-75777842D01*
X6868855Y-75968944D01*
X6833182Y-76151503D01*
X6803910Y-76318526D01*
X6782106Y-76463022D01*
X6768840Y-76578000D01*
X6765180Y-76656467D01*
X6770524Y-76689406D01*
X6805229Y-76709741D01*
X6820854Y-76711560D01*
X6847893Y-76690814D01*
X6858220Y-76625905D01*
X6858400Y-76616215D01*
X6863540Y-76550810D01*
X6876657Y-76451237D01*
X6895530Y-76333147D01*
X6909825Y-76253902D01*
X6932316Y-76134792D01*
X6952621Y-76026807D01*
X6968015Y-75944461D01*
X6974262Y-75910659D01*
X6986656Y-75849474D01*
X7006797Y-75756903D01*
X7030731Y-75651049D01*
X7035369Y-75630979D01*
X7061050Y-75510926D01*
X7084024Y-75387307D01*
X7099541Y-75285794D01*
X7100122Y-75281044D01*
X7113217Y-75199560D01*
X7128888Y-75140608D01*
X7140142Y-75120634D01*
X7150125Y-75113664D01*
X7156765Y-75111915D01*
X7159767Y-75122709D01*
X7158837Y-75153367D01*
X7153678Y-75211210D01*
X7143994Y-75303560D01*
X7129490Y-75437737D01*
X7126048Y-75469645D01*
X7112330Y-75617178D01*
X7100829Y-75780271D01*
X7091691Y-75951281D01*
X7085062Y-76122565D01*
X7081088Y-76286480D01*
X7079915Y-76435381D01*
X7081689Y-76561627D01*
X7086555Y-76657574D01*
X7094659Y-76715578D01*
X7102012Y-76729421D01*
X7125629Y-76714347D01*
X7145153Y-76664825D01*
X7146507Y-76658524D01*
X7153335Y-76599336D01*
X7158837Y-76504317D01*
X7162301Y-76388486D01*
X7163126Y-76307931D01*
X7164956Y-76217697D01*
X7169761Y-76098647D01*
X7176936Y-75959449D01*
X7185878Y-75808772D01*
X7195985Y-75655282D01*
X7206653Y-75507649D01*
X7217279Y-75374541D01*
X7227260Y-75264626D01*
X7235993Y-75186571D01*
X7242874Y-75149045D01*
X7243887Y-75147246D01*
X7271503Y-75145972D01*
X7321505Y-75153105D01*
X7391425Y-75166537D01*
X7392567Y-75742001D01*
X7394219Y-76013802D01*
X7398074Y-76236994D01*
X7404253Y-76413776D01*
X7412873Y-76546347D01*
X7424053Y-76636908D01*
X7437912Y-76687657D01*
X7444087Y-76697152D01*
X7467402Y-76711789D01*
X7482622Y-76694562D01*
X7490735Y-76640356D01*
X7492725Y-76544053D01*
X7491116Y-76453091D01*
X7489395Y-76353715D01*
X7488198Y-76215394D01*
X7487521Y-76050031D01*
X7487359Y-75869530D01*
X7487708Y-75685794D01*
X7488565Y-75510725D01*
X7489923Y-75356228D01*
X7491565Y-75244942D01*
X7498009Y-75188938D01*
X7524462Y-75168051D01*
X7568977Y-75166167D01*
X7611981Y-75169599D01*
X7634121Y-75185130D01*
X7641624Y-75225346D01*
X7640721Y-75302835D01*
X7640483Y-75310662D01*
X7640106Y-75377105D01*
X7641441Y-75485016D01*
X7644283Y-75625047D01*
X7648429Y-75787854D01*
X7653675Y-75964088D01*
X7656734Y-76056855D01*
X7664250Y-76258011D01*
X7671660Y-76412876D01*
X7679362Y-76526005D01*
X7687757Y-76601955D01*
X7697243Y-76645284D01*
X7708219Y-76660547D01*
X7709635Y-76660709D01*
X7735669Y-76653007D01*
X7751565Y-76624244D01*
X7758920Y-76565933D01*
X7759332Y-76469590D01*
X7757502Y-76406455D01*
X7754512Y-76320769D01*
X7750144Y-76195861D01*
X7744804Y-76043330D01*
X7738899Y-75874772D01*
X7732834Y-75701786D01*
X7732487Y-75691900D01*
X7714112Y-75168036D01*
X7781598Y-75155136D01*
X7807798Y-75149617D01*
X7826842Y-75149155D01*
X7840020Y-75160562D01*
X7848620Y-75190655D01*
X7853933Y-75246247D01*
X7857246Y-75334154D01*
X7859849Y-75461189D01*
X7861997Y-75580128D01*
X7865577Y-75698902D01*
X7871922Y-75837209D01*
X7880373Y-75986165D01*
X7890272Y-76136881D01*
X7900962Y-76280471D01*
X7911784Y-76408048D01*
X7922080Y-76510724D01*
X7931192Y-76579614D01*
X7937923Y-76605472D01*
X7967562Y-76607650D01*
X7981470Y-76603532D01*
X7996456Y-76585843D01*
X8003651Y-76542019D01*
X8003503Y-76464033D01*
X7996460Y-76343858D01*
X7996166Y-76339781D01*
X7988236Y-76216252D01*
X7980603Y-76071860D01*
X7973495Y-75914277D01*
X7967139Y-75751180D01*
X7961761Y-75590243D01*
X7957590Y-75439140D01*
X7954853Y-75305546D01*
X7953776Y-75197135D01*
X7954587Y-75121582D01*
X7957514Y-75086562D01*
X7959016Y-75085239D01*
X7968242Y-75114120D01*
X7983012Y-75183484D01*
X8001428Y-75283509D01*
X8021590Y-75404375D01*
X8025399Y-75428482D01*
X8057192Y-75627841D01*
X8089815Y-75825777D01*
X8122098Y-76015797D01*
X8152874Y-76191408D01*
X8180974Y-76346117D01*
X8205230Y-76473430D01*
X8224474Y-76566855D01*
X8237536Y-76619899D01*
X8241476Y-76629345D01*
X8269582Y-76628165D01*
X8284340Y-76617003D01*
X8292060Y-76589127D01*
X8290498Y-76527237D01*
X8279214Y-76427299D01*
X8257767Y-76285282D01*
X8230241Y-76122902D01*
X8184288Y-75858954D01*
X8147008Y-75640840D01*
X8117810Y-75464393D01*
X8096106Y-75325447D01*
X8081307Y-75219834D01*
X8072824Y-75143389D01*
X8070068Y-75091944D01*
X8072449Y-75061334D01*
X8078327Y-75048322D01*
X8105134Y-75032797D01*
X8110537Y-75035177D01*
X8118785Y-75062114D01*
X8137114Y-75130856D01*
X8163575Y-75233799D01*
X8196218Y-75363341D01*
X8233093Y-75511879D01*
X8240507Y-75541990D01*
X8310355Y-75819440D01*
X8371514Y-76048133D01*
X8424395Y-76229339D01*
X8469409Y-76364330D01*
X8506966Y-76454380D01*
X8537478Y-76500760D01*
X8552440Y-76508156D01*
X8570177Y-76507372D01*
X8580014Y-76499561D01*
X8580851Y-76476538D01*
X8571588Y-76430117D01*
X8551125Y-76352112D01*
X8518364Y-76234338D01*
X8513169Y-76215764D01*
X8442463Y-75959666D01*
X8380729Y-75729377D01*
X8328782Y-75528302D01*
X8287436Y-75359851D01*
X8257509Y-75227429D01*
X8239815Y-75134444D01*
X8235169Y-75084304D01*
X8240529Y-75076739D01*
X8277409Y-75099781D01*
X8338461Y-75139412D01*
X8370304Y-75160414D01*
X8706950Y-75353372D01*
X9076299Y-75507527D01*
X9478428Y-75622902D01*
X9913411Y-75699521D01*
X10111838Y-75720668D01*
X10263747Y-75730777D01*
X10419226Y-75735720D01*
X10569370Y-75735805D01*
X10705274Y-75731342D01*
X10818034Y-75722639D01*
X10898745Y-75710005D01*
X10938502Y-75693750D01*
X10939877Y-75691945D01*
X10944644Y-75651062D01*
X10937775Y-75616700D01*
X10915847Y-75581931D01*
X10891427Y-75589517D01*
X10840107Y-75610192D01*
X10747544Y-75626314D01*
X10623161Y-75637639D01*
X10476382Y-75643921D01*
X10316632Y-75644914D01*
X10153335Y-75640373D01*
X9995914Y-75630054D01*
X9870404Y-75616092D01*
X9465896Y-75540537D01*
X9094213Y-75429877D01*
X8749441Y-75281948D01*
X8425667Y-75094586D01*
X8402086Y-75078898D01*
X8313252Y-75013588D01*
X8267316Y-74963299D01*
X8260859Y-74922057D01*
X8290466Y-74883885D01*
X8290535Y-74883828D01*
X8319328Y-74874806D01*
X8367763Y-74885879D01*
X8444481Y-74919844D01*
X8516194Y-74956902D01*
X8721220Y-75060112D01*
X8924333Y-75148730D01*
X9135672Y-75226065D01*
X9365371Y-75295424D01*
X9623568Y-75360116D01*
X9920400Y-75423447D01*
X9984819Y-75436148D01*
X10133288Y-75460255D01*
X10289120Y-75477226D01*
X10444215Y-75487125D01*
X10590473Y-75490013D01*
X10719793Y-75485952D01*
X10824075Y-75475004D01*
X10895218Y-75457231D01*
X10925123Y-75432696D01*
X10925559Y-75428954D01*
X10911216Y-75415077D01*
X10864336Y-75406573D01*
X10779147Y-75402963D01*
X10649877Y-75403770D01*
X10626810Y-75404233D01*
X10458900Y-75404075D01*
X10303611Y-75394564D01*
X10139111Y-75373768D01*
X9984819Y-75347453D01*
X9708179Y-75292292D01*
X9457144Y-75233711D01*
X9239214Y-75173664D01*
X9061888Y-75114104D01*
X9010330Y-75093536D01*
X8865681Y-75030980D01*
X8728758Y-74968694D01*
X8607623Y-74910644D01*
X8510338Y-74860795D01*
X8444966Y-74823112D01*
X8420380Y-74803400D01*
X8423383Y-74766599D01*
X8455236Y-74721134D01*
X8508200Y-74668170D01*
X8731644Y-74773037D01*
X9004362Y-74888084D01*
X9300920Y-74990632D01*
X9600299Y-75074124D01*
X9881479Y-75132002D01*
X9883117Y-75132266D01*
X10037835Y-75154307D01*
X10201700Y-75172665D01*
X10366067Y-75186908D01*
X10522293Y-75196599D01*
X10661735Y-75201306D01*
X10775749Y-75200594D01*
X10855692Y-75194029D01*
X10891192Y-75182905D01*
X10914563Y-75154738D01*
X10904040Y-75134317D01*
X10855649Y-75120674D01*
X10765418Y-75112844D01*
X10629371Y-75109860D01*
X10590435Y-75109758D01*
X10422510Y-75105559D01*
X10245959Y-75093823D01*
X10068849Y-75075842D01*
X9899249Y-75052906D01*
X9745227Y-75026306D01*
X9614850Y-74997335D01*
X9516186Y-74967284D01*
X9457303Y-74937443D01*
X9447262Y-74926790D01*
X9429533Y-74908031D01*
X9425848Y-74924967D01*
X9402816Y-74932839D01*
X9334169Y-74918399D01*
X9219876Y-74881639D01*
X9177561Y-74866576D01*
X9045255Y-74816019D01*
X8913863Y-74761118D01*
X8791854Y-74705954D01*
X8687698Y-74654604D01*
X8609864Y-74611148D01*
X8566822Y-74579664D01*
X8560995Y-74569643D01*
X8578600Y-74512309D01*
X8619664Y-74465005D01*
X8660427Y-74448697D01*
X8708347Y-74458629D01*
X8783353Y-74484284D01*
X8845770Y-74509970D01*
X9117345Y-74618926D01*
X9410024Y-74716560D01*
X9711285Y-74799799D01*
X10008604Y-74865566D01*
X10289460Y-74910788D01*
X10541329Y-74932390D01*
X10569603Y-74933263D01*
X10698479Y-74935885D01*
X10784933Y-74935761D01*
X10837362Y-74931907D01*
X10864165Y-74923338D01*
X10873739Y-74909071D01*
X10874708Y-74897517D01*
X10861673Y-74881586D01*
X10818451Y-74868918D01*
X10738869Y-74858497D01*
X10616754Y-74849306D01*
X10563247Y-74846215D01*
X10295947Y-74819687D01*
X10001211Y-74769881D01*
X9694585Y-74700693D01*
X9391612Y-74616023D01*
X9107838Y-74519766D01*
X8872876Y-74422384D01*
X8761535Y-74366592D01*
X8693707Y-74319977D01*
X8664372Y-74276537D01*
X8668508Y-74230273D01*
X8685275Y-74198178D01*
X8706833Y-74181497D01*
X8746046Y-74185761D01*
X8815189Y-74212802D01*
X8831082Y-74219923D01*
X8913176Y-74254255D01*
X9031920Y-74300240D01*
X9175640Y-74353697D01*
X9332666Y-74410441D01*
X9491323Y-74466292D01*
X9639940Y-74517067D01*
X9766844Y-74558583D01*
X9832266Y-74578654D01*
X10065547Y-74635299D01*
X10310493Y-74669548D01*
X10518369Y-74682560D01*
X10624569Y-74685121D01*
X10690194Y-74682450D01*
X10725396Y-74672881D01*
X10740327Y-74654747D01*
X10742706Y-74645744D01*
X10740106Y-74618668D01*
X10711152Y-74605297D01*
X10644641Y-74601253D01*
X10628675Y-74601178D01*
X10503826Y-74595777D01*
X10358347Y-74580994D01*
X10202042Y-74558768D01*
X10044714Y-74531037D01*
X9896168Y-74499738D01*
X9766207Y-74466809D01*
X9664635Y-74434187D01*
X9601257Y-74403811D01*
X9591996Y-74396277D01*
X9547345Y-74375411D01*
X9522315Y-74372421D01*
X9478053Y-74363181D01*
X9399133Y-74338518D01*
X9297649Y-74303022D01*
X9185693Y-74261278D01*
X9075355Y-74217874D01*
X8978729Y-74177399D01*
X8907907Y-74144438D01*
X8881649Y-74129366D01*
X8819672Y-74099234D01*
X8777810Y-74090202D01*
X8758285Y-74083729D01*
X8780910Y-74069917D01*
X8837852Y-74050797D01*
X8921281Y-74028397D01*
X9023366Y-74004747D01*
X9136274Y-73981876D01*
X9252175Y-73961814D01*
X9301616Y-73954468D01*
X9477673Y-73929549D01*
X9622008Y-73908070D01*
X9745535Y-73887766D01*
X9859169Y-73866368D01*
X9973823Y-73841608D01*
X10100413Y-73811221D01*
X10249853Y-73772937D01*
X10433056Y-73724491D01*
X10518752Y-73701620D01*
X10670807Y-73659075D01*
X10811720Y-73616093D01*
X10932631Y-73575683D01*
X11024675Y-73540855D01*
X11078992Y-73514617D01*
X11086684Y-73508795D01*
X11100712Y-73484885D01*
X11076190Y-73476255D01*
X11011043Y-73483214D01*
X10903195Y-73506071D01*
X10750570Y-73545134D01*
X10642842Y-73574741D01*
X10387709Y-73644328D01*
X10166780Y-73700193D01*
X9966246Y-73745370D01*
X9772301Y-73782896D01*
X9571138Y-73815807D01*
X9496497Y-73826793D01*
X9349891Y-73849439D01*
X9192344Y-73876339D01*
X9047845Y-73903296D01*
X8981705Y-73916824D01*
X8881028Y-73938220D01*
X8801187Y-73954844D01*
X8753720Y-73964310D01*
X8745723Y-73965614D01*
X8741655Y-73943342D01*
X8742610Y-73888746D01*
X8743218Y-73878923D01*
X8749056Y-73792232D01*
X9053308Y-73734496D01*
X8637032Y-73734496D01*
X8628731Y-73863103D01*
X8606589Y-74015660D01*
X8574182Y-74175671D01*
X8535088Y-74326640D01*
X8492886Y-74452072D01*
X8470432Y-74502654D01*
X8358573Y-74670539D01*
X8208611Y-74817293D01*
X8031368Y-74935637D01*
X7837667Y-75018291D01*
X7645679Y-75057357D01*
X7523545Y-75062279D01*
X7400515Y-75057249D01*
X7289099Y-75043843D01*
X7201808Y-75023636D01*
X7151150Y-74998204D01*
X7147971Y-74994678D01*
X7103491Y-74971743D01*
X7068840Y-74973186D01*
X7023055Y-74969814D01*
X7003213Y-74933830D01*
X6980094Y-74891966D01*
X6951619Y-74882643D01*
X6934399Y-74909291D01*
X6933767Y-74919496D01*
X6916702Y-74939275D01*
X6870510Y-74929191D01*
X6802702Y-74894647D01*
X6720785Y-74841047D01*
X6632269Y-74773794D01*
X6544663Y-74698291D01*
X6465474Y-74619942D01*
X6402212Y-74544150D01*
X6392069Y-74529682D01*
X6353143Y-74448868D01*
X6316183Y-74331155D01*
X6284035Y-74190486D01*
X6259549Y-74040805D01*
X6245574Y-73896054D01*
X6243613Y-73802943D01*
X6255350Y-73672181D01*
X6283302Y-73525982D01*
X6324246Y-73372383D01*
X6374958Y-73219423D01*
X6432212Y-73075142D01*
X6492785Y-72947577D01*
X6553452Y-72844768D01*
X6610990Y-72774752D01*
X6662172Y-72745570D01*
X6667884Y-72745194D01*
X6699253Y-72734754D01*
X6701928Y-72726124D01*
X6708311Y-72664111D01*
X6753044Y-72631650D01*
X6799050Y-72597855D01*
X6812971Y-72571178D01*
X6839544Y-72533076D01*
X6895876Y-72481739D01*
X6949200Y-72442493D01*
X7021331Y-72397040D01*
X7078608Y-72373598D01*
X7142544Y-72366947D01*
X7234650Y-72371866D01*
X7238873Y-72372201D01*
X7430883Y-72399560D01*
X7633584Y-72448895D01*
X7824795Y-72514012D01*
X7949374Y-72570556D01*
X8097501Y-72667383D01*
X8245264Y-72797828D01*
X8377191Y-72946954D01*
X8453670Y-73057477D01*
X8517799Y-73189374D01*
X8573182Y-73351404D01*
X8614234Y-73522951D01*
X8635372Y-73683396D01*
X8637032Y-73734496D01*
X9053308Y-73734496D01*
X9169890Y-73712373D01*
X9334666Y-73681274D01*
X9505257Y-73649370D01*
X9665445Y-73619674D01*
X9799011Y-73595201D01*
X9844979Y-73586898D01*
X9963786Y-73563159D01*
X10114577Y-73529454D01*
X10280431Y-73489747D01*
X10444428Y-73448005D01*
X10493327Y-73434979D01*
X10664686Y-73388723D01*
X10793296Y-73353641D01*
X10885487Y-73327594D01*
X10947587Y-73308440D01*
X10985925Y-73294040D01*
X11006829Y-73282254D01*
X11016629Y-73270941D01*
X11021653Y-73257962D01*
X11022262Y-73256110D01*
X11009026Y-73235165D01*
X10953060Y-73230915D01*
X10859412Y-73242637D01*
X10733126Y-73269611D01*
X10579250Y-73311114D01*
X10525667Y-73327144D01*
X9963629Y-73472482D01*
X9565299Y-73544549D01*
X9418984Y-73568198D01*
X9255732Y-73597295D01*
X9105110Y-73626510D01*
X9069503Y-73633927D01*
X8937754Y-73661479D01*
X8847476Y-73677608D01*
X8790410Y-73681505D01*
X8758297Y-73672365D01*
X8742878Y-73649380D01*
X8735894Y-73611743D01*
X8734645Y-73601214D01*
X8724755Y-73516494D01*
X8994632Y-73446316D01*
X9120217Y-73415895D01*
X9241953Y-73390266D01*
X9342854Y-73372819D01*
X9389479Y-73367457D01*
X9560992Y-73349839D01*
X9768899Y-73319252D01*
X10001088Y-73277989D01*
X10245445Y-73228342D01*
X10489859Y-73172606D01*
X10696730Y-73119976D01*
X10831333Y-73083325D01*
X10923597Y-73056306D01*
X10980420Y-73035825D01*
X11008695Y-73018792D01*
X11015320Y-73002114D01*
X11007189Y-72982699D01*
X11006264Y-72981188D01*
X10994989Y-72971141D01*
X10972856Y-72967180D01*
X10933890Y-72970522D01*
X10872114Y-72982383D01*
X10781552Y-73003982D01*
X10656226Y-73036535D01*
X10490161Y-73081258D01*
X10417051Y-73101174D01*
X10347642Y-73120109D01*
X10290986Y-73135038D01*
X10238662Y-73147489D01*
X10182252Y-73158991D01*
X10113335Y-73171072D01*
X10023492Y-73185263D01*
X9904303Y-73203091D01*
X9747348Y-73226086D01*
X9654288Y-73239675D01*
X9490509Y-73264791D01*
X9326483Y-73292040D01*
X9176208Y-73318951D01*
X9053684Y-73343056D01*
X8997973Y-73355465D01*
X8871629Y-73384701D01*
X8785686Y-73400304D01*
X8731438Y-73401847D01*
X8700180Y-73388901D01*
X8683207Y-73361039D01*
X8676928Y-73339691D01*
X8666606Y-73296619D01*
X8670586Y-73272102D01*
X8699358Y-73256135D01*
X8763414Y-73238714D01*
X8789824Y-73232029D01*
X8874445Y-73210079D01*
X8983632Y-73181263D01*
X9086970Y-73153640D01*
X9191762Y-73128990D01*
X9326478Y-73102330D01*
X9470534Y-73077555D01*
X9557341Y-73064597D01*
X9685471Y-73045021D01*
X9846409Y-73017687D01*
X10023266Y-72985609D01*
X10199155Y-72951802D01*
X10277211Y-72936066D01*
X10423831Y-72906755D01*
X10557394Y-72881501D01*
X10668139Y-72862039D01*
X10746303Y-72850102D01*
X10777863Y-72847129D01*
X10834181Y-72838416D01*
X10861996Y-72821470D01*
X10896220Y-72803446D01*
X10955598Y-72796044D01*
X11006614Y-72792510D01*
X11015237Y-72777381D01*
X11001836Y-72757906D01*
X10954894Y-72729326D01*
X10876099Y-72722246D01*
X10760706Y-72736825D01*
X10612537Y-72770967D01*
X10212840Y-72865073D01*
X9794978Y-72944256D01*
X9433424Y-72997246D01*
X9304986Y-73017533D01*
X9157198Y-73047387D01*
X9019130Y-73080854D01*
X9001192Y-73085780D01*
X8858204Y-73125394D01*
X8756234Y-73151624D01*
X8687414Y-73165076D01*
X8643874Y-73166356D01*
X8617745Y-73156072D01*
X8601158Y-73134830D01*
X8592608Y-73117289D01*
X8577961Y-73070597D01*
X8597742Y-73043824D01*
X8632555Y-73027884D01*
X8691214Y-73008196D01*
X8786213Y-72980263D01*
X8904414Y-72947584D01*
X9032681Y-72913659D01*
X9157878Y-72881985D01*
X9266868Y-72856064D01*
X9323757Y-72843762D01*
X9403280Y-72826223D01*
X9521884Y-72798178D01*
X9669501Y-72762175D01*
X9836067Y-72720764D01*
X10011516Y-72676496D01*
X10185781Y-72631920D01*
X10348798Y-72589585D01*
X10490499Y-72552042D01*
X10600820Y-72521839D01*
X10645880Y-72508864D01*
X10766717Y-72471415D01*
X10843656Y-72443092D01*
X10882183Y-72420904D01*
X10887786Y-72401859D01*
X10871067Y-72386105D01*
X10818680Y-72374337D01*
X10730776Y-72385761D01*
X10603295Y-72420994D01*
X10569603Y-72431979D01*
X10492965Y-72456707D01*
X10432660Y-72474781D01*
X10417051Y-72478863D01*
X10375672Y-72489223D01*
X10299630Y-72508946D01*
X10203393Y-72534271D01*
X10175509Y-72541664D01*
X10074152Y-72567916D01*
X9986887Y-72589323D01*
X9929249Y-72602104D01*
X9921255Y-72603514D01*
X9858647Y-72616707D01*
X9832266Y-72624419D01*
X9786633Y-72638852D01*
X9719888Y-72657793D01*
X9626540Y-72682673D01*
X9501095Y-72714922D01*
X9338064Y-72755970D01*
X9131953Y-72807247D01*
X9094929Y-72816418D01*
X8940912Y-72854986D01*
X8801884Y-72890631D01*
X8686130Y-72921159D01*
X8601940Y-72944381D01*
X8557600Y-72958104D01*
X8554853Y-72959229D01*
X8512271Y-72961701D01*
X8493619Y-72935117D01*
X8488748Y-72921116D01*
X8488479Y-72906918D01*
X8496754Y-72888448D01*
X8517520Y-72861637D01*
X8554721Y-72822410D01*
X8612301Y-72766695D01*
X8694206Y-72690421D01*
X8804380Y-72589515D01*
X8946769Y-72459904D01*
X9006986Y-72405150D01*
X9112952Y-72308366D01*
X9207777Y-72220956D01*
X9284076Y-72149789D01*
X9334465Y-72101734D01*
X9349183Y-72086859D01*
X9383937Y-72053187D01*
X9447301Y-71995668D01*
X9529145Y-71923397D01*
X9590724Y-71870004D01*
X9767860Y-71714886D01*
X9910170Y-71584506D01*
X10016405Y-71480131D01*
X10085318Y-71403027D01*
X10115657Y-71354459D01*
X10114373Y-71339052D01*
X10092809Y-71336921D01*
X10051575Y-71358266D01*
X9987040Y-71405878D01*
X9895575Y-71482548D01*
X9773549Y-71591067D01*
X9703038Y-71655304D01*
X9648964Y-71703067D01*
X9572921Y-71768098D01*
X9499635Y-71829446D01*
X9422634Y-71895698D01*
X9323805Y-71984320D01*
X9217686Y-72082139D01*
X9145779Y-72150053D01*
X9036170Y-72253900D01*
X8916858Y-72365418D01*
X8805573Y-72468099D01*
X8749411Y-72519155D01*
X8660369Y-72600985D01*
X8576946Y-72680372D01*
X8512665Y-72744351D01*
X8495157Y-72762925D01*
X8421155Y-72844221D01*
X8341513Y-72767193D01*
X8292954Y-72716168D01*
X8276910Y-72679839D01*
X8287496Y-72639567D01*
X8295780Y-72622334D01*
X8327973Y-72579360D01*
X8390214Y-72513113D01*
X8473409Y-72432781D01*
X8564359Y-72351099D01*
X8686325Y-72243894D01*
X8824465Y-72120152D01*
X8958157Y-71998438D01*
X9029611Y-71932280D01*
X9117604Y-71847165D01*
X9218487Y-71744851D01*
X9326520Y-71631693D01*
X9435967Y-71514046D01*
X9541088Y-71398264D01*
X9636147Y-71290702D01*
X9715404Y-71197714D01*
X9773123Y-71125655D01*
X9803565Y-71080879D01*
X9806841Y-71071532D01*
X9799275Y-71040740D01*
X9774617Y-71039278D01*
X9729920Y-71069497D01*
X9662239Y-71133746D01*
X9568631Y-71234378D01*
X9486629Y-71327121D01*
X9397867Y-71427769D01*
X9314666Y-71519192D01*
X9230975Y-71607318D01*
X9140745Y-71698079D01*
X9037926Y-71797405D01*
X8916468Y-71911226D01*
X8770321Y-72045473D01*
X8593435Y-72206075D01*
X8548770Y-72246460D01*
X8451280Y-72335788D01*
X8360402Y-72421249D01*
X8287051Y-72492453D01*
X8245735Y-72534990D01*
X8192671Y-72585722D01*
X8156439Y-72598542D01*
X8137555Y-72589387D01*
X8120241Y-72562128D01*
X8135256Y-72523769D01*
X8156704Y-72494485D01*
X8203379Y-72438850D01*
X8279092Y-72353172D01*
X8377700Y-72244128D01*
X8493063Y-72118394D01*
X8619039Y-71982645D01*
X8749485Y-71843560D01*
X8878261Y-71707812D01*
X8931812Y-71651900D01*
X9036108Y-71541113D01*
X9138891Y-71427997D01*
X9229364Y-71324681D01*
X9296730Y-71243296D01*
X9305210Y-71232381D01*
X9375519Y-71142375D01*
X9446107Y-71054883D01*
X9499981Y-70990839D01*
X9546716Y-70931082D01*
X9574555Y-70883169D01*
X9577952Y-70870068D01*
X9564220Y-70839219D01*
X9526790Y-70846584D01*
X9471593Y-70889057D01*
X9408132Y-70959057D01*
X9133997Y-71288931D01*
X8863541Y-71590354D01*
X8792636Y-71665507D01*
X8693777Y-71770386D01*
X8574307Y-71898890D01*
X8447458Y-72036691D01*
X8326465Y-72169462D01*
X8294028Y-72205349D01*
X8183819Y-72324792D01*
X8098104Y-72411805D01*
X8039126Y-72464276D01*
X8009132Y-72480091D01*
X8005895Y-72476571D01*
X8005559Y-72456833D01*
X8014710Y-72430063D01*
X8036921Y-72391239D01*
X8075763Y-72335338D01*
X8134808Y-72257338D01*
X8217629Y-72152216D01*
X8327796Y-72014950D01*
X8381359Y-71948634D01*
X8607838Y-71666619D01*
X8800772Y-71422208D01*
X8960434Y-71215024D01*
X9087096Y-71044695D01*
X9181031Y-70910845D01*
X9242511Y-70813102D01*
X9271808Y-70751089D01*
X9271367Y-70725949D01*
X9255157Y-70719122D01*
X9231903Y-70727854D01*
X9198174Y-70756025D01*
X9150537Y-70807514D01*
X9085557Y-70886202D01*
X8999802Y-70995967D01*
X8889840Y-71140689D01*
X8808364Y-71249188D01*
X8695449Y-71398087D01*
X8566975Y-71564460D01*
X8436886Y-71730421D01*
X8319126Y-71878082D01*
X8291199Y-71912560D01*
X8201486Y-72023689D01*
X8121734Y-72124057D01*
X8058178Y-72205697D01*
X8017054Y-72260639D01*
X8005936Y-72277134D01*
X7990733Y-72294491D01*
X7981786Y-72277438D01*
X7977522Y-72219724D01*
X7976536Y-72160409D01*
X7969112Y-71934200D01*
X7951428Y-71701499D01*
X7925641Y-71490518D01*
X7925046Y-71486635D01*
X7910604Y-71388132D01*
X7893669Y-71263102D01*
X7873368Y-71104805D01*
X7848826Y-70906500D01*
X7832816Y-70774723D01*
X7820308Y-70708930D01*
X7804175Y-70669424D01*
X7799364Y-70665446D01*
X7786601Y-70638431D01*
X7789204Y-70614595D01*
X7788582Y-70576276D01*
X7780146Y-70499352D01*
X7765665Y-70395156D01*
X7746903Y-70275023D01*
X7725630Y-70150288D01*
X7703611Y-70032286D01*
X7683372Y-69935684D01*
X7670778Y-69878111D01*
X7654136Y-69799693D01*
X7650267Y-69781172D01*
X7632359Y-69708568D01*
X7614433Y-69655866D01*
X7610259Y-69647689D01*
X7578296Y-69622262D01*
X7542649Y-69619913D01*
X7524315Y-69639299D01*
G04 #@! TO.C,R14*
D11*
X24603514Y-104977742D02*
X24960657Y-105227742D01*
X24603514Y-105406314D02*
X25353514Y-105406314D01*
X25353514Y-105120600D01*
X25317800Y-105049171D01*
X25282085Y-105013457D01*
X25210657Y-104977742D01*
X25103514Y-104977742D01*
X25032085Y-105013457D01*
X24996371Y-105049171D01*
X24960657Y-105120600D01*
X24960657Y-105406314D01*
X24603514Y-104263457D02*
X24603514Y-104692028D01*
X24603514Y-104477742D02*
X25353514Y-104477742D01*
X25246371Y-104549171D01*
X25174942Y-104620600D01*
X25139228Y-104692028D01*
X25103514Y-103620600D02*
X24603514Y-103620600D01*
X25389228Y-103799171D02*
X24853514Y-103977742D01*
X24853514Y-103513457D01*
G04 #@! TO.C,R13*
X17982142Y-107933685D02*
X18232142Y-107576542D01*
X18410714Y-107933685D02*
X18410714Y-107183685D01*
X18125000Y-107183685D01*
X18053571Y-107219400D01*
X18017857Y-107255114D01*
X17982142Y-107326542D01*
X17982142Y-107433685D01*
X18017857Y-107505114D01*
X18053571Y-107540828D01*
X18125000Y-107576542D01*
X18410714Y-107576542D01*
X17267857Y-107933685D02*
X17696428Y-107933685D01*
X17482142Y-107933685D02*
X17482142Y-107183685D01*
X17553571Y-107290828D01*
X17625000Y-107362257D01*
X17696428Y-107397971D01*
X17017857Y-107183685D02*
X16553571Y-107183685D01*
X16803571Y-107469400D01*
X16696428Y-107469400D01*
X16625000Y-107505114D01*
X16589285Y-107540828D01*
X16553571Y-107612257D01*
X16553571Y-107790828D01*
X16589285Y-107862257D01*
X16625000Y-107897971D01*
X16696428Y-107933685D01*
X16910714Y-107933685D01*
X16982142Y-107897971D01*
X17017857Y-107862257D01*
G04 #@! TO.C,R12*
X24349514Y-89128142D02*
X24706657Y-89378142D01*
X24349514Y-89556714D02*
X25099514Y-89556714D01*
X25099514Y-89271000D01*
X25063800Y-89199571D01*
X25028085Y-89163857D01*
X24956657Y-89128142D01*
X24849514Y-89128142D01*
X24778085Y-89163857D01*
X24742371Y-89199571D01*
X24706657Y-89271000D01*
X24706657Y-89556714D01*
X24349514Y-88413857D02*
X24349514Y-88842428D01*
X24349514Y-88628142D02*
X25099514Y-88628142D01*
X24992371Y-88699571D01*
X24920942Y-88771000D01*
X24885228Y-88842428D01*
X25028085Y-88128142D02*
X25063800Y-88092428D01*
X25099514Y-88021000D01*
X25099514Y-87842428D01*
X25063800Y-87771000D01*
X25028085Y-87735285D01*
X24956657Y-87699571D01*
X24885228Y-87699571D01*
X24778085Y-87735285D01*
X24349514Y-88163857D01*
X24349514Y-87699571D01*
G04 #@! TO.C,R11*
X17982142Y-91118885D02*
X18232142Y-90761742D01*
X18410714Y-91118885D02*
X18410714Y-90368885D01*
X18125000Y-90368885D01*
X18053571Y-90404600D01*
X18017857Y-90440314D01*
X17982142Y-90511742D01*
X17982142Y-90618885D01*
X18017857Y-90690314D01*
X18053571Y-90726028D01*
X18125000Y-90761742D01*
X18410714Y-90761742D01*
X17267857Y-91118885D02*
X17696428Y-91118885D01*
X17482142Y-91118885D02*
X17482142Y-90368885D01*
X17553571Y-90476028D01*
X17625000Y-90547457D01*
X17696428Y-90583171D01*
X16553571Y-91118885D02*
X16982142Y-91118885D01*
X16767857Y-91118885D02*
X16767857Y-90368885D01*
X16839285Y-90476028D01*
X16910714Y-90547457D01*
X16982142Y-90583171D01*
G04 #@! TO.C,R10*
X24552714Y-73126142D02*
X24909857Y-73376142D01*
X24552714Y-73554714D02*
X25302714Y-73554714D01*
X25302714Y-73269000D01*
X25267000Y-73197571D01*
X25231285Y-73161857D01*
X25159857Y-73126142D01*
X25052714Y-73126142D01*
X24981285Y-73161857D01*
X24945571Y-73197571D01*
X24909857Y-73269000D01*
X24909857Y-73554714D01*
X24552714Y-72411857D02*
X24552714Y-72840428D01*
X24552714Y-72626142D02*
X25302714Y-72626142D01*
X25195571Y-72697571D01*
X25124142Y-72769000D01*
X25088428Y-72840428D01*
X25302714Y-71947571D02*
X25302714Y-71876142D01*
X25267000Y-71804714D01*
X25231285Y-71769000D01*
X25159857Y-71733285D01*
X25017000Y-71697571D01*
X24838428Y-71697571D01*
X24695571Y-71733285D01*
X24624142Y-71769000D01*
X24588428Y-71804714D01*
X24552714Y-71876142D01*
X24552714Y-71947571D01*
X24588428Y-72019000D01*
X24624142Y-72054714D01*
X24695571Y-72090428D01*
X24838428Y-72126142D01*
X25017000Y-72126142D01*
X25159857Y-72090428D01*
X25231285Y-72054714D01*
X25267000Y-72019000D01*
X25302714Y-71947571D01*
G04 #@! TO.C,R9*
X17705000Y-75675685D02*
X17955000Y-75318542D01*
X18133571Y-75675685D02*
X18133571Y-74925685D01*
X17847857Y-74925685D01*
X17776428Y-74961400D01*
X17740714Y-74997114D01*
X17705000Y-75068542D01*
X17705000Y-75175685D01*
X17740714Y-75247114D01*
X17776428Y-75282828D01*
X17847857Y-75318542D01*
X18133571Y-75318542D01*
X17347857Y-75675685D02*
X17205000Y-75675685D01*
X17133571Y-75639971D01*
X17097857Y-75604257D01*
X17026428Y-75497114D01*
X16990714Y-75354257D01*
X16990714Y-75068542D01*
X17026428Y-74997114D01*
X17062142Y-74961400D01*
X17133571Y-74925685D01*
X17276428Y-74925685D01*
X17347857Y-74961400D01*
X17383571Y-74997114D01*
X17419285Y-75068542D01*
X17419285Y-75247114D01*
X17383571Y-75318542D01*
X17347857Y-75354257D01*
X17276428Y-75389971D01*
X17133571Y-75389971D01*
X17062142Y-75354257D01*
X17026428Y-75318542D01*
X16990714Y-75247114D01*
G04 #@! TO.C,R8*
X24603514Y-56767000D02*
X24960657Y-57017000D01*
X24603514Y-57195571D02*
X25353514Y-57195571D01*
X25353514Y-56909857D01*
X25317800Y-56838428D01*
X25282085Y-56802714D01*
X25210657Y-56767000D01*
X25103514Y-56767000D01*
X25032085Y-56802714D01*
X24996371Y-56838428D01*
X24960657Y-56909857D01*
X24960657Y-57195571D01*
X25032085Y-56338428D02*
X25067800Y-56409857D01*
X25103514Y-56445571D01*
X25174942Y-56481285D01*
X25210657Y-56481285D01*
X25282085Y-56445571D01*
X25317800Y-56409857D01*
X25353514Y-56338428D01*
X25353514Y-56195571D01*
X25317800Y-56124142D01*
X25282085Y-56088428D01*
X25210657Y-56052714D01*
X25174942Y-56052714D01*
X25103514Y-56088428D01*
X25067800Y-56124142D01*
X25032085Y-56195571D01*
X25032085Y-56338428D01*
X24996371Y-56409857D01*
X24960657Y-56445571D01*
X24889228Y-56481285D01*
X24746371Y-56481285D01*
X24674942Y-56445571D01*
X24639228Y-56409857D01*
X24603514Y-56338428D01*
X24603514Y-56195571D01*
X24639228Y-56124142D01*
X24674942Y-56088428D01*
X24746371Y-56052714D01*
X24889228Y-56052714D01*
X24960657Y-56088428D01*
X24996371Y-56124142D01*
X25032085Y-56195571D01*
G04 #@! TO.C,R7*
X17625000Y-59673685D02*
X17875000Y-59316542D01*
X18053571Y-59673685D02*
X18053571Y-58923685D01*
X17767857Y-58923685D01*
X17696428Y-58959400D01*
X17660714Y-58995114D01*
X17625000Y-59066542D01*
X17625000Y-59173685D01*
X17660714Y-59245114D01*
X17696428Y-59280828D01*
X17767857Y-59316542D01*
X18053571Y-59316542D01*
X17375000Y-58923685D02*
X16875000Y-58923685D01*
X17196428Y-59673685D01*
G04 #@! TO.C,R6*
X24451114Y-40561800D02*
X24808257Y-40811800D01*
X24451114Y-40990371D02*
X25201114Y-40990371D01*
X25201114Y-40704657D01*
X25165400Y-40633228D01*
X25129685Y-40597514D01*
X25058257Y-40561800D01*
X24951114Y-40561800D01*
X24879685Y-40597514D01*
X24843971Y-40633228D01*
X24808257Y-40704657D01*
X24808257Y-40990371D01*
X25201114Y-39918942D02*
X25201114Y-40061800D01*
X25165400Y-40133228D01*
X25129685Y-40168942D01*
X25022542Y-40240371D01*
X24879685Y-40276085D01*
X24593971Y-40276085D01*
X24522542Y-40240371D01*
X24486828Y-40204657D01*
X24451114Y-40133228D01*
X24451114Y-39990371D01*
X24486828Y-39918942D01*
X24522542Y-39883228D01*
X24593971Y-39847514D01*
X24772542Y-39847514D01*
X24843971Y-39883228D01*
X24879685Y-39918942D01*
X24915400Y-39990371D01*
X24915400Y-40133228D01*
X24879685Y-40204657D01*
X24843971Y-40240371D01*
X24772542Y-40276085D01*
G04 #@! TO.C,R5*
X17625000Y-43925685D02*
X17875000Y-43568542D01*
X18053571Y-43925685D02*
X18053571Y-43175685D01*
X17767857Y-43175685D01*
X17696428Y-43211400D01*
X17660714Y-43247114D01*
X17625000Y-43318542D01*
X17625000Y-43425685D01*
X17660714Y-43497114D01*
X17696428Y-43532828D01*
X17767857Y-43568542D01*
X18053571Y-43568542D01*
X16946428Y-43175685D02*
X17303571Y-43175685D01*
X17339285Y-43532828D01*
X17303571Y-43497114D01*
X17232142Y-43461400D01*
X17053571Y-43461400D01*
X16982142Y-43497114D01*
X16946428Y-43532828D01*
X16910714Y-43604257D01*
X16910714Y-43782828D01*
X16946428Y-43854257D01*
X16982142Y-43889971D01*
X17053571Y-43925685D01*
X17232142Y-43925685D01*
X17303571Y-43889971D01*
X17339285Y-43854257D01*
G04 #@! TO.C,R3*
X17625000Y-27974485D02*
X17875000Y-27617342D01*
X18053571Y-27974485D02*
X18053571Y-27224485D01*
X17767857Y-27224485D01*
X17696428Y-27260200D01*
X17660714Y-27295914D01*
X17625000Y-27367342D01*
X17625000Y-27474485D01*
X17660714Y-27545914D01*
X17696428Y-27581628D01*
X17767857Y-27617342D01*
X18053571Y-27617342D01*
X17375000Y-27224485D02*
X16910714Y-27224485D01*
X17160714Y-27510200D01*
X17053571Y-27510200D01*
X16982142Y-27545914D01*
X16946428Y-27581628D01*
X16910714Y-27653057D01*
X16910714Y-27831628D01*
X16946428Y-27903057D01*
X16982142Y-27938771D01*
X17053571Y-27974485D01*
X17267857Y-27974485D01*
X17339285Y-27938771D01*
X17375000Y-27903057D01*
G04 #@! TO.C,R2*
X24603514Y-8456200D02*
X24960657Y-8706200D01*
X24603514Y-8884771D02*
X25353514Y-8884771D01*
X25353514Y-8599057D01*
X25317800Y-8527628D01*
X25282085Y-8491914D01*
X25210657Y-8456200D01*
X25103514Y-8456200D01*
X25032085Y-8491914D01*
X24996371Y-8527628D01*
X24960657Y-8599057D01*
X24960657Y-8884771D01*
X25282085Y-8170485D02*
X25317800Y-8134771D01*
X25353514Y-8063342D01*
X25353514Y-7884771D01*
X25317800Y-7813342D01*
X25282085Y-7777628D01*
X25210657Y-7741914D01*
X25139228Y-7741914D01*
X25032085Y-7777628D01*
X24603514Y-8206200D01*
X24603514Y-7741914D01*
G04 #@! TO.C,R1*
X17625000Y-11718485D02*
X17875000Y-11361342D01*
X18053571Y-11718485D02*
X18053571Y-10968485D01*
X17767857Y-10968485D01*
X17696428Y-11004200D01*
X17660714Y-11039914D01*
X17625000Y-11111342D01*
X17625000Y-11218485D01*
X17660714Y-11289914D01*
X17696428Y-11325628D01*
X17767857Y-11361342D01*
X18053571Y-11361342D01*
X16910714Y-11718485D02*
X17339285Y-11718485D01*
X17125000Y-11718485D02*
X17125000Y-10968485D01*
X17196428Y-11075628D01*
X17267857Y-11147057D01*
X17339285Y-11182771D01*
G04 #@! TO.C,R4*
X24400314Y-24458200D02*
X24757457Y-24708200D01*
X24400314Y-24886771D02*
X25150314Y-24886771D01*
X25150314Y-24601057D01*
X25114600Y-24529628D01*
X25078885Y-24493914D01*
X25007457Y-24458200D01*
X24900314Y-24458200D01*
X24828885Y-24493914D01*
X24793171Y-24529628D01*
X24757457Y-24601057D01*
X24757457Y-24886771D01*
X24900314Y-23815342D02*
X24400314Y-23815342D01*
X25186028Y-23993914D02*
X24650314Y-24172485D01*
X24650314Y-23708200D01*
G04 #@! TD*
M02*
