G04 #@! TF.GenerationSoftware,KiCad,Pcbnew,(5.0.0-rc2-47-g52fceb3)*
G04 #@! TF.CreationDate,2018-07-16T10:42:13-05:00*
G04 #@! TF.ProjectId,nearness,6E6561726E6573732E6B696361645F70,rev?*
G04 #@! TF.SameCoordinates,Original*
G04 #@! TF.FileFunction,Copper,L2,Bot,Signal*
G04 #@! TF.FilePolarity,Positive*
%FSLAX46Y46*%
G04 Gerber Fmt 4.6, Leading zero omitted, Abs format (unit mm)*
G04 Created by KiCad (PCBNEW (5.0.0-rc2-47-g52fceb3)) date Monday, July 16, 2018 at 10:42:13 AM*
%MOMM*%
%LPD*%
G01*
G04 APERTURE LIST*
G04 #@! TA.AperFunction,ComponentPad*
%ADD10C,1.800000*%
G04 #@! TD*
G04 #@! TA.AperFunction,WasherPad*
%ADD11C,3.000000*%
G04 #@! TD*
G04 #@! TA.AperFunction,SMDPad,CuDef*
%ADD12R,1.300000X1.500000*%
G04 #@! TD*
G04 #@! TA.AperFunction,SMDPad,CuDef*
%ADD13R,1.500000X1.300000*%
G04 #@! TD*
G04 #@! TA.AperFunction,ComponentPad*
%ADD14R,1.700000X1.700000*%
G04 #@! TD*
G04 #@! TA.AperFunction,ComponentPad*
%ADD15O,1.700000X1.700000*%
G04 #@! TD*
G04 #@! TA.AperFunction,ComponentPad*
%ADD16C,3.000000*%
G04 #@! TD*
G04 #@! TA.AperFunction,ComponentPad*
%ADD17C,2.150000*%
G04 #@! TD*
G04 #@! TA.AperFunction,ViaPad*
%ADD18C,0.800000*%
G04 #@! TD*
G04 #@! TA.AperFunction,Conductor*
%ADD19C,0.500000*%
G04 #@! TD*
G04 #@! TA.AperFunction,Conductor*
%ADD20C,0.254000*%
G04 #@! TD*
G04 APERTURE END LIST*
D10*
G04 #@! TO.P,RV1,1*
G04 #@! TO.N,GND*
X20001900Y-12814380D03*
G04 #@! TO.P,RV1,2*
G04 #@! TO.N,Net-(R1-Pad1)*
X22501900Y-12814380D03*
G04 #@! TO.P,RV1,3*
G04 #@! TO.N,Net-(J2-Pad3)*
X25001900Y-12814380D03*
D11*
G04 #@! TO.P,RV1,*
G04 #@! TO.N,*
X18101900Y-5814380D03*
X26901900Y-5814380D03*
G04 #@! TD*
D10*
G04 #@! TO.P,RV2,1*
G04 #@! TO.N,GND*
X20001900Y-28795380D03*
G04 #@! TO.P,RV2,2*
G04 #@! TO.N,Net-(R3-Pad1)*
X22501900Y-28795380D03*
G04 #@! TO.P,RV2,3*
G04 #@! TO.N,Net-(J3-Pad3)*
X25001900Y-28795380D03*
D11*
G04 #@! TO.P,RV2,*
G04 #@! TO.N,*
X18101900Y-21795380D03*
X26901900Y-21795380D03*
G04 #@! TD*
D10*
G04 #@! TO.P,RV3,1*
G04 #@! TO.N,GND*
X20001900Y-44776380D03*
G04 #@! TO.P,RV3,2*
G04 #@! TO.N,Net-(R5-Pad1)*
X22501900Y-44776380D03*
G04 #@! TO.P,RV3,3*
G04 #@! TO.N,Net-(J4-Pad3)*
X25001900Y-44776380D03*
D11*
G04 #@! TO.P,RV3,*
G04 #@! TO.N,*
X18101900Y-37776380D03*
X26901900Y-37776380D03*
G04 #@! TD*
D10*
G04 #@! TO.P,RV4,1*
G04 #@! TO.N,GND*
X20001900Y-60757380D03*
G04 #@! TO.P,RV4,2*
G04 #@! TO.N,Net-(R7-Pad1)*
X22501900Y-60757380D03*
G04 #@! TO.P,RV4,3*
G04 #@! TO.N,Net-(J5-Pad3)*
X25001900Y-60757380D03*
D11*
G04 #@! TO.P,RV4,*
G04 #@! TO.N,*
X18101900Y-53757380D03*
X26901900Y-53757380D03*
G04 #@! TD*
D10*
G04 #@! TO.P,RV5,1*
G04 #@! TO.N,GND*
X20001900Y-76738380D03*
G04 #@! TO.P,RV5,2*
G04 #@! TO.N,Net-(R10-Pad1)*
X22501900Y-76738380D03*
G04 #@! TO.P,RV5,3*
G04 #@! TO.N,Net-(J6-Pad3)*
X25001900Y-76738380D03*
D11*
G04 #@! TO.P,RV5,*
G04 #@! TO.N,*
X18101900Y-69738380D03*
X26901900Y-69738380D03*
G04 #@! TD*
D10*
G04 #@! TO.P,RV6,1*
G04 #@! TO.N,GND*
X20001900Y-92720380D03*
G04 #@! TO.P,RV6,2*
G04 #@! TO.N,Net-(R11-Pad1)*
X22501900Y-92720380D03*
G04 #@! TO.P,RV6,3*
G04 #@! TO.N,Net-(J7-Pad3)*
X25001900Y-92720380D03*
D11*
G04 #@! TO.P,RV6,*
G04 #@! TO.N,*
X18101900Y-85720380D03*
X26901900Y-85720380D03*
G04 #@! TD*
D10*
G04 #@! TO.P,RV7,1*
G04 #@! TO.N,GND*
X20001900Y-108681380D03*
G04 #@! TO.P,RV7,2*
G04 #@! TO.N,Net-(R13-Pad1)*
X22501900Y-108681380D03*
G04 #@! TO.P,RV7,3*
G04 #@! TO.N,Net-(J8-Pad3)*
X25001900Y-108681380D03*
D11*
G04 #@! TO.P,RV7,*
G04 #@! TO.N,*
X18101900Y-101681380D03*
X26901900Y-101681380D03*
G04 #@! TD*
D12*
G04 #@! TO.P,R14,1*
G04 #@! TO.N,Net-(R13-Pad1)*
X23418800Y-105845600D03*
G04 #@! TO.P,R14,2*
G04 #@! TO.N,Net-(J12-Pad1)*
X23418800Y-103145600D03*
G04 #@! TD*
D13*
G04 #@! TO.P,R13,2*
G04 #@! TO.N,Net-(J11-Pad1)*
X16150000Y-106070400D03*
G04 #@! TO.P,R13,1*
G04 #@! TO.N,Net-(R13-Pad1)*
X18850000Y-106070400D03*
G04 #@! TD*
D12*
G04 #@! TO.P,R12,1*
G04 #@! TO.N,Net-(R11-Pad1)*
X23164800Y-89996000D03*
G04 #@! TO.P,R12,2*
G04 #@! TO.N,Net-(J12-Pad1)*
X23164800Y-87296000D03*
G04 #@! TD*
D13*
G04 #@! TO.P,R11,2*
G04 #@! TO.N,Net-(J11-Pad1)*
X16150000Y-89255600D03*
G04 #@! TO.P,R11,1*
G04 #@! TO.N,Net-(R11-Pad1)*
X18850000Y-89255600D03*
G04 #@! TD*
D12*
G04 #@! TO.P,R10,1*
G04 #@! TO.N,Net-(R10-Pad1)*
X23368000Y-73994000D03*
G04 #@! TO.P,R10,2*
G04 #@! TO.N,Net-(J12-Pad1)*
X23368000Y-71294000D03*
G04 #@! TD*
D13*
G04 #@! TO.P,R9,2*
G04 #@! TO.N,Net-(J11-Pad1)*
X16150000Y-73812400D03*
G04 #@! TO.P,R9,1*
G04 #@! TO.N,Net-(R10-Pad1)*
X18850000Y-73812400D03*
G04 #@! TD*
D12*
G04 #@! TO.P,R8,1*
G04 #@! TO.N,Net-(R7-Pad1)*
X23418800Y-57992000D03*
G04 #@! TO.P,R8,2*
G04 #@! TO.N,Net-(J12-Pad1)*
X23418800Y-55292000D03*
G04 #@! TD*
D13*
G04 #@! TO.P,R7,2*
G04 #@! TO.N,Net-(J11-Pad1)*
X16150000Y-57810400D03*
G04 #@! TO.P,R7,1*
G04 #@! TO.N,Net-(R7-Pad1)*
X18850000Y-57810400D03*
G04 #@! TD*
D12*
G04 #@! TO.P,R6,1*
G04 #@! TO.N,Net-(R5-Pad1)*
X23266400Y-41786800D03*
G04 #@! TO.P,R6,2*
G04 #@! TO.N,Net-(J12-Pad1)*
X23266400Y-39086800D03*
G04 #@! TD*
D13*
G04 #@! TO.P,R5,2*
G04 #@! TO.N,Net-(J11-Pad1)*
X16150000Y-42062400D03*
G04 #@! TO.P,R5,1*
G04 #@! TO.N,Net-(R5-Pad1)*
X18850000Y-42062400D03*
G04 #@! TD*
G04 #@! TO.P,R3,2*
G04 #@! TO.N,Net-(J11-Pad1)*
X16150000Y-26111200D03*
G04 #@! TO.P,R3,1*
G04 #@! TO.N,Net-(R3-Pad1)*
X18850000Y-26111200D03*
G04 #@! TD*
D12*
G04 #@! TO.P,R2,1*
G04 #@! TO.N,Net-(R1-Pad1)*
X23418800Y-9681200D03*
G04 #@! TO.P,R2,2*
G04 #@! TO.N,Net-(J12-Pad1)*
X23418800Y-6981200D03*
G04 #@! TD*
D13*
G04 #@! TO.P,R1,2*
G04 #@! TO.N,Net-(J11-Pad1)*
X16150000Y-9855200D03*
G04 #@! TO.P,R1,1*
G04 #@! TO.N,Net-(R1-Pad1)*
X18850000Y-9855200D03*
G04 #@! TD*
D12*
G04 #@! TO.P,R4,2*
G04 #@! TO.N,Net-(J12-Pad1)*
X23215600Y-22983200D03*
G04 #@! TO.P,R4,1*
G04 #@! TO.N,Net-(R3-Pad1)*
X23215600Y-25683200D03*
G04 #@! TD*
D14*
G04 #@! TO.P,J12,1*
G04 #@! TO.N,Net-(J12-Pad1)*
X3000000Y-97445000D03*
D15*
G04 #@! TO.P,J12,2*
G04 #@! TO.N,GND*
X5540000Y-97445000D03*
G04 #@! TO.P,J12,3*
X8080000Y-97445000D03*
G04 #@! TO.P,J12,4*
X10620000Y-97445000D03*
G04 #@! TO.P,J12,5*
G04 #@! TO.N,Net-(J12-Pad5)*
X13160000Y-97445000D03*
G04 #@! TD*
G04 #@! TO.P,J11,5*
G04 #@! TO.N,Net-(J1-Pad3)*
X13160000Y-13000000D03*
G04 #@! TO.P,J11,4*
G04 #@! TO.N,GND*
X10620000Y-13000000D03*
G04 #@! TO.P,J11,3*
X8080000Y-13000000D03*
G04 #@! TO.P,J11,2*
X5540000Y-13000000D03*
D14*
G04 #@! TO.P,J11,1*
G04 #@! TO.N,Net-(J11-Pad1)*
X3000000Y-13000000D03*
G04 #@! TD*
D16*
G04 #@! TO.P,J6,*
G04 #@! TO.N,*
X7500000Y-67065000D03*
D17*
G04 #@! TO.P,J6,3*
G04 #@! TO.N,Net-(J6-Pad3)*
X2580000Y-67065000D03*
G04 #@! TO.P,J6,2*
G04 #@! TO.N,GND*
X10880000Y-67065000D03*
D10*
G04 #@! TO.P,J6,1*
X13596000Y-67065000D03*
G04 #@! TD*
D16*
G04 #@! TO.P,J5,*
G04 #@! TO.N,*
X7622000Y-55000000D03*
D17*
G04 #@! TO.P,J5,3*
G04 #@! TO.N,Net-(J5-Pad3)*
X2702000Y-55000000D03*
G04 #@! TO.P,J5,2*
G04 #@! TO.N,GND*
X11002000Y-55000000D03*
D10*
G04 #@! TO.P,J5,1*
X13718000Y-55000000D03*
G04 #@! TD*
D16*
G04 #@! TO.P,J4,*
G04 #@! TO.N,*
X7500000Y-42935000D03*
D17*
G04 #@! TO.P,J4,3*
G04 #@! TO.N,Net-(J4-Pad3)*
X2580000Y-42935000D03*
G04 #@! TO.P,J4,2*
G04 #@! TO.N,GND*
X10880000Y-42935000D03*
D10*
G04 #@! TO.P,J4,1*
X13596000Y-42935000D03*
G04 #@! TD*
D16*
G04 #@! TO.P,J3,*
G04 #@! TO.N,*
X7500000Y-30870000D03*
D17*
G04 #@! TO.P,J3,3*
G04 #@! TO.N,Net-(J3-Pad3)*
X2580000Y-30870000D03*
G04 #@! TO.P,J3,2*
G04 #@! TO.N,GND*
X10880000Y-30870000D03*
D10*
G04 #@! TO.P,J3,1*
X13596000Y-30870000D03*
G04 #@! TD*
D16*
G04 #@! TO.P,J2,*
G04 #@! TO.N,*
X7500000Y-18805000D03*
D17*
G04 #@! TO.P,J2,3*
G04 #@! TO.N,Net-(J2-Pad3)*
X2580000Y-18805000D03*
G04 #@! TO.P,J2,2*
G04 #@! TO.N,GND*
X10880000Y-18805000D03*
D10*
G04 #@! TO.P,J2,1*
X13596000Y-18805000D03*
G04 #@! TD*
D16*
G04 #@! TO.P,J1,*
G04 #@! TO.N,*
X7500000Y-6740000D03*
D17*
G04 #@! TO.P,J1,3*
G04 #@! TO.N,Net-(J1-Pad3)*
X2580000Y-6740000D03*
G04 #@! TO.P,J1,2*
G04 #@! TO.N,Net-(J1-Pad2)*
X10880000Y-6740000D03*
D10*
G04 #@! TO.P,J1,1*
G04 #@! TO.N,GND*
X13596000Y-6740000D03*
G04 #@! TD*
D16*
G04 #@! TO.P,J7,*
G04 #@! TO.N,*
X7500000Y-79130000D03*
D17*
G04 #@! TO.P,J7,3*
G04 #@! TO.N,Net-(J7-Pad3)*
X2580000Y-79130000D03*
G04 #@! TO.P,J7,2*
G04 #@! TO.N,GND*
X10880000Y-79130000D03*
D10*
G04 #@! TO.P,J7,1*
X13596000Y-79130000D03*
G04 #@! TD*
D16*
G04 #@! TO.P,J8,*
G04 #@! TO.N,*
X7500000Y-91195000D03*
D17*
G04 #@! TO.P,J8,3*
G04 #@! TO.N,Net-(J8-Pad3)*
X2580000Y-91195000D03*
G04 #@! TO.P,J8,2*
G04 #@! TO.N,GND*
X10880000Y-91195000D03*
D10*
G04 #@! TO.P,J8,1*
X13596000Y-91195000D03*
G04 #@! TD*
D16*
G04 #@! TO.P,J9,*
G04 #@! TO.N,*
X7500000Y-103260000D03*
D17*
G04 #@! TO.P,J9,3*
G04 #@! TO.N,Net-(J12-Pad5)*
X2580000Y-103260000D03*
G04 #@! TO.P,J9,2*
G04 #@! TO.N,Net-(J9-Pad2)*
X10880000Y-103260000D03*
D10*
G04 #@! TO.P,J9,1*
G04 #@! TO.N,GND*
X13596000Y-103260000D03*
G04 #@! TD*
D18*
G04 #@! TO.N,Net-(J12-Pad1)*
X17018000Y-99110800D03*
G04 #@! TD*
D19*
G04 #@! TO.N,Net-(R13-Pad1)*
X19890920Y-106070400D02*
X22501900Y-108681380D01*
X18850000Y-106070400D02*
X19890920Y-106070400D01*
X23418800Y-107764480D02*
X22501900Y-108681380D01*
X23418800Y-105845600D02*
X23418800Y-107764480D01*
G04 #@! TO.N,Net-(R11-Pad1)*
X21601901Y-91820381D02*
X22501900Y-92720380D01*
X19037120Y-89255600D02*
X21601901Y-91820381D01*
X18850000Y-89255600D02*
X19037120Y-89255600D01*
X23164800Y-92057480D02*
X22501900Y-92720380D01*
X23164800Y-89996000D02*
X23164800Y-92057480D01*
G04 #@! TO.N,Net-(R10-Pad1)*
X22501900Y-76214300D02*
X22501900Y-76738380D01*
X20100000Y-73812400D02*
X22501900Y-76214300D01*
X18850000Y-73812400D02*
X20100000Y-73812400D01*
X23368000Y-75872280D02*
X22501900Y-76738380D01*
X23368000Y-73994000D02*
X23368000Y-75872280D01*
G04 #@! TO.N,Net-(R7-Pad1)*
X22501900Y-60212300D02*
X22501900Y-60757380D01*
X20100000Y-57810400D02*
X22501900Y-60212300D01*
X18850000Y-57810400D02*
X20100000Y-57810400D01*
X23418800Y-59840480D02*
X22501900Y-60757380D01*
X23418800Y-57992000D02*
X23418800Y-59840480D01*
G04 #@! TO.N,Net-(R5-Pad1)*
X19787920Y-42062400D02*
X22501900Y-44776380D01*
X18850000Y-42062400D02*
X19787920Y-42062400D01*
X23266400Y-44011880D02*
X22501900Y-44776380D01*
X23266400Y-41786800D02*
X23266400Y-44011880D01*
G04 #@! TO.N,Net-(R3-Pad1)*
X19817720Y-26111200D02*
X22501900Y-28795380D01*
X18850000Y-26111200D02*
X19817720Y-26111200D01*
X23215600Y-28081680D02*
X22501900Y-28795380D01*
X23215600Y-25683200D02*
X23215600Y-28081680D01*
G04 #@! TO.N,Net-(R1-Pad1)*
X22501900Y-12257100D02*
X22501900Y-12814380D01*
X20100000Y-9855200D02*
X22501900Y-12257100D01*
X18850000Y-9855200D02*
X20100000Y-9855200D01*
X23418800Y-11897480D02*
X22501900Y-12814380D01*
X23418800Y-9681200D02*
X23418800Y-11897480D01*
G04 #@! TO.N,Net-(J12-Pad5)*
X2702000Y-103260000D02*
X5936800Y-100025200D01*
X10579800Y-100025200D02*
X13160000Y-97445000D01*
X5936800Y-100025200D02*
X10579800Y-100025200D01*
G04 #@! TO.N,Net-(J12-Pad1)*
X24568800Y-6981200D02*
X26771600Y-9184000D01*
X23418800Y-6981200D02*
X24568800Y-6981200D01*
X23215600Y-21733200D02*
X23215600Y-22983200D01*
X26771600Y-18177200D02*
X23215600Y-21733200D01*
X26771600Y-9184000D02*
X26771600Y-18177200D01*
X23215600Y-23083200D02*
X27228800Y-27096400D01*
X23215600Y-22983200D02*
X23215600Y-23083200D01*
X27228800Y-33874400D02*
X23266400Y-37836800D01*
X23266400Y-37836800D02*
X23266400Y-39086800D01*
X27228800Y-27096400D02*
X27228800Y-33874400D01*
X24416400Y-39086800D02*
X26670000Y-41340400D01*
X23266400Y-39086800D02*
X24416400Y-39086800D01*
X23418800Y-54042000D02*
X23418800Y-55292000D01*
X26670000Y-50790800D02*
X23418800Y-54042000D01*
X26670000Y-41340400D02*
X26670000Y-50790800D01*
X23418800Y-55392000D02*
X26822400Y-58795600D01*
X23418800Y-55292000D02*
X23418800Y-55392000D01*
X23368000Y-70044000D02*
X23368000Y-71294000D01*
X26822400Y-66589600D02*
X23368000Y-70044000D01*
X26822400Y-58795600D02*
X26822400Y-66589600D01*
X24518000Y-71294000D02*
X26822400Y-73598400D01*
X23368000Y-71294000D02*
X24518000Y-71294000D01*
X23164800Y-86046000D02*
X23164800Y-87296000D01*
X26822400Y-82388400D02*
X23164800Y-86046000D01*
X26822400Y-73598400D02*
X26822400Y-82388400D01*
X24314800Y-87296000D02*
X27228800Y-90210000D01*
X23164800Y-87296000D02*
X24314800Y-87296000D01*
X23418800Y-101895600D02*
X23418800Y-103145600D01*
X27228800Y-98085600D02*
X23418800Y-101895600D01*
X27228800Y-90210000D02*
X27228800Y-98085600D01*
X23418800Y-103045600D02*
X19534800Y-99161600D01*
X23418800Y-103145600D02*
X23418800Y-103045600D01*
X17068800Y-99161600D02*
X17018000Y-99110800D01*
X19534800Y-99161600D02*
X17068800Y-99161600D01*
G04 #@! TO.N,Net-(J11-Pad1)*
X3000000Y-13000000D02*
X3000000Y-11650000D01*
X3000000Y-11650000D02*
X5607600Y-9042400D01*
X5607600Y-9042400D02*
X14122400Y-9042400D01*
X14900000Y-9855200D02*
X16150000Y-9855200D01*
X14122400Y-9077600D02*
X14900000Y-9855200D01*
X14122400Y-9042400D02*
X14122400Y-9077600D01*
X16150000Y-9855200D02*
X16150000Y-20375200D01*
X16150000Y-20375200D02*
X15544800Y-20980400D01*
X15544800Y-20980400D02*
X15544800Y-23164800D01*
X16150000Y-23770000D02*
X16150000Y-26111200D01*
X15544800Y-23164800D02*
X16150000Y-23770000D01*
X16150000Y-26111200D02*
X16150000Y-35666000D01*
X16150000Y-35666000D02*
X15392400Y-36423600D01*
X15392400Y-36423600D02*
X15392400Y-39370000D01*
X16150000Y-40127600D02*
X16150000Y-42062400D01*
X15392400Y-39370000D02*
X16150000Y-40127600D01*
X16150000Y-43212400D02*
X16154400Y-43216800D01*
X16150000Y-42062400D02*
X16150000Y-43212400D01*
X16154400Y-43216800D02*
X16154400Y-51663600D01*
X16154400Y-51663600D02*
X15443200Y-52374800D01*
X15443200Y-52374800D02*
X15443200Y-55321200D01*
X16150000Y-56028000D02*
X16150000Y-57810400D01*
X15443200Y-55321200D02*
X16150000Y-56028000D01*
X16150000Y-58960400D02*
X16154400Y-58964800D01*
X16150000Y-57810400D02*
X16150000Y-58960400D01*
X16154400Y-58964800D02*
X16154400Y-67665600D01*
X16154400Y-67665600D02*
X15290800Y-68529200D01*
X15290800Y-68529200D02*
X15290800Y-71170800D01*
X16150000Y-72030000D02*
X16150000Y-73812400D01*
X15290800Y-71170800D02*
X16150000Y-72030000D01*
X16150000Y-73812400D02*
X16150000Y-83214800D01*
X16150000Y-83214800D02*
X14986000Y-84378800D01*
X14986000Y-84378800D02*
X14986000Y-86715600D01*
X16150000Y-87879600D02*
X16150000Y-89255600D01*
X14986000Y-86715600D02*
X16150000Y-87879600D01*
X16150000Y-104034000D02*
X16150000Y-106070400D01*
X15494000Y-91897200D02*
X15494000Y-103378000D01*
X15494000Y-103378000D02*
X16150000Y-104034000D01*
X16150000Y-91241200D02*
X15494000Y-91897200D01*
X16150000Y-89255600D02*
X16150000Y-91241200D01*
G04 #@! TD*
D20*
G04 #@! TO.N,GND*
G36*
X14609001Y-102067391D02*
X14496553Y-102179839D01*
X14410148Y-101923357D01*
X13836664Y-101713542D01*
X13226540Y-101739161D01*
X12781852Y-101923357D01*
X12695446Y-102179841D01*
X13596000Y-103080395D01*
X13610143Y-103066253D01*
X13789748Y-103245858D01*
X13775605Y-103260000D01*
X14676159Y-104160554D01*
X14932643Y-104074148D01*
X14934231Y-104069809D01*
X15265000Y-104400579D01*
X15265000Y-104799813D01*
X15152235Y-104822243D01*
X14942191Y-104962591D01*
X14801843Y-105172635D01*
X14752560Y-105420400D01*
X14752560Y-106720400D01*
X14801843Y-106968165D01*
X14942191Y-107178209D01*
X15152235Y-107318557D01*
X15400000Y-107367840D01*
X16900000Y-107367840D01*
X17147765Y-107318557D01*
X17357809Y-107178209D01*
X17498157Y-106968165D01*
X17500000Y-106958900D01*
X17501843Y-106968165D01*
X17642191Y-107178209D01*
X17852235Y-107318557D01*
X18100000Y-107367840D01*
X19179969Y-107367840D01*
X19101346Y-107601221D01*
X20001900Y-108501775D01*
X20016043Y-108487633D01*
X20195648Y-108667238D01*
X20181505Y-108681380D01*
X20195648Y-108695523D01*
X20016043Y-108875128D01*
X20001900Y-108860985D01*
X19987758Y-108875128D01*
X19808153Y-108695523D01*
X19822295Y-108681380D01*
X18921741Y-107780826D01*
X18665257Y-107867232D01*
X18455442Y-108440716D01*
X18481061Y-109050840D01*
X18590480Y-109315000D01*
X1685000Y-109315000D01*
X1685000Y-104740169D01*
X2239860Y-104970000D01*
X2920140Y-104970000D01*
X3548637Y-104709668D01*
X4029668Y-104228637D01*
X4290000Y-103600140D01*
X4290000Y-102923578D01*
X4378256Y-102835322D01*
X5365000Y-102835322D01*
X5365000Y-103684678D01*
X5690034Y-104469380D01*
X6290620Y-105069966D01*
X7075322Y-105395000D01*
X7924678Y-105395000D01*
X8709380Y-105069966D01*
X9309966Y-104469380D01*
X9420008Y-104203714D01*
X9430332Y-104228637D01*
X9911363Y-104709668D01*
X10539860Y-104970000D01*
X11220140Y-104970000D01*
X11848637Y-104709668D01*
X12218146Y-104340159D01*
X12695446Y-104340159D01*
X12781852Y-104596643D01*
X13355336Y-104806458D01*
X13965460Y-104780839D01*
X14410148Y-104596643D01*
X14496554Y-104340159D01*
X13596000Y-103439605D01*
X12695446Y-104340159D01*
X12218146Y-104340159D01*
X12329668Y-104228637D01*
X12377213Y-104113852D01*
X12515841Y-104160554D01*
X13416395Y-103260000D01*
X12515841Y-102359446D01*
X12377213Y-102406148D01*
X12329668Y-102291363D01*
X11848637Y-101810332D01*
X11220140Y-101550000D01*
X10539860Y-101550000D01*
X9911363Y-101810332D01*
X9430332Y-102291363D01*
X9420008Y-102316286D01*
X9309966Y-102050620D01*
X8709380Y-101450034D01*
X7924678Y-101125000D01*
X7075322Y-101125000D01*
X6290620Y-101450034D01*
X5690034Y-102050620D01*
X5365000Y-102835322D01*
X4378256Y-102835322D01*
X6303379Y-100910200D01*
X10492639Y-100910200D01*
X10579800Y-100927537D01*
X10666961Y-100910200D01*
X10666965Y-100910200D01*
X10925110Y-100858852D01*
X11217849Y-100663249D01*
X11267225Y-100589353D01*
X12941040Y-98915538D01*
X13013744Y-98930000D01*
X13306256Y-98930000D01*
X13739418Y-98843839D01*
X14230625Y-98515625D01*
X14558839Y-98024418D01*
X14609001Y-97772238D01*
X14609001Y-102067391D01*
X14609001Y-102067391D01*
G37*
X14609001Y-102067391D02*
X14496553Y-102179839D01*
X14410148Y-101923357D01*
X13836664Y-101713542D01*
X13226540Y-101739161D01*
X12781852Y-101923357D01*
X12695446Y-102179841D01*
X13596000Y-103080395D01*
X13610143Y-103066253D01*
X13789748Y-103245858D01*
X13775605Y-103260000D01*
X14676159Y-104160554D01*
X14932643Y-104074148D01*
X14934231Y-104069809D01*
X15265000Y-104400579D01*
X15265000Y-104799813D01*
X15152235Y-104822243D01*
X14942191Y-104962591D01*
X14801843Y-105172635D01*
X14752560Y-105420400D01*
X14752560Y-106720400D01*
X14801843Y-106968165D01*
X14942191Y-107178209D01*
X15152235Y-107318557D01*
X15400000Y-107367840D01*
X16900000Y-107367840D01*
X17147765Y-107318557D01*
X17357809Y-107178209D01*
X17498157Y-106968165D01*
X17500000Y-106958900D01*
X17501843Y-106968165D01*
X17642191Y-107178209D01*
X17852235Y-107318557D01*
X18100000Y-107367840D01*
X19179969Y-107367840D01*
X19101346Y-107601221D01*
X20001900Y-108501775D01*
X20016043Y-108487633D01*
X20195648Y-108667238D01*
X20181505Y-108681380D01*
X20195648Y-108695523D01*
X20016043Y-108875128D01*
X20001900Y-108860985D01*
X19987758Y-108875128D01*
X19808153Y-108695523D01*
X19822295Y-108681380D01*
X18921741Y-107780826D01*
X18665257Y-107867232D01*
X18455442Y-108440716D01*
X18481061Y-109050840D01*
X18590480Y-109315000D01*
X1685000Y-109315000D01*
X1685000Y-104740169D01*
X2239860Y-104970000D01*
X2920140Y-104970000D01*
X3548637Y-104709668D01*
X4029668Y-104228637D01*
X4290000Y-103600140D01*
X4290000Y-102923578D01*
X4378256Y-102835322D01*
X5365000Y-102835322D01*
X5365000Y-103684678D01*
X5690034Y-104469380D01*
X6290620Y-105069966D01*
X7075322Y-105395000D01*
X7924678Y-105395000D01*
X8709380Y-105069966D01*
X9309966Y-104469380D01*
X9420008Y-104203714D01*
X9430332Y-104228637D01*
X9911363Y-104709668D01*
X10539860Y-104970000D01*
X11220140Y-104970000D01*
X11848637Y-104709668D01*
X12218146Y-104340159D01*
X12695446Y-104340159D01*
X12781852Y-104596643D01*
X13355336Y-104806458D01*
X13965460Y-104780839D01*
X14410148Y-104596643D01*
X14496554Y-104340159D01*
X13596000Y-103439605D01*
X12695446Y-104340159D01*
X12218146Y-104340159D01*
X12329668Y-104228637D01*
X12377213Y-104113852D01*
X12515841Y-104160554D01*
X13416395Y-103260000D01*
X12515841Y-102359446D01*
X12377213Y-102406148D01*
X12329668Y-102291363D01*
X11848637Y-101810332D01*
X11220140Y-101550000D01*
X10539860Y-101550000D01*
X9911363Y-101810332D01*
X9430332Y-102291363D01*
X9420008Y-102316286D01*
X9309966Y-102050620D01*
X8709380Y-101450034D01*
X7924678Y-101125000D01*
X7075322Y-101125000D01*
X6290620Y-101450034D01*
X5690034Y-102050620D01*
X5365000Y-102835322D01*
X4378256Y-102835322D01*
X6303379Y-100910200D01*
X10492639Y-100910200D01*
X10579800Y-100927537D01*
X10666961Y-100910200D01*
X10666965Y-100910200D01*
X10925110Y-100858852D01*
X11217849Y-100663249D01*
X11267225Y-100589353D01*
X12941040Y-98915538D01*
X13013744Y-98930000D01*
X13306256Y-98930000D01*
X13739418Y-98843839D01*
X14230625Y-98515625D01*
X14558839Y-98024418D01*
X14609001Y-97772238D01*
X14609001Y-102067391D01*
G36*
X14212577Y-10419356D02*
X14261951Y-10493249D01*
X14335844Y-10542623D01*
X14335845Y-10542624D01*
X14446880Y-10616815D01*
X14554690Y-10688852D01*
X14798746Y-10737398D01*
X14801843Y-10752965D01*
X14942191Y-10963009D01*
X15152235Y-11103357D01*
X15265000Y-11125787D01*
X15265001Y-20008620D01*
X14980646Y-20292975D01*
X14906751Y-20342351D01*
X14711148Y-20635091D01*
X14659800Y-20893236D01*
X14659800Y-20893239D01*
X14642463Y-20980400D01*
X14659800Y-21067561D01*
X14659801Y-23077635D01*
X14642463Y-23164800D01*
X14711148Y-23510109D01*
X14857376Y-23728954D01*
X14857378Y-23728956D01*
X14906752Y-23802849D01*
X14980644Y-23852223D01*
X15265000Y-24136579D01*
X15265000Y-24840613D01*
X15152235Y-24863043D01*
X14942191Y-25003391D01*
X14801843Y-25213435D01*
X14752560Y-25461200D01*
X14752560Y-26761200D01*
X14801843Y-27008965D01*
X14942191Y-27219009D01*
X15152235Y-27359357D01*
X15265000Y-27381787D01*
X15265001Y-35299420D01*
X14828247Y-35736175D01*
X14754351Y-35785551D01*
X14558748Y-36078291D01*
X14507400Y-36336436D01*
X14507400Y-36336439D01*
X14490063Y-36423600D01*
X14507400Y-36510761D01*
X14507401Y-39282835D01*
X14490063Y-39370000D01*
X14558748Y-39715309D01*
X14704976Y-39934154D01*
X14704978Y-39934156D01*
X14754352Y-40008049D01*
X14828245Y-40057423D01*
X15265000Y-40494179D01*
X15265000Y-40791813D01*
X15152235Y-40814243D01*
X14942191Y-40954591D01*
X14801843Y-41164635D01*
X14752560Y-41412400D01*
X14752560Y-42060184D01*
X14676159Y-42034446D01*
X13775605Y-42935000D01*
X14676159Y-43835554D01*
X14932643Y-43749148D01*
X15104721Y-43278809D01*
X15152235Y-43310557D01*
X15269400Y-43333862D01*
X15269401Y-51297020D01*
X14879047Y-51687375D01*
X14805151Y-51736751D01*
X14609548Y-52029491D01*
X14558200Y-52287636D01*
X14558200Y-52287639D01*
X14540863Y-52374800D01*
X14558200Y-52461961D01*
X14558200Y-53740690D01*
X14532148Y-53663357D01*
X13958664Y-53453542D01*
X13348540Y-53479161D01*
X12903852Y-53663357D01*
X12817446Y-53919841D01*
X13718000Y-54820395D01*
X13732143Y-54806253D01*
X13911748Y-54985858D01*
X13897605Y-55000000D01*
X14701038Y-55803433D01*
X14755776Y-55885354D01*
X14755778Y-55885356D01*
X14805152Y-55959249D01*
X14879045Y-56008623D01*
X15265000Y-56394579D01*
X15265000Y-56539813D01*
X15152235Y-56562243D01*
X14942191Y-56702591D01*
X14801843Y-56912635D01*
X14752560Y-57160400D01*
X14752560Y-58460400D01*
X14801843Y-58708165D01*
X14942191Y-58918209D01*
X15152235Y-59058557D01*
X15269400Y-59081862D01*
X15269401Y-67299020D01*
X15073052Y-67495369D01*
X15142458Y-67305664D01*
X15116839Y-66695540D01*
X14932643Y-66250852D01*
X14676159Y-66164446D01*
X13775605Y-67065000D01*
X13789748Y-67079143D01*
X13610143Y-67258748D01*
X13596000Y-67244605D01*
X12695446Y-68145159D01*
X12781852Y-68401643D01*
X13355336Y-68611458D01*
X13965460Y-68585839D01*
X14410148Y-68401643D01*
X14419149Y-68374923D01*
X14405800Y-68442036D01*
X14405800Y-68442039D01*
X14388463Y-68529200D01*
X14405800Y-68616361D01*
X14405801Y-71083635D01*
X14388463Y-71170800D01*
X14457148Y-71516109D01*
X14603376Y-71734954D01*
X14603378Y-71734956D01*
X14652752Y-71808849D01*
X14726645Y-71858223D01*
X15265000Y-72396579D01*
X15265000Y-72541813D01*
X15152235Y-72564243D01*
X14942191Y-72704591D01*
X14801843Y-72914635D01*
X14752560Y-73162400D01*
X14752560Y-74462400D01*
X14801843Y-74710165D01*
X14942191Y-74920209D01*
X15152235Y-75060557D01*
X15265000Y-75082987D01*
X15265001Y-82848220D01*
X14421847Y-83691375D01*
X14347951Y-83740751D01*
X14152348Y-84033491D01*
X14101000Y-84291636D01*
X14101000Y-84291639D01*
X14083663Y-84378800D01*
X14101000Y-84465961D01*
X14101001Y-86628435D01*
X14083663Y-86715600D01*
X14152348Y-87060909D01*
X14298576Y-87279754D01*
X14298578Y-87279756D01*
X14347952Y-87353649D01*
X14421845Y-87403023D01*
X15076721Y-88057900D01*
X14942191Y-88147791D01*
X14801843Y-88357835D01*
X14752560Y-88605600D01*
X14752560Y-89905600D01*
X14801843Y-90153365D01*
X14942191Y-90363409D01*
X15152235Y-90503757D01*
X15265001Y-90526187D01*
X15265001Y-90874621D01*
X15124787Y-91014834D01*
X15116839Y-90825540D01*
X14932643Y-90380852D01*
X14676159Y-90294446D01*
X13775605Y-91195000D01*
X13789748Y-91209143D01*
X13610143Y-91388748D01*
X13596000Y-91374605D01*
X12695446Y-92275159D01*
X12781852Y-92531643D01*
X13355336Y-92741458D01*
X13965460Y-92715839D01*
X14410148Y-92531643D01*
X14496553Y-92275161D01*
X14609000Y-92387608D01*
X14609000Y-97117762D01*
X14558839Y-96865582D01*
X14230625Y-96374375D01*
X13739418Y-96046161D01*
X13306256Y-95960000D01*
X13013744Y-95960000D01*
X12580582Y-96046161D01*
X12089375Y-96374375D01*
X11876157Y-96693478D01*
X11815183Y-96563642D01*
X11386924Y-96173355D01*
X10976890Y-96003524D01*
X10747000Y-96124845D01*
X10747000Y-97318000D01*
X10767000Y-97318000D01*
X10767000Y-97572000D01*
X10747000Y-97572000D01*
X10747000Y-97592000D01*
X10493000Y-97592000D01*
X10493000Y-97572000D01*
X8207000Y-97572000D01*
X8207000Y-98765155D01*
X8436890Y-98886476D01*
X8846924Y-98716645D01*
X9275183Y-98326358D01*
X9350000Y-98167046D01*
X9424817Y-98326358D01*
X9853076Y-98716645D01*
X10263110Y-98886476D01*
X10492998Y-98765156D01*
X10492998Y-98860424D01*
X10213222Y-99140200D01*
X6023960Y-99140200D01*
X5936799Y-99122863D01*
X5849638Y-99140200D01*
X5849635Y-99140200D01*
X5591490Y-99191548D01*
X5372645Y-99337776D01*
X5372644Y-99337777D01*
X5298751Y-99387151D01*
X5249377Y-99461044D01*
X3090045Y-101620377D01*
X2920140Y-101550000D01*
X2239860Y-101550000D01*
X1685000Y-101779831D01*
X1685000Y-98742047D01*
X1692191Y-98752809D01*
X1902235Y-98893157D01*
X2150000Y-98942440D01*
X3850000Y-98942440D01*
X4097765Y-98893157D01*
X4307809Y-98752809D01*
X4448157Y-98542765D01*
X4468739Y-98439292D01*
X4773076Y-98716645D01*
X5183110Y-98886476D01*
X5413000Y-98765155D01*
X5413000Y-97572000D01*
X5667000Y-97572000D01*
X5667000Y-98765155D01*
X5896890Y-98886476D01*
X6306924Y-98716645D01*
X6735183Y-98326358D01*
X6810000Y-98167046D01*
X6884817Y-98326358D01*
X7313076Y-98716645D01*
X7723110Y-98886476D01*
X7953000Y-98765155D01*
X7953000Y-97572000D01*
X5667000Y-97572000D01*
X5413000Y-97572000D01*
X5393000Y-97572000D01*
X5393000Y-97318000D01*
X5413000Y-97318000D01*
X5413000Y-96124845D01*
X5667000Y-96124845D01*
X5667000Y-97318000D01*
X7953000Y-97318000D01*
X7953000Y-96124845D01*
X8207000Y-96124845D01*
X8207000Y-97318000D01*
X10493000Y-97318000D01*
X10493000Y-96124845D01*
X10263110Y-96003524D01*
X9853076Y-96173355D01*
X9424817Y-96563642D01*
X9350000Y-96722954D01*
X9275183Y-96563642D01*
X8846924Y-96173355D01*
X8436890Y-96003524D01*
X8207000Y-96124845D01*
X7953000Y-96124845D01*
X7723110Y-96003524D01*
X7313076Y-96173355D01*
X6884817Y-96563642D01*
X6810000Y-96722954D01*
X6735183Y-96563642D01*
X6306924Y-96173355D01*
X5896890Y-96003524D01*
X5667000Y-96124845D01*
X5413000Y-96124845D01*
X5183110Y-96003524D01*
X4773076Y-96173355D01*
X4468739Y-96450708D01*
X4448157Y-96347235D01*
X4307809Y-96137191D01*
X4097765Y-95996843D01*
X3850000Y-95947560D01*
X2150000Y-95947560D01*
X1902235Y-95996843D01*
X1692191Y-96137191D01*
X1685000Y-96147953D01*
X1685000Y-92675169D01*
X2239860Y-92905000D01*
X2920140Y-92905000D01*
X3548637Y-92644668D01*
X4029668Y-92163637D01*
X4290000Y-91535140D01*
X4290000Y-90854860D01*
X4254984Y-90770322D01*
X5365000Y-90770322D01*
X5365000Y-91619678D01*
X5690034Y-92404380D01*
X6290620Y-93004966D01*
X7075322Y-93330000D01*
X7924678Y-93330000D01*
X8709380Y-93004966D01*
X9309966Y-92404380D01*
X9311040Y-92401787D01*
X9852819Y-92401787D01*
X9960664Y-92676423D01*
X10597560Y-92915471D01*
X11277454Y-92892593D01*
X11799336Y-92676423D01*
X11907181Y-92401787D01*
X10880000Y-91374605D01*
X9852819Y-92401787D01*
X9311040Y-92401787D01*
X9425695Y-92124985D01*
X9673213Y-92222181D01*
X10700395Y-91195000D01*
X11059605Y-91195000D01*
X12086787Y-92222181D01*
X12361423Y-92114336D01*
X12385015Y-92051480D01*
X12515841Y-92095554D01*
X13416395Y-91195000D01*
X12515841Y-90294446D01*
X12387159Y-90337797D01*
X12361423Y-90275664D01*
X12086787Y-90167819D01*
X11059605Y-91195000D01*
X10700395Y-91195000D01*
X9673213Y-90167819D01*
X9425695Y-90265015D01*
X9311041Y-89988213D01*
X9852819Y-89988213D01*
X10880000Y-91015395D01*
X11780553Y-90114841D01*
X12695446Y-90114841D01*
X13596000Y-91015395D01*
X14496554Y-90114841D01*
X14410148Y-89858357D01*
X13836664Y-89648542D01*
X13226540Y-89674161D01*
X12781852Y-89858357D01*
X12695446Y-90114841D01*
X11780553Y-90114841D01*
X11907181Y-89988213D01*
X11799336Y-89713577D01*
X11162440Y-89474529D01*
X10482546Y-89497407D01*
X9960664Y-89713577D01*
X9852819Y-89988213D01*
X9311041Y-89988213D01*
X9309966Y-89985620D01*
X8709380Y-89385034D01*
X7924678Y-89060000D01*
X7075322Y-89060000D01*
X6290620Y-89385034D01*
X5690034Y-89985620D01*
X5365000Y-90770322D01*
X4254984Y-90770322D01*
X4029668Y-90226363D01*
X3548637Y-89745332D01*
X2920140Y-89485000D01*
X2239860Y-89485000D01*
X1685000Y-89714831D01*
X1685000Y-80610169D01*
X2239860Y-80840000D01*
X2920140Y-80840000D01*
X3548637Y-80579668D01*
X4029668Y-80098637D01*
X4290000Y-79470140D01*
X4290000Y-78789860D01*
X4254984Y-78705322D01*
X5365000Y-78705322D01*
X5365000Y-79554678D01*
X5690034Y-80339380D01*
X6290620Y-80939966D01*
X7075322Y-81265000D01*
X7924678Y-81265000D01*
X8709380Y-80939966D01*
X9309966Y-80339380D01*
X9311040Y-80336787D01*
X9852819Y-80336787D01*
X9960664Y-80611423D01*
X10597560Y-80850471D01*
X11277454Y-80827593D01*
X11799336Y-80611423D01*
X11907181Y-80336787D01*
X11780554Y-80210159D01*
X12695446Y-80210159D01*
X12781852Y-80466643D01*
X13355336Y-80676458D01*
X13965460Y-80650839D01*
X14410148Y-80466643D01*
X14496554Y-80210159D01*
X13596000Y-79309605D01*
X12695446Y-80210159D01*
X11780554Y-80210159D01*
X10880000Y-79309605D01*
X9852819Y-80336787D01*
X9311040Y-80336787D01*
X9425695Y-80059985D01*
X9673213Y-80157181D01*
X10700395Y-79130000D01*
X11059605Y-79130000D01*
X12086787Y-80157181D01*
X12361423Y-80049336D01*
X12385015Y-79986480D01*
X12515841Y-80030554D01*
X13416395Y-79130000D01*
X13775605Y-79130000D01*
X14676159Y-80030554D01*
X14932643Y-79944148D01*
X15142458Y-79370664D01*
X15116839Y-78760540D01*
X14932643Y-78315852D01*
X14676159Y-78229446D01*
X13775605Y-79130000D01*
X13416395Y-79130000D01*
X12515841Y-78229446D01*
X12387159Y-78272797D01*
X12361423Y-78210664D01*
X12086787Y-78102819D01*
X11059605Y-79130000D01*
X10700395Y-79130000D01*
X9673213Y-78102819D01*
X9425695Y-78200015D01*
X9311041Y-77923213D01*
X9852819Y-77923213D01*
X10880000Y-78950395D01*
X11780553Y-78049841D01*
X12695446Y-78049841D01*
X13596000Y-78950395D01*
X14496554Y-78049841D01*
X14410148Y-77793357D01*
X13836664Y-77583542D01*
X13226540Y-77609161D01*
X12781852Y-77793357D01*
X12695446Y-78049841D01*
X11780553Y-78049841D01*
X11907181Y-77923213D01*
X11799336Y-77648577D01*
X11162440Y-77409529D01*
X10482546Y-77432407D01*
X9960664Y-77648577D01*
X9852819Y-77923213D01*
X9311041Y-77923213D01*
X9309966Y-77920620D01*
X8709380Y-77320034D01*
X7924678Y-76995000D01*
X7075322Y-76995000D01*
X6290620Y-77320034D01*
X5690034Y-77920620D01*
X5365000Y-78705322D01*
X4254984Y-78705322D01*
X4029668Y-78161363D01*
X3548637Y-77680332D01*
X2920140Y-77420000D01*
X2239860Y-77420000D01*
X1685000Y-77649831D01*
X1685000Y-68545169D01*
X2239860Y-68775000D01*
X2920140Y-68775000D01*
X3548637Y-68514668D01*
X4029668Y-68033637D01*
X4290000Y-67405140D01*
X4290000Y-66724860D01*
X4254984Y-66640322D01*
X5365000Y-66640322D01*
X5365000Y-67489678D01*
X5690034Y-68274380D01*
X6290620Y-68874966D01*
X7075322Y-69200000D01*
X7924678Y-69200000D01*
X8709380Y-68874966D01*
X9309966Y-68274380D01*
X9311040Y-68271787D01*
X9852819Y-68271787D01*
X9960664Y-68546423D01*
X10597560Y-68785471D01*
X11277454Y-68762593D01*
X11799336Y-68546423D01*
X11907181Y-68271787D01*
X10880000Y-67244605D01*
X9852819Y-68271787D01*
X9311040Y-68271787D01*
X9425695Y-67994985D01*
X9673213Y-68092181D01*
X10700395Y-67065000D01*
X11059605Y-67065000D01*
X12086787Y-68092181D01*
X12361423Y-67984336D01*
X12385015Y-67921480D01*
X12515841Y-67965554D01*
X13416395Y-67065000D01*
X12515841Y-66164446D01*
X12387159Y-66207797D01*
X12361423Y-66145664D01*
X12086787Y-66037819D01*
X11059605Y-67065000D01*
X10700395Y-67065000D01*
X9673213Y-66037819D01*
X9425695Y-66135015D01*
X9311041Y-65858213D01*
X9852819Y-65858213D01*
X10880000Y-66885395D01*
X11780553Y-65984841D01*
X12695446Y-65984841D01*
X13596000Y-66885395D01*
X14496554Y-65984841D01*
X14410148Y-65728357D01*
X13836664Y-65518542D01*
X13226540Y-65544161D01*
X12781852Y-65728357D01*
X12695446Y-65984841D01*
X11780553Y-65984841D01*
X11907181Y-65858213D01*
X11799336Y-65583577D01*
X11162440Y-65344529D01*
X10482546Y-65367407D01*
X9960664Y-65583577D01*
X9852819Y-65858213D01*
X9311041Y-65858213D01*
X9309966Y-65855620D01*
X8709380Y-65255034D01*
X7924678Y-64930000D01*
X7075322Y-64930000D01*
X6290620Y-65255034D01*
X5690034Y-65855620D01*
X5365000Y-66640322D01*
X4254984Y-66640322D01*
X4029668Y-66096363D01*
X3548637Y-65615332D01*
X2920140Y-65355000D01*
X2239860Y-65355000D01*
X1685000Y-65584831D01*
X1685000Y-56401305D01*
X1733363Y-56449668D01*
X2361860Y-56710000D01*
X3042140Y-56710000D01*
X3670637Y-56449668D01*
X4151668Y-55968637D01*
X4412000Y-55340140D01*
X4412000Y-54659860D01*
X4376984Y-54575322D01*
X5487000Y-54575322D01*
X5487000Y-55424678D01*
X5812034Y-56209380D01*
X6412620Y-56809966D01*
X7197322Y-57135000D01*
X8046678Y-57135000D01*
X8831380Y-56809966D01*
X9431966Y-56209380D01*
X9433040Y-56206787D01*
X9974819Y-56206787D01*
X10082664Y-56481423D01*
X10719560Y-56720471D01*
X11399454Y-56697593D01*
X11921336Y-56481423D01*
X12029181Y-56206787D01*
X11902554Y-56080159D01*
X12817446Y-56080159D01*
X12903852Y-56336643D01*
X13477336Y-56546458D01*
X14087460Y-56520839D01*
X14532148Y-56336643D01*
X14618554Y-56080159D01*
X13718000Y-55179605D01*
X12817446Y-56080159D01*
X11902554Y-56080159D01*
X11002000Y-55179605D01*
X9974819Y-56206787D01*
X9433040Y-56206787D01*
X9547695Y-55929985D01*
X9795213Y-56027181D01*
X10822395Y-55000000D01*
X11181605Y-55000000D01*
X12208787Y-56027181D01*
X12483423Y-55919336D01*
X12507015Y-55856480D01*
X12637841Y-55900554D01*
X13538395Y-55000000D01*
X12637841Y-54099446D01*
X12509159Y-54142797D01*
X12483423Y-54080664D01*
X12208787Y-53972819D01*
X11181605Y-55000000D01*
X10822395Y-55000000D01*
X9795213Y-53972819D01*
X9547695Y-54070015D01*
X9433041Y-53793213D01*
X9974819Y-53793213D01*
X11002000Y-54820395D01*
X12029181Y-53793213D01*
X11921336Y-53518577D01*
X11284440Y-53279529D01*
X10604546Y-53302407D01*
X10082664Y-53518577D01*
X9974819Y-53793213D01*
X9433041Y-53793213D01*
X9431966Y-53790620D01*
X8831380Y-53190034D01*
X8046678Y-52865000D01*
X7197322Y-52865000D01*
X6412620Y-53190034D01*
X5812034Y-53790620D01*
X5487000Y-54575322D01*
X4376984Y-54575322D01*
X4151668Y-54031363D01*
X3670637Y-53550332D01*
X3042140Y-53290000D01*
X2361860Y-53290000D01*
X1733363Y-53550332D01*
X1685000Y-53598695D01*
X1685000Y-44415169D01*
X2239860Y-44645000D01*
X2920140Y-44645000D01*
X3548637Y-44384668D01*
X4029668Y-43903637D01*
X4290000Y-43275140D01*
X4290000Y-42594860D01*
X4254984Y-42510322D01*
X5365000Y-42510322D01*
X5365000Y-43359678D01*
X5690034Y-44144380D01*
X6290620Y-44744966D01*
X7075322Y-45070000D01*
X7924678Y-45070000D01*
X8709380Y-44744966D01*
X9309966Y-44144380D01*
X9311040Y-44141787D01*
X9852819Y-44141787D01*
X9960664Y-44416423D01*
X10597560Y-44655471D01*
X11277454Y-44632593D01*
X11799336Y-44416423D01*
X11907181Y-44141787D01*
X11780554Y-44015159D01*
X12695446Y-44015159D01*
X12781852Y-44271643D01*
X13355336Y-44481458D01*
X13965460Y-44455839D01*
X14410148Y-44271643D01*
X14496554Y-44015159D01*
X13596000Y-43114605D01*
X12695446Y-44015159D01*
X11780554Y-44015159D01*
X10880000Y-43114605D01*
X9852819Y-44141787D01*
X9311040Y-44141787D01*
X9425695Y-43864985D01*
X9673213Y-43962181D01*
X10700395Y-42935000D01*
X11059605Y-42935000D01*
X12086787Y-43962181D01*
X12361423Y-43854336D01*
X12385015Y-43791480D01*
X12515841Y-43835554D01*
X13416395Y-42935000D01*
X12515841Y-42034446D01*
X12387159Y-42077797D01*
X12361423Y-42015664D01*
X12086787Y-41907819D01*
X11059605Y-42935000D01*
X10700395Y-42935000D01*
X9673213Y-41907819D01*
X9425695Y-42005015D01*
X9311041Y-41728213D01*
X9852819Y-41728213D01*
X10880000Y-42755395D01*
X11780553Y-41854841D01*
X12695446Y-41854841D01*
X13596000Y-42755395D01*
X14496554Y-41854841D01*
X14410148Y-41598357D01*
X13836664Y-41388542D01*
X13226540Y-41414161D01*
X12781852Y-41598357D01*
X12695446Y-41854841D01*
X11780553Y-41854841D01*
X11907181Y-41728213D01*
X11799336Y-41453577D01*
X11162440Y-41214529D01*
X10482546Y-41237407D01*
X9960664Y-41453577D01*
X9852819Y-41728213D01*
X9311041Y-41728213D01*
X9309966Y-41725620D01*
X8709380Y-41125034D01*
X7924678Y-40800000D01*
X7075322Y-40800000D01*
X6290620Y-41125034D01*
X5690034Y-41725620D01*
X5365000Y-42510322D01*
X4254984Y-42510322D01*
X4029668Y-41966363D01*
X3548637Y-41485332D01*
X2920140Y-41225000D01*
X2239860Y-41225000D01*
X1685000Y-41454831D01*
X1685000Y-32350169D01*
X2239860Y-32580000D01*
X2920140Y-32580000D01*
X3548637Y-32319668D01*
X4029668Y-31838637D01*
X4290000Y-31210140D01*
X4290000Y-30529860D01*
X4254984Y-30445322D01*
X5365000Y-30445322D01*
X5365000Y-31294678D01*
X5690034Y-32079380D01*
X6290620Y-32679966D01*
X7075322Y-33005000D01*
X7924678Y-33005000D01*
X8709380Y-32679966D01*
X9309966Y-32079380D01*
X9311040Y-32076787D01*
X9852819Y-32076787D01*
X9960664Y-32351423D01*
X10597560Y-32590471D01*
X11277454Y-32567593D01*
X11799336Y-32351423D01*
X11907181Y-32076787D01*
X11780554Y-31950159D01*
X12695446Y-31950159D01*
X12781852Y-32206643D01*
X13355336Y-32416458D01*
X13965460Y-32390839D01*
X14410148Y-32206643D01*
X14496554Y-31950159D01*
X13596000Y-31049605D01*
X12695446Y-31950159D01*
X11780554Y-31950159D01*
X10880000Y-31049605D01*
X9852819Y-32076787D01*
X9311040Y-32076787D01*
X9425695Y-31799985D01*
X9673213Y-31897181D01*
X10700395Y-30870000D01*
X11059605Y-30870000D01*
X12086787Y-31897181D01*
X12361423Y-31789336D01*
X12385015Y-31726480D01*
X12515841Y-31770554D01*
X13416395Y-30870000D01*
X13775605Y-30870000D01*
X14676159Y-31770554D01*
X14932643Y-31684148D01*
X15142458Y-31110664D01*
X15116839Y-30500540D01*
X14932643Y-30055852D01*
X14676159Y-29969446D01*
X13775605Y-30870000D01*
X13416395Y-30870000D01*
X12515841Y-29969446D01*
X12387159Y-30012797D01*
X12361423Y-29950664D01*
X12086787Y-29842819D01*
X11059605Y-30870000D01*
X10700395Y-30870000D01*
X9673213Y-29842819D01*
X9425695Y-29940015D01*
X9311041Y-29663213D01*
X9852819Y-29663213D01*
X10880000Y-30690395D01*
X11780553Y-29789841D01*
X12695446Y-29789841D01*
X13596000Y-30690395D01*
X14496554Y-29789841D01*
X14410148Y-29533357D01*
X13836664Y-29323542D01*
X13226540Y-29349161D01*
X12781852Y-29533357D01*
X12695446Y-29789841D01*
X11780553Y-29789841D01*
X11907181Y-29663213D01*
X11799336Y-29388577D01*
X11162440Y-29149529D01*
X10482546Y-29172407D01*
X9960664Y-29388577D01*
X9852819Y-29663213D01*
X9311041Y-29663213D01*
X9309966Y-29660620D01*
X8709380Y-29060034D01*
X7924678Y-28735000D01*
X7075322Y-28735000D01*
X6290620Y-29060034D01*
X5690034Y-29660620D01*
X5365000Y-30445322D01*
X4254984Y-30445322D01*
X4029668Y-29901363D01*
X3548637Y-29420332D01*
X2920140Y-29160000D01*
X2239860Y-29160000D01*
X1685000Y-29389831D01*
X1685000Y-20285169D01*
X2239860Y-20515000D01*
X2920140Y-20515000D01*
X3548637Y-20254668D01*
X4029668Y-19773637D01*
X4290000Y-19145140D01*
X4290000Y-18464860D01*
X4254984Y-18380322D01*
X5365000Y-18380322D01*
X5365000Y-19229678D01*
X5690034Y-20014380D01*
X6290620Y-20614966D01*
X7075322Y-20940000D01*
X7924678Y-20940000D01*
X8709380Y-20614966D01*
X9309966Y-20014380D01*
X9311040Y-20011787D01*
X9852819Y-20011787D01*
X9960664Y-20286423D01*
X10597560Y-20525471D01*
X11277454Y-20502593D01*
X11799336Y-20286423D01*
X11907181Y-20011787D01*
X11780554Y-19885159D01*
X12695446Y-19885159D01*
X12781852Y-20141643D01*
X13355336Y-20351458D01*
X13965460Y-20325839D01*
X14410148Y-20141643D01*
X14496554Y-19885159D01*
X13596000Y-18984605D01*
X12695446Y-19885159D01*
X11780554Y-19885159D01*
X10880000Y-18984605D01*
X9852819Y-20011787D01*
X9311040Y-20011787D01*
X9425695Y-19734985D01*
X9673213Y-19832181D01*
X10700395Y-18805000D01*
X11059605Y-18805000D01*
X12086787Y-19832181D01*
X12361423Y-19724336D01*
X12385015Y-19661480D01*
X12515841Y-19705554D01*
X13416395Y-18805000D01*
X13775605Y-18805000D01*
X14676159Y-19705554D01*
X14932643Y-19619148D01*
X15142458Y-19045664D01*
X15116839Y-18435540D01*
X14932643Y-17990852D01*
X14676159Y-17904446D01*
X13775605Y-18805000D01*
X13416395Y-18805000D01*
X12515841Y-17904446D01*
X12387159Y-17947797D01*
X12361423Y-17885664D01*
X12086787Y-17777819D01*
X11059605Y-18805000D01*
X10700395Y-18805000D01*
X9673213Y-17777819D01*
X9425695Y-17875015D01*
X9311041Y-17598213D01*
X9852819Y-17598213D01*
X10880000Y-18625395D01*
X11780553Y-17724841D01*
X12695446Y-17724841D01*
X13596000Y-18625395D01*
X14496554Y-17724841D01*
X14410148Y-17468357D01*
X13836664Y-17258542D01*
X13226540Y-17284161D01*
X12781852Y-17468357D01*
X12695446Y-17724841D01*
X11780553Y-17724841D01*
X11907181Y-17598213D01*
X11799336Y-17323577D01*
X11162440Y-17084529D01*
X10482546Y-17107407D01*
X9960664Y-17323577D01*
X9852819Y-17598213D01*
X9311041Y-17598213D01*
X9309966Y-17595620D01*
X8709380Y-16995034D01*
X7924678Y-16670000D01*
X7075322Y-16670000D01*
X6290620Y-16995034D01*
X5690034Y-17595620D01*
X5365000Y-18380322D01*
X4254984Y-18380322D01*
X4029668Y-17836363D01*
X3548637Y-17355332D01*
X2920140Y-17095000D01*
X2239860Y-17095000D01*
X1685000Y-17324831D01*
X1685000Y-14297047D01*
X1692191Y-14307809D01*
X1902235Y-14448157D01*
X2150000Y-14497440D01*
X3850000Y-14497440D01*
X4097765Y-14448157D01*
X4307809Y-14307809D01*
X4448157Y-14097765D01*
X4468739Y-13994292D01*
X4773076Y-14271645D01*
X5183110Y-14441476D01*
X5413000Y-14320155D01*
X5413000Y-13127000D01*
X5667000Y-13127000D01*
X5667000Y-14320155D01*
X5896890Y-14441476D01*
X6306924Y-14271645D01*
X6735183Y-13881358D01*
X6810000Y-13722046D01*
X6884817Y-13881358D01*
X7313076Y-14271645D01*
X7723110Y-14441476D01*
X7953000Y-14320155D01*
X7953000Y-13127000D01*
X8207000Y-13127000D01*
X8207000Y-14320155D01*
X8436890Y-14441476D01*
X8846924Y-14271645D01*
X9275183Y-13881358D01*
X9350000Y-13722046D01*
X9424817Y-13881358D01*
X9853076Y-14271645D01*
X10263110Y-14441476D01*
X10493000Y-14320155D01*
X10493000Y-13127000D01*
X8207000Y-13127000D01*
X7953000Y-13127000D01*
X5667000Y-13127000D01*
X5413000Y-13127000D01*
X5393000Y-13127000D01*
X5393000Y-12873000D01*
X5413000Y-12873000D01*
X5413000Y-11679845D01*
X5667000Y-11679845D01*
X5667000Y-12873000D01*
X7953000Y-12873000D01*
X7953000Y-11679845D01*
X8207000Y-11679845D01*
X8207000Y-12873000D01*
X10493000Y-12873000D01*
X10493000Y-11679845D01*
X10747000Y-11679845D01*
X10747000Y-12873000D01*
X10767000Y-12873000D01*
X10767000Y-13127000D01*
X10747000Y-13127000D01*
X10747000Y-14320155D01*
X10976890Y-14441476D01*
X11386924Y-14271645D01*
X11815183Y-13881358D01*
X11876157Y-13751522D01*
X12089375Y-14070625D01*
X12580582Y-14398839D01*
X13013744Y-14485000D01*
X13306256Y-14485000D01*
X13739418Y-14398839D01*
X14230625Y-14070625D01*
X14558839Y-13579418D01*
X14674092Y-13000000D01*
X14558839Y-12420582D01*
X14230625Y-11929375D01*
X13739418Y-11601161D01*
X13306256Y-11515000D01*
X13013744Y-11515000D01*
X12580582Y-11601161D01*
X12089375Y-11929375D01*
X11876157Y-12248478D01*
X11815183Y-12118642D01*
X11386924Y-11728355D01*
X10976890Y-11558524D01*
X10747000Y-11679845D01*
X10493000Y-11679845D01*
X10263110Y-11558524D01*
X9853076Y-11728355D01*
X9424817Y-12118642D01*
X9350000Y-12277954D01*
X9275183Y-12118642D01*
X8846924Y-11728355D01*
X8436890Y-11558524D01*
X8207000Y-11679845D01*
X7953000Y-11679845D01*
X7723110Y-11558524D01*
X7313076Y-11728355D01*
X6884817Y-12118642D01*
X6810000Y-12277954D01*
X6735183Y-12118642D01*
X6306924Y-11728355D01*
X5896890Y-11558524D01*
X5667000Y-11679845D01*
X5413000Y-11679845D01*
X5183110Y-11558524D01*
X4773076Y-11728355D01*
X4468739Y-12005708D01*
X4448157Y-11902235D01*
X4307809Y-11692191D01*
X4248810Y-11652769D01*
X5974179Y-9927400D01*
X13720622Y-9927400D01*
X14212577Y-10419356D01*
X14212577Y-10419356D01*
G37*
X14212577Y-10419356D02*
X14261951Y-10493249D01*
X14335844Y-10542623D01*
X14335845Y-10542624D01*
X14446880Y-10616815D01*
X14554690Y-10688852D01*
X14798746Y-10737398D01*
X14801843Y-10752965D01*
X14942191Y-10963009D01*
X15152235Y-11103357D01*
X15265000Y-11125787D01*
X15265001Y-20008620D01*
X14980646Y-20292975D01*
X14906751Y-20342351D01*
X14711148Y-20635091D01*
X14659800Y-20893236D01*
X14659800Y-20893239D01*
X14642463Y-20980400D01*
X14659800Y-21067561D01*
X14659801Y-23077635D01*
X14642463Y-23164800D01*
X14711148Y-23510109D01*
X14857376Y-23728954D01*
X14857378Y-23728956D01*
X14906752Y-23802849D01*
X14980644Y-23852223D01*
X15265000Y-24136579D01*
X15265000Y-24840613D01*
X15152235Y-24863043D01*
X14942191Y-25003391D01*
X14801843Y-25213435D01*
X14752560Y-25461200D01*
X14752560Y-26761200D01*
X14801843Y-27008965D01*
X14942191Y-27219009D01*
X15152235Y-27359357D01*
X15265000Y-27381787D01*
X15265001Y-35299420D01*
X14828247Y-35736175D01*
X14754351Y-35785551D01*
X14558748Y-36078291D01*
X14507400Y-36336436D01*
X14507400Y-36336439D01*
X14490063Y-36423600D01*
X14507400Y-36510761D01*
X14507401Y-39282835D01*
X14490063Y-39370000D01*
X14558748Y-39715309D01*
X14704976Y-39934154D01*
X14704978Y-39934156D01*
X14754352Y-40008049D01*
X14828245Y-40057423D01*
X15265000Y-40494179D01*
X15265000Y-40791813D01*
X15152235Y-40814243D01*
X14942191Y-40954591D01*
X14801843Y-41164635D01*
X14752560Y-41412400D01*
X14752560Y-42060184D01*
X14676159Y-42034446D01*
X13775605Y-42935000D01*
X14676159Y-43835554D01*
X14932643Y-43749148D01*
X15104721Y-43278809D01*
X15152235Y-43310557D01*
X15269400Y-43333862D01*
X15269401Y-51297020D01*
X14879047Y-51687375D01*
X14805151Y-51736751D01*
X14609548Y-52029491D01*
X14558200Y-52287636D01*
X14558200Y-52287639D01*
X14540863Y-52374800D01*
X14558200Y-52461961D01*
X14558200Y-53740690D01*
X14532148Y-53663357D01*
X13958664Y-53453542D01*
X13348540Y-53479161D01*
X12903852Y-53663357D01*
X12817446Y-53919841D01*
X13718000Y-54820395D01*
X13732143Y-54806253D01*
X13911748Y-54985858D01*
X13897605Y-55000000D01*
X14701038Y-55803433D01*
X14755776Y-55885354D01*
X14755778Y-55885356D01*
X14805152Y-55959249D01*
X14879045Y-56008623D01*
X15265000Y-56394579D01*
X15265000Y-56539813D01*
X15152235Y-56562243D01*
X14942191Y-56702591D01*
X14801843Y-56912635D01*
X14752560Y-57160400D01*
X14752560Y-58460400D01*
X14801843Y-58708165D01*
X14942191Y-58918209D01*
X15152235Y-59058557D01*
X15269400Y-59081862D01*
X15269401Y-67299020D01*
X15073052Y-67495369D01*
X15142458Y-67305664D01*
X15116839Y-66695540D01*
X14932643Y-66250852D01*
X14676159Y-66164446D01*
X13775605Y-67065000D01*
X13789748Y-67079143D01*
X13610143Y-67258748D01*
X13596000Y-67244605D01*
X12695446Y-68145159D01*
X12781852Y-68401643D01*
X13355336Y-68611458D01*
X13965460Y-68585839D01*
X14410148Y-68401643D01*
X14419149Y-68374923D01*
X14405800Y-68442036D01*
X14405800Y-68442039D01*
X14388463Y-68529200D01*
X14405800Y-68616361D01*
X14405801Y-71083635D01*
X14388463Y-71170800D01*
X14457148Y-71516109D01*
X14603376Y-71734954D01*
X14603378Y-71734956D01*
X14652752Y-71808849D01*
X14726645Y-71858223D01*
X15265000Y-72396579D01*
X15265000Y-72541813D01*
X15152235Y-72564243D01*
X14942191Y-72704591D01*
X14801843Y-72914635D01*
X14752560Y-73162400D01*
X14752560Y-74462400D01*
X14801843Y-74710165D01*
X14942191Y-74920209D01*
X15152235Y-75060557D01*
X15265000Y-75082987D01*
X15265001Y-82848220D01*
X14421847Y-83691375D01*
X14347951Y-83740751D01*
X14152348Y-84033491D01*
X14101000Y-84291636D01*
X14101000Y-84291639D01*
X14083663Y-84378800D01*
X14101000Y-84465961D01*
X14101001Y-86628435D01*
X14083663Y-86715600D01*
X14152348Y-87060909D01*
X14298576Y-87279754D01*
X14298578Y-87279756D01*
X14347952Y-87353649D01*
X14421845Y-87403023D01*
X15076721Y-88057900D01*
X14942191Y-88147791D01*
X14801843Y-88357835D01*
X14752560Y-88605600D01*
X14752560Y-89905600D01*
X14801843Y-90153365D01*
X14942191Y-90363409D01*
X15152235Y-90503757D01*
X15265001Y-90526187D01*
X15265001Y-90874621D01*
X15124787Y-91014834D01*
X15116839Y-90825540D01*
X14932643Y-90380852D01*
X14676159Y-90294446D01*
X13775605Y-91195000D01*
X13789748Y-91209143D01*
X13610143Y-91388748D01*
X13596000Y-91374605D01*
X12695446Y-92275159D01*
X12781852Y-92531643D01*
X13355336Y-92741458D01*
X13965460Y-92715839D01*
X14410148Y-92531643D01*
X14496553Y-92275161D01*
X14609000Y-92387608D01*
X14609000Y-97117762D01*
X14558839Y-96865582D01*
X14230625Y-96374375D01*
X13739418Y-96046161D01*
X13306256Y-95960000D01*
X13013744Y-95960000D01*
X12580582Y-96046161D01*
X12089375Y-96374375D01*
X11876157Y-96693478D01*
X11815183Y-96563642D01*
X11386924Y-96173355D01*
X10976890Y-96003524D01*
X10747000Y-96124845D01*
X10747000Y-97318000D01*
X10767000Y-97318000D01*
X10767000Y-97572000D01*
X10747000Y-97572000D01*
X10747000Y-97592000D01*
X10493000Y-97592000D01*
X10493000Y-97572000D01*
X8207000Y-97572000D01*
X8207000Y-98765155D01*
X8436890Y-98886476D01*
X8846924Y-98716645D01*
X9275183Y-98326358D01*
X9350000Y-98167046D01*
X9424817Y-98326358D01*
X9853076Y-98716645D01*
X10263110Y-98886476D01*
X10492998Y-98765156D01*
X10492998Y-98860424D01*
X10213222Y-99140200D01*
X6023960Y-99140200D01*
X5936799Y-99122863D01*
X5849638Y-99140200D01*
X5849635Y-99140200D01*
X5591490Y-99191548D01*
X5372645Y-99337776D01*
X5372644Y-99337777D01*
X5298751Y-99387151D01*
X5249377Y-99461044D01*
X3090045Y-101620377D01*
X2920140Y-101550000D01*
X2239860Y-101550000D01*
X1685000Y-101779831D01*
X1685000Y-98742047D01*
X1692191Y-98752809D01*
X1902235Y-98893157D01*
X2150000Y-98942440D01*
X3850000Y-98942440D01*
X4097765Y-98893157D01*
X4307809Y-98752809D01*
X4448157Y-98542765D01*
X4468739Y-98439292D01*
X4773076Y-98716645D01*
X5183110Y-98886476D01*
X5413000Y-98765155D01*
X5413000Y-97572000D01*
X5667000Y-97572000D01*
X5667000Y-98765155D01*
X5896890Y-98886476D01*
X6306924Y-98716645D01*
X6735183Y-98326358D01*
X6810000Y-98167046D01*
X6884817Y-98326358D01*
X7313076Y-98716645D01*
X7723110Y-98886476D01*
X7953000Y-98765155D01*
X7953000Y-97572000D01*
X5667000Y-97572000D01*
X5413000Y-97572000D01*
X5393000Y-97572000D01*
X5393000Y-97318000D01*
X5413000Y-97318000D01*
X5413000Y-96124845D01*
X5667000Y-96124845D01*
X5667000Y-97318000D01*
X7953000Y-97318000D01*
X7953000Y-96124845D01*
X8207000Y-96124845D01*
X8207000Y-97318000D01*
X10493000Y-97318000D01*
X10493000Y-96124845D01*
X10263110Y-96003524D01*
X9853076Y-96173355D01*
X9424817Y-96563642D01*
X9350000Y-96722954D01*
X9275183Y-96563642D01*
X8846924Y-96173355D01*
X8436890Y-96003524D01*
X8207000Y-96124845D01*
X7953000Y-96124845D01*
X7723110Y-96003524D01*
X7313076Y-96173355D01*
X6884817Y-96563642D01*
X6810000Y-96722954D01*
X6735183Y-96563642D01*
X6306924Y-96173355D01*
X5896890Y-96003524D01*
X5667000Y-96124845D01*
X5413000Y-96124845D01*
X5183110Y-96003524D01*
X4773076Y-96173355D01*
X4468739Y-96450708D01*
X4448157Y-96347235D01*
X4307809Y-96137191D01*
X4097765Y-95996843D01*
X3850000Y-95947560D01*
X2150000Y-95947560D01*
X1902235Y-95996843D01*
X1692191Y-96137191D01*
X1685000Y-96147953D01*
X1685000Y-92675169D01*
X2239860Y-92905000D01*
X2920140Y-92905000D01*
X3548637Y-92644668D01*
X4029668Y-92163637D01*
X4290000Y-91535140D01*
X4290000Y-90854860D01*
X4254984Y-90770322D01*
X5365000Y-90770322D01*
X5365000Y-91619678D01*
X5690034Y-92404380D01*
X6290620Y-93004966D01*
X7075322Y-93330000D01*
X7924678Y-93330000D01*
X8709380Y-93004966D01*
X9309966Y-92404380D01*
X9311040Y-92401787D01*
X9852819Y-92401787D01*
X9960664Y-92676423D01*
X10597560Y-92915471D01*
X11277454Y-92892593D01*
X11799336Y-92676423D01*
X11907181Y-92401787D01*
X10880000Y-91374605D01*
X9852819Y-92401787D01*
X9311040Y-92401787D01*
X9425695Y-92124985D01*
X9673213Y-92222181D01*
X10700395Y-91195000D01*
X11059605Y-91195000D01*
X12086787Y-92222181D01*
X12361423Y-92114336D01*
X12385015Y-92051480D01*
X12515841Y-92095554D01*
X13416395Y-91195000D01*
X12515841Y-90294446D01*
X12387159Y-90337797D01*
X12361423Y-90275664D01*
X12086787Y-90167819D01*
X11059605Y-91195000D01*
X10700395Y-91195000D01*
X9673213Y-90167819D01*
X9425695Y-90265015D01*
X9311041Y-89988213D01*
X9852819Y-89988213D01*
X10880000Y-91015395D01*
X11780553Y-90114841D01*
X12695446Y-90114841D01*
X13596000Y-91015395D01*
X14496554Y-90114841D01*
X14410148Y-89858357D01*
X13836664Y-89648542D01*
X13226540Y-89674161D01*
X12781852Y-89858357D01*
X12695446Y-90114841D01*
X11780553Y-90114841D01*
X11907181Y-89988213D01*
X11799336Y-89713577D01*
X11162440Y-89474529D01*
X10482546Y-89497407D01*
X9960664Y-89713577D01*
X9852819Y-89988213D01*
X9311041Y-89988213D01*
X9309966Y-89985620D01*
X8709380Y-89385034D01*
X7924678Y-89060000D01*
X7075322Y-89060000D01*
X6290620Y-89385034D01*
X5690034Y-89985620D01*
X5365000Y-90770322D01*
X4254984Y-90770322D01*
X4029668Y-90226363D01*
X3548637Y-89745332D01*
X2920140Y-89485000D01*
X2239860Y-89485000D01*
X1685000Y-89714831D01*
X1685000Y-80610169D01*
X2239860Y-80840000D01*
X2920140Y-80840000D01*
X3548637Y-80579668D01*
X4029668Y-80098637D01*
X4290000Y-79470140D01*
X4290000Y-78789860D01*
X4254984Y-78705322D01*
X5365000Y-78705322D01*
X5365000Y-79554678D01*
X5690034Y-80339380D01*
X6290620Y-80939966D01*
X7075322Y-81265000D01*
X7924678Y-81265000D01*
X8709380Y-80939966D01*
X9309966Y-80339380D01*
X9311040Y-80336787D01*
X9852819Y-80336787D01*
X9960664Y-80611423D01*
X10597560Y-80850471D01*
X11277454Y-80827593D01*
X11799336Y-80611423D01*
X11907181Y-80336787D01*
X11780554Y-80210159D01*
X12695446Y-80210159D01*
X12781852Y-80466643D01*
X13355336Y-80676458D01*
X13965460Y-80650839D01*
X14410148Y-80466643D01*
X14496554Y-80210159D01*
X13596000Y-79309605D01*
X12695446Y-80210159D01*
X11780554Y-80210159D01*
X10880000Y-79309605D01*
X9852819Y-80336787D01*
X9311040Y-80336787D01*
X9425695Y-80059985D01*
X9673213Y-80157181D01*
X10700395Y-79130000D01*
X11059605Y-79130000D01*
X12086787Y-80157181D01*
X12361423Y-80049336D01*
X12385015Y-79986480D01*
X12515841Y-80030554D01*
X13416395Y-79130000D01*
X13775605Y-79130000D01*
X14676159Y-80030554D01*
X14932643Y-79944148D01*
X15142458Y-79370664D01*
X15116839Y-78760540D01*
X14932643Y-78315852D01*
X14676159Y-78229446D01*
X13775605Y-79130000D01*
X13416395Y-79130000D01*
X12515841Y-78229446D01*
X12387159Y-78272797D01*
X12361423Y-78210664D01*
X12086787Y-78102819D01*
X11059605Y-79130000D01*
X10700395Y-79130000D01*
X9673213Y-78102819D01*
X9425695Y-78200015D01*
X9311041Y-77923213D01*
X9852819Y-77923213D01*
X10880000Y-78950395D01*
X11780553Y-78049841D01*
X12695446Y-78049841D01*
X13596000Y-78950395D01*
X14496554Y-78049841D01*
X14410148Y-77793357D01*
X13836664Y-77583542D01*
X13226540Y-77609161D01*
X12781852Y-77793357D01*
X12695446Y-78049841D01*
X11780553Y-78049841D01*
X11907181Y-77923213D01*
X11799336Y-77648577D01*
X11162440Y-77409529D01*
X10482546Y-77432407D01*
X9960664Y-77648577D01*
X9852819Y-77923213D01*
X9311041Y-77923213D01*
X9309966Y-77920620D01*
X8709380Y-77320034D01*
X7924678Y-76995000D01*
X7075322Y-76995000D01*
X6290620Y-77320034D01*
X5690034Y-77920620D01*
X5365000Y-78705322D01*
X4254984Y-78705322D01*
X4029668Y-78161363D01*
X3548637Y-77680332D01*
X2920140Y-77420000D01*
X2239860Y-77420000D01*
X1685000Y-77649831D01*
X1685000Y-68545169D01*
X2239860Y-68775000D01*
X2920140Y-68775000D01*
X3548637Y-68514668D01*
X4029668Y-68033637D01*
X4290000Y-67405140D01*
X4290000Y-66724860D01*
X4254984Y-66640322D01*
X5365000Y-66640322D01*
X5365000Y-67489678D01*
X5690034Y-68274380D01*
X6290620Y-68874966D01*
X7075322Y-69200000D01*
X7924678Y-69200000D01*
X8709380Y-68874966D01*
X9309966Y-68274380D01*
X9311040Y-68271787D01*
X9852819Y-68271787D01*
X9960664Y-68546423D01*
X10597560Y-68785471D01*
X11277454Y-68762593D01*
X11799336Y-68546423D01*
X11907181Y-68271787D01*
X10880000Y-67244605D01*
X9852819Y-68271787D01*
X9311040Y-68271787D01*
X9425695Y-67994985D01*
X9673213Y-68092181D01*
X10700395Y-67065000D01*
X11059605Y-67065000D01*
X12086787Y-68092181D01*
X12361423Y-67984336D01*
X12385015Y-67921480D01*
X12515841Y-67965554D01*
X13416395Y-67065000D01*
X12515841Y-66164446D01*
X12387159Y-66207797D01*
X12361423Y-66145664D01*
X12086787Y-66037819D01*
X11059605Y-67065000D01*
X10700395Y-67065000D01*
X9673213Y-66037819D01*
X9425695Y-66135015D01*
X9311041Y-65858213D01*
X9852819Y-65858213D01*
X10880000Y-66885395D01*
X11780553Y-65984841D01*
X12695446Y-65984841D01*
X13596000Y-66885395D01*
X14496554Y-65984841D01*
X14410148Y-65728357D01*
X13836664Y-65518542D01*
X13226540Y-65544161D01*
X12781852Y-65728357D01*
X12695446Y-65984841D01*
X11780553Y-65984841D01*
X11907181Y-65858213D01*
X11799336Y-65583577D01*
X11162440Y-65344529D01*
X10482546Y-65367407D01*
X9960664Y-65583577D01*
X9852819Y-65858213D01*
X9311041Y-65858213D01*
X9309966Y-65855620D01*
X8709380Y-65255034D01*
X7924678Y-64930000D01*
X7075322Y-64930000D01*
X6290620Y-65255034D01*
X5690034Y-65855620D01*
X5365000Y-66640322D01*
X4254984Y-66640322D01*
X4029668Y-66096363D01*
X3548637Y-65615332D01*
X2920140Y-65355000D01*
X2239860Y-65355000D01*
X1685000Y-65584831D01*
X1685000Y-56401305D01*
X1733363Y-56449668D01*
X2361860Y-56710000D01*
X3042140Y-56710000D01*
X3670637Y-56449668D01*
X4151668Y-55968637D01*
X4412000Y-55340140D01*
X4412000Y-54659860D01*
X4376984Y-54575322D01*
X5487000Y-54575322D01*
X5487000Y-55424678D01*
X5812034Y-56209380D01*
X6412620Y-56809966D01*
X7197322Y-57135000D01*
X8046678Y-57135000D01*
X8831380Y-56809966D01*
X9431966Y-56209380D01*
X9433040Y-56206787D01*
X9974819Y-56206787D01*
X10082664Y-56481423D01*
X10719560Y-56720471D01*
X11399454Y-56697593D01*
X11921336Y-56481423D01*
X12029181Y-56206787D01*
X11902554Y-56080159D01*
X12817446Y-56080159D01*
X12903852Y-56336643D01*
X13477336Y-56546458D01*
X14087460Y-56520839D01*
X14532148Y-56336643D01*
X14618554Y-56080159D01*
X13718000Y-55179605D01*
X12817446Y-56080159D01*
X11902554Y-56080159D01*
X11002000Y-55179605D01*
X9974819Y-56206787D01*
X9433040Y-56206787D01*
X9547695Y-55929985D01*
X9795213Y-56027181D01*
X10822395Y-55000000D01*
X11181605Y-55000000D01*
X12208787Y-56027181D01*
X12483423Y-55919336D01*
X12507015Y-55856480D01*
X12637841Y-55900554D01*
X13538395Y-55000000D01*
X12637841Y-54099446D01*
X12509159Y-54142797D01*
X12483423Y-54080664D01*
X12208787Y-53972819D01*
X11181605Y-55000000D01*
X10822395Y-55000000D01*
X9795213Y-53972819D01*
X9547695Y-54070015D01*
X9433041Y-53793213D01*
X9974819Y-53793213D01*
X11002000Y-54820395D01*
X12029181Y-53793213D01*
X11921336Y-53518577D01*
X11284440Y-53279529D01*
X10604546Y-53302407D01*
X10082664Y-53518577D01*
X9974819Y-53793213D01*
X9433041Y-53793213D01*
X9431966Y-53790620D01*
X8831380Y-53190034D01*
X8046678Y-52865000D01*
X7197322Y-52865000D01*
X6412620Y-53190034D01*
X5812034Y-53790620D01*
X5487000Y-54575322D01*
X4376984Y-54575322D01*
X4151668Y-54031363D01*
X3670637Y-53550332D01*
X3042140Y-53290000D01*
X2361860Y-53290000D01*
X1733363Y-53550332D01*
X1685000Y-53598695D01*
X1685000Y-44415169D01*
X2239860Y-44645000D01*
X2920140Y-44645000D01*
X3548637Y-44384668D01*
X4029668Y-43903637D01*
X4290000Y-43275140D01*
X4290000Y-42594860D01*
X4254984Y-42510322D01*
X5365000Y-42510322D01*
X5365000Y-43359678D01*
X5690034Y-44144380D01*
X6290620Y-44744966D01*
X7075322Y-45070000D01*
X7924678Y-45070000D01*
X8709380Y-44744966D01*
X9309966Y-44144380D01*
X9311040Y-44141787D01*
X9852819Y-44141787D01*
X9960664Y-44416423D01*
X10597560Y-44655471D01*
X11277454Y-44632593D01*
X11799336Y-44416423D01*
X11907181Y-44141787D01*
X11780554Y-44015159D01*
X12695446Y-44015159D01*
X12781852Y-44271643D01*
X13355336Y-44481458D01*
X13965460Y-44455839D01*
X14410148Y-44271643D01*
X14496554Y-44015159D01*
X13596000Y-43114605D01*
X12695446Y-44015159D01*
X11780554Y-44015159D01*
X10880000Y-43114605D01*
X9852819Y-44141787D01*
X9311040Y-44141787D01*
X9425695Y-43864985D01*
X9673213Y-43962181D01*
X10700395Y-42935000D01*
X11059605Y-42935000D01*
X12086787Y-43962181D01*
X12361423Y-43854336D01*
X12385015Y-43791480D01*
X12515841Y-43835554D01*
X13416395Y-42935000D01*
X12515841Y-42034446D01*
X12387159Y-42077797D01*
X12361423Y-42015664D01*
X12086787Y-41907819D01*
X11059605Y-42935000D01*
X10700395Y-42935000D01*
X9673213Y-41907819D01*
X9425695Y-42005015D01*
X9311041Y-41728213D01*
X9852819Y-41728213D01*
X10880000Y-42755395D01*
X11780553Y-41854841D01*
X12695446Y-41854841D01*
X13596000Y-42755395D01*
X14496554Y-41854841D01*
X14410148Y-41598357D01*
X13836664Y-41388542D01*
X13226540Y-41414161D01*
X12781852Y-41598357D01*
X12695446Y-41854841D01*
X11780553Y-41854841D01*
X11907181Y-41728213D01*
X11799336Y-41453577D01*
X11162440Y-41214529D01*
X10482546Y-41237407D01*
X9960664Y-41453577D01*
X9852819Y-41728213D01*
X9311041Y-41728213D01*
X9309966Y-41725620D01*
X8709380Y-41125034D01*
X7924678Y-40800000D01*
X7075322Y-40800000D01*
X6290620Y-41125034D01*
X5690034Y-41725620D01*
X5365000Y-42510322D01*
X4254984Y-42510322D01*
X4029668Y-41966363D01*
X3548637Y-41485332D01*
X2920140Y-41225000D01*
X2239860Y-41225000D01*
X1685000Y-41454831D01*
X1685000Y-32350169D01*
X2239860Y-32580000D01*
X2920140Y-32580000D01*
X3548637Y-32319668D01*
X4029668Y-31838637D01*
X4290000Y-31210140D01*
X4290000Y-30529860D01*
X4254984Y-30445322D01*
X5365000Y-30445322D01*
X5365000Y-31294678D01*
X5690034Y-32079380D01*
X6290620Y-32679966D01*
X7075322Y-33005000D01*
X7924678Y-33005000D01*
X8709380Y-32679966D01*
X9309966Y-32079380D01*
X9311040Y-32076787D01*
X9852819Y-32076787D01*
X9960664Y-32351423D01*
X10597560Y-32590471D01*
X11277454Y-32567593D01*
X11799336Y-32351423D01*
X11907181Y-32076787D01*
X11780554Y-31950159D01*
X12695446Y-31950159D01*
X12781852Y-32206643D01*
X13355336Y-32416458D01*
X13965460Y-32390839D01*
X14410148Y-32206643D01*
X14496554Y-31950159D01*
X13596000Y-31049605D01*
X12695446Y-31950159D01*
X11780554Y-31950159D01*
X10880000Y-31049605D01*
X9852819Y-32076787D01*
X9311040Y-32076787D01*
X9425695Y-31799985D01*
X9673213Y-31897181D01*
X10700395Y-30870000D01*
X11059605Y-30870000D01*
X12086787Y-31897181D01*
X12361423Y-31789336D01*
X12385015Y-31726480D01*
X12515841Y-31770554D01*
X13416395Y-30870000D01*
X13775605Y-30870000D01*
X14676159Y-31770554D01*
X14932643Y-31684148D01*
X15142458Y-31110664D01*
X15116839Y-30500540D01*
X14932643Y-30055852D01*
X14676159Y-29969446D01*
X13775605Y-30870000D01*
X13416395Y-30870000D01*
X12515841Y-29969446D01*
X12387159Y-30012797D01*
X12361423Y-29950664D01*
X12086787Y-29842819D01*
X11059605Y-30870000D01*
X10700395Y-30870000D01*
X9673213Y-29842819D01*
X9425695Y-29940015D01*
X9311041Y-29663213D01*
X9852819Y-29663213D01*
X10880000Y-30690395D01*
X11780553Y-29789841D01*
X12695446Y-29789841D01*
X13596000Y-30690395D01*
X14496554Y-29789841D01*
X14410148Y-29533357D01*
X13836664Y-29323542D01*
X13226540Y-29349161D01*
X12781852Y-29533357D01*
X12695446Y-29789841D01*
X11780553Y-29789841D01*
X11907181Y-29663213D01*
X11799336Y-29388577D01*
X11162440Y-29149529D01*
X10482546Y-29172407D01*
X9960664Y-29388577D01*
X9852819Y-29663213D01*
X9311041Y-29663213D01*
X9309966Y-29660620D01*
X8709380Y-29060034D01*
X7924678Y-28735000D01*
X7075322Y-28735000D01*
X6290620Y-29060034D01*
X5690034Y-29660620D01*
X5365000Y-30445322D01*
X4254984Y-30445322D01*
X4029668Y-29901363D01*
X3548637Y-29420332D01*
X2920140Y-29160000D01*
X2239860Y-29160000D01*
X1685000Y-29389831D01*
X1685000Y-20285169D01*
X2239860Y-20515000D01*
X2920140Y-20515000D01*
X3548637Y-20254668D01*
X4029668Y-19773637D01*
X4290000Y-19145140D01*
X4290000Y-18464860D01*
X4254984Y-18380322D01*
X5365000Y-18380322D01*
X5365000Y-19229678D01*
X5690034Y-20014380D01*
X6290620Y-20614966D01*
X7075322Y-20940000D01*
X7924678Y-20940000D01*
X8709380Y-20614966D01*
X9309966Y-20014380D01*
X9311040Y-20011787D01*
X9852819Y-20011787D01*
X9960664Y-20286423D01*
X10597560Y-20525471D01*
X11277454Y-20502593D01*
X11799336Y-20286423D01*
X11907181Y-20011787D01*
X11780554Y-19885159D01*
X12695446Y-19885159D01*
X12781852Y-20141643D01*
X13355336Y-20351458D01*
X13965460Y-20325839D01*
X14410148Y-20141643D01*
X14496554Y-19885159D01*
X13596000Y-18984605D01*
X12695446Y-19885159D01*
X11780554Y-19885159D01*
X10880000Y-18984605D01*
X9852819Y-20011787D01*
X9311040Y-20011787D01*
X9425695Y-19734985D01*
X9673213Y-19832181D01*
X10700395Y-18805000D01*
X11059605Y-18805000D01*
X12086787Y-19832181D01*
X12361423Y-19724336D01*
X12385015Y-19661480D01*
X12515841Y-19705554D01*
X13416395Y-18805000D01*
X13775605Y-18805000D01*
X14676159Y-19705554D01*
X14932643Y-19619148D01*
X15142458Y-19045664D01*
X15116839Y-18435540D01*
X14932643Y-17990852D01*
X14676159Y-17904446D01*
X13775605Y-18805000D01*
X13416395Y-18805000D01*
X12515841Y-17904446D01*
X12387159Y-17947797D01*
X12361423Y-17885664D01*
X12086787Y-17777819D01*
X11059605Y-18805000D01*
X10700395Y-18805000D01*
X9673213Y-17777819D01*
X9425695Y-17875015D01*
X9311041Y-17598213D01*
X9852819Y-17598213D01*
X10880000Y-18625395D01*
X11780553Y-17724841D01*
X12695446Y-17724841D01*
X13596000Y-18625395D01*
X14496554Y-17724841D01*
X14410148Y-17468357D01*
X13836664Y-17258542D01*
X13226540Y-17284161D01*
X12781852Y-17468357D01*
X12695446Y-17724841D01*
X11780553Y-17724841D01*
X11907181Y-17598213D01*
X11799336Y-17323577D01*
X11162440Y-17084529D01*
X10482546Y-17107407D01*
X9960664Y-17323577D01*
X9852819Y-17598213D01*
X9311041Y-17598213D01*
X9309966Y-17595620D01*
X8709380Y-16995034D01*
X7924678Y-16670000D01*
X7075322Y-16670000D01*
X6290620Y-16995034D01*
X5690034Y-17595620D01*
X5365000Y-18380322D01*
X4254984Y-18380322D01*
X4029668Y-17836363D01*
X3548637Y-17355332D01*
X2920140Y-17095000D01*
X2239860Y-17095000D01*
X1685000Y-17324831D01*
X1685000Y-14297047D01*
X1692191Y-14307809D01*
X1902235Y-14448157D01*
X2150000Y-14497440D01*
X3850000Y-14497440D01*
X4097765Y-14448157D01*
X4307809Y-14307809D01*
X4448157Y-14097765D01*
X4468739Y-13994292D01*
X4773076Y-14271645D01*
X5183110Y-14441476D01*
X5413000Y-14320155D01*
X5413000Y-13127000D01*
X5667000Y-13127000D01*
X5667000Y-14320155D01*
X5896890Y-14441476D01*
X6306924Y-14271645D01*
X6735183Y-13881358D01*
X6810000Y-13722046D01*
X6884817Y-13881358D01*
X7313076Y-14271645D01*
X7723110Y-14441476D01*
X7953000Y-14320155D01*
X7953000Y-13127000D01*
X8207000Y-13127000D01*
X8207000Y-14320155D01*
X8436890Y-14441476D01*
X8846924Y-14271645D01*
X9275183Y-13881358D01*
X9350000Y-13722046D01*
X9424817Y-13881358D01*
X9853076Y-14271645D01*
X10263110Y-14441476D01*
X10493000Y-14320155D01*
X10493000Y-13127000D01*
X8207000Y-13127000D01*
X7953000Y-13127000D01*
X5667000Y-13127000D01*
X5413000Y-13127000D01*
X5393000Y-13127000D01*
X5393000Y-12873000D01*
X5413000Y-12873000D01*
X5413000Y-11679845D01*
X5667000Y-11679845D01*
X5667000Y-12873000D01*
X7953000Y-12873000D01*
X7953000Y-11679845D01*
X8207000Y-11679845D01*
X8207000Y-12873000D01*
X10493000Y-12873000D01*
X10493000Y-11679845D01*
X10747000Y-11679845D01*
X10747000Y-12873000D01*
X10767000Y-12873000D01*
X10767000Y-13127000D01*
X10747000Y-13127000D01*
X10747000Y-14320155D01*
X10976890Y-14441476D01*
X11386924Y-14271645D01*
X11815183Y-13881358D01*
X11876157Y-13751522D01*
X12089375Y-14070625D01*
X12580582Y-14398839D01*
X13013744Y-14485000D01*
X13306256Y-14485000D01*
X13739418Y-14398839D01*
X14230625Y-14070625D01*
X14558839Y-13579418D01*
X14674092Y-13000000D01*
X14558839Y-12420582D01*
X14230625Y-11929375D01*
X13739418Y-11601161D01*
X13306256Y-11515000D01*
X13013744Y-11515000D01*
X12580582Y-11601161D01*
X12089375Y-11929375D01*
X11876157Y-12248478D01*
X11815183Y-12118642D01*
X11386924Y-11728355D01*
X10976890Y-11558524D01*
X10747000Y-11679845D01*
X10493000Y-11679845D01*
X10263110Y-11558524D01*
X9853076Y-11728355D01*
X9424817Y-12118642D01*
X9350000Y-12277954D01*
X9275183Y-12118642D01*
X8846924Y-11728355D01*
X8436890Y-11558524D01*
X8207000Y-11679845D01*
X7953000Y-11679845D01*
X7723110Y-11558524D01*
X7313076Y-11728355D01*
X6884817Y-12118642D01*
X6810000Y-12277954D01*
X6735183Y-12118642D01*
X6306924Y-11728355D01*
X5896890Y-11558524D01*
X5667000Y-11679845D01*
X5413000Y-11679845D01*
X5183110Y-11558524D01*
X4773076Y-11728355D01*
X4468739Y-12005708D01*
X4448157Y-11902235D01*
X4307809Y-11692191D01*
X4248810Y-11652769D01*
X5974179Y-9927400D01*
X13720622Y-9927400D01*
X14212577Y-10419356D01*
G36*
X17501843Y-90153365D02*
X17642191Y-90363409D01*
X17852235Y-90503757D01*
X18100000Y-90553040D01*
X19082982Y-90553040D01*
X19725572Y-91195630D01*
X19632440Y-91199541D01*
X19187752Y-91383737D01*
X19101346Y-91640221D01*
X20001900Y-92540775D01*
X20016043Y-92526633D01*
X20195648Y-92706238D01*
X20181505Y-92720380D01*
X21082059Y-93620934D01*
X21197361Y-93582090D01*
X21200590Y-93589887D01*
X21632393Y-94021690D01*
X22196570Y-94255380D01*
X22807230Y-94255380D01*
X23371407Y-94021690D01*
X23751900Y-93641197D01*
X24132393Y-94021690D01*
X24696570Y-94255380D01*
X25307230Y-94255380D01*
X25871407Y-94021690D01*
X26303210Y-93589887D01*
X26343800Y-93491893D01*
X26343801Y-97719020D01*
X22854647Y-101208175D01*
X22841643Y-101216864D01*
X20222224Y-98597446D01*
X20172849Y-98523551D01*
X19880110Y-98327948D01*
X19621965Y-98276600D01*
X19621961Y-98276600D01*
X19534800Y-98259263D01*
X19447639Y-98276600D01*
X17647511Y-98276600D01*
X17604280Y-98233369D01*
X17223874Y-98075800D01*
X16812126Y-98075800D01*
X16431720Y-98233369D01*
X16379000Y-98286089D01*
X16379000Y-93800539D01*
X19101346Y-93800539D01*
X19187752Y-94057023D01*
X19761236Y-94266838D01*
X20371360Y-94241219D01*
X20816048Y-94057023D01*
X20902454Y-93800539D01*
X20001900Y-92899985D01*
X19101346Y-93800539D01*
X16379000Y-93800539D01*
X16379000Y-92479716D01*
X18455442Y-92479716D01*
X18481061Y-93089840D01*
X18665257Y-93534528D01*
X18921741Y-93620934D01*
X19822295Y-92720380D01*
X18921741Y-91819826D01*
X18665257Y-91906232D01*
X18455442Y-92479716D01*
X16379000Y-92479716D01*
X16379000Y-92263778D01*
X16714156Y-91928623D01*
X16788049Y-91879249D01*
X16983652Y-91586510D01*
X17035000Y-91328365D01*
X17035000Y-91328361D01*
X17052337Y-91241201D01*
X17035000Y-91154041D01*
X17035000Y-90526187D01*
X17147765Y-90503757D01*
X17357809Y-90363409D01*
X17498157Y-90153365D01*
X17500000Y-90144100D01*
X17501843Y-90153365D01*
X17501843Y-90153365D01*
G37*
X17501843Y-90153365D02*
X17642191Y-90363409D01*
X17852235Y-90503757D01*
X18100000Y-90553040D01*
X19082982Y-90553040D01*
X19725572Y-91195630D01*
X19632440Y-91199541D01*
X19187752Y-91383737D01*
X19101346Y-91640221D01*
X20001900Y-92540775D01*
X20016043Y-92526633D01*
X20195648Y-92706238D01*
X20181505Y-92720380D01*
X21082059Y-93620934D01*
X21197361Y-93582090D01*
X21200590Y-93589887D01*
X21632393Y-94021690D01*
X22196570Y-94255380D01*
X22807230Y-94255380D01*
X23371407Y-94021690D01*
X23751900Y-93641197D01*
X24132393Y-94021690D01*
X24696570Y-94255380D01*
X25307230Y-94255380D01*
X25871407Y-94021690D01*
X26303210Y-93589887D01*
X26343800Y-93491893D01*
X26343801Y-97719020D01*
X22854647Y-101208175D01*
X22841643Y-101216864D01*
X20222224Y-98597446D01*
X20172849Y-98523551D01*
X19880110Y-98327948D01*
X19621965Y-98276600D01*
X19621961Y-98276600D01*
X19534800Y-98259263D01*
X19447639Y-98276600D01*
X17647511Y-98276600D01*
X17604280Y-98233369D01*
X17223874Y-98075800D01*
X16812126Y-98075800D01*
X16431720Y-98233369D01*
X16379000Y-98286089D01*
X16379000Y-93800539D01*
X19101346Y-93800539D01*
X19187752Y-94057023D01*
X19761236Y-94266838D01*
X20371360Y-94241219D01*
X20816048Y-94057023D01*
X20902454Y-93800539D01*
X20001900Y-92899985D01*
X19101346Y-93800539D01*
X16379000Y-93800539D01*
X16379000Y-92479716D01*
X18455442Y-92479716D01*
X18481061Y-93089840D01*
X18665257Y-93534528D01*
X18921741Y-93620934D01*
X19822295Y-92720380D01*
X18921741Y-91819826D01*
X18665257Y-91906232D01*
X18455442Y-92479716D01*
X16379000Y-92479716D01*
X16379000Y-92263778D01*
X16714156Y-91928623D01*
X16788049Y-91879249D01*
X16983652Y-91586510D01*
X17035000Y-91328365D01*
X17035000Y-91328361D01*
X17052337Y-91241201D01*
X17035000Y-91154041D01*
X17035000Y-90526187D01*
X17147765Y-90503757D01*
X17357809Y-90363409D01*
X17498157Y-90153365D01*
X17500000Y-90144100D01*
X17501843Y-90153365D01*
G36*
X17501843Y-74710165D02*
X17642191Y-74920209D01*
X17852235Y-75060557D01*
X18100000Y-75109840D01*
X19600000Y-75109840D01*
X19847765Y-75060557D01*
X19996917Y-74960896D01*
X20228533Y-75192511D01*
X19632440Y-75217541D01*
X19187752Y-75401737D01*
X19101346Y-75658221D01*
X20001900Y-76558775D01*
X20016043Y-76544633D01*
X20195648Y-76724238D01*
X20181505Y-76738380D01*
X21082059Y-77638934D01*
X21197361Y-77600090D01*
X21200590Y-77607887D01*
X21632393Y-78039690D01*
X22196570Y-78273380D01*
X22807230Y-78273380D01*
X23371407Y-78039690D01*
X23751900Y-77659197D01*
X24132393Y-78039690D01*
X24696570Y-78273380D01*
X25307230Y-78273380D01*
X25871407Y-78039690D01*
X25937400Y-77973697D01*
X25937401Y-82021820D01*
X22600647Y-85358575D01*
X22526751Y-85407951D01*
X22331148Y-85700691D01*
X22282603Y-85944746D01*
X22267035Y-85947843D01*
X22056991Y-86088191D01*
X21916643Y-86298235D01*
X21867360Y-86546000D01*
X21867360Y-88046000D01*
X21916643Y-88293765D01*
X22056991Y-88503809D01*
X22267035Y-88644157D01*
X22276300Y-88646000D01*
X22267035Y-88647843D01*
X22056991Y-88788191D01*
X21916643Y-88998235D01*
X21867360Y-89246000D01*
X21867360Y-90746000D01*
X21889275Y-90856176D01*
X20247440Y-89214342D01*
X20247440Y-88605600D01*
X20198157Y-88357835D01*
X20057809Y-88147791D01*
X19847765Y-88007443D01*
X19600000Y-87958160D01*
X18100000Y-87958160D01*
X17852235Y-88007443D01*
X17642191Y-88147791D01*
X17501843Y-88357835D01*
X17500000Y-88367100D01*
X17498157Y-88357835D01*
X17357809Y-88147791D01*
X17147765Y-88007443D01*
X17035000Y-87985013D01*
X17035000Y-87966761D01*
X17052337Y-87879600D01*
X17035000Y-87792439D01*
X17035000Y-87792435D01*
X16990980Y-87571129D01*
X17677222Y-87855380D01*
X18526578Y-87855380D01*
X19311280Y-87530346D01*
X19911866Y-86929760D01*
X20236900Y-86145058D01*
X20236900Y-85295702D01*
X19911866Y-84511000D01*
X19311280Y-83910414D01*
X18526578Y-83585380D01*
X17677222Y-83585380D01*
X16892520Y-83910414D01*
X16291934Y-84511000D01*
X15966900Y-85295702D01*
X15966900Y-86145058D01*
X16178935Y-86656957D01*
X15871000Y-86349022D01*
X15871000Y-84745378D01*
X16714156Y-83902223D01*
X16788049Y-83852849D01*
X16983652Y-83560110D01*
X17035000Y-83301965D01*
X17035000Y-83301961D01*
X17052337Y-83214800D01*
X17035000Y-83127639D01*
X17035000Y-77818539D01*
X19101346Y-77818539D01*
X19187752Y-78075023D01*
X19761236Y-78284838D01*
X20371360Y-78259219D01*
X20816048Y-78075023D01*
X20902454Y-77818539D01*
X20001900Y-76917985D01*
X19101346Y-77818539D01*
X17035000Y-77818539D01*
X17035000Y-76497716D01*
X18455442Y-76497716D01*
X18481061Y-77107840D01*
X18665257Y-77552528D01*
X18921741Y-77638934D01*
X19822295Y-76738380D01*
X18921741Y-75837826D01*
X18665257Y-75924232D01*
X18455442Y-76497716D01*
X17035000Y-76497716D01*
X17035000Y-75082987D01*
X17147765Y-75060557D01*
X17357809Y-74920209D01*
X17498157Y-74710165D01*
X17500000Y-74700900D01*
X17501843Y-74710165D01*
X17501843Y-74710165D01*
G37*
X17501843Y-74710165D02*
X17642191Y-74920209D01*
X17852235Y-75060557D01*
X18100000Y-75109840D01*
X19600000Y-75109840D01*
X19847765Y-75060557D01*
X19996917Y-74960896D01*
X20228533Y-75192511D01*
X19632440Y-75217541D01*
X19187752Y-75401737D01*
X19101346Y-75658221D01*
X20001900Y-76558775D01*
X20016043Y-76544633D01*
X20195648Y-76724238D01*
X20181505Y-76738380D01*
X21082059Y-77638934D01*
X21197361Y-77600090D01*
X21200590Y-77607887D01*
X21632393Y-78039690D01*
X22196570Y-78273380D01*
X22807230Y-78273380D01*
X23371407Y-78039690D01*
X23751900Y-77659197D01*
X24132393Y-78039690D01*
X24696570Y-78273380D01*
X25307230Y-78273380D01*
X25871407Y-78039690D01*
X25937400Y-77973697D01*
X25937401Y-82021820D01*
X22600647Y-85358575D01*
X22526751Y-85407951D01*
X22331148Y-85700691D01*
X22282603Y-85944746D01*
X22267035Y-85947843D01*
X22056991Y-86088191D01*
X21916643Y-86298235D01*
X21867360Y-86546000D01*
X21867360Y-88046000D01*
X21916643Y-88293765D01*
X22056991Y-88503809D01*
X22267035Y-88644157D01*
X22276300Y-88646000D01*
X22267035Y-88647843D01*
X22056991Y-88788191D01*
X21916643Y-88998235D01*
X21867360Y-89246000D01*
X21867360Y-90746000D01*
X21889275Y-90856176D01*
X20247440Y-89214342D01*
X20247440Y-88605600D01*
X20198157Y-88357835D01*
X20057809Y-88147791D01*
X19847765Y-88007443D01*
X19600000Y-87958160D01*
X18100000Y-87958160D01*
X17852235Y-88007443D01*
X17642191Y-88147791D01*
X17501843Y-88357835D01*
X17500000Y-88367100D01*
X17498157Y-88357835D01*
X17357809Y-88147791D01*
X17147765Y-88007443D01*
X17035000Y-87985013D01*
X17035000Y-87966761D01*
X17052337Y-87879600D01*
X17035000Y-87792439D01*
X17035000Y-87792435D01*
X16990980Y-87571129D01*
X17677222Y-87855380D01*
X18526578Y-87855380D01*
X19311280Y-87530346D01*
X19911866Y-86929760D01*
X20236900Y-86145058D01*
X20236900Y-85295702D01*
X19911866Y-84511000D01*
X19311280Y-83910414D01*
X18526578Y-83585380D01*
X17677222Y-83585380D01*
X16892520Y-83910414D01*
X16291934Y-84511000D01*
X15966900Y-85295702D01*
X15966900Y-86145058D01*
X16178935Y-86656957D01*
X15871000Y-86349022D01*
X15871000Y-84745378D01*
X16714156Y-83902223D01*
X16788049Y-83852849D01*
X16983652Y-83560110D01*
X17035000Y-83301965D01*
X17035000Y-83301961D01*
X17052337Y-83214800D01*
X17035000Y-83127639D01*
X17035000Y-77818539D01*
X19101346Y-77818539D01*
X19187752Y-78075023D01*
X19761236Y-78284838D01*
X20371360Y-78259219D01*
X20816048Y-78075023D01*
X20902454Y-77818539D01*
X20001900Y-76917985D01*
X19101346Y-77818539D01*
X17035000Y-77818539D01*
X17035000Y-76497716D01*
X18455442Y-76497716D01*
X18481061Y-77107840D01*
X18665257Y-77552528D01*
X18921741Y-77638934D01*
X19822295Y-76738380D01*
X18921741Y-75837826D01*
X18665257Y-75924232D01*
X18455442Y-76497716D01*
X17035000Y-76497716D01*
X17035000Y-75082987D01*
X17147765Y-75060557D01*
X17357809Y-74920209D01*
X17498157Y-74710165D01*
X17500000Y-74700900D01*
X17501843Y-74710165D01*
G36*
X17501843Y-58708165D02*
X17642191Y-58918209D01*
X17852235Y-59058557D01*
X18100000Y-59107840D01*
X19600000Y-59107840D01*
X19847765Y-59058557D01*
X19996917Y-58958896D01*
X20252624Y-59214603D01*
X20242564Y-59210922D01*
X19632440Y-59236541D01*
X19187752Y-59420737D01*
X19101346Y-59677221D01*
X20001900Y-60577775D01*
X20016043Y-60563633D01*
X20195648Y-60743238D01*
X20181505Y-60757380D01*
X21082059Y-61657934D01*
X21197361Y-61619090D01*
X21200590Y-61626887D01*
X21632393Y-62058690D01*
X22196570Y-62292380D01*
X22807230Y-62292380D01*
X23371407Y-62058690D01*
X23751900Y-61678197D01*
X24132393Y-62058690D01*
X24696570Y-62292380D01*
X25307230Y-62292380D01*
X25871407Y-62058690D01*
X25937400Y-61992697D01*
X25937401Y-66223020D01*
X22803847Y-69356575D01*
X22729951Y-69405951D01*
X22534348Y-69698691D01*
X22485803Y-69942746D01*
X22470235Y-69945843D01*
X22260191Y-70086191D01*
X22119843Y-70296235D01*
X22070560Y-70544000D01*
X22070560Y-72044000D01*
X22119843Y-72291765D01*
X22260191Y-72501809D01*
X22470235Y-72642157D01*
X22479500Y-72644000D01*
X22470235Y-72645843D01*
X22260191Y-72786191D01*
X22119843Y-72996235D01*
X22070560Y-73244000D01*
X22070560Y-74531381D01*
X20787425Y-73248247D01*
X20738049Y-73174351D01*
X20445310Y-72978748D01*
X20201254Y-72930202D01*
X20198157Y-72914635D01*
X20057809Y-72704591D01*
X19847765Y-72564243D01*
X19600000Y-72514960D01*
X18100000Y-72514960D01*
X17852235Y-72564243D01*
X17642191Y-72704591D01*
X17501843Y-72914635D01*
X17500000Y-72923900D01*
X17498157Y-72914635D01*
X17357809Y-72704591D01*
X17147765Y-72564243D01*
X17035000Y-72541813D01*
X17035000Y-72117159D01*
X17052337Y-72029999D01*
X17035000Y-71942839D01*
X17035000Y-71942835D01*
X16983652Y-71684690D01*
X16892561Y-71548363D01*
X17677222Y-71873380D01*
X18526578Y-71873380D01*
X19311280Y-71548346D01*
X19911866Y-70947760D01*
X20236900Y-70163058D01*
X20236900Y-69313702D01*
X19911866Y-68529000D01*
X19311280Y-67928414D01*
X18526578Y-67603380D01*
X17677222Y-67603380D01*
X17014513Y-67877883D01*
X17039400Y-67752765D01*
X17039400Y-67752761D01*
X17056737Y-67665600D01*
X17039400Y-67578439D01*
X17039400Y-61837539D01*
X19101346Y-61837539D01*
X19187752Y-62094023D01*
X19761236Y-62303838D01*
X20371360Y-62278219D01*
X20816048Y-62094023D01*
X20902454Y-61837539D01*
X20001900Y-60936985D01*
X19101346Y-61837539D01*
X17039400Y-61837539D01*
X17039400Y-60516716D01*
X18455442Y-60516716D01*
X18481061Y-61126840D01*
X18665257Y-61571528D01*
X18921741Y-61657934D01*
X19822295Y-60757380D01*
X18921741Y-59856826D01*
X18665257Y-59943232D01*
X18455442Y-60516716D01*
X17039400Y-60516716D01*
X17039400Y-59080112D01*
X17147765Y-59058557D01*
X17357809Y-58918209D01*
X17498157Y-58708165D01*
X17500000Y-58698900D01*
X17501843Y-58708165D01*
X17501843Y-58708165D01*
G37*
X17501843Y-58708165D02*
X17642191Y-58918209D01*
X17852235Y-59058557D01*
X18100000Y-59107840D01*
X19600000Y-59107840D01*
X19847765Y-59058557D01*
X19996917Y-58958896D01*
X20252624Y-59214603D01*
X20242564Y-59210922D01*
X19632440Y-59236541D01*
X19187752Y-59420737D01*
X19101346Y-59677221D01*
X20001900Y-60577775D01*
X20016043Y-60563633D01*
X20195648Y-60743238D01*
X20181505Y-60757380D01*
X21082059Y-61657934D01*
X21197361Y-61619090D01*
X21200590Y-61626887D01*
X21632393Y-62058690D01*
X22196570Y-62292380D01*
X22807230Y-62292380D01*
X23371407Y-62058690D01*
X23751900Y-61678197D01*
X24132393Y-62058690D01*
X24696570Y-62292380D01*
X25307230Y-62292380D01*
X25871407Y-62058690D01*
X25937400Y-61992697D01*
X25937401Y-66223020D01*
X22803847Y-69356575D01*
X22729951Y-69405951D01*
X22534348Y-69698691D01*
X22485803Y-69942746D01*
X22470235Y-69945843D01*
X22260191Y-70086191D01*
X22119843Y-70296235D01*
X22070560Y-70544000D01*
X22070560Y-72044000D01*
X22119843Y-72291765D01*
X22260191Y-72501809D01*
X22470235Y-72642157D01*
X22479500Y-72644000D01*
X22470235Y-72645843D01*
X22260191Y-72786191D01*
X22119843Y-72996235D01*
X22070560Y-73244000D01*
X22070560Y-74531381D01*
X20787425Y-73248247D01*
X20738049Y-73174351D01*
X20445310Y-72978748D01*
X20201254Y-72930202D01*
X20198157Y-72914635D01*
X20057809Y-72704591D01*
X19847765Y-72564243D01*
X19600000Y-72514960D01*
X18100000Y-72514960D01*
X17852235Y-72564243D01*
X17642191Y-72704591D01*
X17501843Y-72914635D01*
X17500000Y-72923900D01*
X17498157Y-72914635D01*
X17357809Y-72704591D01*
X17147765Y-72564243D01*
X17035000Y-72541813D01*
X17035000Y-72117159D01*
X17052337Y-72029999D01*
X17035000Y-71942839D01*
X17035000Y-71942835D01*
X16983652Y-71684690D01*
X16892561Y-71548363D01*
X17677222Y-71873380D01*
X18526578Y-71873380D01*
X19311280Y-71548346D01*
X19911866Y-70947760D01*
X20236900Y-70163058D01*
X20236900Y-69313702D01*
X19911866Y-68529000D01*
X19311280Y-67928414D01*
X18526578Y-67603380D01*
X17677222Y-67603380D01*
X17014513Y-67877883D01*
X17039400Y-67752765D01*
X17039400Y-67752761D01*
X17056737Y-67665600D01*
X17039400Y-67578439D01*
X17039400Y-61837539D01*
X19101346Y-61837539D01*
X19187752Y-62094023D01*
X19761236Y-62303838D01*
X20371360Y-62278219D01*
X20816048Y-62094023D01*
X20902454Y-61837539D01*
X20001900Y-60936985D01*
X19101346Y-61837539D01*
X17039400Y-61837539D01*
X17039400Y-60516716D01*
X18455442Y-60516716D01*
X18481061Y-61126840D01*
X18665257Y-61571528D01*
X18921741Y-61657934D01*
X19822295Y-60757380D01*
X18921741Y-59856826D01*
X18665257Y-59943232D01*
X18455442Y-60516716D01*
X17039400Y-60516716D01*
X17039400Y-59080112D01*
X17147765Y-59058557D01*
X17357809Y-58918209D01*
X17498157Y-58708165D01*
X17500000Y-58698900D01*
X17501843Y-58708165D01*
G36*
X17501843Y-42960165D02*
X17642191Y-43170209D01*
X17852235Y-43310557D01*
X18100000Y-43359840D01*
X19380640Y-43359840D01*
X19187752Y-43439737D01*
X19101346Y-43696221D01*
X20001900Y-44596775D01*
X20016043Y-44582633D01*
X20195648Y-44762238D01*
X20181505Y-44776380D01*
X21082059Y-45676934D01*
X21197361Y-45638090D01*
X21200590Y-45645887D01*
X21632393Y-46077690D01*
X22196570Y-46311380D01*
X22807230Y-46311380D01*
X23371407Y-46077690D01*
X23751900Y-45697197D01*
X24132393Y-46077690D01*
X24696570Y-46311380D01*
X25307230Y-46311380D01*
X25785001Y-46113481D01*
X25785001Y-50424220D01*
X22854647Y-53354575D01*
X22780751Y-53403951D01*
X22585148Y-53696691D01*
X22536603Y-53940746D01*
X22521035Y-53943843D01*
X22310991Y-54084191D01*
X22170643Y-54294235D01*
X22121360Y-54542000D01*
X22121360Y-56042000D01*
X22170643Y-56289765D01*
X22310991Y-56499809D01*
X22521035Y-56640157D01*
X22530300Y-56642000D01*
X22521035Y-56643843D01*
X22310991Y-56784191D01*
X22170643Y-56994235D01*
X22121360Y-57242000D01*
X22121360Y-58580181D01*
X20787425Y-57246247D01*
X20738049Y-57172351D01*
X20445310Y-56976748D01*
X20201254Y-56928202D01*
X20198157Y-56912635D01*
X20057809Y-56702591D01*
X19847765Y-56562243D01*
X19600000Y-56512960D01*
X18100000Y-56512960D01*
X17852235Y-56562243D01*
X17642191Y-56702591D01*
X17501843Y-56912635D01*
X17500000Y-56921900D01*
X17498157Y-56912635D01*
X17357809Y-56702591D01*
X17147765Y-56562243D01*
X17035000Y-56539813D01*
X17035000Y-56115159D01*
X17052337Y-56027999D01*
X17035000Y-55940839D01*
X17035000Y-55940835D01*
X16983652Y-55682690D01*
X16911962Y-55575399D01*
X17677222Y-55892380D01*
X18526578Y-55892380D01*
X19311280Y-55567346D01*
X19911866Y-54966760D01*
X20236900Y-54182058D01*
X20236900Y-53332702D01*
X19911866Y-52548000D01*
X19311280Y-51947414D01*
X18526578Y-51622380D01*
X17677222Y-51622380D01*
X17009960Y-51898769D01*
X17039400Y-51750765D01*
X17039400Y-51750761D01*
X17056737Y-51663600D01*
X17039400Y-51576439D01*
X17039400Y-45856539D01*
X19101346Y-45856539D01*
X19187752Y-46113023D01*
X19761236Y-46322838D01*
X20371360Y-46297219D01*
X20816048Y-46113023D01*
X20902454Y-45856539D01*
X20001900Y-44955985D01*
X19101346Y-45856539D01*
X17039400Y-45856539D01*
X17039400Y-44535716D01*
X18455442Y-44535716D01*
X18481061Y-45145840D01*
X18665257Y-45590528D01*
X18921741Y-45676934D01*
X19822295Y-44776380D01*
X18921741Y-43875826D01*
X18665257Y-43962232D01*
X18455442Y-44535716D01*
X17039400Y-44535716D01*
X17039400Y-43332112D01*
X17147765Y-43310557D01*
X17357809Y-43170209D01*
X17498157Y-42960165D01*
X17500000Y-42950900D01*
X17501843Y-42960165D01*
X17501843Y-42960165D01*
G37*
X17501843Y-42960165D02*
X17642191Y-43170209D01*
X17852235Y-43310557D01*
X18100000Y-43359840D01*
X19380640Y-43359840D01*
X19187752Y-43439737D01*
X19101346Y-43696221D01*
X20001900Y-44596775D01*
X20016043Y-44582633D01*
X20195648Y-44762238D01*
X20181505Y-44776380D01*
X21082059Y-45676934D01*
X21197361Y-45638090D01*
X21200590Y-45645887D01*
X21632393Y-46077690D01*
X22196570Y-46311380D01*
X22807230Y-46311380D01*
X23371407Y-46077690D01*
X23751900Y-45697197D01*
X24132393Y-46077690D01*
X24696570Y-46311380D01*
X25307230Y-46311380D01*
X25785001Y-46113481D01*
X25785001Y-50424220D01*
X22854647Y-53354575D01*
X22780751Y-53403951D01*
X22585148Y-53696691D01*
X22536603Y-53940746D01*
X22521035Y-53943843D01*
X22310991Y-54084191D01*
X22170643Y-54294235D01*
X22121360Y-54542000D01*
X22121360Y-56042000D01*
X22170643Y-56289765D01*
X22310991Y-56499809D01*
X22521035Y-56640157D01*
X22530300Y-56642000D01*
X22521035Y-56643843D01*
X22310991Y-56784191D01*
X22170643Y-56994235D01*
X22121360Y-57242000D01*
X22121360Y-58580181D01*
X20787425Y-57246247D01*
X20738049Y-57172351D01*
X20445310Y-56976748D01*
X20201254Y-56928202D01*
X20198157Y-56912635D01*
X20057809Y-56702591D01*
X19847765Y-56562243D01*
X19600000Y-56512960D01*
X18100000Y-56512960D01*
X17852235Y-56562243D01*
X17642191Y-56702591D01*
X17501843Y-56912635D01*
X17500000Y-56921900D01*
X17498157Y-56912635D01*
X17357809Y-56702591D01*
X17147765Y-56562243D01*
X17035000Y-56539813D01*
X17035000Y-56115159D01*
X17052337Y-56027999D01*
X17035000Y-55940839D01*
X17035000Y-55940835D01*
X16983652Y-55682690D01*
X16911962Y-55575399D01*
X17677222Y-55892380D01*
X18526578Y-55892380D01*
X19311280Y-55567346D01*
X19911866Y-54966760D01*
X20236900Y-54182058D01*
X20236900Y-53332702D01*
X19911866Y-52548000D01*
X19311280Y-51947414D01*
X18526578Y-51622380D01*
X17677222Y-51622380D01*
X17009960Y-51898769D01*
X17039400Y-51750765D01*
X17039400Y-51750761D01*
X17056737Y-51663600D01*
X17039400Y-51576439D01*
X17039400Y-45856539D01*
X19101346Y-45856539D01*
X19187752Y-46113023D01*
X19761236Y-46322838D01*
X20371360Y-46297219D01*
X20816048Y-46113023D01*
X20902454Y-45856539D01*
X20001900Y-44955985D01*
X19101346Y-45856539D01*
X17039400Y-45856539D01*
X17039400Y-44535716D01*
X18455442Y-44535716D01*
X18481061Y-45145840D01*
X18665257Y-45590528D01*
X18921741Y-45676934D01*
X19822295Y-44776380D01*
X18921741Y-43875826D01*
X18665257Y-43962232D01*
X18455442Y-44535716D01*
X17039400Y-44535716D01*
X17039400Y-43332112D01*
X17147765Y-43310557D01*
X17357809Y-43170209D01*
X17498157Y-42960165D01*
X17500000Y-42950900D01*
X17501843Y-42960165D01*
G36*
X17501843Y-27008965D02*
X17642191Y-27219009D01*
X17852235Y-27359357D01*
X18100000Y-27408640D01*
X19308697Y-27408640D01*
X19187752Y-27458737D01*
X19101346Y-27715221D01*
X20001900Y-28615775D01*
X20016043Y-28601633D01*
X20195648Y-28781238D01*
X20181505Y-28795380D01*
X21082059Y-29695934D01*
X21197361Y-29657090D01*
X21200590Y-29664887D01*
X21632393Y-30096690D01*
X22196570Y-30330380D01*
X22807230Y-30330380D01*
X23371407Y-30096690D01*
X23751900Y-29716197D01*
X24132393Y-30096690D01*
X24696570Y-30330380D01*
X25307230Y-30330380D01*
X25871407Y-30096690D01*
X26303210Y-29664887D01*
X26343800Y-29566893D01*
X26343801Y-33507820D01*
X22702247Y-37149375D01*
X22628351Y-37198751D01*
X22432748Y-37491491D01*
X22384203Y-37735546D01*
X22368635Y-37738643D01*
X22158591Y-37878991D01*
X22018243Y-38089035D01*
X21968960Y-38336800D01*
X21968960Y-39836800D01*
X22018243Y-40084565D01*
X22158591Y-40294609D01*
X22368635Y-40434957D01*
X22377900Y-40436800D01*
X22368635Y-40438643D01*
X22158591Y-40578991D01*
X22018243Y-40789035D01*
X21968960Y-41036800D01*
X21968960Y-42536800D01*
X22018243Y-42784565D01*
X22158591Y-42994609D01*
X22368635Y-43134957D01*
X22381401Y-43137496D01*
X22381401Y-43241380D01*
X22218479Y-43241380D01*
X20475345Y-41498247D01*
X20425969Y-41424351D01*
X20222817Y-41288608D01*
X20198157Y-41164635D01*
X20057809Y-40954591D01*
X19847765Y-40814243D01*
X19600000Y-40764960D01*
X18100000Y-40764960D01*
X17852235Y-40814243D01*
X17642191Y-40954591D01*
X17501843Y-41164635D01*
X17500000Y-41173900D01*
X17498157Y-41164635D01*
X17357809Y-40954591D01*
X17147765Y-40814243D01*
X17035000Y-40791813D01*
X17035000Y-40214759D01*
X17052337Y-40127599D01*
X17035000Y-40040439D01*
X17035000Y-40040435D01*
X16983652Y-39782290D01*
X16788049Y-39489551D01*
X16714156Y-39440177D01*
X16277400Y-39003422D01*
X16277400Y-38950672D01*
X16291934Y-38985760D01*
X16892520Y-39586346D01*
X17677222Y-39911380D01*
X18526578Y-39911380D01*
X19311280Y-39586346D01*
X19911866Y-38985760D01*
X20236900Y-38201058D01*
X20236900Y-37351702D01*
X19911866Y-36567000D01*
X19311280Y-35966414D01*
X18526578Y-35641380D01*
X17677222Y-35641380D01*
X17001567Y-35921245D01*
X17035000Y-35753165D01*
X17035000Y-35753161D01*
X17052337Y-35666001D01*
X17035000Y-35578841D01*
X17035000Y-29875539D01*
X19101346Y-29875539D01*
X19187752Y-30132023D01*
X19761236Y-30341838D01*
X20371360Y-30316219D01*
X20816048Y-30132023D01*
X20902454Y-29875539D01*
X20001900Y-28974985D01*
X19101346Y-29875539D01*
X17035000Y-29875539D01*
X17035000Y-28554716D01*
X18455442Y-28554716D01*
X18481061Y-29164840D01*
X18665257Y-29609528D01*
X18921741Y-29695934D01*
X19822295Y-28795380D01*
X18921741Y-27894826D01*
X18665257Y-27981232D01*
X18455442Y-28554716D01*
X17035000Y-28554716D01*
X17035000Y-27381787D01*
X17147765Y-27359357D01*
X17357809Y-27219009D01*
X17498157Y-27008965D01*
X17500000Y-26999700D01*
X17501843Y-27008965D01*
X17501843Y-27008965D01*
G37*
X17501843Y-27008965D02*
X17642191Y-27219009D01*
X17852235Y-27359357D01*
X18100000Y-27408640D01*
X19308697Y-27408640D01*
X19187752Y-27458737D01*
X19101346Y-27715221D01*
X20001900Y-28615775D01*
X20016043Y-28601633D01*
X20195648Y-28781238D01*
X20181505Y-28795380D01*
X21082059Y-29695934D01*
X21197361Y-29657090D01*
X21200590Y-29664887D01*
X21632393Y-30096690D01*
X22196570Y-30330380D01*
X22807230Y-30330380D01*
X23371407Y-30096690D01*
X23751900Y-29716197D01*
X24132393Y-30096690D01*
X24696570Y-30330380D01*
X25307230Y-30330380D01*
X25871407Y-30096690D01*
X26303210Y-29664887D01*
X26343800Y-29566893D01*
X26343801Y-33507820D01*
X22702247Y-37149375D01*
X22628351Y-37198751D01*
X22432748Y-37491491D01*
X22384203Y-37735546D01*
X22368635Y-37738643D01*
X22158591Y-37878991D01*
X22018243Y-38089035D01*
X21968960Y-38336800D01*
X21968960Y-39836800D01*
X22018243Y-40084565D01*
X22158591Y-40294609D01*
X22368635Y-40434957D01*
X22377900Y-40436800D01*
X22368635Y-40438643D01*
X22158591Y-40578991D01*
X22018243Y-40789035D01*
X21968960Y-41036800D01*
X21968960Y-42536800D01*
X22018243Y-42784565D01*
X22158591Y-42994609D01*
X22368635Y-43134957D01*
X22381401Y-43137496D01*
X22381401Y-43241380D01*
X22218479Y-43241380D01*
X20475345Y-41498247D01*
X20425969Y-41424351D01*
X20222817Y-41288608D01*
X20198157Y-41164635D01*
X20057809Y-40954591D01*
X19847765Y-40814243D01*
X19600000Y-40764960D01*
X18100000Y-40764960D01*
X17852235Y-40814243D01*
X17642191Y-40954591D01*
X17501843Y-41164635D01*
X17500000Y-41173900D01*
X17498157Y-41164635D01*
X17357809Y-40954591D01*
X17147765Y-40814243D01*
X17035000Y-40791813D01*
X17035000Y-40214759D01*
X17052337Y-40127599D01*
X17035000Y-40040439D01*
X17035000Y-40040435D01*
X16983652Y-39782290D01*
X16788049Y-39489551D01*
X16714156Y-39440177D01*
X16277400Y-39003422D01*
X16277400Y-38950672D01*
X16291934Y-38985760D01*
X16892520Y-39586346D01*
X17677222Y-39911380D01*
X18526578Y-39911380D01*
X19311280Y-39586346D01*
X19911866Y-38985760D01*
X20236900Y-38201058D01*
X20236900Y-37351702D01*
X19911866Y-36567000D01*
X19311280Y-35966414D01*
X18526578Y-35641380D01*
X17677222Y-35641380D01*
X17001567Y-35921245D01*
X17035000Y-35753165D01*
X17035000Y-35753161D01*
X17052337Y-35666001D01*
X17035000Y-35578841D01*
X17035000Y-29875539D01*
X19101346Y-29875539D01*
X19187752Y-30132023D01*
X19761236Y-30341838D01*
X20371360Y-30316219D01*
X20816048Y-30132023D01*
X20902454Y-29875539D01*
X20001900Y-28974985D01*
X19101346Y-29875539D01*
X17035000Y-29875539D01*
X17035000Y-28554716D01*
X18455442Y-28554716D01*
X18481061Y-29164840D01*
X18665257Y-29609528D01*
X18921741Y-29695934D01*
X19822295Y-28795380D01*
X18921741Y-27894826D01*
X18665257Y-27981232D01*
X18455442Y-28554716D01*
X17035000Y-28554716D01*
X17035000Y-27381787D01*
X17147765Y-27359357D01*
X17357809Y-27219009D01*
X17498157Y-27008965D01*
X17500000Y-26999700D01*
X17501843Y-27008965D01*
G36*
X17501843Y-10752965D02*
X17642191Y-10963009D01*
X17852235Y-11103357D01*
X18100000Y-11152640D01*
X19600000Y-11152640D01*
X19847765Y-11103357D01*
X19996917Y-11003696D01*
X20271863Y-11278641D01*
X20242564Y-11267922D01*
X19632440Y-11293541D01*
X19187752Y-11477737D01*
X19101346Y-11734221D01*
X20001900Y-12634775D01*
X20016043Y-12620633D01*
X20195648Y-12800238D01*
X20181505Y-12814380D01*
X21082059Y-13714934D01*
X21197361Y-13676090D01*
X21200590Y-13683887D01*
X21632393Y-14115690D01*
X22196570Y-14349380D01*
X22807230Y-14349380D01*
X23371407Y-14115690D01*
X23751900Y-13735197D01*
X24132393Y-14115690D01*
X24696570Y-14349380D01*
X25307230Y-14349380D01*
X25871407Y-14115690D01*
X25886601Y-14100496D01*
X25886601Y-17810620D01*
X22651447Y-21045775D01*
X22577551Y-21095151D01*
X22381948Y-21387891D01*
X22333403Y-21631946D01*
X22317835Y-21635043D01*
X22107791Y-21775391D01*
X21967443Y-21985435D01*
X21918160Y-22233200D01*
X21918160Y-23733200D01*
X21967443Y-23980965D01*
X22107791Y-24191009D01*
X22317835Y-24331357D01*
X22327100Y-24333200D01*
X22317835Y-24335043D01*
X22107791Y-24475391D01*
X21967443Y-24685435D01*
X21918160Y-24933200D01*
X21918160Y-26433200D01*
X21967443Y-26680965D01*
X22107791Y-26891009D01*
X22317835Y-27031357D01*
X22330601Y-27033896D01*
X22330601Y-27260380D01*
X22218479Y-27260380D01*
X20505145Y-25547047D01*
X20455769Y-25473151D01*
X20218249Y-25314444D01*
X20198157Y-25213435D01*
X20057809Y-25003391D01*
X19847765Y-24863043D01*
X19600000Y-24813760D01*
X18100000Y-24813760D01*
X17852235Y-24863043D01*
X17642191Y-25003391D01*
X17501843Y-25213435D01*
X17500000Y-25222700D01*
X17498157Y-25213435D01*
X17357809Y-25003391D01*
X17147765Y-24863043D01*
X17035000Y-24840613D01*
X17035000Y-23857159D01*
X17052337Y-23769999D01*
X17035000Y-23682840D01*
X17035000Y-23682835D01*
X17030996Y-23662705D01*
X17677222Y-23930380D01*
X18526578Y-23930380D01*
X19311280Y-23605346D01*
X19911866Y-23004760D01*
X20236900Y-22220058D01*
X20236900Y-21370702D01*
X19911866Y-20586000D01*
X19311280Y-19985414D01*
X18526578Y-19660380D01*
X17677222Y-19660380D01*
X17035000Y-19926397D01*
X17035000Y-13894539D01*
X19101346Y-13894539D01*
X19187752Y-14151023D01*
X19761236Y-14360838D01*
X20371360Y-14335219D01*
X20816048Y-14151023D01*
X20902454Y-13894539D01*
X20001900Y-12993985D01*
X19101346Y-13894539D01*
X17035000Y-13894539D01*
X17035000Y-12573716D01*
X18455442Y-12573716D01*
X18481061Y-13183840D01*
X18665257Y-13628528D01*
X18921741Y-13714934D01*
X19822295Y-12814380D01*
X18921741Y-11913826D01*
X18665257Y-12000232D01*
X18455442Y-12573716D01*
X17035000Y-12573716D01*
X17035000Y-11125787D01*
X17147765Y-11103357D01*
X17357809Y-10963009D01*
X17498157Y-10752965D01*
X17500000Y-10743700D01*
X17501843Y-10752965D01*
X17501843Y-10752965D01*
G37*
X17501843Y-10752965D02*
X17642191Y-10963009D01*
X17852235Y-11103357D01*
X18100000Y-11152640D01*
X19600000Y-11152640D01*
X19847765Y-11103357D01*
X19996917Y-11003696D01*
X20271863Y-11278641D01*
X20242564Y-11267922D01*
X19632440Y-11293541D01*
X19187752Y-11477737D01*
X19101346Y-11734221D01*
X20001900Y-12634775D01*
X20016043Y-12620633D01*
X20195648Y-12800238D01*
X20181505Y-12814380D01*
X21082059Y-13714934D01*
X21197361Y-13676090D01*
X21200590Y-13683887D01*
X21632393Y-14115690D01*
X22196570Y-14349380D01*
X22807230Y-14349380D01*
X23371407Y-14115690D01*
X23751900Y-13735197D01*
X24132393Y-14115690D01*
X24696570Y-14349380D01*
X25307230Y-14349380D01*
X25871407Y-14115690D01*
X25886601Y-14100496D01*
X25886601Y-17810620D01*
X22651447Y-21045775D01*
X22577551Y-21095151D01*
X22381948Y-21387891D01*
X22333403Y-21631946D01*
X22317835Y-21635043D01*
X22107791Y-21775391D01*
X21967443Y-21985435D01*
X21918160Y-22233200D01*
X21918160Y-23733200D01*
X21967443Y-23980965D01*
X22107791Y-24191009D01*
X22317835Y-24331357D01*
X22327100Y-24333200D01*
X22317835Y-24335043D01*
X22107791Y-24475391D01*
X21967443Y-24685435D01*
X21918160Y-24933200D01*
X21918160Y-26433200D01*
X21967443Y-26680965D01*
X22107791Y-26891009D01*
X22317835Y-27031357D01*
X22330601Y-27033896D01*
X22330601Y-27260380D01*
X22218479Y-27260380D01*
X20505145Y-25547047D01*
X20455769Y-25473151D01*
X20218249Y-25314444D01*
X20198157Y-25213435D01*
X20057809Y-25003391D01*
X19847765Y-24863043D01*
X19600000Y-24813760D01*
X18100000Y-24813760D01*
X17852235Y-24863043D01*
X17642191Y-25003391D01*
X17501843Y-25213435D01*
X17500000Y-25222700D01*
X17498157Y-25213435D01*
X17357809Y-25003391D01*
X17147765Y-24863043D01*
X17035000Y-24840613D01*
X17035000Y-23857159D01*
X17052337Y-23769999D01*
X17035000Y-23682840D01*
X17035000Y-23682835D01*
X17030996Y-23662705D01*
X17677222Y-23930380D01*
X18526578Y-23930380D01*
X19311280Y-23605346D01*
X19911866Y-23004760D01*
X20236900Y-22220058D01*
X20236900Y-21370702D01*
X19911866Y-20586000D01*
X19311280Y-19985414D01*
X18526578Y-19660380D01*
X17677222Y-19660380D01*
X17035000Y-19926397D01*
X17035000Y-13894539D01*
X19101346Y-13894539D01*
X19187752Y-14151023D01*
X19761236Y-14360838D01*
X20371360Y-14335219D01*
X20816048Y-14151023D01*
X20902454Y-13894539D01*
X20001900Y-12993985D01*
X19101346Y-13894539D01*
X17035000Y-13894539D01*
X17035000Y-12573716D01*
X18455442Y-12573716D01*
X18481061Y-13183840D01*
X18665257Y-13628528D01*
X18921741Y-13714934D01*
X19822295Y-12814380D01*
X18921741Y-11913826D01*
X18665257Y-12000232D01*
X18455442Y-12573716D01*
X17035000Y-12573716D01*
X17035000Y-11125787D01*
X17147765Y-11103357D01*
X17357809Y-10963009D01*
X17498157Y-10752965D01*
X17500000Y-10743700D01*
X17501843Y-10752965D01*
G36*
X28065000Y-3985244D02*
X27326578Y-3679380D01*
X26477222Y-3679380D01*
X25692520Y-4004414D01*
X25091934Y-4605000D01*
X24766900Y-5389702D01*
X24766900Y-6118266D01*
X24690764Y-6103122D01*
X24666957Y-5983435D01*
X24526609Y-5773391D01*
X24316565Y-5633043D01*
X24068800Y-5583760D01*
X22768800Y-5583760D01*
X22521035Y-5633043D01*
X22310991Y-5773391D01*
X22170643Y-5983435D01*
X22121360Y-6231200D01*
X22121360Y-7731200D01*
X22170643Y-7978965D01*
X22310991Y-8189009D01*
X22521035Y-8329357D01*
X22530300Y-8331200D01*
X22521035Y-8333043D01*
X22310991Y-8473391D01*
X22170643Y-8683435D01*
X22121360Y-8931200D01*
X22121360Y-10431200D01*
X22169476Y-10673097D01*
X20787425Y-9291047D01*
X20738049Y-9217151D01*
X20445310Y-9021548D01*
X20201254Y-8973002D01*
X20198157Y-8957435D01*
X20057809Y-8747391D01*
X19847765Y-8607043D01*
X19600000Y-8557760D01*
X18100000Y-8557760D01*
X17852235Y-8607043D01*
X17642191Y-8747391D01*
X17501843Y-8957435D01*
X17500000Y-8966700D01*
X17498157Y-8957435D01*
X17357809Y-8747391D01*
X17147765Y-8607043D01*
X16900000Y-8557760D01*
X15400000Y-8557760D01*
X15152235Y-8607043D01*
X15003083Y-8706704D01*
X14880707Y-8584329D01*
X14760449Y-8404351D01*
X14467710Y-8208748D01*
X14213361Y-8158155D01*
X14410148Y-8076643D01*
X14496554Y-7820159D01*
X13596000Y-6919605D01*
X12695446Y-7820159D01*
X12781852Y-8076643D01*
X13002584Y-8157400D01*
X11880905Y-8157400D01*
X12329668Y-7708637D01*
X12377213Y-7593852D01*
X12515841Y-7640554D01*
X13416395Y-6740000D01*
X13775605Y-6740000D01*
X14676159Y-7640554D01*
X14932643Y-7554148D01*
X15142458Y-6980664D01*
X15116839Y-6370540D01*
X14932643Y-5925852D01*
X14676159Y-5839446D01*
X13775605Y-6740000D01*
X13416395Y-6740000D01*
X12515841Y-5839446D01*
X12377213Y-5886148D01*
X12329668Y-5771363D01*
X12218146Y-5659841D01*
X12695446Y-5659841D01*
X13596000Y-6560395D01*
X14496554Y-5659841D01*
X14410148Y-5403357D01*
X14372826Y-5389702D01*
X15966900Y-5389702D01*
X15966900Y-6239058D01*
X16291934Y-7023760D01*
X16892520Y-7624346D01*
X17677222Y-7949380D01*
X18526578Y-7949380D01*
X19311280Y-7624346D01*
X19911866Y-7023760D01*
X20236900Y-6239058D01*
X20236900Y-5389702D01*
X19911866Y-4605000D01*
X19311280Y-4004414D01*
X18526578Y-3679380D01*
X17677222Y-3679380D01*
X16892520Y-4004414D01*
X16291934Y-4605000D01*
X15966900Y-5389702D01*
X14372826Y-5389702D01*
X13836664Y-5193542D01*
X13226540Y-5219161D01*
X12781852Y-5403357D01*
X12695446Y-5659841D01*
X12218146Y-5659841D01*
X11848637Y-5290332D01*
X11220140Y-5030000D01*
X10539860Y-5030000D01*
X9911363Y-5290332D01*
X9430332Y-5771363D01*
X9420008Y-5796286D01*
X9309966Y-5530620D01*
X8709380Y-4930034D01*
X7924678Y-4605000D01*
X7075322Y-4605000D01*
X6290620Y-4930034D01*
X5690034Y-5530620D01*
X5365000Y-6315322D01*
X5365000Y-7164678D01*
X5690034Y-7949380D01*
X5898054Y-8157400D01*
X5694759Y-8157400D01*
X5607599Y-8140063D01*
X5520439Y-8157400D01*
X5520435Y-8157400D01*
X5262290Y-8208748D01*
X5262288Y-8208749D01*
X5262289Y-8208749D01*
X5043445Y-8354976D01*
X5043444Y-8354977D01*
X4969551Y-8404351D01*
X4920177Y-8478244D01*
X2435845Y-10962577D01*
X2361952Y-11011951D01*
X2312578Y-11085844D01*
X2312576Y-11085846D01*
X2166348Y-11304691D01*
X2126042Y-11507325D01*
X1902235Y-11551843D01*
X1692191Y-11692191D01*
X1685000Y-11702953D01*
X1685000Y-8220169D01*
X2239860Y-8450000D01*
X2920140Y-8450000D01*
X3548637Y-8189668D01*
X4029668Y-7708637D01*
X4290000Y-7080140D01*
X4290000Y-6399860D01*
X4029668Y-5771363D01*
X3548637Y-5290332D01*
X2920140Y-5030000D01*
X2239860Y-5030000D01*
X1685000Y-5259831D01*
X1685000Y-685000D01*
X28065000Y-685000D01*
X28065000Y-3985244D01*
X28065000Y-3985244D01*
G37*
X28065000Y-3985244D02*
X27326578Y-3679380D01*
X26477222Y-3679380D01*
X25692520Y-4004414D01*
X25091934Y-4605000D01*
X24766900Y-5389702D01*
X24766900Y-6118266D01*
X24690764Y-6103122D01*
X24666957Y-5983435D01*
X24526609Y-5773391D01*
X24316565Y-5633043D01*
X24068800Y-5583760D01*
X22768800Y-5583760D01*
X22521035Y-5633043D01*
X22310991Y-5773391D01*
X22170643Y-5983435D01*
X22121360Y-6231200D01*
X22121360Y-7731200D01*
X22170643Y-7978965D01*
X22310991Y-8189009D01*
X22521035Y-8329357D01*
X22530300Y-8331200D01*
X22521035Y-8333043D01*
X22310991Y-8473391D01*
X22170643Y-8683435D01*
X22121360Y-8931200D01*
X22121360Y-10431200D01*
X22169476Y-10673097D01*
X20787425Y-9291047D01*
X20738049Y-9217151D01*
X20445310Y-9021548D01*
X20201254Y-8973002D01*
X20198157Y-8957435D01*
X20057809Y-8747391D01*
X19847765Y-8607043D01*
X19600000Y-8557760D01*
X18100000Y-8557760D01*
X17852235Y-8607043D01*
X17642191Y-8747391D01*
X17501843Y-8957435D01*
X17500000Y-8966700D01*
X17498157Y-8957435D01*
X17357809Y-8747391D01*
X17147765Y-8607043D01*
X16900000Y-8557760D01*
X15400000Y-8557760D01*
X15152235Y-8607043D01*
X15003083Y-8706704D01*
X14880707Y-8584329D01*
X14760449Y-8404351D01*
X14467710Y-8208748D01*
X14213361Y-8158155D01*
X14410148Y-8076643D01*
X14496554Y-7820159D01*
X13596000Y-6919605D01*
X12695446Y-7820159D01*
X12781852Y-8076643D01*
X13002584Y-8157400D01*
X11880905Y-8157400D01*
X12329668Y-7708637D01*
X12377213Y-7593852D01*
X12515841Y-7640554D01*
X13416395Y-6740000D01*
X13775605Y-6740000D01*
X14676159Y-7640554D01*
X14932643Y-7554148D01*
X15142458Y-6980664D01*
X15116839Y-6370540D01*
X14932643Y-5925852D01*
X14676159Y-5839446D01*
X13775605Y-6740000D01*
X13416395Y-6740000D01*
X12515841Y-5839446D01*
X12377213Y-5886148D01*
X12329668Y-5771363D01*
X12218146Y-5659841D01*
X12695446Y-5659841D01*
X13596000Y-6560395D01*
X14496554Y-5659841D01*
X14410148Y-5403357D01*
X14372826Y-5389702D01*
X15966900Y-5389702D01*
X15966900Y-6239058D01*
X16291934Y-7023760D01*
X16892520Y-7624346D01*
X17677222Y-7949380D01*
X18526578Y-7949380D01*
X19311280Y-7624346D01*
X19911866Y-7023760D01*
X20236900Y-6239058D01*
X20236900Y-5389702D01*
X19911866Y-4605000D01*
X19311280Y-4004414D01*
X18526578Y-3679380D01*
X17677222Y-3679380D01*
X16892520Y-4004414D01*
X16291934Y-4605000D01*
X15966900Y-5389702D01*
X14372826Y-5389702D01*
X13836664Y-5193542D01*
X13226540Y-5219161D01*
X12781852Y-5403357D01*
X12695446Y-5659841D01*
X12218146Y-5659841D01*
X11848637Y-5290332D01*
X11220140Y-5030000D01*
X10539860Y-5030000D01*
X9911363Y-5290332D01*
X9430332Y-5771363D01*
X9420008Y-5796286D01*
X9309966Y-5530620D01*
X8709380Y-4930034D01*
X7924678Y-4605000D01*
X7075322Y-4605000D01*
X6290620Y-4930034D01*
X5690034Y-5530620D01*
X5365000Y-6315322D01*
X5365000Y-7164678D01*
X5690034Y-7949380D01*
X5898054Y-8157400D01*
X5694759Y-8157400D01*
X5607599Y-8140063D01*
X5520439Y-8157400D01*
X5520435Y-8157400D01*
X5262290Y-8208748D01*
X5262288Y-8208749D01*
X5262289Y-8208749D01*
X5043445Y-8354976D01*
X5043444Y-8354977D01*
X4969551Y-8404351D01*
X4920177Y-8478244D01*
X2435845Y-10962577D01*
X2361952Y-11011951D01*
X2312578Y-11085844D01*
X2312576Y-11085846D01*
X2166348Y-11304691D01*
X2126042Y-11507325D01*
X1902235Y-11551843D01*
X1692191Y-11692191D01*
X1685000Y-11702953D01*
X1685000Y-8220169D01*
X2239860Y-8450000D01*
X2920140Y-8450000D01*
X3548637Y-8189668D01*
X4029668Y-7708637D01*
X4290000Y-7080140D01*
X4290000Y-6399860D01*
X4029668Y-5771363D01*
X3548637Y-5290332D01*
X2920140Y-5030000D01*
X2239860Y-5030000D01*
X1685000Y-5259831D01*
X1685000Y-685000D01*
X28065000Y-685000D01*
X28065000Y-3985244D01*
G04 #@! TD*
M02*
