G04 #@! TF.GenerationSoftware,KiCad,Pcbnew,(5.0.0-rc2-47-g52fceb3)*
G04 #@! TF.CreationDate,2018-07-16T10:42:13-05:00*
G04 #@! TF.ProjectId,nearness,6E6561726E6573732E6B696361645F70,rev?*
G04 #@! TF.SameCoordinates,Original*
G04 #@! TF.FileFunction,Soldermask,Top*
G04 #@! TF.FilePolarity,Negative*
%FSLAX46Y46*%
G04 Gerber Fmt 4.6, Leading zero omitted, Abs format (unit mm)*
G04 Created by KiCad (PCBNEW (5.0.0-rc2-47-g52fceb3)) date Monday, July 16, 2018 at 10:42:13 AM*
%MOMM*%
%LPD*%
G01*
G04 APERTURE LIST*
%ADD10C,1.800000*%
%ADD11C,3.000000*%
%ADD12R,1.700000X1.700000*%
%ADD13O,1.700000X1.700000*%
%ADD14C,2.150000*%
G04 APERTURE END LIST*
D10*
G04 #@! TO.C,RV1*
X20001900Y-12814380D03*
X22501900Y-12814380D03*
X25001900Y-12814380D03*
D11*
X18101900Y-5814380D03*
X26901900Y-5814380D03*
G04 #@! TD*
D10*
G04 #@! TO.C,RV2*
X20001900Y-28795380D03*
X22501900Y-28795380D03*
X25001900Y-28795380D03*
D11*
X18101900Y-21795380D03*
X26901900Y-21795380D03*
G04 #@! TD*
D10*
G04 #@! TO.C,RV3*
X20001900Y-44776380D03*
X22501900Y-44776380D03*
X25001900Y-44776380D03*
D11*
X18101900Y-37776380D03*
X26901900Y-37776380D03*
G04 #@! TD*
D10*
G04 #@! TO.C,RV4*
X20001900Y-60757380D03*
X22501900Y-60757380D03*
X25001900Y-60757380D03*
D11*
X18101900Y-53757380D03*
X26901900Y-53757380D03*
G04 #@! TD*
D10*
G04 #@! TO.C,RV5*
X20001900Y-76738380D03*
X22501900Y-76738380D03*
X25001900Y-76738380D03*
D11*
X18101900Y-69738380D03*
X26901900Y-69738380D03*
G04 #@! TD*
D10*
G04 #@! TO.C,RV6*
X20001900Y-92720380D03*
X22501900Y-92720380D03*
X25001900Y-92720380D03*
D11*
X18101900Y-85720380D03*
X26901900Y-85720380D03*
G04 #@! TD*
D10*
G04 #@! TO.C,RV7*
X20001900Y-108681380D03*
X22501900Y-108681380D03*
X25001900Y-108681380D03*
D11*
X18101900Y-101681380D03*
X26901900Y-101681380D03*
G04 #@! TD*
D12*
G04 #@! TO.C,J12*
X3000000Y-97445000D03*
D13*
X5540000Y-97445000D03*
X8080000Y-97445000D03*
X10620000Y-97445000D03*
X13160000Y-97445000D03*
G04 #@! TD*
G04 #@! TO.C,J11*
X13160000Y-13000000D03*
X10620000Y-13000000D03*
X8080000Y-13000000D03*
X5540000Y-13000000D03*
D12*
X3000000Y-13000000D03*
G04 #@! TD*
D11*
G04 #@! TO.C,J6*
X7500000Y-67065000D03*
D14*
X2580000Y-67065000D03*
X10880000Y-67065000D03*
D10*
X13596000Y-67065000D03*
G04 #@! TD*
D11*
G04 #@! TO.C,J5*
X7622000Y-55000000D03*
D14*
X2702000Y-55000000D03*
X11002000Y-55000000D03*
D10*
X13718000Y-55000000D03*
G04 #@! TD*
D11*
G04 #@! TO.C,J4*
X7500000Y-42935000D03*
D14*
X2580000Y-42935000D03*
X10880000Y-42935000D03*
D10*
X13596000Y-42935000D03*
G04 #@! TD*
D11*
G04 #@! TO.C,J3*
X7500000Y-30870000D03*
D14*
X2580000Y-30870000D03*
X10880000Y-30870000D03*
D10*
X13596000Y-30870000D03*
G04 #@! TD*
D11*
G04 #@! TO.C,J2*
X7500000Y-18805000D03*
D14*
X2580000Y-18805000D03*
X10880000Y-18805000D03*
D10*
X13596000Y-18805000D03*
G04 #@! TD*
D11*
G04 #@! TO.C,J1*
X7500000Y-6740000D03*
D14*
X2580000Y-6740000D03*
X10880000Y-6740000D03*
D10*
X13596000Y-6740000D03*
G04 #@! TD*
D11*
G04 #@! TO.C,J7*
X7500000Y-79130000D03*
D14*
X2580000Y-79130000D03*
X10880000Y-79130000D03*
D10*
X13596000Y-79130000D03*
G04 #@! TD*
D11*
G04 #@! TO.C,J8*
X7500000Y-91195000D03*
D14*
X2580000Y-91195000D03*
X10880000Y-91195000D03*
D10*
X13596000Y-91195000D03*
G04 #@! TD*
D11*
G04 #@! TO.C,J9*
X7500000Y-103260000D03*
D14*
X2580000Y-103260000D03*
X10880000Y-103260000D03*
D10*
X13596000Y-103260000D03*
G04 #@! TD*
M02*
