M48
;DRILL file {KiCad (5.0.0-rc2-47-g52fceb3)} date Monday, July 16, 2018 at 10:42:16 AM
;FORMAT={-:-/ absolute / inch / decimal}
FMAT,2
INCH,TZ
T1C0.0157
T2C0.0315
T3C0.0394
T4C0.0453
T5C0.1181
T6C0.0787
%
G90
G05
M72
T1
X0.67Y-3.902
T2
X0.5353Y-3.1154
X0.5353Y-1.6904
X0.5353Y-0.2654
X0.5353Y-4.0654
X0.5401Y-2.1654
X0.5353Y-0.7404
X0.5353Y-3.5904
X0.5353Y-2.6404
X0.5353Y-1.2154
T3
X0.1181Y-3.8364
X0.2181Y-3.8364
X0.3181Y-3.8364
X0.4181Y-3.8364
X0.5181Y-3.8364
X0.7875Y-1.1337
X0.8859Y-1.1337
X0.9843Y-1.1337
X0.7875Y-3.6504
X0.8859Y-3.6504
X0.9843Y-3.6504
X0.7875Y-1.7628
X0.8859Y-1.7628
X0.9843Y-1.7628
X0.7875Y-4.2788
X0.8859Y-4.2788
X0.9843Y-4.2788
X0.7875Y-3.0212
X0.8859Y-3.0212
X0.9843Y-3.0212
X0.1181Y-0.5118
X0.2181Y-0.5118
X0.3181Y-0.5118
X0.4181Y-0.5118
X0.5181Y-0.5118
X0.7875Y-2.392
X0.8859Y-2.392
X0.9843Y-2.392
X0.7875Y-0.5045
X0.8859Y-0.5045
X0.9843Y-0.5045
T4
X0.1016Y-3.1154
X0.4283Y-3.1154
X0.1016Y-0.2654
X0.4283Y-0.2654
X0.1016Y-4.0654
X0.4283Y-4.0654
X0.1064Y-2.1654
X0.4331Y-2.1654
X0.1016Y-3.5904
X0.4283Y-3.5904
X0.1016Y-2.6404
X0.4283Y-2.6404
X0.1016Y-1.2154
X0.4283Y-1.2154
X0.1016Y-1.6904
X0.4283Y-1.6904
X0.1016Y-0.7404
X0.4283Y-0.7404
T5
X0.2953Y-0.2654
X0.2953Y-4.0654
X0.3001Y-2.1654
X0.2953Y-0.7404
X0.2953Y-3.5904
X0.2953Y-2.6404
X0.2953Y-1.2154
X0.2953Y-3.1154
X0.2953Y-1.6904
T6
X0.7127Y-2.7456
X1.0591Y-2.7456
X0.7127Y-2.1164
X1.0591Y-2.1164
X0.7127Y-0.2289
X1.0591Y-0.2289
X0.7127Y-0.8581
X1.0591Y-0.8581
X0.7127Y-3.3748
X1.0591Y-3.3748
X0.7127Y-1.4873
X1.0591Y-1.4873
X0.7127Y-4.0032
X1.0591Y-4.0032
T0
M30
